<svg version="1.1" xmlns="http://www.w3.org/2000/svg" xmlns:xlink="http://www.w3.org/1999/xlink" width="160.69945" height="102.0812" viewBox="0,0,160.69945,102.0812"><g transform="translate(-159.65029,-128.95941)"><g data-paper-data="{&quot;isPaintingLayer&quot;:true}" fill-rule="nonzero" stroke="none" stroke-width="0" stroke-linecap="butt" stroke-linejoin="miter" stroke-miterlimit="10" stroke-dasharray="" stroke-dashoffset="0" style="mix-blend-mode: normal"><path d="M159.65029,227.7403v-95.48052h160.69945v95.48052z" fill="#59ad0d"/><path d="M191.9379,176.7188c-1.57094,0 -2.72225,-1.2735 -2.72225,-2.84445v-6.04113c0,-1.57094 1.2735,-2.84444 2.84444,-2.84444h33.21695v-33.30712c0,-1.57094 1.2735,-2.72225 2.84445,-2.72225h6.04113c1.57094,0 2.84445,1.2735 2.84445,2.84444v42.08652c0,1.57094 -1.2735,2.84445 -2.84445,2.84445h-6.04113c-0.10258,0 -0.20388,-0.00543 -0.30365,-0.01602z" fill="#ffffff"/><path d="M288.06209,183.28121c1.57094,0 2.72226,1.2735 2.72226,2.84445v6.04113c0,1.57094 -1.2735,2.84445 -2.84445,2.84445h-33.21696v33.30711c0,1.57094 -1.2735,2.72226 -2.84445,2.72226h-6.04114c-1.57094,0 -2.84444,-1.2735 -2.84444,-2.84445v-42.08652c0,-1.57094 1.2735,-2.84444 2.84444,-2.84444h6.04114c0.10258,0 0.20389,0.00542 0.30365,0.01601z" fill="#ffffff"/></g></g></svg>