<svg version="1.1" xmlns="http://www.w3.org/2000/svg" xmlns:xlink="http://www.w3.org/1999/xlink" width="160.69945" height="105.89159" viewBox="0,0,160.69945,105.89159"><g transform="translate(-159.65027,-121.84867)"><g data-paper-data="{&quot;isPaintingLayer&quot;:true}" fill-rule="nonzero" stroke="none" stroke-linecap="butt" stroke-linejoin="miter" stroke-miterlimit="10" stroke-dasharray="" stroke-dashoffset="0" style="mix-blend-mode: normal"><path d="M159.65028,227.74026v-95.48052h160.69945v95.48052z" fill="#59ad0d" stroke-width="0"/><g fill="#000000" stroke-width="1"><path d="M182.88853,191.6363v-8.98003c0,-1.41705 1.14893,-2.56572 2.56572,-2.56572h8.98003c1.41679,0 2.56572,1.14867 2.56572,2.56572v8.98003c0,1.41705 -1.14893,2.56572 -2.56572,2.56572h-8.98003c-1.41679,0 -2.56572,-1.14867 -2.56572,-2.56572zM188.01998,189.07058h3.84858v-3.84858h-3.84858z"/><path d="M200.23922,191.6363v-8.98003c0,-1.41705 1.14894,-2.56572 2.56573,-2.56572h8.98002c1.41679,0 2.56572,1.14867 2.56572,2.56572v8.98003c0,1.41705 -1.14893,2.56572 -2.56572,2.56572h-8.98002c-1.41679,0 -2.56573,-1.14867 -2.56573,-2.56572zM205.37067,189.07058h3.84858v-3.84858h-3.84858z"/><path d="M217.58992,191.6363v-8.98003c0,-1.41705 1.14893,-2.56572 2.56572,-2.56572h8.98003c1.41679,0 2.56572,1.14867 2.56572,2.56572v8.98003c0,1.41705 -1.14893,2.56572 -2.56572,2.56572h-8.98003c-1.41679,0 -2.56572,-1.14867 -2.56572,-2.56572zM222.72136,189.07058h3.84859v-3.84858h-3.84859z"/><path d="M200.23922,207.80035v-8.98003c0,-1.41705 1.14894,-2.56572 2.56573,-2.56572h26.33072c1.41679,0 2.56572,1.14867 2.56572,2.56572v8.98003c0,1.41705 -1.14893,2.56572 -2.56572,2.56572h-26.33071c-1.41679,0 -2.56573,-1.14867 -2.56573,-2.56572zM205.37067,205.23462h21.19928v-3.84858h-21.19927z"/><path d="M234.78025,191.6363v-8.98003c0,-1.41705 1.14893,-2.56572 2.56572,-2.56572h8.98003c1.41679,0 2.56572,1.14867 2.56572,2.56572v8.98003c0,1.41705 -1.14893,2.56572 -2.56572,2.56572h-8.98003c-1.41679,0 -2.56572,-1.14867 -2.56572,-2.56572zM239.91169,189.07058h3.84859v-3.84858h-3.84859z"/><path d="M263.03526,191.6363v-8.98003c0,-1.41705 1.14893,-2.56572 2.56572,-2.56572h8.98003c1.41679,0 2.56572,1.14867 2.56572,2.56572v8.98003c0,1.41705 -1.14893,2.56572 -2.56572,2.56572h-8.98003c-1.41679,0 -2.56572,-1.14867 -2.56572,-2.56572zM268.1667,189.07058h3.84858v-3.84858h-3.84858z"/><path d="M280.38595,191.6363v-8.98003c0,-1.41705 1.14893,-2.56572 2.56572,-2.56572h8.98003c1.41679,0 2.56572,1.14867 2.56572,2.56572v8.98003c0,1.41705 -1.14893,2.56572 -2.56572,2.56572h-8.98003c-1.41679,0 -2.56572,-1.14867 -2.56572,-2.56572zM285.5174,189.07058h3.84858v-3.84858h-3.84858z"/><path d="M182.88853,207.80035v-8.98003c0,-1.41705 1.14893,-2.56572 2.56572,-2.56572h8.98003c1.41679,0 2.56572,1.14867 2.56572,2.56572v8.98003c0,1.41705 -1.14893,2.56572 -2.56572,2.56572h-8.98003c-1.41679,0 -2.56572,-1.14867 -2.56572,-2.56572zM188.01998,205.23462h3.84858v-3.84858h-3.84858z"/><path d="M234.78025,207.80035v-8.98003c0,-1.41705 1.14893,-2.56572 2.56572,-2.56572h8.98003c1.41679,0 2.56572,1.14867 2.56572,2.56572v8.98003c0,1.41705 -1.14893,2.56572 -2.56572,2.56572h-8.98003c-1.41679,0 -2.56572,-1.14867 -2.56572,-2.56572zM239.91169,205.23462h3.84859v-3.84858h-3.84859z"/><path d="M263.03526,207.80035v-8.98003c0,-1.41705 1.14893,-2.56572 2.56572,-2.56572h8.98003c1.41679,0 2.56572,1.14867 2.56572,2.56572v8.98003c0,1.41705 -1.14893,2.56572 -2.56572,2.56572h-8.98003c-1.41679,0 -2.56572,-1.14867 -2.56572,-2.56572zM268.1667,205.23462h3.84858v-3.84858h-3.84858z"/><path d="M280.38595,207.80035v-8.98003c0,-1.41705 1.14893,-2.56572 2.56572,-2.56572h8.98003c1.41679,0 2.56572,1.14867 2.56572,2.56572v8.98003c0,1.41705 -1.14893,2.56572 -2.56572,2.56572h-8.98003c-1.41679,0 -2.56572,-1.14867 -2.56572,-2.56572zM285.5174,205.23462h3.84858v-3.84858h-3.84858z"/><path d="M182.88853,175.47225v-8.98003c0,-1.41705 1.14893,-2.56572 2.56572,-2.56572h8.98003c1.41679,0 2.56572,1.14867 2.56572,2.56572v8.98003c0,1.41705 -1.14893,2.56572 -2.56572,2.56572h-8.98003c-1.41679,0 -2.56572,-1.14867 -2.56572,-2.56572zM188.01998,172.90653h3.84858v-3.84859h-3.84858z"/><path d="M200.23922,175.47225v-8.98003c0,-1.41705 1.14894,-2.56572 2.56573,-2.56572h8.98002c1.41679,0 2.56572,1.14867 2.56572,2.56572v8.98003c0,1.41705 -1.14893,2.56572 -2.56572,2.56572h-8.98002c-1.41679,0 -2.56573,-1.14867 -2.56573,-2.56572zM205.37067,172.90653h3.84858v-3.84859h-3.84858z"/><path d="M217.58992,175.47225v-8.98003c0,-1.41705 1.14893,-2.56572 2.56572,-2.56572h8.98003c1.41679,0 2.56572,1.14867 2.56572,2.56572v8.98003c0,1.41705 -1.14893,2.56572 -2.56572,2.56572h-8.98003c-1.41679,0 -2.56572,-1.14867 -2.56572,-2.56572zM222.72136,172.90653h3.84859v-3.84859h-3.84859z"/><path d="M234.78025,175.47225v-8.98003c0,-1.41705 1.14893,-2.56572 2.56572,-2.56572h8.98003c1.41679,0 2.56572,1.14867 2.56572,2.56572v8.98003c0,1.41705 -1.14893,2.56572 -2.56572,2.56572h-8.98003c-1.41679,0 -2.56572,-1.14867 -2.56572,-2.56572zM239.91169,172.90653h3.84859v-3.84859h-3.84859z"/><path d="M263.03526,175.47225v-8.98003c0,-1.41705 1.14893,-2.56572 2.56572,-2.56572h8.98003c1.41679,0 2.56572,1.14867 2.56572,2.56572v8.98003c0,1.41705 -1.14893,2.56572 -2.56572,2.56572h-8.98003c-1.41679,0 -2.56572,-1.14867 -2.56572,-2.56572zM268.1667,172.90653h3.84858v-3.84859h-3.84858z"/><path d="M280.38595,175.47225v-8.98003c0,-1.41705 1.14893,-2.56572 2.56572,-2.56572h8.98003c1.41679,0 2.56572,1.14867 2.56572,2.56572v8.98003c0,1.41705 -1.14893,2.56572 -2.56572,2.56572h-8.98003c-1.41679,0 -2.56572,-1.14867 -2.56572,-2.56572zM285.5174,172.90653h3.84858v-3.84859h-3.84858z"/><path d="M226.76237,127.74983v-3.33544c0,-1.41705 1.14893,-2.56572 2.56572,-2.56572c1.41679,0 2.56572,1.14867 2.56572,2.56572v3.33544c0,1.41705 -1.14893,2.56572 -2.56572,2.56572c-1.41679,0 -2.56572,-1.14867 -2.56572,-2.56572z"/><path d="M303.22087,158.79506v56.70245c0,1.41705 -1.14893,2.56572 -2.56572,2.56572h-123.66778c-1.41679,0 -2.56572,-1.14867 -2.56572,-2.56572v-56.70245c0,-1.41705 1.14893,-2.56572 2.56572,-2.56572h66.70851v-5.90116c0,-3.25385 -2.64705,-5.90116 -5.90116,-5.90116c-4.83049,0 -9.057,-3.09118 -10.5169,-7.69204c-0.42873,-1.35085 0.31867,-2.79305 1.66926,-3.22178c1.35162,-0.42847 2.79305,0.31892 3.22178,1.66952c0.78075,2.46001 3.04192,4.11285 5.62611,4.11285c6.08333,0 11.0326,4.94928 11.0326,11.0326v5.90116h51.82758c1.41679,0 2.56572,1.14867 2.56572,2.56572zM298.08943,161.36078h-118.53633v51.571h118.53633z"/></g></g></g></svg>