<svg version="1.1" xmlns="http://www.w3.org/2000/svg" xmlns:xlink="http://www.w3.org/1999/xlink" width="49.88889" height="49.88889" viewBox="0,0,49.88889,49.88889"><defs><linearGradient x1="528.92065" y1="96.45783" x2="557.86646" y2="96.45783" gradientUnits="userSpaceOnUse" id="color-1"><stop offset="0" stop-color="#ee2a7b"/><stop offset="1" stop-color="#811150"/></linearGradient></defs><g transform="translate(-215.05556,-155.05554)"><g data-paper-data="{&quot;isPaintingLayer&quot;:true}" fill-rule="nonzero" stroke-linecap="butt" stroke-linejoin="miter" stroke-miterlimit="10" stroke-dasharray="" stroke-dashoffset="0" style="mix-blend-mode: normal"><path d="M220.05557,204.94444c-2.76142,0 -5,-2.23858 -5,-5v-39.88889c0,-2.76142 2.23858,-5 5,-5h39.88889c2.76142,0 5,2.23858 5,5v39.88889c0,2.76142 -2.23858,5 -5,5z" fill="#c9ff66" stroke="none" stroke-width="0"/><path d="M243.76231,173.32028c0,0 0.00621,14.69182 0.00621,21.36435c0,1.74786 -1.41712,3.16465 -3.16465,3.16465c-1.74785,0 -3.16439,-1.4168 -3.16439,-3.16465c0,-5.59417 -0.00654,-21.34718 -0.00654,-21.34718c0,0 -1.07029,1.0576 -5.94895,5.93659c-1.23601,1.23595 -3.2395,1.23595 -4.47519,0c-1.23569,-1.23658 -1.23601,-3.23982 0,-4.47551c3.95559,-3.95616 11.35375,-11.3535 11.35375,-11.3535c1.23601,-1.23569 3.23976,-1.23569 4.47519,0c0,0 6.38396,6.3837 11.26295,11.26262c1.23658,1.23658 1.23658,3.24007 0,4.4755c-1.23575,1.23601 -3.23982,1.23601 -4.47461,0c-3.95738,-3.95623 -5.86378,-5.86289 -5.86378,-5.86289z" fill="url(#color-1)" stroke="#ffffff" stroke-width="1.15823"/></g></g></svg>