<svg version="1.1" xmlns="http://www.w3.org/2000/svg" xmlns:xlink="http://www.w3.org/1999/xlink" width="115.32549" height="96.28396" viewBox="0,0,115.32549,96.28396"><g transform="translate(-182.33726,-131.4563)"><g data-paper-data="{&quot;isPaintingLayer&quot;:true}" fill-rule="nonzero" stroke-linecap="butt" stroke-linejoin="miter" stroke-dasharray="" stroke-dashoffset="0" style="mix-blend-mode: normal"><path d="M182.33727,227.74026v-95.48052h115.32549v95.48052z" fill="#59ad0d" stroke="none" stroke-width="0" stroke-miterlimit="10"/><g><path d="M213.54133,156.85908c0,0 0.00721,-0.11192 0.16622,-0.11192c0.95693,0 10.07411,0 10.07411,0c2.47531,-2.58807 6.27275,-3.41674 9.60113,-2.09492c3.32837,1.32182 5.52293,4.52997 5.5482,8.11114c0.84541,5.42101 1.29829,10.8961 1.35505,16.38234c0,3.27916 -1.35502,5.37926 -3.94312,5.90773c-0.48601,0.09963 -0.98098,0.14975 -1.47709,0.14916c-2.39628,0.05056 -4.52648,-1.51783 -5.18968,-3.82108c-0.52846,-1.50408 -1.47687,-3.56402 -2.05953,-4.7971c-3.0631,1.38523 -6.63541,-0.32297 -7.47975,-3.57699h-3.06234c-0.84286,3.26236 -4.4266,4.97292 -7.4933,3.57699c-0.58266,1.24663 -1.53141,3.30657 -2.05987,4.7971c-0.66191,2.29829 -2.78482,3.86542 -5.17612,3.82108c-0.49158,-0.0005 -0.98163,-0.05054 -1.4632,-0.14916c-2.60165,-0.48781 -3.95667,-2.62857 -3.95667,-5.90773c0.05677,-5.48625 0.50932,-10.96133 1.35472,-16.38234c0.02528,-3.58115 2.21983,-6.78931 5.5482,-8.11113c1.04011,-0.41307 2.12584,-0.61611 3.20291,-0.62115c2.36956,-0.01101 4.69644,0.93676 6.39822,2.71607z" fill="none" stroke-opacity="0.14902" stroke="#000000" stroke-width="10" stroke-miterlimit="10"/><path d="M218.60571,158.5792v-13.24986c0,0 0.10193,-3.87304 3.05766,-3.87304c2.95574,0 3.48317,2.43788 3.50719,3.35724c0.02403,0.91936 0.04805,1.83872 0.07206,2.75808c0.02403,0.91936 1.12113,2.29325 2.85381,2.29325c1.73267,0 3.09988,-0.69234 3.05767,-2.49708c-0.04059,-1.73519 -0.10193,-11.37081 -0.10193,-11.37081" fill="none" stroke-opacity="0.14902" stroke="#000000" stroke-width="20" stroke-miterlimit="4"/><path d="M213.42942,156.74717h10.35225c2.47531,-2.58807 6.27275,-3.41674 9.60113,-2.09492c3.32837,1.32182 5.52293,4.52997 5.5482,8.11114c0.84541,5.42101 1.29829,10.8961 1.35505,16.38234c0,3.27916 -1.35502,5.37926 -3.94312,5.90773c-0.48601,0.09963 -0.98098,0.14975 -1.47709,0.14916c-2.39628,0.05056 -4.52648,-1.51783 -5.18968,-3.82108c-0.52846,-1.50408 -1.47687,-3.56402 -2.05953,-4.7971c-3.0631,1.38523 -6.63541,-0.32297 -7.47975,-3.57699h-3.06234c-0.84286,3.26236 -4.4266,4.97292 -7.4933,3.57699c-0.58266,1.24663 -1.53141,3.30657 -2.05987,4.7971c-0.66191,2.29829 -2.78482,3.86542 -5.17612,3.82108c-0.49158,-0.0005 -0.98163,-0.05054 -1.4632,-0.14916c-2.60165,-0.48781 -3.95667,-2.62857 -3.95667,-5.90773c0.05677,-5.48625 0.50932,-10.96133 1.35472,-16.38234c0.02528,-3.58115 2.21983,-6.78931 5.5482,-8.11113c1.04011,-0.41307 2.12584,-0.61611 3.20291,-0.62115c2.36956,-0.01101 4.69644,0.93676 6.39822,2.71607z" fill="#ffffff" stroke="none" stroke-width="9.34454" stroke-miterlimit="10"/><path d="M218.60571,158.5792v-13.24986c0,0 0.10193,-3.87304 3.05766,-3.87304c2.95574,0 3.48317,2.43788 3.50719,3.35724c0.02403,0.91936 0.04805,1.83872 0.07206,2.75808c0.02403,0.91936 1.12113,2.29325 2.85381,2.29325c1.73267,0 3.09988,-0.69234 3.05767,-2.49708c-0.04059,-1.73519 -0.10193,-11.37081 -0.10193,-11.37081" fill="none" stroke="#fdffff" stroke-width="8.5" stroke-miterlimit="4"/><path d="M228.7923,157.24359c0.44548,-0.38607 1.03659,-0.55971 1.62009,-0.47591c1.05519,0.15194 1.81368,1.09333 1.73769,2.15669c-0.076,1.06336 -0.96069,1.88732 -2.02675,1.88762c-1.12244,-0.00007 -2.03235,-0.90997 -2.03241,-2.03241c0,-0.58949 0.2559,-1.14993 0.70138,-1.53599zM205.05534,158.1022h4.06516v2.70978h2.7101v4.06515h-2.7101v2.7101h-4.06516v-2.7101h-2.7101v-4.06515h2.7101zM230.80065,158.7799c0.00009,-0.37418 -0.30316,-0.67758 -0.67734,-0.67768c-0.17969,-0.00005 -0.35204,0.07129 -0.47913,0.19831c-0.12709,0.12703 -0.19851,0.29935 -0.19856,0.47904c-0.00008,0.37418 0.30318,0.67758 0.67735,0.67767c0.37418,0.00008 0.67758,-0.30317 0.67767,-0.67734zM206.4104,159.45694v2.7101h-2.7101v1.35505h2.7101v2.7101h1.35505v-2.7101h2.7101v-1.35505h-2.7101v-2.7101zM224.72724,161.3086c0.44555,-0.38608 1.03677,-0.55967 1.62032,-0.47576c1.05525,0.15196 1.81377,1.09344 1.73766,2.15686c-0.0761,1.06342 -0.96093,1.88732 -2.02707,1.88747c-1.12244,-0.00007 -2.03235,-0.90997 -2.03241,-2.03241c-0.00002,-0.58956 0.25595,-1.15006 0.7015,-1.53614zM232.85723,161.3086c0.44555,-0.38608 1.03677,-0.55967 1.62032,-0.47576c1.05519,0.15194 1.81367,1.09333 1.73767,2.15669c-0.076,1.06336 -0.96067,1.88731 -2.02675,1.88762c-0.53909,0.00005 -1.0561,-0.21404 -1.43731,-0.59521c-0.38122,-0.38116 -0.59541,-0.89814 -0.59544,-1.43721c-0.00002,-0.58956 0.25595,-1.15006 0.7015,-1.53614zM226.73582,162.84438c-0.00009,-0.37418 -0.30348,-0.67743 -0.67767,-0.67735c-0.17969,0.00004 -0.35202,0.07147 -0.47904,0.19856c-0.12703,0.12709 -0.19836,0.29945 -0.19831,0.47913c0.00009,0.37418 0.30352,0.67743 0.67768,0.67734c0.37418,-0.00009 0.67743,-0.30351 0.67734,-0.67768zM234.18848,162.16705c-0.17975,-0.00005 -0.35215,0.07133 -0.47926,0.19844c-0.1271,0.1271 -0.19849,0.29951 -0.19844,0.47926c0.00009,0.37414 0.30344,0.67736 0.67757,0.67734c0.37414,-0.00004 0.67742,-0.30332 0.67744,-0.67744c0.00004,-0.37414 -0.3032,-0.67747 -0.67734,-0.67758zM228.79241,165.3738c0.44545,-0.38599 1.03654,-0.5596 1.61998,-0.4758c1.05519,0.15194 1.81367,1.09333 1.73767,2.15668c-0.076,1.06335 -0.96066,1.88731 -2.02674,1.88762c-0.53907,-0.00004 -1.05607,-0.21422 -1.43721,-0.59543c-0.38116,-0.38122 -0.59525,-0.89824 -0.59521,-1.43731c0.00009,-0.58943 0.25604,-1.14978 0.70151,-1.53577zM230.80065,166.90988c0.00009,-0.37418 -0.30316,-0.67758 -0.67734,-0.67768c-0.17969,-0.00005 -0.35204,0.07129 -0.47913,0.19833c-0.12709,0.12703 -0.19851,0.29935 -0.19856,0.47904c-0.00008,0.37418 0.30318,0.67758 0.67735,0.67767c0.37418,0.00008 0.67758,-0.30317 0.67767,-0.67734zM209.32666,170.61506c0.41956,-1.01266 1.40781,-1.67287 2.50395,-1.67276c1.49664,0.00015 2.70981,1.21348 2.70978,2.7101c-0.00002,1.09613 -0.66034,2.08432 -1.67305,2.50375c-1.01272,0.41942 -2.17836,0.18751 -2.9534,-0.58762c-0.77504,-0.77512 -1.00682,-1.94081 -0.58726,-2.95347zM222.67081,171.65238c-0.00001,-1.49671 1.21329,-2.71003 2.71,-2.71007c0.71877,-0.00001 1.4081,0.28551 1.91635,0.79375c0.50824,0.50824 0.79377,1.19758 0.79377,1.91635c-0.00004,1.49671 -1.21336,2.71001 -2.71007,2.71c-1.49671,-0.00001 -2.71002,-1.21333 -2.71003,-2.71003zM212.75554,170.66191c-0.27443,-0.25631 -0.6429,-0.38725 -1.01753,-0.36157c-0.73022,0.04798 -1.29042,0.66707 -1.2654,1.39845c0.02502,0.73136 0.62622,1.31073 1.35801,1.30869c0.35938,0 0.70405,-0.14275 0.95818,-0.39687c0.25412,-0.25413 0.39687,-0.5988 0.39687,-0.95818c0.00006,-0.37551 -0.1557,-0.73419 -0.43013,-0.99051zM226.30573,170.66191c-0.27443,-0.25631 -0.6429,-0.38725 -1.01753,-0.36157c-0.73021,0.04798 -1.29042,0.66707 -1.2654,1.39843c0.02502,0.73136 0.62622,1.31073 1.35801,1.30869c0.35938,0 0.70405,-0.14276 0.95818,-0.39687c0.25412,-0.25413 0.39687,-0.5988 0.39687,-0.95818c0.00006,-0.37551 -0.1557,-0.73419 -0.43013,-0.99051z" fill="#00b745" stroke="none" stroke-width="9.34454" stroke-miterlimit="10"/><path d="M234.87523,162.84463c-0.00004,0.37414 -0.31272,0.68684 -0.68687,0.68687c-0.37414,0.00004 -0.68688,-0.31262 -0.687,-0.68674c-0.00005,-0.17975 0.07409,-0.35881 0.20119,-0.48591c0.1271,-0.1271 0.30616,-0.20124 0.48591,-0.2012c0.37414,0.00009 0.68679,0.31286 0.68674,0.687z" data-paper-data="{&quot;noHover&quot;:false,&quot;origItem&quot;:[&quot;Path&quot;,{&quot;applyMatrix&quot;:true,&quot;segments&quot;:[[[357.74897,136.43652],[1.98674,0.00053],[-0.95452,-0.00025]],[[355.20399,137.49029],[0.67495,-0.67495],[-0.67494,0.67496]],[[354.15023,140.03527],[-0.00025,-0.95452],[0.00054,1.98675]],[[357.74833,143.63209],[-1.98675,0.00017],[1.98676,-0.00018]],[[361.34579,140.03463],[-0.00017,1.98674],[0.00018,-1.98675]]],&quot;closed&quot;:true,&quot;fillColor&quot;:[1,1,1],&quot;strokeWidth&quot;:9.34454}]}" fill="#ffffff" stroke="#ffffff" stroke-width="1.5" stroke-miterlimit="10"/><path d="M230.81008,158.7799c-0.00009,0.37418 -0.31291,0.68685 -0.68709,0.68674c-0.37418,-0.00008 -0.68685,-0.3129 -0.68677,-0.68708c0.00004,-0.17969 0.07422,-0.35866 0.20131,-0.48569c0.12709,-0.12703 0.3061,-0.20113 0.4858,-0.20108c0.37418,0.00009 0.68684,0.31292 0.68674,0.68709z" data-paper-data="{&quot;noHover&quot;:false,&quot;origItem&quot;:[&quot;Path&quot;,{&quot;applyMatrix&quot;:true,&quot;segments&quot;:[[[339.75865,118.44983],[0,0],[0.00049,-1.98698]],[[336.16182,114.85115],[1.98699,0.00054],[-0.95421,-0.00025]],[[333.61748,115.90429],[0.6749,-0.67457],[-0.67491,0.67456]],[[332.56309,118.44812],[0.00021,-0.95421],[-0.00045,1.98698]],[[336.16001,122.04671],[-1.98699,-0.00047],[1.98698,0.00047]],[[339.75864,118.44983],[-0.00051,1.98698],[0,0]]],&quot;closed&quot;:true,&quot;fillColor&quot;:[1,1,1],&quot;strokeWidth&quot;:9.34454}]}" fill="#ffffff" stroke="#ffffff" stroke-width="1.5" stroke-miterlimit="10"/><path d="M226.74525,162.84438c0.00009,0.37418 -0.31258,0.687 -0.68674,0.68709c-0.37418,0.00009 -0.68701,-0.31257 -0.6871,-0.68674c-0.00005,-0.17969 0.07404,-0.3587 0.20108,-0.4858c0.12703,-0.12709 0.30601,-0.20127 0.48569,-0.20131c0.37418,-0.00008 0.687,0.3126 0.68708,0.68677z" data-paper-data="{&quot;noHover&quot;:false,&quot;origItem&quot;:[&quot;Path&quot;,{&quot;applyMatrix&quot;:true,&quot;segments&quot;:[[[318.17325,140.0334],[0,0],[-0.00048,-1.98699]],[[314.57466,136.43648],[1.98699,-0.00045],[-0.95421,0.00021]],[[312.03083,137.49088],[0.67457,-0.6749],[-0.67457,0.6749]],[[310.9777,140.03523],[-0.00025,-0.95421],[0.00054,1.98698]],[[314.5764,143.63205],[-1.98699,0.00051],[1.98698,-0.00051]],[[318.17326,140.0334],[0.00048,1.98699],[0,0]]],&quot;closed&quot;:true,&quot;fillColor&quot;:[1,1,1],&quot;strokeWidth&quot;:9.34454}]}" fill="#ffffff" stroke="#ffffff" stroke-width="1.5" stroke-miterlimit="10"/><path d="M230.81008,166.90988c-0.00009,0.37418 -0.31291,0.68685 -0.68709,0.68674c-0.37418,-0.00008 -0.68685,-0.3129 -0.68677,-0.68708c0.00004,-0.17969 0.07422,-0.35867 0.20131,-0.48569c0.12709,-0.12703 0.3061,-0.20113 0.4858,-0.20108c0.37418,0.00009 0.68684,0.31292 0.68674,0.6871z" data-paper-data="{&quot;noHover&quot;:false,&quot;origItem&quot;:[&quot;Path&quot;,{&quot;applyMatrix&quot;:true,&quot;segments&quot;:[[[339.75865,161.62233],[0,0],[0.00049,-1.98699]],[[336.16182,158.02363],[1.98699,0.00053],[-0.95421,-0.00026]],[[333.61748,159.07678],[0.6749,-0.67456],[-0.67491,0.67455]],[[332.56309,161.6206],[0.00021,-0.95421],[-0.00045,1.98698]],[[336.16001,165.21919],[-1.98699,-0.00048],[1.98698,0.00047]],[[339.75864,161.62231],[-0.00051,1.98699],[0,0]]],&quot;closed&quot;:true,&quot;fillColor&quot;:[1,1,1],&quot;strokeWidth&quot;:9.34454}]}" fill="#ffffff" stroke="#ffffff" stroke-width="1.5" stroke-miterlimit="10"/><path d="M226.31216,170.65503c0.27443,0.2563 0.43317,0.62187 0.43311,0.99738c0,0.35938 -0.1455,0.71071 -0.39963,0.96482c-0.25412,0.25412 -0.60544,0.39964 -0.96482,0.39964c-0.73178,0.00204 -1.34241,-0.58642 -1.36743,-1.31778c-0.02502,-0.73136 0.54397,-1.36018 1.27418,-1.40815c0.37462,-0.02567 0.75017,0.10778 1.02459,0.36409z" data-paper-data="{&quot;noHover&quot;:false,&quot;origItem&quot;:[&quot;Path&quot;,{&quot;applyMatrix&quot;:true,&quot;segments&quot;:[[[315.88931,181.54666],[0,0],[-1.45728,-1.36107]],[[310.48593,179.62662],[1.98937,-0.13633],[-3.87765,0.25476]],[[303.7663,187.05271],[-0.13287,-3.88375],[0.13287,3.88375]],[[310.97772,194.00223],[-3.88601,0.01083],[1.90844,0.00004]],[[316.06591,191.8947],[-1.34946,1.34946],[1.34946,-1.34947]],[[318.17342,186.8065],[0.00004,1.90845],[0.00032,-1.99402]],[[315.88931,181.54665],[1.45729,1.36106],[0,0]]],&quot;closed&quot;:true,&quot;fillColor&quot;:[1,1,1],&quot;strokeWidth&quot;:9.34454}]}" fill="#ffffff" stroke="none" stroke-width="4.67227" stroke-miterlimit="10"/><path d="M212.76196,170.65504c0.27443,0.2563 0.43317,0.62187 0.43311,0.99738c0.00001,0.35938 -0.1455,0.71071 -0.39963,0.96482c-0.25412,0.25412 -0.60544,0.39964 -0.96482,0.39964c-0.73178,0.00204 -1.34241,-0.58642 -1.36743,-1.31778c-0.02502,-0.73136 0.54397,-1.36018 1.27418,-1.40815c0.37462,-0.02567 0.75017,0.10778 1.02459,0.36409z" data-paper-data="{&quot;noHover&quot;:false,&quot;origItem&quot;:[&quot;Path&quot;,{&quot;applyMatrix&quot;:true,&quot;segments&quot;:[[[243.93392,181.54665],[0,0],[-1.45728,-1.36107]],[[238.53054,179.62661],[1.98936,-0.13632],[-3.87766,0.25477]],[[231.81091,187.05271],[-0.13287,-3.88375],[0.13287,3.88375]],[[239.02232,194.00223],[-3.88601,0.01083],[1.90844,0.00004]],[[244.11051,191.89471],[-1.34946,1.34946],[1.34945,-1.34947]],[[246.21802,186.8065],[0.00005,1.90845],[0.00032,-1.99402]],[[243.93391,181.54666],[1.45729,1.36106],[0,0]]],&quot;closed&quot;:true,&quot;fillColor&quot;:[1,1,1],&quot;strokeWidth&quot;:9.34454}]}" fill="#ffffff" stroke="none" stroke-width="4.67227" stroke-miterlimit="10"/><path d="M207.76731,159.44771l0.00481,2.71268l2.71268,0.00481v1.35876l-2.71268,0.00481l-0.00481,2.71268h-1.35874l-0.00481,-2.71268l-2.71269,-0.00481v-1.35876l2.71269,-0.00481l0.00481,-2.71268z" data-paper-data="{&quot;noHover&quot;:false,&quot;origItem&quot;:[&quot;Path&quot;,{&quot;applyMatrix&quot;:true,&quot;segments&quot;:[[210.23947,122.04511],[210.23947,136.43653],[195.84803,136.43653],[195.84803,143.63225],[210.23947,143.63225],[210.23947,158.02368],[217.43518,158.02368],[217.43518,143.63225],[231.82661,143.63225],[231.82661,136.43653],[217.43518,136.43653],[217.43518,122.04511]],&quot;closed&quot;:true,&quot;fillColor&quot;:[1,1,1],&quot;strokeWidth&quot;:9.34454}]}" fill="#ffffff" stroke="none" stroke-width="4.67227" stroke-miterlimit="10"/><path d="M220.23777,160.58639c0,0.35149 -0.28491,0.63643 -0.6364,0.63643h-1.99135c-0.35149,0 -0.63643,-0.28494 -0.63643,-0.63643v0c0,-0.35146 0.28493,-0.6364 0.63643,-0.6364h1.99135c0.35149,0 0.6364,0.28493 0.6364,0.6364z" fill="#00b745" stroke="#00b745" stroke-width="1" stroke-miterlimit="10"/></g><g fill="#000000" stroke="none" stroke-width="1" stroke-miterlimit="10"><path d="M229.43666,210.48707v-4.90395c0,-0.77384 0.62743,-1.40113 1.40113,-1.40113h4.90395c0.7737,0 1.40113,0.62728 1.40113,1.40113v4.90395c0,0.77384 -0.62743,1.40113 -1.40113,1.40113h-4.90395c-0.7737,0 -1.40113,-0.62728 -1.40113,-1.40113zM232.23892,209.08594h2.10169v-2.10169h-2.10169z"/><path d="M238.91177,210.48707v-4.90395c0,-0.77384 0.62743,-1.40113 1.40113,-1.40113h4.90395c0.7737,0 1.40113,0.62728 1.40113,1.40113v4.90395c0,0.77384 -0.62743,1.40113 -1.40113,1.40113h-4.90395c-0.7737,0 -1.40113,-0.62728 -1.40113,-1.40113zM241.71404,209.08594h2.10169v-2.10169h-2.10169z"/><path d="M248.38691,210.48707v-4.90395c0,-0.77384 0.62743,-1.40113 1.40113,-1.40113h4.90395c0.7737,0 1.40113,0.62728 1.40113,1.40113v4.90395c0,0.77384 -0.62743,1.40113 -1.40113,1.40113h-4.90395c-0.7737,0 -1.40113,-0.62728 -1.40113,-1.40113zM251.18917,209.08594h2.1017v-2.10169h-2.1017z"/><path d="M238.91177,219.31418v-4.90395c0,-0.77384 0.62743,-1.40113 1.40113,-1.40113h14.37908c0.7737,0 1.40113,0.62728 1.40113,1.40113v4.90395c0,0.77384 -0.62743,1.40113 -1.40113,1.40113h-14.37907c-0.7737,0 -1.40113,-0.62728 -1.40113,-1.40113zM241.71404,217.91305h11.57682v-2.10169h-11.57682z"/><path d="M257.77447,210.48707v-4.90395c0,-0.77384 0.62743,-1.40113 1.40113,-1.40113h4.90395c0.7737,0 1.40113,0.62728 1.40113,1.40113v4.90395c0,0.77384 -0.62743,1.40113 -1.40113,1.40113h-4.90395c-0.7737,0 -1.40113,-0.62728 -1.40113,-1.40113zM260.57672,209.08594h2.1017v-2.10169h-2.1017z"/><path d="M273.20438,210.48707v-4.90395c0,-0.77384 0.62743,-1.40113 1.40113,-1.40113h4.90395c0.7737,0 1.40113,0.62728 1.40113,1.40113v4.90395c0,0.77384 -0.62743,1.40113 -1.40113,1.40113h-4.90395c-0.7737,0 -1.40113,-0.62728 -1.40113,-1.40113zM276.00664,209.08594h2.10169v-2.10169h-2.10169z"/><path d="M282.67951,210.48707v-4.90395c0,-0.77384 0.62743,-1.40113 1.40113,-1.40113h4.90395c0.7737,0 1.40113,0.62728 1.40113,1.40113v4.90395c0,0.77384 -0.62743,1.40113 -1.40113,1.40113h-4.90395c-0.7737,0 -1.40113,-0.62728 -1.40113,-1.40113zM285.48177,209.08594h2.10169v-2.10169h-2.10169z"/><path d="M229.43666,219.31418v-4.90395c0,-0.77384 0.62743,-1.40113 1.40113,-1.40113h4.90395c0.7737,0 1.40113,0.62728 1.40113,1.40113v4.90395c0,0.77384 -0.62743,1.40113 -1.40113,1.40113h-4.90395c-0.7737,0 -1.40113,-0.62728 -1.40113,-1.40113zM232.23892,217.91305h2.10169v-2.10169h-2.10169z"/><path d="M257.77447,219.31418v-4.90395c0,-0.77384 0.62743,-1.40113 1.40113,-1.40113h4.90395c0.7737,0 1.40113,0.62728 1.40113,1.40113v4.90395c0,0.77384 -0.62743,1.40113 -1.40113,1.40113h-4.90395c-0.7737,0 -1.40113,-0.62728 -1.40113,-1.40113zM260.57672,217.91305h2.1017v-2.10169h-2.1017z"/><path d="M273.20438,219.31418v-4.90395c0,-0.77384 0.62743,-1.40113 1.40113,-1.40113h4.90395c0.7737,0 1.40113,0.62728 1.40113,1.40113v4.90395c0,0.77384 -0.62743,1.40113 -1.40113,1.40113h-4.90395c-0.7737,0 -1.40113,-0.62728 -1.40113,-1.40113zM276.00664,217.91305h2.10169v-2.10169h-2.10169z"/><path d="M282.67951,219.31418v-4.90395c0,-0.77384 0.62743,-1.40113 1.40113,-1.40113h4.90395c0.7737,0 1.40113,0.62728 1.40113,1.40113v4.90395c0,0.77384 -0.62743,1.40113 -1.40113,1.40113h-4.90395c-0.7737,0 -1.40113,-0.62728 -1.40113,-1.40113zM285.48177,217.91305h2.10169v-2.10169h-2.10169z"/><path d="M229.43666,201.65997v-4.90395c0,-0.77384 0.62743,-1.40113 1.40113,-1.40113h4.90395c0.7737,0 1.40113,0.62728 1.40113,1.40113v4.90395c0,0.77384 -0.62743,1.40113 -1.40113,1.40113h-4.90395c-0.7737,0 -1.40113,-0.62728 -1.40113,-1.40113zM232.23892,200.25885h2.10169v-2.1017h-2.10169z"/><path d="M238.91177,201.65997v-4.90395c0,-0.77384 0.62743,-1.40113 1.40113,-1.40113h4.90395c0.7737,0 1.40113,0.62728 1.40113,1.40113v4.90395c0,0.77384 -0.62743,1.40113 -1.40113,1.40113h-4.90395c-0.7737,0 -1.40113,-0.62728 -1.40113,-1.40113zM241.71404,200.25885h2.10169v-2.1017h-2.10169z"/><path d="M248.38691,201.65997v-4.90395c0,-0.77384 0.62743,-1.40113 1.40113,-1.40113h4.90395c0.7737,0 1.40113,0.62728 1.40113,1.40113v4.90395c0,0.77384 -0.62743,1.40113 -1.40113,1.40113h-4.90395c-0.7737,0 -1.40113,-0.62728 -1.40113,-1.40113zM251.18917,200.25885h2.1017v-2.1017h-2.1017z"/><path d="M257.77447,201.65997v-4.90395c0,-0.77384 0.62743,-1.40113 1.40113,-1.40113h4.90395c0.7737,0 1.40113,0.62728 1.40113,1.40113v4.90395c0,0.77384 -0.62743,1.40113 -1.40113,1.40113h-4.90395c-0.7737,0 -1.40113,-0.62728 -1.40113,-1.40113zM260.57672,200.25885h2.1017v-2.1017h-2.1017z"/><path d="M273.20438,201.65997v-4.90395c0,-0.77384 0.62743,-1.40113 1.40113,-1.40113h4.90395c0.7737,0 1.40113,0.62728 1.40113,1.40113v4.90395c0,0.77384 -0.62743,1.40113 -1.40113,1.40113h-4.90395c-0.7737,0 -1.40113,-0.62728 -1.40113,-1.40113zM276.00664,200.25885h2.10169v-2.1017h-2.10169z"/><path d="M282.67951,201.65997v-4.90395c0,-0.77384 0.62743,-1.40113 1.40113,-1.40113h4.90395c0.7737,0 1.40113,0.62728 1.40113,1.40113v4.90395c0,0.77384 -0.62743,1.40113 -1.40113,1.40113h-4.90395c-0.7737,0 -1.40113,-0.62728 -1.40113,-1.40113zM285.48177,200.25885h2.10169v-2.1017h-2.10169z"/><path d="M253.39594,175.59899v-1.82146c0,-0.77384 0.62743,-1.40113 1.40113,-1.40113c0.7737,0 1.40113,0.62728 1.40113,1.40113v1.82146c0,0.77384 -0.62743,1.40113 -1.40113,1.40113c-0.7737,0 -1.40113,-0.62728 -1.40113,-1.40113z"/><path d="M295.14955,192.55263v30.96492c0,0.77384 -0.62743,1.40113 -1.40113,1.40113h-67.53436c-0.7737,0 -1.40113,-0.62728 -1.40113,-1.40113v-30.96492c0,-0.77384 0.62743,-1.40113 1.40113,-1.40113h36.42919v-3.2226c0,-1.77691 -1.44554,-3.2226 -3.2226,-3.2226c-2.6379,0 -4.94598,-1.68808 -5.74322,-4.20059c-0.23413,-0.73769 0.17403,-1.52527 0.91157,-1.7594c0.73812,-0.23399 1.52527,0.17416 1.7594,0.91172c0.42637,1.3434 1.66117,2.246 3.07239,2.246c3.32207,0 6.02485,2.70277 6.02485,6.02485v3.2226h28.30278c0.7737,0 1.40113,0.62728 1.40113,1.40113zM292.3473,193.95377h-64.73211v28.16267h64.73211z"/></g></g></g></svg>