<svg version="1.1" xmlns="http://www.w3.org/2000/svg" xmlns:xlink="http://www.w3.org/1999/xlink" width="324.76457" height="45.04505" viewBox="0,0,324.76457,45.04505"><g transform="translate(-77.39759,-157.47747)"><g data-paper-data="{&quot;isPaintingLayer&quot;:true}" fill-rule="nonzero" stroke="none" stroke-width="0" stroke-linecap="butt" stroke-linejoin="miter" stroke-miterlimit="10" stroke-dasharray="" stroke-dashoffset="0" style="mix-blend-mode: normal"><path d="M87.83784,202.52252c-5.52285,0 -10,-4.47715 -10,-10v-25.04505c0,-5.52285 4.47715,-10 10,-10h304.32432c5.52285,0 10,4.47715 10,10v25.04505c0,5.52285 -4.47715,10 -10,10z" fill="#66d7ff"/><path d="M84.91342,202.52253c-4.15088,0 -7.51583,-4.47715 -7.51583,-10v-25.04505c0,-5.52285 3.36495,-10 7.51583,-10h228.7252c4.15088,0 7.51583,4.47715 7.51583,10v25.04505c0,5.52285 -3.36495,10 -7.51583,10z" fill="#99ff66"/></g></g></svg>