<svg version="1.1" xmlns="http://www.w3.org/2000/svg" xmlns:xlink="http://www.w3.org/1999/xlink" width="160.69945" height="109.07433" viewBox="0,0,160.69945,109.07433"><g transform="translate(-159.65029,-122.28852)"><g data-paper-data="{&quot;isPaintingLayer&quot;:true}" fill-rule="nonzero" stroke-linecap="butt" stroke-linejoin="miter" stroke-dasharray="" stroke-dashoffset="0" style="mix-blend-mode: normal"><path d="M159.65029,227.74026v-95.48052h160.69945v95.48052z" fill="#59ad0d" stroke="none" stroke-width="0" stroke-miterlimit="10"/><g><path d="M230.31639,172.29525c0,0 0.01384,-0.21462 0.31876,-0.21462c1.8351,0 19.31884,0 19.31884,0c4.74683,-4.96308 12.02909,-6.5522 18.41182,-4.01738c6.38273,2.53482 10.59118,8.68702 10.63966,15.55451c1.62123,10.39573 2.48969,20.89516 2.59855,31.416c0,6.28836 -2.59848,10.31567 -7.56161,11.32909c-0.93199,0.19105 -1.88121,0.28717 -2.83259,0.28605c-4.59529,0.09696 -8.68031,-2.9107 -9.95212,-7.32757c-1.01341,-2.88433 -2.83216,-6.83463 -3.94952,-9.19925c-5.87404,2.65642 -12.72454,-0.61935 -14.34371,-6.85948h-5.87258c-1.61632,6.25613 -8.48877,9.53645 -14.36972,6.85948c-1.11735,2.39062 -2.93674,6.34091 -3.95015,9.19925c-1.26933,4.40738 -5.34038,7.41262 -9.92611,7.32757c-0.94268,-0.00096 -1.88244,-0.09692 -2.80595,-0.28605c-4.98911,-0.93546 -7.58761,-5.04073 -7.58761,-11.32909c0.10887,-10.52083 0.97671,-21.02026 2.59792,-31.41599c0.04847,-6.86748 4.25692,-13.01969 10.63965,-15.5545c1.9946,-0.79214 4.07667,-1.18152 6.14214,-1.19114c4.54404,-0.02111 9.00624,1.79639 12.26969,5.20852z" fill="none" stroke-opacity="0.14902" stroke="#000000" stroke-width="10" stroke-miterlimit="10"/><path d="M240.02821,175.59387v-25.40891c0,0 0.19546,-7.42722 5.86359,-7.42722c5.66814,0 6.67958,4.67507 6.72565,6.4381c0.04606,1.76303 0.09214,3.52606 0.1382,5.28909c0.04607,1.76303 2.14996,4.3977 5.47267,4.3977c3.32271,0 5.94455,-1.32769 5.86361,-4.7886c-0.07783,-3.32754 -0.19547,-21.80551 -0.19547,-21.80551" fill="none" stroke-opacity="0.14902" stroke="#000000" stroke-width="20" stroke-miterlimit="4"/><path d="M230.10177,172.08063h19.85222c4.74683,-4.96308 12.02909,-6.5522 18.41182,-4.01738c6.38273,2.53482 10.59118,8.68702 10.63966,15.55451c1.62123,10.39573 2.48969,20.89516 2.59855,31.416c0,6.28836 -2.59848,10.31567 -7.56161,11.32909c-0.93199,0.19105 -1.88121,0.28717 -2.83259,0.28605c-4.59529,0.09696 -8.68031,-2.9107 -9.95212,-7.32757c-1.01341,-2.88433 -2.83216,-6.83463 -3.94952,-9.19925c-5.87404,2.65642 -12.72454,-0.61935 -14.34371,-6.85948h-5.87258c-1.61632,6.25613 -8.48877,9.53645 -14.36972,6.85948c-1.11735,2.39062 -2.93674,6.34091 -3.95015,9.19925c-1.26933,4.40738 -5.34038,7.41262 -9.92611,7.32757c-0.94268,-0.00096 -1.88244,-0.09692 -2.80595,-0.28605c-4.98911,-0.93546 -7.58761,-5.04073 -7.58761,-11.32909c0.10887,-10.52083 0.97671,-21.02026 2.59792,-31.41599c0.04847,-6.86748 4.25692,-13.01969 10.63965,-15.5545c1.9946,-0.79214 4.07667,-1.18152 6.14214,-1.19114c4.54404,-0.02111 9.00624,1.79639 12.26969,5.20852z" fill="#ffffff" stroke="none" stroke-width="9.34454" stroke-miterlimit="10"/><path d="M240.02821,175.59387v-25.40891c0,0 0.19546,-7.42722 5.86359,-7.42722c5.66814,0 6.67958,4.67507 6.72565,6.4381c0.04606,1.76303 0.09214,3.52606 0.1382,5.28909c0.04607,1.76303 2.14996,4.3977 5.47267,4.3977c3.32271,0 5.94455,-1.32769 5.86361,-4.7886c-0.07783,-3.32754 -0.19547,-21.80551 -0.19547,-21.80551" fill="none" stroke="#fdffff" stroke-width="8.5" stroke-miterlimit="4"/><path d="M259.56275,173.03259c0.85427,-0.74035 1.98787,-1.07335 3.10682,-0.91265c2.02352,0.29137 3.47807,2.09665 3.33232,4.13583c-0.14574,2.03919 -1.84227,3.61925 -3.88665,3.61986c-2.15249,-0.00013 -3.89738,-1.74503 -3.89751,-3.89751c-0.00001,-1.13044 0.49076,-2.20519 1.34502,-2.94554zM214.04303,174.67915h7.79565v5.19647h5.1971v7.79564h-5.1971v5.1971h-7.79565v-5.1971h-5.1971v-7.79564h5.1971zM263.41414,175.97875c0.00018,-0.71755 -0.58135,-1.29937 -1.2989,-1.29957c-0.34459,-0.00009 -0.6751,0.13671 -0.91882,0.38031c-0.24373,0.2436 -0.38069,0.57405 -0.38077,0.91864c-0.00016,0.71755 0.58139,1.29937 1.29893,1.29954c0.71755,0.00017 1.29937,-0.58137 1.29955,-1.29892zM216.64159,177.27709v5.1971h-5.1971v2.59855h5.1971v5.1971h2.59855v-5.1971h5.1971v-2.59855h-5.1971v-5.1971zM251.7673,180.82796c0.85441,-0.74037 1.9882,-1.07327 3.10725,-0.91237c2.02363,0.29139 3.47821,2.09686 3.33228,4.13615c-0.14593,2.03929 -1.84275,3.61926 -3.88725,3.61955c-2.15248,-0.00013 -3.89738,-1.74503 -3.89751,-3.89751c-0.00004,-1.13057 0.49082,-2.20544 1.34523,-2.94581zM267.35797,180.82796c0.85441,-0.74037 1.9882,-1.07327 3.10725,-0.91237c2.02351,0.29137 3.47805,2.09665 3.3323,4.13583c-0.14575,2.03918 -1.84226,3.61923 -3.88664,3.61985c-1.03378,0.0001 -2.02525,-0.41046 -2.7563,-1.1414c-0.73105,-0.73093 -1.14179,-1.72234 -1.14185,-2.75611c-0.00004,-1.13057 0.49082,-2.20544 1.34523,-2.94582zM255.61912,183.7731c-0.00018,-0.71755 -0.58199,-1.2991 -1.29954,-1.29894c-0.34459,0.00008 -0.67504,0.13705 -0.91864,0.38077c-0.2436,0.24372 -0.3804,0.57424 -0.38031,0.91883c0.00019,0.71755 0.58203,1.29909 1.29958,1.2989c0.71755,-0.00019 1.29909,-0.58201 1.29892,-1.29956zM269.91088,182.47418c-0.3447,-0.00009 -0.67531,0.1368 -0.91905,0.38054c-0.24374,0.24375 -0.38063,0.57436 -0.38054,0.91906c0.00019,0.71746 0.5819,1.29896 1.29936,1.2989c0.71747,-0.00006 1.29907,-0.58167 1.29913,-1.29913c0.00006,-0.71746 -0.58144,-1.29917 -1.2989,-1.29937zM259.56298,188.62368c0.85424,-0.74021 1.98774,-1.07312 3.10659,-0.91244c2.02351,0.29138 3.47804,2.09666 3.33229,4.13582c-0.14575,2.03917 -1.84224,3.61923 -3.88662,3.61986c-1.03377,-0.00006 -2.02518,-0.4108 -2.75611,-1.14184c-0.73093,-0.73105 -1.1415,-1.72253 -1.1414,-2.7563c0.00018,-1.13032 0.49102,-2.20491 1.34526,-2.94511zM263.41414,191.5694c0.00018,-0.71755 -0.58135,-1.29939 -1.2989,-1.29958c-0.34459,-0.00009 -0.6751,0.13672 -0.91882,0.38032c-0.24373,0.2436 -0.38069,0.57405 -0.38077,0.91864c-0.00016,0.71755 0.58139,1.29937 1.29893,1.29954c0.71755,0.00017 1.29937,-0.58137 1.29955,-1.29892zM222.23403,198.67472c0.80457,-1.94195 2.69972,-3.20802 4.80175,-3.2078c2.87006,0.00029 5.19653,2.32704 5.19647,5.1971c-0.00004,2.10203 -1.26633,3.99704 -3.20838,4.80137c-1.94205,0.80433 -4.17739,0.35958 -5.66366,-1.12686c-1.48627,-1.48644 -1.93076,-3.72183 -1.12619,-5.66379zM247.82375,200.66395c-0.00002,-2.87019 2.3267,-5.19697 5.19688,-5.19702c1.37836,-0.00003 2.70028,0.54751 3.67493,1.52216c0.97465,0.97465 1.52219,2.29657 1.52217,3.67493c-0.00006,2.87019 -2.32684,5.19691 -5.19702,5.19689c-2.87019,-0.00002 -5.19693,-2.32676 -5.19695,-5.19695zM228.80948,198.76456c-0.52626,-0.49152 -1.23289,-0.7426 -1.95129,-0.69337c-1.40032,0.092 -2.47461,1.27923 -2.42662,2.68175c0.04798,1.40252 1.20088,2.51355 2.60422,2.50964c0.68918,0.00001 1.35015,-0.27375 1.83747,-0.76108c0.48732,-0.48733 0.76109,-1.14829 0.76108,-1.83748c0.00012,-0.72009 -0.29858,-1.40795 -0.82485,-1.89946zM254.79434,198.76456c-0.52626,-0.49152 -1.23288,-0.7426 -1.95129,-0.69337c-1.40031,0.092 -2.47461,1.27923 -2.42662,2.68174c0.04798,1.40252 1.20089,2.51355 2.60422,2.50964c0.68918,0.00001 1.35015,-0.27376 1.83747,-0.76108c0.48732,-0.48733 0.76109,-1.14828 0.76107,-1.83747c0.00011,-0.72009 -0.29858,-1.40795 -0.82485,-1.89946z" fill="#00b745" stroke="none" stroke-width="9.34454" stroke-miterlimit="10"/><path d="M271.22784,183.77354c-0.00006,0.71746 -0.59972,1.31712 -1.31719,1.31719c-0.71746,0.00006 -1.31722,-0.59949 -1.31742,-1.31695c-0.00009,-0.3447 0.14209,-0.68808 0.38582,-0.93183c0.24374,-0.24374 0.58713,-0.38592 0.93183,-0.38583c0.71746,0.00019 1.31702,0.59996 1.31695,1.31742z" data-paper-data="{&quot;noHover&quot;:false,&quot;origItem&quot;:[&quot;Path&quot;,{&quot;applyMatrix&quot;:true,&quot;segments&quot;:[[[357.74897,136.43652],[1.98674,0.00053],[-0.95452,-0.00025]],[[355.20399,137.49029],[0.67495,-0.67495],[-0.67494,0.67496]],[[354.15023,140.03527],[-0.00025,-0.95452],[0.00054,1.98675]],[[357.74833,143.63209],[-1.98675,0.00017],[1.98676,-0.00018]],[[361.34579,140.03463],[-0.00017,1.98674],[0.00018,-1.98675]]],&quot;closed&quot;:true,&quot;fillColor&quot;:[1,1,1],&quot;strokeWidth&quot;:9.34454}]}" fill="#ffffff" stroke="#ffffff" stroke-width="1.5" stroke-miterlimit="10"/><path d="M263.4322,175.97875c-0.00019,0.71755 -0.60007,1.31715 -1.31761,1.31697c-0.71755,-0.00017 -1.31715,-0.60005 -1.31699,-1.3176c0.00008,-0.34459 0.14233,-0.6878 0.38605,-0.9314c0.24372,-0.24361 0.58701,-0.38569 0.9316,-0.3856c0.71755,0.0002 1.31713,0.60008 1.31696,1.31763z" data-paper-data="{&quot;noHover&quot;:false,&quot;origItem&quot;:[&quot;Path&quot;,{&quot;applyMatrix&quot;:true,&quot;segments&quot;:[[[339.75865,118.44983],[0,0],[0.00049,-1.98698]],[[336.16182,114.85115],[1.98699,0.00054],[-0.95421,-0.00025]],[[333.61748,115.90429],[0.6749,-0.67457],[-0.67491,0.67456]],[[332.56309,118.44812],[0.00021,-0.95421],[-0.00045,1.98698]],[[336.16001,122.04671],[-1.98699,-0.00047],[1.98698,0.00047]],[[339.75864,118.44983],[-0.00051,1.98698],[0,0]]],&quot;closed&quot;:true,&quot;fillColor&quot;:[1,1,1],&quot;strokeWidth&quot;:9.34454}]}" fill="#ffffff" stroke="#ffffff" stroke-width="1.5" stroke-miterlimit="10"/><path d="M255.63718,183.7731c0.00018,0.71755 -0.59942,1.31744 -1.31697,1.31762c-0.71755,0.00019 -1.31745,-0.59941 -1.31764,-1.31695c-0.00009,-0.34459 0.14199,-0.68787 0.3856,-0.9316c0.2436,-0.24372 0.58682,-0.38599 0.93141,-0.38606c0.71755,-0.00016 1.31742,0.59944 1.3176,1.31699z" data-paper-data="{&quot;noHover&quot;:false,&quot;origItem&quot;:[&quot;Path&quot;,{&quot;applyMatrix&quot;:true,&quot;segments&quot;:[[[318.17325,140.0334],[0,0],[-0.00048,-1.98699]],[[314.57466,136.43648],[1.98699,-0.00045],[-0.95421,0.00021]],[[312.03083,137.49088],[0.67457,-0.6749],[-0.67457,0.6749]],[[310.9777,140.03523],[-0.00025,-0.95421],[0.00054,1.98698]],[[314.5764,143.63205],[-1.98699,0.00051],[1.98698,-0.00051]],[[318.17326,140.0334],[0.00048,1.98699],[0,0]]],&quot;closed&quot;:true,&quot;fillColor&quot;:[1,1,1],&quot;strokeWidth&quot;:9.34454}]}" fill="#ffffff" stroke="#ffffff" stroke-width="1.5" stroke-miterlimit="10"/><path d="M263.4322,191.56938c-0.00019,0.71755 -0.60007,1.31714 -1.31761,1.31697c-0.71755,-0.00017 -1.31715,-0.60005 -1.31699,-1.3176c0.00008,-0.34459 0.14233,-0.68781 0.38605,-0.9314c0.24372,-0.2436 0.58701,-0.3857 0.9316,-0.3856c0.71755,0.00019 1.31713,0.60009 1.31696,1.31764z" data-paper-data="{&quot;noHover&quot;:false,&quot;origItem&quot;:[&quot;Path&quot;,{&quot;applyMatrix&quot;:true,&quot;segments&quot;:[[[339.75865,161.62233],[0,0],[0.00049,-1.98699]],[[336.16182,158.02363],[1.98699,0.00053],[-0.95421,-0.00026]],[[333.61748,159.07678],[0.6749,-0.67456],[-0.67491,0.67455]],[[332.56309,161.6206],[0.00021,-0.95421],[-0.00045,1.98698]],[[336.16001,165.21919],[-1.98699,-0.00048],[1.98698,0.00047]],[[339.75864,161.62231],[-0.00051,1.98699],[0,0]]],&quot;closed&quot;:true,&quot;fillColor&quot;:[1,1,1],&quot;strokeWidth&quot;:9.34454}]}" fill="#ffffff" stroke="#ffffff" stroke-width="1.5" stroke-miterlimit="10"/><path d="M254.80667,198.75137c0.52626,0.49151 0.83068,1.19255 0.83057,1.91265c0.00001,0.68919 -0.27903,1.3629 -0.76635,1.85023c-0.48732,0.48732 -1.16104,0.76639 -1.85023,0.76638c-1.40333,0.00391 -2.57431,-1.12456 -2.62229,-2.52708c-0.04798,-1.40252 1.04315,-2.60838 2.44346,-2.70038c0.71841,-0.04923 1.43858,0.20669 1.96484,0.69821z" data-paper-data="{&quot;noHover&quot;:false,&quot;origItem&quot;:[&quot;Path&quot;,{&quot;applyMatrix&quot;:true,&quot;segments&quot;:[[[315.88931,181.54666],[0,0],[-1.45728,-1.36107]],[[310.48593,179.62662],[1.98937,-0.13633],[-3.87765,0.25476]],[[303.7663,187.05271],[-0.13287,-3.88375],[0.13287,3.88375]],[[310.97772,194.00223],[-3.88601,0.01083],[1.90844,0.00004]],[[316.06591,191.8947],[-1.34946,1.34946],[1.34946,-1.34947]],[[318.17342,186.8065],[0.00004,1.90845],[0.00032,-1.99402]],[[315.88931,181.54665],[1.45729,1.36106],[0,0]]],&quot;closed&quot;:true,&quot;fillColor&quot;:[1,1,1],&quot;strokeWidth&quot;:9.34454}]}" fill="#ffffff" stroke="none" stroke-width="4.67227" stroke-miterlimit="10"/><path d="M228.82181,198.75138c0.52627,0.49151 0.83068,1.19255 0.83057,1.91264c0.00002,0.68919 -0.27903,1.36291 -0.76635,1.85023c-0.48732,0.48732 -1.16104,0.76639 -1.85023,0.76638c-1.40333,0.00391 -2.57431,-1.12456 -2.62229,-2.52708c-0.04798,-1.40252 1.04314,-2.60838 2.44346,-2.70038c0.71841,-0.04923 1.43858,0.20669 1.96484,0.69821z" data-paper-data="{&quot;noHover&quot;:false,&quot;origItem&quot;:[&quot;Path&quot;,{&quot;applyMatrix&quot;:true,&quot;segments&quot;:[[[243.93392,181.54665],[0,0],[-1.45728,-1.36107]],[[238.53054,179.62661],[1.98936,-0.13632],[-3.87766,0.25477]],[[231.81091,187.05271],[-0.13287,-3.88375],[0.13287,3.88375]],[[239.02232,194.00223],[-3.88601,0.01083],[1.90844,0.00004]],[[244.11051,191.89471],[-1.34946,1.34946],[1.34945,-1.34947]],[[246.21802,186.8065],[0.00005,1.90845],[0.00032,-1.99402]],[[243.93391,181.54666],[1.45729,1.36106],[0,0]]],&quot;closed&quot;:true,&quot;fillColor&quot;:[1,1,1],&quot;strokeWidth&quot;:9.34454}]}" fill="#ffffff" stroke="none" stroke-width="4.67227" stroke-miterlimit="10"/><path d="M219.24368,177.25939l0.00923,5.20203l5.20203,0.00923v2.60564l-5.20203,0.00923l-0.00923,5.20203h-2.60563l-0.00923,-5.20203l-5.20204,-0.00923v-2.60564l5.20204,-0.00923l0.00923,-5.20203z" data-paper-data="{&quot;noHover&quot;:false,&quot;origItem&quot;:[&quot;Path&quot;,{&quot;applyMatrix&quot;:true,&quot;segments&quot;:[[210.23947,122.04511],[210.23947,136.43653],[195.84803,136.43653],[195.84803,143.63225],[210.23947,143.63225],[210.23947,158.02368],[217.43518,158.02368],[217.43518,143.63225],[231.82661,143.63225],[231.82661,136.43653],[217.43518,136.43653],[217.43518,122.04511]],&quot;closed&quot;:true,&quot;fillColor&quot;:[1,1,1],&quot;strokeWidth&quot;:9.34454}]}" fill="#ffffff" stroke="none" stroke-width="4.67227" stroke-miterlimit="10"/><path d="M243.15797,179.44299c0,0.67405 -0.54637,1.22047 -1.22041,1.22047h-3.81876c-0.67405,0 -1.22047,-0.54643 -1.22047,-1.22047v0c0,-0.67399 0.54642,-1.22042 1.22047,-1.22042h3.81876c0.67405,0 1.22041,0.54642 1.22041,1.22042z" fill="#00b745" stroke="#00b745" stroke-width="1" stroke-miterlimit="10"/></g></g></g></svg>