<svg version="1.1" xmlns="http://www.w3.org/2000/svg" xmlns:xlink="http://www.w3.org/1999/xlink" width="160.69945" height="95.48052" viewBox="0,0,160.69945,95.48052"><defs><linearGradient x1="244.42101" y1="174.71968" x2="245.92645" y2="180.55921" gradientUnits="userSpaceOnUse" id="color-1"><stop offset="0" stop-color="#1a1a1a"/><stop offset="1" stop-color="#f30000" stop-opacity="0"/></linearGradient><linearGradient x1="237.67422" y1="170.32209" x2="239.25701" y2="172.76207" gradientUnits="userSpaceOnUse" id="color-2"><stop offset="0" stop-color="#1a1a1a"/><stop offset="1" stop-color="#f30000" stop-opacity="0"/></linearGradient><linearGradient x1="239.52504" y1="169.67085" x2="246.91374" y2="183.75865" gradientUnits="userSpaceOnUse" id="color-3"><stop offset="0" stop-color="#1a1a1a"/><stop offset="1" stop-color="#f30000" stop-opacity="0"/></linearGradient><linearGradient x1="239.36037" y1="166.52453" x2="239.69401" y2="170.2616" gradientUnits="userSpaceOnUse" id="color-4"><stop offset="0" stop-color="#1a1a1a"/><stop offset="1" stop-color="#f30000" stop-opacity="0"/></linearGradient><linearGradient x1="243.56923" y1="168.67244" x2="238.93022" y2="184.76955" gradientUnits="userSpaceOnUse" id="color-5"><stop offset="0" stop-color="#1a1a1a"/><stop offset="1" stop-color="#f30000" stop-opacity="0"/></linearGradient><linearGradient x1="242.12596" y1="173.92504" x2="252.20706" y2="189.14239" gradientUnits="userSpaceOnUse" id="color-6"><stop offset="0" stop-color="#1a1a1a"/><stop offset="1" stop-color="#f30000" stop-opacity="0"/></linearGradient><linearGradient x1="247.3624" y1="176.71961" x2="254.69799" y2="189.80101" gradientUnits="userSpaceOnUse" id="color-7"><stop offset="0" stop-color="#1a1a1a"/><stop offset="1" stop-color="#f30000" stop-opacity="0"/></linearGradient></defs><g transform="translate(-159.6503,-132.25975)"><g data-paper-data="{&quot;isPaintingLayer&quot;:true}" stroke-dasharray="" stroke-dashoffset="0" style="mix-blend-mode: normal"><path d="M159.65031,227.74027v-95.48052h160.69945v95.48052z" fill="#59ad0d" fill-rule="nonzero" stroke="none" stroke-width="0" stroke-linecap="butt" stroke-linejoin="miter" stroke-miterlimit="10"/><path d="M228.56856,153.41631c5.42319,-0.80509 10.78535,-0.59949 15.9563,0.74822l1.70713,0.44619l-1.53178,0.87172c-6.1504,3.47461 -13.18241,3.24499 -16.57671,-0.90076l-0.80242,-0.98021z" data-paper-data="{&quot;index&quot;:null}" fill="#4d4d4d" fill-rule="nonzero" stroke="#4d4d4d" stroke-width="1" stroke-linecap="butt" stroke-linejoin="miter" stroke-miterlimit="4"/><path d="M257.00601,194.88319c0,0 -15.31967,-13.55862 -20.69698,-17.65228c-5.61593,-4.27531 -21.31817,-15.34199 -21.31817,-15.34199c0,0 9.99753,-3.84296 16.10837,-1.3804c21.70446,8.74654 42.21493,41.2137 42.21493,41.2137" data-paper-data="{&quot;index&quot;:null}" fill="none" fill-rule="nonzero" stroke="#292929" stroke-width="1.5" stroke-linecap="round" stroke-linejoin="round" stroke-miterlimit="4" opacity="0.5"/><path d="M241.80546,177.99177c1.6747,-2.38503 6.07102,-2.2204 10.13667,0.25137l2.62196,2.31708c-0.38201,-0.22265 -0.686,-0.40812 -0.79846,-0.48763c-3.51241,-2.484 -9.22633,-3.37945 -11.02364,-0.81985c-0.21706,0.30916 -0.3741,0.64638 -0.48282,1.00626l-1.07891,-0.61048c0.07534,-0.60753 0.28198,-1.16801 0.62521,-1.65679z" data-paper-data="{&quot;index&quot;:null}" fill="url(#color-1)" fill-rule="nonzero" stroke="none" stroke-width="1" stroke-linecap="butt" stroke-linejoin="miter" stroke-miterlimit="10"/><path d="M239.73342,176.80116c1.6747,-2.38504 6.07104,-2.22041 10.13669,0.25136l2.62196,2.31709c-0.38201,-0.22266 -0.68599,-0.4081 -0.79848,-0.48764c-3.51241,-2.484 -9.22632,-3.37945 -11.02363,-0.81985c-0.21706,0.30915 -0.3741,0.64639 -0.48282,1.00627l-1.07889,-0.61047c0.07534,-0.60754 0.28198,-1.16801 0.62521,-1.6568z" data-paper-data="{&quot;index&quot;:null}" fill="url(#color-2)" fill-rule="nonzero" stroke="none" stroke-width="1" stroke-linecap="butt" stroke-linejoin="miter" stroke-miterlimit="10"/><path d="M238.6146,175.7029c1.6747,-2.38507 6.07102,-2.22041 10.13667,0.25138l2.62197,2.31708c-0.38202,-0.22265 -0.68601,-0.40811 -0.79847,-0.48763c-3.51241,-2.484 -9.22634,-3.37945 -11.02364,-0.81985c-0.21706,0.30915 -0.3741,0.64639 -0.48282,1.00627l-1.07889,-0.61048c0.07534,-0.60754 0.28198,-1.16801 0.62521,-1.6568z" data-paper-data="{&quot;index&quot;:null}" fill="url(#color-3)" fill-rule="nonzero" stroke="none" stroke-width="1" stroke-linecap="butt" stroke-linejoin="miter" stroke-miterlimit="10"/><path d="M236.05351,172.47584c2.87658,-2.7456 8.88969,-1.12371 13.53639,3.61032l8.04989,6.99889l-0.85787,0.54984c-0.4839,-0.65045 -5.53002,-4.89478 -6.11739,-5.51435c-3.81847,-4.02766 -10.82373,-6.60339 -13.74248,-3.81743c-0.3525,0.33646 -0.63837,0.7234 -0.8666,1.15135l-1.20818,-1.04107c0.24838,-0.7497 0.64893,-1.40553 1.20628,-1.93749z" data-paper-data="{&quot;index&quot;:null}" fill="url(#color-4)" fill-rule="nonzero" stroke="none" stroke-width="1" stroke-linecap="butt" stroke-linejoin="miter" stroke-miterlimit="10"/><path d="M236.05351,172.47584c2.87658,-2.7456 8.88969,-1.12371 13.53639,3.61032l8.04989,6.99889l-0.85787,0.54984c-0.4839,-0.65045 -5.53002,-4.89478 -6.11739,-5.51435c-3.81847,-4.02766 -10.82373,-6.60339 -13.74248,-3.81743c-0.3525,0.33646 -0.63837,0.7234 -0.8666,1.15135l-1.20818,-1.04107c0.24838,-0.7497 0.64893,-1.40553 1.20628,-1.93749z" data-paper-data="{&quot;index&quot;:null}" fill="url(#color-5)" fill-rule="nonzero" stroke="none" stroke-width="1" stroke-linecap="butt" stroke-linejoin="miter" stroke-miterlimit="10"/><path d="M243.8533,181.70453c0.06734,-0.54271 0.25191,-1.04341 0.55849,-1.48002c1.49607,-2.13065 5.42339,-1.98352 9.05532,0.22455l2.34226,2.0699c-0.34122,-0.19892 -0.61284,-0.36454 -0.71328,-0.43563c-3.13769,-2.219 -8.24211,-3.01894 -9.84766,-0.73238c-0.19392,0.27614 -0.33417,0.57741 -0.43131,0.89891l-0.9638,-0.54536z" data-paper-data="{&quot;index&quot;:null}" fill="url(#color-6)" fill-rule="nonzero" stroke="none" stroke-width="1" stroke-linecap="butt" stroke-linejoin="miter" stroke-miterlimit="10"/><path d="M246.43691,184.09986c0.06733,-0.54271 0.2519,-1.04342 0.55848,-1.48003c1.49608,-2.13065 5.42338,-1.98351 9.05531,0.22456l2.34226,2.06989c-0.34123,-0.19891 -0.61284,-0.36454 -0.71328,-0.43563c-3.13772,-2.21899 -8.24211,-3.01894 -9.84766,-0.73237c-0.19392,0.27614 -0.33415,0.5774 -0.43128,0.89892l-0.96382,-0.54534z" data-paper-data="{&quot;index&quot;:null}" fill="url(#color-7)" fill-rule="nonzero" stroke="none" stroke-width="1" stroke-linecap="butt" stroke-linejoin="miter" stroke-miterlimit="10"/><path d="M267.63846,198.64611c1.40497,5.24324 -1.70641,10.63244 -6.94962,12.03733l-23.26361,6.23335c-5.24321,1.40487 -10.63243,-1.70663 -12.03739,-6.94987l-13.02626,-48.61299c-1.40497,-5.24324 1.70643,-10.63245 6.94963,-12.03735l23.26361,-6.23335c5.24321,-1.40488 10.63242,1.70663 12.03741,6.94987z" data-paper-data="{&quot;index&quot;:null}" fill="none" fill-rule="evenodd" stroke="#ffffff" stroke-width="16.97" stroke-linecap="round" stroke-linejoin="round" stroke-miterlimit="1.5"/><path d="M266.70877,197.7271c1.40497,5.24324 -1.70641,10.63244 -6.94962,12.03733l-23.26361,6.23335c-5.24321,1.40487 -10.63243,-1.70663 -12.03739,-6.94987l-13.02626,-48.61299c-1.40497,-5.24324 1.70643,-10.63245 6.94963,-12.03735l23.26361,-6.23335c5.24321,-1.40488 10.63242,1.70663 12.03741,6.94987z" data-paper-data="{&quot;index&quot;:null}" fill="#000000" fill-rule="evenodd" stroke="none" stroke-width="1" stroke-linecap="round" stroke-linejoin="round" stroke-miterlimit="1.5"/><path d="M228.95798,208.95306l-13.58514,-50.70015l33.8005,-9.05699l13.58514,50.70015z" data-paper-data="{&quot;index&quot;:null}" fill="#ffffff" fill-rule="evenodd" stroke="none" stroke-width="1" stroke-linecap="round" stroke-linejoin="round" stroke-miterlimit="1.5"/><path d="M249.12561,171.98974v7.41823" data-paper-data="{&quot;index&quot;:null}" fill="none" fill-rule="evenodd" stroke="#000000" stroke-width="5.33" stroke-linecap="round" stroke-linejoin="round" stroke-miterlimit="1.5"/><path d="M229.00398,169.55426v7.41824" data-paper-data="{&quot;index&quot;:null}" fill="none" fill-rule="evenodd" stroke="#000000" stroke-width="5.33" stroke-linecap="round" stroke-linejoin="round" stroke-miterlimit="1.5"/><path d="M245.90395,187.25962c-4.78681,2.76367 -10.91661,1.1212 -13.68027,-3.66564" data-paper-data="{&quot;index&quot;:null}" fill="none" fill-rule="evenodd" stroke="#000000" stroke-width="6" stroke-linecap="round" stroke-linejoin="round" stroke-miterlimit="1.5"/></g></g></svg>