<svg version="1.1" xmlns="http://www.w3.org/2000/svg" xmlns:xlink="http://www.w3.org/1999/xlink" width="153.88889" height="83.51852" viewBox="0,0,153.88889,83.51852"><defs><linearGradient x1="240.00004" y1="140.40257" x2="240.00004" y2="218.92109" gradientUnits="userSpaceOnUse" id="color-1"><stop offset="0" stop-color="#ff9266"/><stop offset="1" stop-color="#ff6666"/></linearGradient><radialGradient cx="214.4255" cy="159.98546" r="22.23275" gradientTransform="translate(-265.71649,-260.65118) scale(1.54361,1.54361)" gradientUnits="userSpaceOnUse" id="color-2"><stop offset="0" stop-color="#66b6ff"/><stop offset="1" stop-color="#66ffb5"/></radialGradient><radialGradient cx="257.07846" cy="198.79638" r="12" gradientTransform="translate(-493.13729,-411.06415) scale(2,2)" gradientUnits="userSpaceOnUse" id="color-3"><stop offset="0" stop-color="#66b6ff"/><stop offset="1" stop-color="#66ffb5"/></radialGradient><linearGradient x1="216.43484" y1="146.24779" x2="216.43484" y2="173.27847" gradientUnits="userSpaceOnUse" id="color-4"><stop offset="0" stop-color="#3dff8e"/><stop offset="1" stop-color="#259955"/></linearGradient><linearGradient x1="295.03884" y1="184.80089" x2="295.03884" y2="210.88812" gradientUnits="userSpaceOnUse" id="color-5"><stop offset="0" stop-color="#ffef3e"/><stop offset="1" stop-color="#9a9125"/></linearGradient></defs><g transform="translate(-163.05557,-137.90257)"><g data-paper-data="{&quot;isPaintingLayer&quot;:true}" fill-rule="nonzero" stroke-linecap="butt" stroke-linejoin="miter" stroke-miterlimit="10" stroke-dasharray="" stroke-dashoffset="0" style="mix-blend-mode: normal"><path d="M165.55557,218.92109v-78.51852h148.88889v78.51852z" fill="url(#color-1)" stroke="#ffffff" stroke-width="5"/><text transform="translate(172.13911,168.85766) scale(0.64783,0.64783)" font-size="40" xml:space="preserve" fill="url(#color-2)" fill-rule="nonzero" stroke="none" stroke-width="1" stroke-linecap="butt" stroke-linejoin="miter" stroke-miterlimit="10" stroke-dasharray="" stroke-dashoffset="0" font-family="Sans Serif" font-weight="normal" text-anchor="start" style="mix-blend-mode: normal"><tspan x="0" dy="0">10</tspan></text><text transform="translate(246.56865,205.53208) scale(0.5,0.5)" font-size="40" xml:space="preserve" fill="url(#color-3)" fill-rule="nonzero" stroke="none" stroke-width="1" stroke-linecap="butt" stroke-linejoin="miter" stroke-miterlimit="10" stroke-dasharray="" stroke-dashoffset="0" font-family="Sans Serif" font-weight="normal" text-anchor="start" style="mix-blend-mode: normal"><tspan x="0" dy="0">750</tspan></text><g stroke="none"><path d="M202.91951,159.76313c0,-7.46431 6.05103,-13.51533 13.51533,-13.51533c7.46431,0 13.51533,6.05103 13.51533,13.51533c0,7.46431 -6.05102,13.51533 -13.51533,13.51533c-7.46431,0 -13.51533,-6.05102 -13.51533,-13.51533z" fill="url(#color-4)" stroke-width="0"/><text transform="translate(208.00838,169.59001) scale(0.71035,0.71035)" font-size="40" xml:space="preserve" fill="#000000" fill-rule="nonzero" stroke="none" stroke-width="1" stroke-linecap="butt" stroke-linejoin="miter" stroke-miterlimit="10" stroke-dasharray="" stroke-dashoffset="0" font-family="Sans Serif" font-weight="normal" text-anchor="start" style="mix-blend-mode: normal"><tspan x="0" dy="0">$</tspan></text></g><path d="M232.12386,164.64482l10.97997,10.58847l6.16752,-6.39557l0.38007,20.93848l-20.93848,0.38007l6.16752,-6.39557l-10.97997,-10.58847z" fill="#9966ff" stroke="none" stroke-width="0"/><g stroke="none"><path d="M281.99521,197.84451c0,-7.20379 5.83984,-13.04363 13.04363,-13.04363c7.20379,0 13.04363,5.83984 13.04363,13.04363c0,7.20379 -5.83984,13.04363 -13.04363,13.04363c-7.20379,0 -13.04363,-5.83984 -13.04363,-13.04363z" fill="url(#color-5)" stroke-width="0"/><text transform="translate(287.06366,207.32841) scale(0.68557,0.68557)" font-size="40" xml:space="preserve" fill="#000000" fill-rule="nonzero" stroke="none" stroke-width="1" stroke-linecap="butt" stroke-linejoin="miter" stroke-miterlimit="10" stroke-dasharray="" stroke-dashoffset="0" font-family="Sans Serif" font-weight="normal" text-anchor="start" style="mix-blend-mode: normal"><tspan x="0" dy="0">$</tspan></text></g></g></g></svg>