<svg version="1.1" xmlns="http://www.w3.org/2000/svg" xmlns:xlink="http://www.w3.org/1999/xlink" width="454.48104" height="60.70942" viewBox="0,0,454.48104,60.70942"><defs><linearGradient x1="774.66828" y1="224.70251" x2="808.58468" y2="224.70251" gradientUnits="userSpaceOnUse" id="color-1"><stop offset="0" stop-color="#ee2a7b"/><stop offset="1" stop-color="#811150"/></linearGradient><linearGradient x1="31.18423" y1="421.22631" x2="-2.73218" y2="421.22631" gradientUnits="userSpaceOnUse" id="color-2"><stop offset="0" stop-color="#ee2a7b"/><stop offset="1" stop-color="#811150"/></linearGradient><linearGradient x1="208.24499" y1="660.16175" x2="208.24499" y2="694.07815" gradientUnits="userSpaceOnUse" id="color-3"><stop offset="0" stop-color="#ee2a7b"/><stop offset="1" stop-color="#811150"/></linearGradient><linearGradient x1="-56.20614" y1="-15.81755" x2="-56.20614" y2="-49.73396" gradientUnits="userSpaceOnUse" id="color-4"><stop offset="0" stop-color="#ee2a7b"/><stop offset="1" stop-color="#811150"/></linearGradient></defs><g transform="translate(-12.51023,-292.55115)"><g data-paper-data="{&quot;isPaintingLayer&quot;:true}" fill-rule="nonzero" stroke-linecap="butt" stroke-linejoin="miter" stroke-miterlimit="10" stroke-dasharray="" stroke-dashoffset="0" style="mix-blend-mode: normal"><path d="M12.51023,322.90587c0,-16.76444 13.59027,-30.35471 30.35471,-30.35471c16.76444,0 30.35471,13.59027 30.35471,30.35471c0,16.76444 -13.59027,30.3547 -30.35471,30.3547c-16.76444,0 -30.35471,-13.59026 -30.35471,-30.3547z" fill="#9966ff" stroke="none" stroke-width="0"/><path d="M80.22458,322.90587c0,-16.76444 13.59027,-30.35471 30.3547,-30.35471c16.76444,0 30.35471,13.59027 30.35471,30.35471c0,16.76444 -13.59027,30.3547 -30.35471,30.3547c-16.76444,0 -30.3547,-13.59026 -30.3547,-30.3547z" fill="#9966ff" stroke="none" stroke-width="0"/><path d="M338.56753,322.90586c0,-16.76444 13.59027,-30.35471 30.35471,-30.35471c16.76444,0 30.35471,13.59027 30.35471,30.35471c0,16.76444 -13.59027,30.3547 -30.35471,30.3547c-16.76444,0 -30.35471,-13.59026 -30.35471,-30.3547z" fill="#9966ff" stroke="none" stroke-width="0"/><path d="M406.28187,322.90586c0,-16.76444 13.59026,-30.35471 30.3547,-30.35471c16.76444,0 30.3547,13.59027 30.3547,30.35471c0,16.76444 -13.59026,30.3547 -30.3547,30.3547c-16.76444,0 -30.3547,-13.59026 -30.3547,-30.3547z" fill="#9966ff" stroke="none" stroke-width="0"/><path d="M440.5423,314.76385c0,0 0.00728,17.21471 0.00728,25.03306c0,2.048 -1.66046,3.70809 -3.70808,3.70809c-2.048,0 -3.70779,-1.66009 -3.70779,-3.70809c0,-6.55482 -0.00766,-25.01293 -0.00766,-25.01293c0,0 -1.25408,1.23921 -6.97051,6.95602c-1.44826,1.44818 -3.79579,1.44818 -5.24367,0c-1.44788,-1.44894 -1.44826,-3.79616 0,-5.24404c4.63484,-4.63552 13.30343,-13.30313 13.30343,-13.30313c1.44826,-1.44788 3.79609,-1.44788 5.24367,0c0,0 7.48022,7.47992 13.19703,13.19665c1.44894,1.44894 1.44894,3.79647 0,5.24405c-1.44795,1.44826 -3.79617,1.44826 -5.243,0c-4.63695,-4.6356 -6.87071,-6.86966 -6.87071,-6.86966z" fill="url(#color-1)" stroke="#ffffff" stroke-width="1.15823"/><path d="M365.3102,331.16497c0,0 -0.00728,-17.21471 -0.00728,-25.03306c0,-2.048 1.66046,-3.70809 3.70808,-3.70809c2.048,0 3.70779,1.66009 3.70779,3.70809c0,6.55482 0.00766,25.01293 0.00766,25.01293c0,0 1.25408,-1.23921 6.97051,-6.95602c1.44826,-1.44818 3.79579,-1.44818 5.24367,0c1.44788,1.44894 1.44826,3.79616 0,5.24404c-4.63484,4.63552 -13.30344,13.30313 -13.30344,13.30313c-1.44826,1.44788 -3.79609,1.44788 -5.24367,0c0,0 -7.48022,-7.47992 -13.19703,-13.19665c-1.44894,-1.44894 -1.44894,-3.79647 0,-5.24405c1.44795,-1.44826 3.79617,-1.44826 5.243,0c4.63695,4.6356 6.87072,6.86966 6.87072,6.86966z" fill="url(#color-2)" stroke="#ffffff" stroke-width="1.15823"/><path d="M118.18365,326.03577c0,0 -17.21471,0.00728 -25.03306,0.00728c-2.048,0 -3.70809,-1.66046 -3.70809,-3.70808c0,-2.048 1.66009,-3.70779 3.70809,-3.70779c6.55482,0 25.01294,-0.00766 25.01294,-0.00766c0,0 -1.23921,-1.25408 -6.95602,-6.97051c-1.44818,-1.44826 -1.44818,-3.79579 0,-5.24367c1.44894,-1.44788 3.79617,-1.44826 5.24405,0c4.63552,4.63484 13.30314,13.30343 13.30314,13.30343c1.44788,1.44826 1.44788,3.79609 0,5.24367c0,0 -7.47992,7.48022 -13.19666,13.19703c-1.44894,1.44894 -3.79646,1.44894 -5.24404,0c-1.44826,-1.44795 -1.44826,-3.79617 0,-5.243c4.63559,-4.63695 6.86966,-6.87071 6.86966,-6.87071z" fill="url(#color-3)" stroke="#ffffff" stroke-width="1.15823"/><path d="M33.8552,318.30842c0,0 17.21471,-0.00728 25.03306,-0.00728c2.048,0 3.70808,1.66045 3.70809,3.70808c0,2.048 -1.66009,3.70779 -3.70809,3.70778c-6.55482,0 -25.01293,0.00766 -25.01293,0.00766c0,0 1.23921,1.25408 6.95602,6.97051c1.44818,1.44825 1.44818,3.79579 0,5.24367c-1.44894,1.44788 -3.79617,1.44826 -5.24405,0c-4.63552,-4.63484 -13.30313,-13.30344 -13.30313,-13.30344c-1.44788,-1.44826 -1.44788,-3.79609 0,-5.24367c0,0 7.47992,-7.48022 13.19666,-13.19703c1.44894,-1.44894 3.79647,-1.44894 5.24405,0c1.44825,1.44796 1.44825,3.79617 0,5.243c-4.63559,4.63695 -6.86966,6.87071 -6.86966,6.87071z" fill="url(#color-4)" stroke="#ffffff" stroke-width="1.15823"/></g></g></svg>