<svg version="1.1" xmlns="http://www.w3.org/2000/svg" xmlns:xlink="http://www.w3.org/1999/xlink" width="62.54967" height="61.55972" viewBox="0,0,62.54967,61.55972"><defs><linearGradient x1="261.47321" y1="156.21224" x2="238.62002" y2="179.06542" gradientUnits="userSpaceOnUse" id="color-1"><stop offset="0" stop-color="#66ebff" stop-opacity="0"/><stop offset="1" stop-color="#66ebff"/></linearGradient><linearGradient x1="263.73595" y1="201.69284" x2="240.88276" y2="178.83965" gradientUnits="userSpaceOnUse" id="color-2"><stop offset="0" stop-color="#66ebff" stop-opacity="0"/><stop offset="1" stop-color="#66ebff"/></linearGradient><linearGradient x1="218.39676" y1="203.24848" x2="241.24995" y2="180.39529" gradientUnits="userSpaceOnUse" id="color-3"><stop offset="0" stop-color="#66ebff" stop-opacity="0"/><stop offset="1" stop-color="#66ebff"/></linearGradient><linearGradient x1="215.70976" y1="157.90929" x2="238.56295" y2="180.76248" gradientUnits="userSpaceOnUse" id="color-4"><stop offset="0" stop-color="#66ebff" stop-opacity="0"/><stop offset="1" stop-color="#66ebff"/></linearGradient></defs><g transform="translate(-208.44802,-148.9505)"><g data-paper-data="{&quot;isPaintingLayer&quot;:true}" fill-rule="nonzero" stroke="none" stroke-width="0" stroke-linecap="butt" stroke-linejoin="miter" stroke-miterlimit="10" stroke-dasharray="" stroke-dashoffset="0" style="mix-blend-mode: normal"><path d="M262.347,157.08603c3.54965,3.54965 5.24878,5.45911 6.79443,9.90242c-2.03897,0.5809 -27.95827,12.52932 -29.52571,13.07268c-0.44855,-0.58343 8.31002,-24.24685 10.6748,-31.11063c0.46028,0.10913 8.03922,4.11827 12.05648,8.13553z" fill="url(#color-1)"/><path d="M262.86216,202.56663c-3.54965,3.54965 -5.45911,5.24878 -9.90242,6.79443c-0.5809,-2.03897 -12.52932,-27.95827 -13.07268,-29.52571c0.58343,-0.44855 24.24685,8.31002 31.11063,10.6748c-0.10913,0.46028 -4.11827,8.03922 -8.13553,12.05648z" fill="url(#color-2)"/><path d="M217.52297,202.37468c-3.54965,-3.54965 -5.24878,-5.45911 -6.79443,-9.90242c2.03897,-0.5809 27.95827,-12.52932 29.52571,-13.07268c0.44855,0.58343 -8.31002,24.24685 -10.6748,31.11063c-0.46028,-0.10913 -8.03922,-4.11827 -12.05648,-8.13553z" fill="url(#color-3)"/><path d="M216.58355,157.0355c3.54965,-3.54965 5.45911,-5.24878 9.90242,-6.79443c0.5809,2.03897 12.52932,27.95827 13.07268,29.52571c-0.58343,0.44855 -24.24685,-8.31002 -31.11063,-10.6748c0.10913,-0.46028 4.11827,-8.03922 8.13553,-12.05648z" fill="url(#color-4)"/></g></g></svg>