<svg version="1.1" xmlns="http://www.w3.org/2000/svg" xmlns:xlink="http://www.w3.org/1999/xlink" width="482.85714" height="361.02129" viewBox="0,0,482.85714,361.02129"><g transform="translate(1.42857,0.51063)"><g data-paper-data="{&quot;isPaintingLayer&quot;:true}" fill-rule="nonzero" stroke-linecap="butt" stroke-linejoin="miter" stroke-dasharray="" stroke-dashoffset="0" style="mix-blend-mode: normal"><path d="M-1.42857,360.51066v-361.02129h482.85714v361.02129z" fill="#000000" stroke="#ff0000" stroke-width="0" stroke-miterlimit="10"/><text transform="translate(183.63002,42.62646) scale(0.5,0.5)" font-size="40" xml:space="preserve" fill="#ffffff" fill-rule="nonzero" stroke="none" stroke-width="1" stroke-linecap="butt" stroke-linejoin="miter" stroke-miterlimit="10" stroke-dasharray="" stroke-dashoffset="0" font-family="Sans Serif" font-weight="normal" text-anchor="start" style="mix-blend-mode: normal"><tspan x="0" dy="0">Welcome to</tspan></text><text transform="translate(95.43005,67.05181) scale(0.5,0.5)" font-size="40" xml:space="preserve" fill="#ffffff" fill-rule="nonzero" stroke="none" stroke-width="1" stroke-linecap="butt" stroke-linejoin="miter" stroke-miterlimit="10" stroke-dasharray="" stroke-dashoffset="0" font-family="Sans Serif" font-weight="normal" text-anchor="start" style="mix-blend-mode: normal"><tspan x="0" dy="0">Räuber und Gerdam Autospiel</tspan></text><text transform="translate(37.48479,122.75746) scale(0.5,0.5)" font-size="40" xml:space="preserve" fill="#ffffff" fill-rule="nonzero" stroke="none" stroke-width="1" stroke-linecap="butt" stroke-linejoin="miter" stroke-miterlimit="10" stroke-dasharray="" stroke-dashoffset="0" font-family="Sans Serif" font-weight="normal" text-anchor="start" style="mix-blend-mode: normal"><tspan x="0" dy="0">Controls:</tspan></text><path d="M325.51553,305.64135h115.99171v-18l30,30l-30,30v-18h-115.99171z" fill="#000000" stroke="#ffffff" stroke-width="3.5" stroke-miterlimit="10"/><text transform="translate(328.65103,324.0338) scale(0.5,0.5)" font-size="40" xml:space="preserve" fill="#ffffff" fill-rule="nonzero" stroke="none" stroke-width="1" stroke-linecap="butt" stroke-linejoin="miter" stroke-miterlimit="10" stroke-dasharray="" stroke-dashoffset="0" font-family="Sans Serif" font-weight="normal" text-anchor="start" style="mix-blend-mode: normal"><tspan x="0" dy="0">Next</tspan></text><text transform="translate(7.20205,151.43762) scale(0.5,0.5)" font-size="40" xml:space="preserve" fill="#ffffff" fill-rule="nonzero" stroke="none" stroke-width="1" stroke-linecap="butt" stroke-linejoin="miter" stroke-miterlimit="10" stroke-dasharray="" stroke-dashoffset="0" font-family="Sans Serif" font-weight="normal" text-anchor="start" style="mix-blend-mode: normal"><tspan x="0" dy="0">Press L2/R2 to redeem</tspan><tspan x="0" dy="46.15px">a blue Boost</tspan></text><g><path d="M211.99494,172.80727c0,0 0.03162,-0.49036 0.72829,-0.49036c4.19279,0 44.13925,0 44.13925,0c10.84544,-11.33954 27.48379,-14.97033 42.06691,-9.17882c14.58313,5.79149 24.19849,19.84791 24.30926,35.53858c3.70414,23.75193 5.68837,47.7408 5.9371,71.77855c0,14.36749 -5.93695,23.56902 -17.27658,25.88445c-2.12939,0.43649 -4.29816,0.65611 -6.47183,0.65356c-10.49922,0.22152 -19.83258,-6.65031 -22.73837,-16.74186c-2.31543,-6.59004 -6.47086,-15.61559 -9.02376,-21.01824c-13.42086,6.06932 -29.07276,-1.41508 -32.77219,-15.67238h-13.41754c-3.69294,14.29386 -19.39495,21.78865 -32.8316,15.67238c-2.55289,5.46203 -6.70978,14.48755 -9.02521,21.01824c-2.90013,10.06988 -12.20159,16.93619 -22.67895,16.74186c-2.15381,-0.00219 -4.30095,-0.22144 -6.41097,-0.65356c-11.39901,-2.13731 -17.33599,-11.51695 -17.33599,-25.88445c0.24874,-24.03774 2.23156,-48.02661 5.93567,-71.77854c0.11075,-15.69064 9.7261,-29.74708 24.30923,-35.53858c4.55723,-1.80985 9.31428,-2.69951 14.03342,-2.7215c10.38212,-0.04824 20.57725,4.10437 28.03351,11.90031z" fill="none" stroke-opacity="0.14902" stroke="#000000" stroke-width="10" stroke-miterlimit="10"/><path d="M234.18427,180.34389v-58.0537c0,0 0.44657,-16.96955 13.397,-16.96955c12.95044,0 15.26136,10.68148 15.36661,14.70962c0.10525,4.02813 0.21051,8.05626 0.31575,12.0844c0.10525,4.02813 4.91219,10.04776 12.50384,10.04776c7.59166,0 13.58198,-3.03347 13.39705,-10.94089c-0.17781,-7.60268 -0.4466,-49.82073 -0.4466,-49.82073" fill="none" stroke-opacity="0.14902" stroke="#000000" stroke-width="20" stroke-miterlimit="4"/><path d="M211.50458,172.31691h45.35791c10.84544,-11.33954 27.48379,-14.97033 42.06691,-9.17882c14.58313,5.79149 24.19849,19.84791 24.30926,35.53858c3.70414,23.75193 5.68837,47.7408 5.9371,71.77855c0,14.36749 -5.93695,23.56902 -17.27658,25.88445c-2.12939,0.43649 -4.29816,0.65611 -6.47183,0.65356c-10.49922,0.22152 -19.83258,-6.65031 -22.73837,-16.74186c-2.31543,-6.59004 -6.47086,-15.61559 -9.02376,-21.01824c-13.42086,6.06932 -29.07276,-1.41508 -32.77219,-15.67238h-13.41754c-3.69294,14.29386 -19.39495,21.78865 -32.8316,15.67238c-2.55289,5.46203 -6.70978,14.48755 -9.02521,21.01824c-2.90013,10.06988 -12.20159,16.93619 -22.67895,16.74186c-2.15381,-0.00219 -4.30095,-0.22144 -6.41097,-0.65356c-11.39901,-2.13731 -17.33599,-11.51695 -17.33599,-25.88445c0.24874,-24.03774 2.23156,-48.02661 5.93567,-71.77854c0.11075,-15.69064 9.7261,-29.74708 24.30923,-35.53858c4.55723,-1.80985 9.31428,-2.69951 14.03342,-2.7215c10.38212,-0.04824 20.57725,4.10437 28.03351,11.90031z" fill="#ffffff" stroke="none" stroke-width="9.34454" stroke-miterlimit="10"/><path d="M234.18427,180.34389v-58.0537c0,0 0.44657,-16.96955 13.397,-16.96955c12.95044,0 15.26136,10.68148 15.36661,14.70962c0.10525,4.02813 0.21051,8.05626 0.31575,12.0844c0.10525,4.02813 4.91219,10.04776 12.50384,10.04776c7.59166,0 13.58198,-3.03347 13.39705,-10.94089c-0.17781,-7.60268 -0.4466,-49.82073 -0.4466,-49.82073" fill="none" stroke="#fdffff" stroke-width="8.5" stroke-miterlimit="4"/><path d="M278.81633,174.49194c1.95182,-1.69153 4.54183,-2.45238 7.0984,-2.08519c4.62329,0.66571 7.94662,4.79039 7.61361,9.44946c-0.33299,4.6591 -4.20916,8.26918 -8.88013,8.27057c-4.91796,-0.00029 -8.90467,-3.987 -8.90496,-8.90494c-0.00002,-2.5828 1.12127,-5.03837 3.07308,-6.7299zM174.81394,178.25396h17.81132v11.87277h11.87421v17.81131h-11.87421v11.87422h-17.81132v-11.87422h-11.87422v-17.81131h11.87422zM287.61591,181.22324c0.00041,-1.63944 -1.32825,-2.96878 -2.9677,-2.96923c-0.78731,-0.0002 -1.54246,0.31235 -2.09931,0.86893c-0.55686,0.55658 -0.8698,1.31157 -0.86997,2.09888c-0.00037,1.63944 1.32834,2.96877 2.96778,2.96916c1.63944,0.00038 2.96877,-1.32831 2.9692,-2.96775zM180.75105,184.18967v11.8742h-11.87421v5.93711h11.87421v11.87421h5.93712v-11.87421h11.87421v-5.93711h-11.87421v-11.8742zM261.00548,192.30261c1.95215,-1.69158 4.54259,-2.4522 7.09938,-2.08457c4.62354,0.66576 7.94692,4.79086 7.61351,9.45019c-0.33341,4.65933 -4.21026,8.26918 -8.88149,8.26985c-4.91793,-0.0003 -8.90465,-3.987 -8.90494,-8.90493c-0.00008,-2.5831 1.1214,-5.03894 3.07355,-6.73053zM296.62667,192.30261c1.95215,-1.69158 4.54259,-2.45218 7.09938,-2.08455c4.62327,0.66573 7.94657,4.79039 7.61356,9.44946c-0.33301,4.65906 -4.20915,8.26915 -8.8801,8.27056c-2.36195,0.00024 -4.62724,-0.93782 -6.29752,-2.60784c-1.67028,-1.67002 -2.60872,-3.93516 -2.60887,-6.2971c-0.00008,-2.58309 1.1214,-5.03895 3.07355,-6.73054zM269.80604,199.0316c-0.0004,-1.63944 -1.32971,-2.96816 -2.96916,-2.96779c-0.78731,0.00017 -1.54231,0.31313 -2.09888,0.86998c-0.55658,0.55685 -0.86914,1.312 -0.86894,2.09931c0.00044,1.63944 1.32981,2.96812 2.96925,2.9677c1.63944,-0.00043 2.96812,-1.32976 2.96773,-2.9692zM302.45952,196.06385c-0.78756,-0.0002 -1.54293,0.31256 -2.09983,0.86946c-0.55689,0.55691 -0.86965,1.31227 -0.86944,2.09983c0.00044,1.63924 1.3295,2.96784 2.96875,2.9677c1.63925,-0.00015 2.96809,-1.32898 2.96822,-2.96822c0.00015,-1.63924 -1.32846,-2.96833 -2.9677,-2.96877zM278.81687,210.1141c1.95175,-1.69121 4.54156,-2.45185 7.09786,-2.08473c4.62326,0.66574 7.94653,4.7904 7.61353,9.44944c-0.33299,4.65905 -4.20911,8.26913 -8.88005,8.27056c-2.36194,-0.00013 -4.6271,-0.93857 -6.2971,-2.60885c-1.67001,-1.67028 -2.60807,-3.93559 -2.60784,-6.29753c0.00041,-2.58253 1.12186,-5.03772 3.07362,-6.72892zM287.61591,216.8444c0.00041,-1.63944 -1.32825,-2.96882 -2.9677,-2.96926c-0.78731,-0.00021 -1.54246,0.31237 -2.09931,0.86895c-0.55686,0.55656 -0.8698,1.31158 -0.86997,2.09889c-0.00037,1.63944 1.32834,2.96876 2.96778,2.96915c1.63944,0.00038 2.96877,-1.32829 2.9692,-2.96774zM193.52855,233.07849c1.83826,-4.43693 6.16826,-7.32961 10.97093,-7.32912c6.55745,0.00066 11.8729,5.31678 11.87278,11.87421c-0.0001,4.80266 -2.89328,9.13234 -7.33043,10.97005c-4.43715,1.83772 -9.5444,0.82156 -12.94019,-2.57463c-3.39579,-3.39619 -4.41136,-8.50356 -2.57309,-12.94048zM251.99536,237.62342c-0.00005,-6.55774 5.31599,-11.87391 11.87373,-11.87403c3.14925,-0.00006 6.16953,1.25095 8.39638,3.47781c2.22686,2.22686 3.47788,5.24713 3.47781,8.39639c-0.00013,6.55774 -5.31631,11.87378 -11.87404,11.87374c-6.55773,-0.00005 -11.87383,-5.31614 -11.87388,-11.87387zM208.55198,233.28374c-1.20238,-1.12301 -2.81687,-1.69669 -4.45827,-1.5842c-3.19941,0.21022 -5.65392,2.92275 -5.54429,6.1272c0.10963,3.20444 2.74375,5.74291 5.95006,5.73398c1.57464,0.00003 3.08478,-0.62547 4.19821,-1.73889c1.11342,-1.11343 1.73892,-2.62359 1.73889,-4.19823c0.00027,-1.64524 -0.6822,-3.21684 -1.8846,-4.33984zM267.92159,233.28375c-1.20238,-1.12301 -2.81686,-1.69669 -4.45828,-1.5842c-3.19941,0.21019 -5.65392,2.92275 -5.54429,6.12719c0.10963,3.20444 2.74376,5.74291 5.95007,5.73398c1.57464,0.00003 3.08478,-0.62547 4.19821,-1.7389c1.11343,-1.11343 1.73892,-2.62358 1.73888,-4.19822c0.00027,-1.64524 -0.68219,-3.21685 -1.88459,-4.33984z" fill="#00b745" stroke="none" stroke-width="9.34454" stroke-miterlimit="10"/><path d="M305.46848,199.03262c-0.00014,1.63924 -1.37023,3.00934 -3.00948,3.00949c-1.63925,0.00014 -3.00957,-1.3697 -3.01001,-3.00895c-0.0002,-0.78756 0.32463,-1.57211 0.88152,-2.12902c0.55689,-0.55689 1.34146,-0.88174 2.12901,-0.88153c1.63924,0.00044 3.0091,1.37078 3.00895,3.01002z" data-paper-data="{&quot;noHover&quot;:false,&quot;origItem&quot;:[&quot;Path&quot;,{&quot;applyMatrix&quot;:true,&quot;segments&quot;:[[[357.74897,136.43652],[1.98674,0.00053],[-0.95452,-0.00025]],[[355.20399,137.49029],[0.67495,-0.67495],[-0.67494,0.67496]],[[354.15023,140.03527],[-0.00025,-0.95452],[0.00054,1.98675]],[[357.74833,143.63209],[-1.98675,0.00017],[1.98676,-0.00018]],[[361.34579,140.03463],[-0.00017,1.98674],[0.00018,-1.98675]]],&quot;closed&quot;:true,&quot;fillColor&quot;:[1,1,1],&quot;strokeWidth&quot;:9.34454}]}" fill="#ffffff" stroke="#ffffff" stroke-width="1.5" stroke-miterlimit="10"/><path d="M287.65716,181.22326c-0.00043,1.63944 -1.37101,3.00938 -3.01045,3.00898c-1.63945,-0.00038 -3.00939,-1.37098 -3.00902,-3.01042c0.00017,-0.78731 0.32519,-1.57148 0.88204,-2.12805c0.55685,-0.55659 1.34118,-0.88122 2.12849,-0.88102c1.63945,0.00045 3.00936,1.37106 3.00896,3.0105z" data-paper-data="{&quot;noHover&quot;:false,&quot;origItem&quot;:[&quot;Path&quot;,{&quot;applyMatrix&quot;:true,&quot;segments&quot;:[[[339.75865,118.44983],[0,0],[0.00049,-1.98698]],[[336.16182,114.85115],[1.98699,0.00054],[-0.95421,-0.00025]],[[333.61748,115.90429],[0.6749,-0.67457],[-0.67491,0.67456]],[[332.56309,118.44812],[0.00021,-0.95421],[-0.00045,1.98698]],[[336.16001,122.04671],[-1.98699,-0.00047],[1.98698,0.00047]],[[339.75864,118.44983],[-0.00051,1.98698],[0,0]]],&quot;closed&quot;:true,&quot;fillColor&quot;:[1,1,1],&quot;strokeWidth&quot;:9.34454}]}" fill="#ffffff" stroke="#ffffff" stroke-width="1.5" stroke-miterlimit="10"/><path d="M269.84729,199.0316c0.0004,1.63944 -1.36953,3.01004 -3.00897,3.01046c-1.63945,0.00043 -3.01007,-1.36951 -3.01051,-3.00895c-0.0002,-0.78731 0.32443,-1.57163 0.88101,-2.12849c0.55658,-0.55685 1.34075,-0.88189 2.12806,-0.88206c1.63945,-0.00037 3.01002,1.3696 3.01042,3.00904z" data-paper-data="{&quot;noHover&quot;:false,&quot;origItem&quot;:[&quot;Path&quot;,{&quot;applyMatrix&quot;:true,&quot;segments&quot;:[[[318.17325,140.0334],[0,0],[-0.00048,-1.98699]],[[314.57466,136.43648],[1.98699,-0.00045],[-0.95421,0.00021]],[[312.03083,137.49088],[0.67457,-0.6749],[-0.67457,0.6749]],[[310.9777,140.03523],[-0.00025,-0.95421],[0.00054,1.98698]],[[314.5764,143.63205],[-1.98699,0.00051],[1.98698,-0.00051]],[[318.17326,140.0334],[0.00048,1.98699],[0,0]]],&quot;closed&quot;:true,&quot;fillColor&quot;:[1,1,1],&quot;strokeWidth&quot;:9.34454}]}" fill="#ffffff" stroke="#ffffff" stroke-width="1.5" stroke-miterlimit="10"/><path d="M287.65716,216.84438c-0.00043,1.63944 -1.37101,3.00937 -3.01045,3.00898c-1.63945,-0.00039 -3.00939,-1.37097 -3.00902,-3.01041c0.00017,-0.78731 0.32519,-1.57149 0.88204,-2.12805c0.55685,-0.55658 1.34118,-0.88123 2.12849,-0.88101c1.63945,0.00044 3.00936,1.37107 3.00896,3.01051z" data-paper-data="{&quot;noHover&quot;:false,&quot;origItem&quot;:[&quot;Path&quot;,{&quot;applyMatrix&quot;:true,&quot;segments&quot;:[[[339.75865,161.62233],[0,0],[0.00049,-1.98699]],[[336.16182,158.02363],[1.98699,0.00053],[-0.95421,-0.00026]],[[333.61748,159.07678],[0.6749,-0.67456],[-0.67491,0.67455]],[[332.56309,161.6206],[0.00021,-0.95421],[-0.00045,1.98698]],[[336.16001,165.21919],[-1.98699,-0.00048],[1.98698,0.00047]],[[339.75864,161.62231],[-0.00051,1.98699],[0,0]]],&quot;closed&quot;:true,&quot;fillColor&quot;:[1,1,1],&quot;strokeWidth&quot;:9.34454}]}" fill="#ffffff" stroke="#ffffff" stroke-width="1.5" stroke-miterlimit="10"/><path d="M267.94977,233.25361c1.2024,1.123 1.89793,2.72472 1.89766,4.36997c0.00004,1.57464 -0.63752,3.11394 -1.75095,4.22737c-1.11343,1.11343 -2.65271,1.75104 -4.22735,1.75101c-3.2063,0.00893 -5.88173,-2.56937 -5.99136,-5.77381c-0.10963,-3.20444 2.38337,-5.95956 5.58277,-6.16976c1.64141,-0.11248 3.28683,0.47224 4.48922,1.59525z" data-paper-data="{&quot;noHover&quot;:false,&quot;origItem&quot;:[&quot;Path&quot;,{&quot;applyMatrix&quot;:true,&quot;segments&quot;:[[[315.88931,181.54666],[0,0],[-1.45728,-1.36107]],[[310.48593,179.62662],[1.98937,-0.13633],[-3.87765,0.25476]],[[303.7663,187.05271],[-0.13287,-3.88375],[0.13287,3.88375]],[[310.97772,194.00223],[-3.88601,0.01083],[1.90844,0.00004]],[[316.06591,191.8947],[-1.34946,1.34946],[1.34946,-1.34947]],[[318.17342,186.8065],[0.00004,1.90845],[0.00032,-1.99402]],[[315.88931,181.54665],[1.45729,1.36106],[0,0]]],&quot;closed&quot;:true,&quot;fillColor&quot;:[1,1,1],&quot;strokeWidth&quot;:9.34454}]}" fill="#ffffff" stroke="none" stroke-width="4.67227" stroke-miterlimit="10"/><path d="M208.58016,233.25363c1.2024,1.123 1.89793,2.72471 1.89766,4.36996c0.00005,1.57464 -0.63752,3.11394 -1.75094,4.22737c-1.11343,1.11343 -2.65271,1.75104 -4.22735,1.751c-3.2063,0.00893 -5.88172,-2.56937 -5.99135,-5.77381c-0.10963,-3.20444 2.38334,-5.95955 5.58275,-6.16977c1.6414,-0.11248 3.28683,0.47224 4.48922,1.59525z" data-paper-data="{&quot;noHover&quot;:false,&quot;origItem&quot;:[&quot;Path&quot;,{&quot;applyMatrix&quot;:true,&quot;segments&quot;:[[[243.93392,181.54665],[0,0],[-1.45728,-1.36107]],[[238.53054,179.62661],[1.98936,-0.13632],[-3.87766,0.25477]],[[231.81091,187.05271],[-0.13287,-3.88375],[0.13287,3.88375]],[[239.02232,194.00223],[-3.88601,0.01083],[1.90844,0.00004]],[[244.11051,191.89471],[-1.34946,1.34946],[1.34945,-1.34947]],[[246.21802,186.8065],[0.00005,1.90845],[0.00032,-1.99402]],[[243.93391,181.54666],[1.45729,1.36106],[0,0]]],&quot;closed&quot;:true,&quot;fillColor&quot;:[1,1,1],&quot;strokeWidth&quot;:9.34454}]}" fill="#ffffff" stroke="none" stroke-width="4.67227" stroke-miterlimit="10"/><path d="M186.69625,184.14922l0.02108,11.88548l11.88549,0.02107v5.9533l-11.88549,0.02107l-0.02108,11.88549h-5.95328l-0.02107,-11.88549l-11.8855,-0.02107v-5.9533l11.8855,-0.02107l0.02107,-11.88548z" data-paper-data="{&quot;noHover&quot;:false,&quot;origItem&quot;:[&quot;Path&quot;,{&quot;applyMatrix&quot;:true,&quot;segments&quot;:[[210.23947,122.04511],[210.23947,136.43653],[195.84803,136.43653],[195.84803,143.63225],[210.23947,143.63225],[210.23947,158.02368],[217.43518,158.02368],[217.43518,143.63225],[231.82661,143.63225],[231.82661,136.43653],[217.43518,136.43653],[217.43518,122.04511]],&quot;closed&quot;:true,&quot;fillColor&quot;:[1,1,1],&quot;strokeWidth&quot;:9.34454}]}" fill="#ffffff" stroke="none" stroke-width="4.67227" stroke-miterlimit="10"/><path d="M241.33509,189.13826c0,1.54005 -1.24832,2.78851 -2.78838,2.78851h-8.725c-1.54005,0 -2.78851,-1.24846 -2.78851,-2.78851v0c0,-1.53993 1.24846,-2.78838 2.78851,-2.78838h8.72501c1.54005,0 2.78837,1.24845 2.78837,2.78838z" fill="#00b745" stroke="#00b745" stroke-width="1" stroke-miterlimit="10"/></g><text transform="translate(168.31323,327.02639) scale(0.5,0.5)" font-size="40" xml:space="preserve" fill="#ffffff" fill-rule="nonzero" stroke="none" stroke-width="1" stroke-linecap="butt" stroke-linejoin="miter" stroke-miterlimit="10" stroke-dasharray="" stroke-dashoffset="0" font-family="Sans Serif" font-weight="normal" text-anchor="start" style="mix-blend-mode: normal"><tspan x="0" dy="0">Left/Right</tspan></text><path d="M200.42114,308.23771v-30.15611h-8.68529l14.47548,-23.58728l14.47547,23.58728h-8.68528v30.15611z" fill="#ffffff" stroke="#000000" stroke-width="0.5" stroke-miterlimit="10"/><text transform="translate(376.52449,204.65661) scale(0.5,0.5)" font-size="40" xml:space="preserve" fill="#ffffff" fill-rule="nonzero" stroke="none" stroke-width="1" stroke-linecap="butt" stroke-linejoin="miter" stroke-miterlimit="10" stroke-dasharray="" stroke-dashoffset="0" font-family="Sans Serif" font-weight="normal" text-anchor="start" style="mix-blend-mode: normal"><tspan x="0" dy="0">Backward</tspan></text><text transform="translate(362.82639,232.05282) scale(0.5,0.5)" font-size="40" xml:space="preserve" fill="#ffffff" fill-rule="nonzero" stroke="none" stroke-width="1" stroke-linecap="butt" stroke-linejoin="miter" stroke-miterlimit="10" stroke-dasharray="" stroke-dashoffset="0" font-family="Sans Serif" font-weight="normal" text-anchor="start" style="mix-blend-mode: normal"><tspan x="0" dy="0">Vorward</tspan></text><path d="M353.62639,229.62414l-30.1561,0v8.68529l-23.58728,-14.47547l23.58729,-14.47548l0,8.68528l30.1561,0z" fill="#ffffff" stroke="#000000" stroke-width="0.5" stroke-miterlimit="10"/><path d="M371.89054,204.96754h-30.15611v8.68529l-23.58728,-14.47548l23.58728,-14.47547v8.68529l30.1561,0z" fill="#ffffff" stroke="#000000" stroke-width="0.5" stroke-miterlimit="10"/></g></g></svg>