<svg version="1.1" xmlns="http://www.w3.org/2000/svg" xmlns:xlink="http://www.w3.org/1999/xlink" width="188.30469" height="123.04359" viewBox="0,0,188.30469,123.04359"><g transform="translate(-146.10004,-104.69667)"><g data-paper-data="{&quot;isPaintingLayer&quot;:true}" fill-rule="nonzero" stroke="none" stroke-linecap="butt" stroke-linejoin="miter" stroke-miterlimit="10" stroke-dasharray="" stroke-dashoffset="0" style="mix-blend-mode: normal"><path d="M273.97391,178.37363c-0.22394,-0.54355 -0.10045,-1.17189 0.31757,-1.59122l8.169,-8.16553c0.56877,-0.57108 1.49396,-0.57108 2.06505,0l8.16436,8.16552c0.42035,0.41933 0.54355,1.04767 0.31758,1.59122c-0.22843,0.54601 -0.75864,0.90229 -1.34785,0.90229h-3.57088v10.58946c0,1.07463 -0.87025,1.94518 -1.94169,1.94518h-5.30879c-1.07362,0 -1.94387,-0.87055 -1.94387,-1.94518v-10.58945h-3.57059c-0.5895,0 -1.12174,-0.35628 -1.34988,-0.90229z" fill="#000000" stroke-width="1"/><text transform="translate(146.35004,126.44667) scale(0.5,0.5)" font-size="40" xml:space="preserve" fill="#ffffff" fill-rule="nonzero" stroke="none" stroke-width="1" stroke-linecap="butt" stroke-linejoin="miter" stroke-miterlimit="10" stroke-dasharray="" stroke-dashoffset="0" font-family="Sans Serif" font-weight="normal" text-anchor="start" style="mix-blend-mode: normal"><tspan x="0" dy="0">Fehler beim Upload</tspan></text><path d="M182.33727,227.74026v-95.48052h115.32549v95.48052z" fill="#59ad0d" stroke-width="0"/><g fill="#000000" stroke-width="1"><path d="M227.62925,166.55832v34.7643c0,3.17881 -2.58911,5.76624 -5.76624,5.76624h-29.68856c-3.18073,0 -5.76624,-2.58742 -5.76624,-5.76624v-42.64521c0,-3.17893 2.58551,-5.76624 5.76624,-5.76624h21.75821zM224.09455,201.32273l-0.08147,-33.36529l-7.40267,0.02123c-2.20672,0 -3.9989,-1.7923 -3.9989,-4.00069v-7.55324l-20.43707,0.02123c-1.2327,0 -2.23514,1.00064 -2.23514,2.23143v42.64521c0,1.23258 1.00244,2.23324 2.23514,2.23324h29.68857c1.2327,0 2.23154,-1.00065 2.23154,-2.23312z"/><path d="M214.39651,181.26017c0.17361,0.42139 0.07788,0.90851 -0.24621,1.23359l-6.33302,6.33034c-0.44094,0.44274 -1.1582,0.44274 -1.60093,0l-6.32943,-6.33034c-0.32587,-0.32509 -0.42139,-0.81221 -0.24621,-1.23359c0.17709,-0.42329 0.58814,-0.6995 1.04492,-0.6995h2.76834v-8.20949c0,-0.83311 0.67466,-1.508 1.5053,-1.508h4.11565c0.83231,0 1.50699,0.67489 1.50699,1.508v8.20949h2.76811c0.45701,0 0.86963,0.27621 1.04649,0.6995z"/></g><path d="M294.42113,166.55832v34.7643c0,3.17882 -2.5891,5.76624 -5.76623,5.76624h-29.68857c-3.18072,0 -5.76623,-2.58742 -5.76623,-5.76624v-42.64521c0,-3.17893 2.58551,-5.76624 5.76624,-5.76624h21.75821zM290.88644,201.32273l-0.08148,-33.36529l-7.40267,0.02123c-2.2067,0 -3.99889,-1.7923 -3.99889,-4.00069v-7.55324l-20.43707,0.02124c-1.23269,0 -2.23514,1.00065 -2.23514,2.23143v42.64521c0,1.23258 1.00245,2.23323 2.23514,2.23323h29.68857c1.23269,0 2.23154,-1.00065 2.23154,-2.23312z" fill="#000000" stroke-width="1"/><path d="M266.43151,178.73916c-0.17361,-0.42139 -0.07788,-0.90851 0.2462,-1.2336l6.33302,-6.33033c0.44094,-0.44273 1.15819,-0.44273 1.60093,0l6.32943,6.33032c0.32587,0.32509 0.42139,0.81221 0.24621,1.2336c-0.17709,0.42329 -0.58813,0.6995 -1.04492,0.6995h-2.76833v8.20949c0,0.83311 -0.67466,1.508 -1.50529,1.508h-4.11564c-0.83233,0 -1.50699,-0.67489 -1.50699,-1.508v-8.20948h-2.7681c-0.45701,0 -0.86963,-0.27621 -1.04649,-0.6995z" fill="#000000" stroke-width="1"/></g></g></svg>