<svg version="1.1" xmlns="http://www.w3.org/2000/svg" xmlns:xlink="http://www.w3.org/1999/xlink" width="175.30695" height="100.95497" viewBox="0,0,175.30695,100.95497"><g transform="translate(-152.34652,-129.52252)"><g data-paper-data="{&quot;isPaintingLayer&quot;:true}" fill-rule="nonzero" stroke="none" stroke-width="0" stroke-linecap="butt" stroke-linejoin="miter" stroke-miterlimit="10" stroke-dasharray="" stroke-dashoffset="0" style="mix-blend-mode: normal"><path d="M156.04436,230.47749c-2.04226,0 -3.69784,-3.0119 -3.69784,-6.72727v-87.50043c0,-3.71537 1.65558,-6.72727 3.69784,-6.72727h167.91127c2.04226,0 3.69784,3.0119 3.69784,6.72727v87.50043c0,3.71537 -1.65558,6.72727 -3.69784,6.72727z" fill="#feff72"/><g fill="#ffffff"><path d="M230.0669,209.24184l3.85161,-36.08352h12.06163l3.95297,36.08352z"/><path d="M223.47861,167.27955c0,-9.12451 7.39688,-16.52139 16.52139,-16.52139c9.12451,0 16.52139,7.39688 16.52139,16.52139c0,9.12451 -7.39688,16.52139 -16.52139,16.52139c-9.12451,0 -16.52139,-7.39688 -16.52139,-16.52139z"/></g></g></g></svg>