<svg version="1.1" xmlns="http://www.w3.org/2000/svg" xmlns:xlink="http://www.w3.org/1999/xlink" width="115.32549" height="95.48052" viewBox="0,0,115.32549,95.48052"><g transform="translate(-182.33726,-132.25973)"><g data-paper-data="{&quot;isPaintingLayer&quot;:true}" stroke="none" stroke-linecap="butt" stroke-linejoin="miter" stroke-miterlimit="10" stroke-dasharray="" stroke-dashoffset="0" style="mix-blend-mode: normal"><path d="M182.33727,227.74026v-95.48052h115.32549v95.48052z" fill="#59ad0d" fill-rule="nonzero" stroke-width="0"/><path d="M209.60384,156.75798c2.00716,0 3.7689,0.29801 5.33781,0.90278c0.9992,0.22789 1.91951,0.80637 2.56811,1.70039l7.09955,9.8079l5.0661,0.9729v-19.05485h-7.22226c-0.91155,0 -1.67409,-0.76254 -1.67409,-1.67409c0,-0.91155 0.76254,-1.67409 1.67409,-1.67409h33.42049v-4.87327c0,-0.91155 0.76254,-1.67409 1.67409,-1.67409c0.91155,0 1.67409,0.76254 1.67409,1.67409v4.87327h32.78065c0.91155,0 1.67409,0.76254 1.67409,1.67409c0,0.91155 -0.76254,1.67409 -1.67409,1.67409h-7.13461v41.39653h7.30991c0.91155,0 1.67409,0.76254 1.67409,1.67409c0,0.91155 -0.76254,1.67409 -1.67409,1.67409h-32.7193v7.6605c0.08765,0.06135 0.149,0.11394 0.23665,0.1753l10.44774,9.93061c0.6749,0.6486 0.70996,1.70039 0.06135,2.34899c-0.6486,0.6749 -1.70039,0.70996 -2.34899,0.06135l-8.39675,-7.95851v7.22226c0,0.91155 -0.76254,1.67409 -1.67409,1.67409c-0.91155,0 -1.67409,-0.76254 -1.67409,-1.67409v-7.54656l-8.72106,8.27405c-0.6749,0.63984 -1.73545,0.61354 -2.34899,-0.06135c-0.63984,-0.6749 -0.61354,-1.73545 0.06135,-2.34899l10.44774,-9.91308h0.02629c0.1753,-0.149 0.35936,-0.28924 0.56095,-0.3506v-7.48521h-33.6922c-0.91155,0 -1.67409,-0.76254 -1.67409,-1.67409c0,-0.91155 0.76254,-1.67409 1.67409,-1.67409h7.22226v-13.39274l-8.3354,-1.60397c-1.09561,-0.18406 -2.12987,-0.78007 -2.83106,-1.75298l-3.54101,-4.8908l-0.00876,0.43824v-0.31554l-0.28048,16.32021l3.5936,20.56241l1.36732,10.44774c0.76254,5.19757 -7.23103,7.74815 -9.16806,0.92031l-4.61033,-27.35519l-4.71551,27.78467c-0.89402,5.03104 -9.10671,5.0661 -9.16806,-1.03426l5.20634,-31.15038l-0.35936,-16.1712l-0.06135,-2.77847c-0.42071,0.49083 -0.78007,1.09561 -1.07808,1.7968c-0.63107,1.49003 -0.73625,2.55058 -0.85896,4.11949l-0.7976,10.37762c-0.00876,0.05259 -0.01753,0.11394 -0.02629,0.16653c-0.00876,0.05259 -0.01753,0.10518 -0.03506,0.15777v0.00876c-0.00876,0.05259 -0.02629,0.10518 -0.04382,0.15777v0.00876c-0.00876,0.05259 -0.02629,0.09641 -0.04382,0.14024l-0.00876,0.02629c-0.01753,0.04382 -0.03506,0.07888 -0.05259,0.12271l-0.01753,0.04382c-0.00876,0.02629 -0.02629,0.06135 -0.04382,0.09641c-0.00876,0.01753 -0.01753,0.04382 -0.02629,0.06135c-0.00876,0.02629 -0.01753,0.05259 -0.03506,0.07888c-0.00876,0.03506 -0.02629,0.06135 -0.04382,0.08765l-0.00876,0.01753l-0.00876,0.01753c-1.40238,2.36652 -5.5394,3.15536 -7.02067,0.24542c-0.02629,-0.05259 -0.04382,-0.09641 -0.07012,-0.149l-0.01753,-0.03506c-0.02629,-0.05259 -0.05259,-0.10518 -0.07012,-0.15777l-0.00876,-0.02629c-0.01753,-0.06135 -0.04382,-0.11394 -0.06135,-0.1753l-0.00876,-0.01753c-0.02629,-0.06135 -0.04382,-0.13147 -0.06135,-0.19283l-0.00876,-0.01753c-0.01753,-0.06135 -0.03506,-0.13147 -0.05259,-0.20159v-0.00876c-0.01753,-0.07012 -0.03506,-0.149 -0.05259,-0.21912v-0.00876c-0.01753,-0.07888 -0.03506,-0.15777 -0.04382,-0.23665c-0.01753,-3.30436 0.24542,-6.66131 0.74501,-10.04455c0.24542,-3.35695 0.63984,-5.72347 2.12987,-8.87006c0.02629,-0.05259 0.05259,-0.11394 0.07888,-0.16653l0.01753,-0.04382l0.06135,-0.12271l0.02629,-0.04382c0.02629,-0.05259 0.05259,-0.10518 0.07888,-0.15777l0.01753,-0.03506l0.06135,-0.12271l0.02629,-0.06135l0.09641,-0.149l0.01753,-0.03506l0.07012,-0.13147l0.01753,-0.03506c0.02629,-0.05259 0.06135,-0.10518 0.08765,-0.15777v-0.00876c0.02629,-0.05259 0.05259,-0.09641 0.07888,-0.149l0.02629,-0.05259l0.07012,-0.12271l0.01753,-0.02629c0.03506,-0.04382 0.06135,-0.09641 0.08765,-0.14024l0.03506,-0.06135l0.06135,-0.10518l0.02629,-0.04382c0.02629,-0.05259 0.06135,-0.09641 0.08765,-0.149l0.01753,-0.03506l0.07888,-0.12271l0.01753,-0.03506c0.03506,-0.05259 0.06135,-0.10518 0.09641,-0.149v-0.00876c0.03506,-0.04382 0.06135,-0.09641 0.09641,-0.14024l0.03506,-0.05259c0.02629,-0.03506 0.05259,-0.07888 0.07888,-0.11394l0.01753,-0.02629l0.00876,-0.00876c0.02629,-0.04382 0.05259,-0.08765 0.08765,-0.13147l0.02629,-0.03506l0.07888,-0.10518l0.02629,-0.03506c0.03506,-0.04382 0.07012,-0.09641 0.10518,-0.14024l0.00876,-0.01753l0.08765,-0.12271l0.02629,-0.04382c0.03506,-0.04382 0.06135,-0.08765 0.09641,-0.13147v-0.00876l0.01753,-0.01753c0.03506,-0.04382 0.06135,-0.08765 0.09641,-0.13147l0.00876,-0.00876c0.07012,-0.09641 0.149,-0.19283 0.23665,-0.28924l0.00876,-0.01753c0.04382,-0.05259 0.07888,-0.09641 0.11394,-0.14024c0.07888,-0.09641 0.15777,-0.19283 0.23665,-0.28924v-0.00876c0.70996,-0.84143 1.4725,-1.58644 2.2701,-2.21751l0.02629,-0.02629c0.85896,-0.6749 1.75298,-1.22708 2.66452,-1.63027v0.10518c3.92667,-1.56015 8.54576,-0.87649 12.76166,-0.87649zM234.11044,171.00091c-0.07888,-0.01753 -0.15777,-0.03506 -0.23665,-0.04382l-0.85896,-0.16653v-19.70345h48.53114v41.41406h-48.53114v-12.82302c2.08604,0.01753 3.95296,-1.45497 4.35615,-3.57607c0.28924,-1.53385 -0.24542,-3.02388 -1.2972,-4.02308l9.8079,-10.2812c0.41195,-0.43824 0.39442,-1.1219 -0.03506,-1.53385c-0.43824,-0.41195 -1.1219,-0.39442 -1.53385,0.03506zM205.86124,136.63382c-5.14498,0 -9.3083,4.16332 -9.3083,9.3083c0,5.14498 4.17208,9.3083 9.3083,9.3083c5.14498,0 9.3083,-4.17208 9.3083,-9.3083c0,-5.14498 -4.17208,-9.3083 -9.3083,-9.3083z" fill="#000000" fill-rule="evenodd" stroke-width="1"/><path d="M255.61864,171.39948l-7.68097,-7.43943l3.67236,-3.93089l7.68002,7.40906l7.73815,-7.54998l3.85855,3.79583l-7.58714,7.66709l7.79691,7.5149l-3.7953,3.82596l-7.74684,-7.44807l-7.44241,7.7354l-4.00883,-3.76238z" fill="#000000" fill-rule="nonzero" stroke-width="0"/></g></g></svg>