<svg version="1.1" xmlns="http://www.w3.org/2000/svg" xmlns:xlink="http://www.w3.org/1999/xlink" width="324.32432" height="45.04507" viewBox="0,0,324.32432,45.04507"><g transform="translate(-77.83784,-157.47747)"><g data-paper-data="{&quot;isPaintingLayer&quot;:true}" fill-rule="nonzero" stroke="none" stroke-width="0" stroke-linecap="butt" stroke-linejoin="miter" stroke-miterlimit="10" stroke-dasharray="" stroke-dashoffset="0" style="mix-blend-mode: normal"><path d="M87.83784,202.52252c-5.52285,0 -10,-4.47715 -10,-10v-25.04505c0,-5.52285 4.47715,-10 10,-10h304.32432c5.52285,0 10,4.47715 10,10v25.04505c0,5.52285 -4.47715,10 -10,10z" fill="#66d7ff"/><path d="M81.1515,202.52255c-1.83007,0 -3.31365,-4.47715 -3.31365,-10v-25.04505c0,-5.52285 1.48358,-10 3.31365,-10h100.84294c1.83007,0 3.31366,4.47715 3.31366,10v25.04505c0,5.52285 -1.48359,10 -3.31366,10z" fill="#99ff66"/></g></g></svg>