<svg xmlns="http://www.w3.org/2000/svg" xmlns:xlink="http://www.w3.org/1999/xlink" version="1.1" width="243.14800598144532" height="226.01099731445314" viewBox="-0.25199998378753663 -0.584999988079071 243.14800598144532 226.01099731445314"><g><g data-paper-data="{&quot;isPaintingLayer&quot;:true}" fill-rule="nonzero" stroke-linecap="none" stroke-linejoin="none" stroke-miterlimit="10" stroke-dasharray="" stroke-dashoffset="0" font-family="none" font-weight="none" font-size="none" text-anchor="none" style="mix-blend-mode: normal"><g data-paper-data="{&quot;index&quot;:null}" id="Group" stroke-linejoin="miter"><path d="M 209.108 71.903 L 204.576 71.903 L 204.576 41.753 L 209.108 41.753 Z " id="Rectangle" fill="#d974e8" stroke="#5e154d" stroke-width="0.6" stroke-linecap="butt"/><g id="Path"><path d="M 180.446 49.217 L 198.365 49.217 C 200.828 48.933 203.069 47.661 204.576 45.695 L 204.576 68.003 C 203.069 66.037 200.828 64.766 198.365 64.481 L 180.446 64.481 C 176.228 64.481 172.808 61.064 172.808 56.849 C 172.808 52.634 176.228 49.217 180.446 49.217 Z " id="ID0.719782015774399" fill="#8b49d4" stroke="#5e154d" stroke-width="0.6" stroke-linecap="butt"/><path d="M 185.104 64.481 L 185.104 75.677 L 180.908 75.677 L 180.908 64.481 L 185.104 64.481 " id="ID0.3691422138363123" fill="#8b49d4" stroke="#5e154d" stroke-width="0.6" stroke-linecap="butt"/><path d="M 176.711 56.933 C 176.711 54.617 178.59 52.74 180.908 52.74 " id="ID0.9415755225345492" fill="none" stroke="#ffffff" stroke-width="0.6" stroke-linecap="butt"/><path d="M 225.852 56.849 L 218.718 56.849 " id="ID0.7974647390656173" fill="none" stroke="#5e154d" stroke-width="1.2" stroke-linecap="round"/><path d="M 224.174 73.79 L 218.718 68.38 " id="ID0.8581482088193297" fill="none" stroke="#5e154d" stroke-width="1.2" stroke-linecap="round"/><path d="M 224.174 39.908 L 218.718 45.318 " id="ID0.3566857478581369" fill="none" stroke="#5e154d" stroke-width="1.2" stroke-linecap="round"/></g></g><g data-paper-data="{&quot;index&quot;:null}" id="Group" stroke-linecap="butt" stroke-linejoin="miter"><path d="M 6.593 82.184 C 6.593 77.781 8.733 75.685 12.51 75.685 L 193.338 75.685 C 196.815 75.98 199.604 78.679 200.01 82.142 L 207.06 127.261 L 231.904 144.58 C 235.106 146.317 236.882 149.867 236.352 153.469 L 236.352 171.039 L 6.593 171.039 Z " id="Path" fill="#f7c1d8" stroke-width="1" stroke="none"/><path d="M 236.352 169.907 L 236.352 207.017 L 208.235 207.017 C 208.304 200.186 205.613 193.617 200.771 188.795 C 195.929 183.973 189.346 181.305 182.511 181.396 C 175.774 181.344 169.31 184.056 164.63 188.899 C 159.95 193.742 157.464 200.291 157.751 207.017 L 84.186 207.017 C 83.625 193.03 72.114 181.98 58.105 181.98 C 44.096 181.98 32.585 193.03 32.024 207.017 L 6.593 207.017 L 6.593 169.907 Z " id="Path" fill="#da53d6" stroke-width="1" stroke="none"/></g><path d="M 115.95 63.607 L 115.95 75.725 L 110.705 75.725 L 110.705 63.607 L 115.95 63.607 " data-paper-data="{&quot;index&quot;:null}" id="Path" fill="#5e154d" stroke="#5e154d" stroke-width="1.512" stroke-linecap="round" stroke-linejoin="round"/><path d="M 45.197 63.481 L 45.197 75.599 L 39.952 75.599 L 39.952 63.481 L 45.197 63.481 " data-paper-data="{&quot;index&quot;:null}" id="Path" fill="#5e154d" stroke="#5e154d" stroke-width="1.512" stroke-linecap="round" stroke-linejoin="round"/><g data-paper-data="{&quot;index&quot;:null}" id="Taco" stroke-linejoin="miter"><path d="M 74.947 0.675 C 103.592 0.675 125.375 24.827 130.521 42.941 C 132.708 51.675 133.343 60.723 132.396 69.675 L 21.687 69.675 C 17.697 69.675 15.822 65.345 15.822 60.578 C 15.989 50.842 18.551 41.294 23.282 32.772 C 32.418 16.445 49.214 0.675 74.947 0.675 Z " id="Path" fill="#ffd78f" stroke="#e89f1f" stroke-width="1.35" stroke-linecap="butt"/><path d="M 31.0805 24.3935 L 33.8612 41.424 L 29.9357 42.0681 L 27.1558 25.0365 L 31.0805 24.3935 " id="Rectangle" fill="#4ed1c1" stroke="#009cc6" stroke-width="1.35" stroke-linecap="round"/><path d="M 56.8338 16.4074 L 52.8045 33.1864 L 48.9383 32.254 L 52.9674 15.476 L 56.8338 16.4074 " id="Rectangle" fill="#ffffff" stroke="#000000" stroke-width="1.8" stroke-linecap="round"/><path d="M 43.5715 12.7431 L 53.5602 26.7221 L 49.5654 29.5888 L 39.5766 15.6098 L 43.5715 12.7431 " id="Rectangle" fill="#4ed1c1" stroke="#009cc6" stroke-width="1.875" stroke-linecap="round"/><path d="M 43.9587 20.5946 L 40.9957 41.9914 L 36.1889 41.3234 L 39.1519 19.9266 L 43.9587 20.5946 " id="Rectangle" fill="#4ed1c1" stroke="#009cc6" stroke-width="1.875" stroke-linecap="round"/><path d="M 33.9282 16.0007 L 48.449 33.2911 L 44.5531 36.576 L 30.033 19.285 L 33.9282 16.0007 " id="Rectangle" fill="#4ed1c1" stroke="#009cc6" stroke-width="1.35" stroke-linecap="round"/><path d="M 39.1349 26.7991 L 36.767 43.8928 L 32.709 43.3287 L 35.0769 26.235 L 39.1349 26.7991 " id="Rectangle" fill="#009cc6" stroke="#009cc6" stroke-width="1.875" stroke-linecap="round"/><path d="M 138.4499 33.5374 L 131.7955 49.4555 L 128.0169 47.8693 L 134.6713 31.9512 L 138.4499 33.5374 " id="Rectangle" fill="#4ed1c1" stroke="#009cc6" stroke-width="1.35" stroke-linecap="round"/><path d="M 135.8837 28.2602 L 122.7058 39.3713 L 119.6075 35.6816 L 132.784 24.5703 L 135.8837 28.2602 " id="Rectangle" fill="#4ed1c1" stroke="#009cc6" stroke-width="1.35" stroke-linecap="round"/><path d="M 130.3724 29.3836 L 114.8538 36.8677 L 112.8695 32.7377 L 128.3881 25.2536 L 130.3724 29.3836 " id="Rectangle" fill="#009cc6" stroke="#009cc6" stroke-width="1.35" stroke-linecap="round"/><path d="M 138.4887 42.1014 L 122.0886 36.8316 L 123.3402 32.9221 L 139.7394 38.1915 L 138.4887 42.1014 " id="Rectangle" fill="#4ed1c1" stroke="#009cc6" stroke-width="1.875" stroke-linecap="round"/><path d="M 30.856 69.631 L 26.191 69.631 C 24.672 69.823 23.14 69.378 21.969 68.405 C 20.797 67.432 20.092 66.019 20.025 64.51 C 19.948 62.773 20.813 61.127 22.297 60.189 C 20.761 59.162 19.836 57.457 19.822 55.628 C 19.981 53.925 21.22 52.51 22.905 52.107 C 21.695 50.878 21.152 49.154 21.445 47.465 C 22.013 44.905 25.502 44.585 25.502 44.585 C 24.268 43.231 24.268 41.177 25.502 39.823 C 27.611 37.423 30.694 39.823 30.694 39.823 C 31.667 38.249 33.519 37.424 35.36 37.743 C 37.594 37.925 39.425 39.567 39.822 41.744 Z " id="Path" fill="#f46e9e" stroke="#ea3681" stroke-width="1.35" stroke-linecap="round"/><path d="M 121.125 31.675 L 52.307 26.422 C 51.183 23.959 50.383 21.357 49.928 18.683 C 49.421 15.489 50.761 12.283 53.378 10.423 C 55.798 9.083 58.61 8.656 61.311 9.22 C 62.159 6.331 64.685 4.272 67.658 4.047 C 70.756 3.55 73.895 4.648 76.027 6.975 C 77.122 4.709 79.402 3.275 81.897 3.285 C 84.525 3.55 86.883 5.031 88.283 7.295 C 90.167 4.291 93.494 2.533 97.009 2.684 C 100.332 2.787 103.352 4.665 104.942 7.616 C 106.806 6.755 108.948 6.755 110.812 7.616 C 112.983 8.803 114.586 10.828 115.255 13.23 C 117.102 12.833 119.028 13.305 120.49 14.513 C 122.2 15.775 123.386 17.632 123.822 19.726 Z " id="Path" fill="#f46e9e" stroke="#ea3681" stroke-width="1.35" stroke-linecap="round"/><path d="M 125.9877 20.4435 L 123.6208 37.5374 L 118.7744 36.8639 L 121.1413 19.77 L 125.9877 20.4435 " id="Rectangle" fill="#4ed1c1" stroke="#009cc6" stroke-width="1.875" stroke-linecap="round"/><path d="M 49.8697 10.752 L 53.8365 28.4048 L 49.5688 29.3679 L 45.602 11.7151 L 49.8697 10.752 " id="Rectangle" fill="#009cc6" stroke="#009cc6" stroke-width="1.35" stroke-linecap="round"/><path d="M 28.65 52.847 C 29.374 53.571 29.822 54.571 29.822 55.675 C 29.822 56.779 29.374 57.779 28.65 58.503 C 27.926 59.227 26.926 59.675 25.822 59.675 C 24.718 59.675 23.718 59.227 22.994 58.503 C 22.27 57.779 21.822 56.779 21.822 55.675 C 21.822 54.571 22.27 53.571 22.994 52.847 C 23.718 52.123 24.718 51.675 25.822 51.675 C 26.926 51.675 27.926 52.123 28.65 52.847 Z " id="Oval" fill="#ea3681" stroke="#ea3681" stroke-width="0.9" stroke-linecap="round"/><path d="M 83.284 13.675 C 113.697 14.092 138.064 39.113 137.82 69.675 L 21.822 69.675 C 26.957 69.675 28.231 66.275 29.186 60.635 C 33.536 33.891 56.319 14.114 83.284 13.675 Z " id="Path" fill="#fdbb38" stroke="#e89f1f" stroke-width="1.35" stroke-linecap="butt"/><path d="M 110.65 10.847 C 111.374 11.571 111.822 12.571 111.822 13.675 C 111.822 14.779 111.374 15.779 110.65 16.503 C 109.926 17.227 108.926 17.675 107.822 17.675 C 106.718 17.675 105.718 17.227 104.994 16.503 C 104.27 15.779 103.822 14.779 103.822 13.675 C 103.822 12.571 104.27 11.571 104.994 10.847 C 105.718 10.123 106.718 9.675 107.822 9.675 C 108.926 9.675 109.926 10.123 110.65 10.847 Z " id="Oval" fill="#ea3681" stroke="#ea3681" stroke-width="0.9" stroke-linecap="round"/><path d="M 71.65 7.847 C 72.374 8.571 72.822 9.571 72.822 10.675 C 72.822 11.779 72.374 12.779 71.65 13.503 C 70.926 14.227 69.926 14.675 68.822 14.675 C 67.718 14.675 66.718 14.227 65.994 13.503 C 65.27 12.779 64.822 11.779 64.822 10.675 C 64.822 9.571 65.27 8.571 65.994 7.847 C 66.718 7.123 67.718 6.675 68.822 6.675 C 69.926 6.675 70.926 7.123 71.65 7.847 Z " id="Oval" fill="#ea3681" stroke="#ea3681" stroke-width="0.9" stroke-linecap="round"/><path d="M 105.822 61.675 L 107.822 59.675 " id="Path" fill="none" stroke="#e89f1f" stroke-width="1.35" stroke-linecap="round"/><path d="M 91.822 53.332 L 88.822 53.018 " id="Path" fill="none" stroke="#e89f1f" stroke-width="1.35" stroke-linecap="round"/><path d="M 47.822 58.675 L 46.822 55.675 " id="Path" fill="none" stroke="#e89f1f" stroke-width="1.35" stroke-linecap="round"/><path d="M 98.822 42.675 L 100.822 45.675 " id="Path" fill="none" stroke="#e89f1f" stroke-width="1.35" stroke-linecap="round"/><path d="M 117.822 50.675 L 120.822 51.675 " id="Path" fill="none" stroke="#e89f1f" stroke-width="1.35" stroke-linecap="round"/><path d="M 77.822 62.675 L 75.822 60.675 " id="Path" fill="none" stroke="#e89f1f" stroke-width="1.35" stroke-linecap="round"/><path d="M 75.822 40.675 L 78.822 42.675 " id="Path" fill="none" stroke="#e89f1f" stroke-width="1.35" stroke-linecap="round"/><path d="M 63.822 54.675 L 64.822 51.675 " id="Path" fill="none" stroke="#e89f1f" stroke-width="1.35" stroke-linecap="round"/><path d="M 41.822 42.675 C 42.709 41.278 43.711 39.941 44.822 38.675 " id="Path" fill="none" stroke="#ffd78f" stroke-width="1.8" stroke-linecap="round"/><path d="M 47.822 35.675 C 51.519 31.218 55.919 27.494 60.822 24.675 " id="Path" fill="none" stroke="#ffd78f" stroke-width="1.8" stroke-linecap="round"/></g><g data-paper-data="{&quot;index&quot;:null}" id="Group" stroke-linecap="butt"><path d="M 191.798 95.172 C 193.813 95.172 195.701 95.675 196.247 99.365 L 201.114 132.911 C 201.095 133.982 200.565 134.979 199.688 135.595 L 189.532 94.963 Z " id="Path" fill="#b3e0d7" stroke="none" stroke-width="1" stroke-linejoin="miter"/><path d="M 185.839 95.214 L 196.163 136.601 L 186.427 136.601 C 184.41 136.601 182.776 134.968 182.776 132.953 L 182.776 98.82 C 182.79 97.036 184.08 95.518 185.839 95.214 Z " id="Path" fill="#b3e0d7" stroke="none" stroke-width="1" stroke-linejoin="miter"/><path d="M 186.427 95.172 L 189.532 95.172 L 199.688 135.805 C 199.016 136.327 198.188 136.608 197.338 136.601 L 196.163 136.601 L 185.839 95.214 Z " id="Path" fill="#d4fff5" stroke="none" stroke-width="1" stroke-linejoin="miter"/><path d="M 185.839 95.214 L 191.798 95.214 C 193.813 95.214 195.701 95.717 196.247 99.407 L 201.114 132.953 C 201.095 134.024 200.565 135.021 199.688 135.637 C 199.016 136.159 198.188 136.44 197.338 136.434 L 186.427 136.434 C 184.41 136.434 182.776 134.8 182.776 132.786 L 182.776 98.82 C 182.79 97.036 184.08 95.518 185.839 95.214 Z " id="Path" fill="none" stroke="#5e154d" stroke-width="1.512" stroke-linejoin="round"/></g><g data-paper-data="{&quot;index&quot;:null}" id="Group" stroke-linejoin="miter"><path d="M 60.429 103.587 L 60.429 148.497 L 51.448 148.497 L 40.201 103.587 L 60.429 103.587 " id="Path" fill="#b3e0d7" stroke="none" stroke-width="1" stroke-linecap="butt"/><path d="M 40.201 103.587 L 51.448 148.497 L 45.405 148.497 L 34.158 103.587 L 40.201 103.587 " id="Path" fill="#d4fff5" stroke="none" stroke-width="1" stroke-linecap="butt"/><path d="M 30.759 103.587 L 41.964 148.497 L 38.565 148.497 L 27.318 103.587 L 30.759 103.587 " id="Path" fill="#d4fff5" stroke="none" stroke-width="1" stroke-linecap="butt"/><path d="M 34.158 103.587 L 45.405 148.497 L 41.964 148.497 L 30.759 103.587 L 34.158 103.587 " id="Path" fill="#b3e0d7" stroke="none" stroke-width="1" stroke-linecap="butt"/><path d="M 25.933 103.587 L 27.318 103.587 L 38.565 148.497 L 25.933 148.497 L 25.933 103.587 " id="Path" fill="#b3e0d7" stroke="none" stroke-width="1" stroke-linecap="butt"/><g id="Path"><path d="M 109.108 148.497 L 109.108 153.025 L 21.401 153.025 L 21.401 148.497 L 109.108 148.497 " id="ID0.42276911018416286" fill="#996cd4" stroke-linecap="round" stroke-width="1.512" stroke="#5e154d"/><path d="M 25.598 86.73 L 65.171 86.73 L 65.297 86.73 L 104.912 86.73 L 108.605 103.587 L 65.297 103.587 L 65.171 103.587 L 21.905 103.587 L 25.598 86.73 " id="ID0.10764920059591532" fill="#ea3681" stroke-linecap="butt" stroke-width="1.512" stroke="#5e154d"/><path d="M 104.534 103.587 L 104.534 148.497 L 60.429 148.497 L 60.429 103.587 L 104.534 103.587 " id="ID0.4188902652822435" fill="#43c3d7" stroke-linecap="round" stroke-width="1.512" stroke="#5e154d"/><path d="M 104.534 153.025 L 104.534 160.154 L 100.337 160.154 L 100.337 153.025 L 104.534 153.025 " id="ID0.27370519330725074" fill="#5e154d" stroke-linecap="round" stroke-width="1.512" stroke="#5e154d"/><path d="M 29.584 153.025 L 29.584 160.154 L 25.388 160.154 L 25.388 153.025 L 29.584 153.025 " id="ID0.768521741963923" fill="#5e154d" stroke-linecap="round" stroke-width="1.512" stroke="#5e154d"/><path d="M 60.429 103.587 L 60.429 148.497 L 25.933 148.497 L 25.933 103.587 L 60.429 103.587 " id="ID0.8529659123159945" fill="none" stroke-linecap="round" stroke-width="1.512" stroke="#5e154d"/></g></g><g data-paper-data="{&quot;index&quot;:null}" id="Group" stroke-linecap="butt"><path d="M 127.368 95.172 L 171.263 95.172 C 173.28 95.172 174.914 96.806 174.914 98.82 L 174.914 174.55 C 162.753 176.502 153.103 185.827 150.742 197.906 L 127.452 197.906 C 125.468 197.884 123.865 196.282 123.843 194.3 L 123.843 98.82 C 123.842 96.854 125.401 95.24 127.368 95.172 Z " id="Path" fill="#fc9fe4" stroke="#5e154d" stroke-width="1.512" stroke-linejoin="round"/><path d="M 167.361 104.02 L 167.361 137.105 L 162.744 137.105 L 154.477 104.02 L 167.361 104.02 " id="Path" fill="#b3e0d7" stroke="none" stroke-width="1" stroke-linejoin="miter"/><path d="M 154.477 104.02 L 162.744 137.105 L 156.659 137.105 L 148.434 104.02 L 154.477 104.02 " id="Path" fill="#d4fff5" stroke="none" stroke-width="1" stroke-linejoin="miter"/><path d="M 148.434 104.02 L 156.659 137.105 L 153.26 137.105 L 145.035 104.02 L 148.434 104.02 " id="Path" fill="#b3e0d7" stroke="none" stroke-width="1" stroke-linejoin="miter"/><path d="M 145.035 104.02 L 153.26 137.105 L 149.819 137.105 L 141.594 104.02 L 145.035 104.02 " id="Path" fill="#d4fff5" stroke="none" stroke-width="1" stroke-linejoin="miter"/><path d="M 131.271 104.02 L 141.594 104.02 L 149.819 137.105 L 131.271 137.105 L 131.271 104.02 " id="Path" fill="#b3e0d7" stroke="none" stroke-width="1" stroke-linejoin="miter"/><path d="M 167.361 148.468 L 167.361 157.484 L 163.164 157.484 L 163.164 148.468 L 167.361 148.468 " id="Path" fill="none" stroke="#d974e8" stroke-width="1.512" stroke-linejoin="round"/></g><g data-paper-data="{&quot;index&quot;:null}" id="Group" stroke-linejoin="miter"><g id="Path" stroke-linecap="butt"><path d="M 241.636 172.968 L 241.636 183.828 L 236.265 183.828 L 236.265 172.968 L 241.636 172.968 " id="ID0.9831489627249539" fill="#f7c1d8" stroke="#5e154d" stroke-width="2.016"/><path d="M 221.996 183.786 L 221.996 188.441 L 213.603 188.441 L 213.603 183.786 L 221.996 183.786 " id="ID0.4489393848925829" fill="none" stroke="#fc9fe4" stroke-width="1.512"/><path d="M 6.547 172.968 L 6.547 183.828 L 1.008 183.828 L 1.008 172.968 L 6.547 172.968 " id="ID0.971949434839189" fill="#8b49d4" stroke="#5e154d" stroke-width="2.016"/><path d="M 196.733 148.437 L 185.864 148.437 " id="ID0.873818903695792" fill="none" stroke="#000000" stroke-width="2.016"/><path d="M 196.733 153.218 L 185.864 153.218 " id="ID0.6532654212787747" fill="none" stroke="#000000" stroke-width="2.016"/><path d="M 196.733 158.04 L 185.864 158.04 " id="ID0.981722607742995" fill="none" stroke="#000000" stroke-width="2.016"/><path d="M 12.464 75.685 L 193.292 75.685 C 196.769 75.98 199.558 78.679 199.965 82.142 L 207.015 127.261 L 231.858 144.58 C 235.06 146.317 236.836 149.867 236.307 153.469 L 236.307 207.017 L 208.19 207.017 C 208.179 200.137 205.414 193.548 200.51 188.719 C 195.606 183.89 188.972 181.223 182.088 181.312 C 168.514 182.284 157.912 193.422 157.622 207.017 L 84.141 207.017 C 84.072 192.661 72.405 181.061 58.039 181.061 C 43.686 181.061 32.859 194.563 32.482 207.017 L 6.547 207.017 L 6.547 82.184 C 6.547 77.781 8.687 75.685 12.464 75.685 Z " id="ID0.4050336927175522" fill="none" stroke="#5e154d" stroke-width="2.016"/></g><path d="M 233.285 193.976 L 233.285 183.786 L 239.748 183.786 L 239.748 207.017 L 226.864 207.017 L 226.864 193.976 L 233.285 193.976 " id="Path" fill="#d974e8" stroke="#5e154d" stroke-width="2.016" stroke-linecap="butt"/><path d="M 182.759 186.805 C 170.911 187.126 161.542 196.938 161.776 208.778 L 155.524 208.778 C 154.526 198.415 159.496 188.383 168.348 182.893 C 177.2 177.402 188.402 177.402 197.254 182.893 C 206.106 188.383 211.076 198.415 210.078 208.778 L 203.826 208.778 C 204.06 196.906 194.64 187.08 182.759 186.805 Z " id="Path" fill="#fdbb38" stroke="#5e154d" stroke-width="1.512" stroke-linecap="butt"/><path d="M 58.71 186.805 C 46.872 187.148 37.515 196.946 37.727 208.778 L 31.475 208.778 C 30.477 198.415 35.447 188.383 44.299 182.893 C 53.151 177.402 64.353 177.402 73.205 182.893 C 82.057 188.383 87.027 198.415 86.029 208.778 L 79.818 208.778 C 80.029 196.899 70.597 187.08 58.71 186.805 Z " id="Path" fill="#fdbb38" stroke="#5e154d" stroke-width="1.512" stroke-linecap="butt"/><path d="M 230.306 203.075 L 230.306 197.205 " id="Path" fill="none" stroke="#ffffff" stroke-width="1.512" stroke-linecap="round"/></g><g data-paper-data="{&quot;index&quot;:null}" id="Group" stroke-linejoin="miter"><g id="Path" stroke-linecap="butt"><path d="M 12.027 92.256 L 12.027 85.966 C 11.857 84.572 12.326 83.175 13.304 82.166 C 14.281 81.156 15.663 80.642 17.063 80.766 L 22.686 80.766 " id="ID0.4481486948207021" stroke-width="2.52" fill="none" stroke="#ffffff"/><path d="M 26.463 80.766 L 29.82 80.766 " id="ID0.941056695766747" stroke-width="2.52" fill="none" stroke="#ffffff"/></g><g id="Path" stroke-linecap="butt"><path d="M 112.044 177.296 L 115.191 179.477 " id="ID0.6005543484352529" stroke-width="1.512" fill="none" stroke="#cc48cc"/><path d="M 97.692 175.325 L 96.768 179.057 " id="ID0.4862700654193759" stroke-width="1.512" fill="none" stroke="#cc48cc"/><path d="M 106.211 190.379 L 105.749 186.563 " id="ID0.5806826669722795" stroke-width="1.512" fill="none" stroke="#cc48cc"/><path d="M 135.712 201.575 L 139.321 202.917 " id="ID0.9247706397436559" stroke-width="1.512" fill="none" stroke="#cc48cc"/><path d="M 226.902 177.799 L 223.419 176.164 " id="ID0.691093638073653" stroke-width="1.512" fill="none" stroke="#cc48cc"/><path d="M 217.25 196.04 L 218.384 199.73 " id="ID0.1760742710903287" stroke-width="1.512" fill="none" stroke="#cc48cc"/><path d="M 205.626 180.315 L 207.557 177.003 " id="ID0.7037871237844229" stroke-width="1.512" fill="none" stroke="#cc48cc"/><path d="M 191.945 175.074 L 188.127 174.822 " id="ID0.4898304417729378" stroke-width="1.512" fill="none" stroke="#cc48cc"/><path d="M 167.857 181.364 L 170.711 178.764 " id="ID0.2831874620169401" stroke-width="1.512" fill="none" stroke="#cc48cc"/><path d="M 156.401 193.692 L 156.401 189.834 " id="ID0.4919192739762366" stroke-width="1.512" fill="none" stroke="#cc48cc"/><path d="M 96.307 195.369 L 95.384 199.101 " id="ID0.5800011861138046" stroke-width="1.512" fill="none" stroke="#cc48cc"/><path d="M 86.907 185.054 L 90.054 187.234 " id="ID0.6567207644693553" stroke-width="1.512" fill="none" stroke="#cc48cc"/><path d="M 78.556 175.619 L 76.289 178.764 " id="ID0.7055223379284143" stroke-width="1.512" fill="none" stroke="#cc48cc"/><path d="M 58.496 175.158 L 62.357 174.948 " id="ID0.0824348172172904" stroke-width="1.512" fill="none" stroke="#cc48cc"/><path d="M 44.732 178.386 L 42.088 175.535 " id="ID0.6544937780126929" stroke-width="1.512" fill="none" stroke="#cc48cc"/><path d="M 29.288 184.005 L 32.394 181.741 " id="ID0.24635779950767756" stroke-width="1.512" fill="none" stroke="#cc48cc"/><path d="M 19.469 176.29 L 23.078 177.632 " id="ID0.8660611789673567" stroke-width="1.512" fill="none" stroke="#cc48cc"/><path d="M 14.601 184.257 L 15.23 188.031 " id="ID0.8824515249580145" stroke-width="1.512" fill="none" stroke="#cc48cc"/><path d="M 15.272 200.233 L 17.035 196.837 " id="ID0.42036384297534823" stroke-width="1.512" fill="none" stroke="#cc48cc"/><path d="M 27.442 194.363 L 24.295 192.14 " id="ID0.9695621458813548" stroke-width="1.512" fill="none" stroke="#cc48cc"/><path d="M 114.562 197.256 L 110.953 198.514 " id="ID0.4771922663785517" stroke-width="1.512" fill="none" stroke="#cc48cc"/></g><path d="M 167.354 103.997 L 167.354 137.039 L 131.264 137.039 L 131.264 103.997 L 167.354 103.997 " id="Path" fill="none" stroke="#5e154d" stroke-width="1.512" stroke-linecap="butt"/><g id="Path" stroke-linecap="butt"><path d="M 108.772 103.564 L 108.772 108.386 C 108.772 111.05 106.611 113.209 103.946 113.209 C 101.281 113.209 99.12 111.05 99.12 108.386 L 99.12 103.564 Z " id="ID0.6596818347461522" fill="#ffffff" stroke-width="1.512" stroke="#5e154d"/><path d="M 98.952 103.564 L 98.952 108.386 C 99.123 110.209 98.246 111.971 96.689 112.935 C 95.132 113.899 93.163 113.899 91.605 112.935 C 90.048 111.971 89.171 110.209 89.342 108.386 L 89.342 103.564 Z " id="ID0.5556301730684936" fill="#f7c1d8" stroke-width="1.512" stroke="#5e154d"/><path d="M 89.342 103.564 L 89.342 108.386 C 89.342 111.05 87.181 113.209 84.516 113.209 C 81.851 113.209 79.69 111.05 79.69 108.386 L 79.69 103.564 Z " id="ID0.26920914044603705" fill="#ffffff" stroke-width="1.512" stroke="#5e154d"/><path d="M 79.69 103.564 L 79.69 108.386 C 79.861 110.209 78.984 111.971 77.427 112.935 C 75.87 113.899 73.901 113.899 72.343 112.935 C 70.786 111.971 69.909 110.209 70.08 108.386 L 70.08 103.564 Z " id="ID0.812977438326925" fill="#f7c1d8" stroke-width="1.512" stroke="#5e154d"/><path d="M 70.08 103.564 L 70.08 108.386 C 70.08 111.05 67.919 113.209 65.254 113.209 C 62.589 113.209 60.428 111.05 60.428 108.386 L 60.428 103.564 Z " id="ID0.03290513390675187" fill="#ffffff" stroke-width="1.512" stroke="#5e154d"/><path d="M 60.428 103.564 L 60.428 108.386 C 60.428 111.05 58.267 113.209 55.602 113.209 C 52.937 113.209 50.776 111.05 50.776 108.386 L 50.776 103.564 Z " id="ID0.5077857878059149" fill="#f7c1d8" stroke-width="1.512" stroke="#5e154d"/><path d="M 50.776 103.564 L 50.776 108.386 C 50.947 110.209 50.07 111.971 48.513 112.935 C 46.956 113.899 44.987 113.899 43.429 112.935 C 41.872 111.971 40.995 110.209 41.166 108.386 L 41.166 103.564 Z " id="ID0.5545902908779681" fill="#ffffff" stroke-width="1.512" stroke="#5e154d"/><path d="M 41.166 103.564 L 41.166 108.386 C 41.166 111.05 39.005 113.209 36.34 113.209 C 33.675 113.209 31.514 111.05 31.514 108.386 L 31.514 103.564 Z " id="ID0.2132140714675188" fill="#f7c1d8" stroke-width="1.512" stroke="#5e154d"/><path d="M 31.514 103.564 L 31.514 108.386 C 31.685 110.209 30.808 111.971 29.251 112.935 C 27.694 113.899 25.725 113.899 24.167 112.935 C 22.61 111.971 21.733 110.209 21.904 108.386 L 21.904 103.564 Z " id="ID0.23837941559031606" fill="#ffffff" stroke-width="1.512" stroke="#5e154d"/></g><path d="M 194.658 195.718 C 197.674 198.731 199.541 202.893 199.541 207.486 C 199.541 212.079 197.674 216.24 194.658 219.254 C 191.642 222.268 187.477 224.133 182.881 224.133 C 178.285 224.133 174.12 222.268 171.104 219.254 C 168.088 216.24 166.221 212.079 166.221 207.486 C 166.221 202.893 168.088 198.731 171.104 195.718 C 174.12 192.704 178.285 190.839 182.881 190.839 C 187.477 190.839 191.642 192.704 194.658 195.718 Z " id="Oval" fill="#5e154d" stroke="#5e154d" stroke-width="2.016" stroke-linecap="round"/></g><path d="M 189.102 201.264 C 190.705 202.866 191.698 205.078 191.698 207.519 C 191.698 209.96 190.705 212.172 189.102 213.773 C 187.5 215.375 185.286 216.366 182.843 216.366 C 180.4 216.366 178.186 215.375 176.583 213.773 C 174.98 212.172 173.988 209.96 173.988 207.519 C 173.988 205.078 174.98 202.866 176.583 201.264 C 178.186 199.662 180.4 198.671 182.843 198.671 C 185.286 198.671 187.5 199.662 189.102 201.264 Z " data-paper-data="{&quot;index&quot;:null}" id="Oval" fill="#c5a2fc" stroke="#c5a2fc" stroke-width="1.008" stroke-linecap="butt" stroke-linejoin="miter"/><path d="M 186.522 203.843 C 187.464 204.784 188.047 206.084 188.047 207.519 C 188.047 208.953 187.464 210.253 186.522 211.194 C 185.58 212.136 184.279 212.718 182.843 212.718 C 181.407 212.718 180.106 212.136 179.164 211.194 C 178.222 210.253 177.639 208.953 177.639 207.519 C 177.639 206.084 178.222 204.784 179.164 203.843 C 180.106 202.902 181.407 202.319 182.843 202.319 C 184.279 202.319 185.58 202.902 186.522 203.843 Z " data-paper-data="{&quot;index&quot;:null}" id="Oval" fill="#ffffff" stroke="#8b49d4" stroke-width="1.512" stroke-linecap="round" stroke-linejoin="round"/><path d="M 70.487 195.75 C 73.503 198.764 75.37 202.926 75.37 207.519 C 75.37 212.111 73.503 216.273 70.487 219.287 C 67.471 222.3 63.306 224.166 58.71 224.166 C 54.114 224.166 49.949 222.3 46.933 219.287 C 43.917 216.273 42.05 212.111 42.05 207.519 C 42.05 202.926 43.917 198.764 46.933 195.75 C 49.949 192.737 54.114 190.872 58.71 190.872 C 63.306 190.872 67.471 192.737 70.487 195.75 Z " data-paper-data="{&quot;index&quot;:null}" id="Oval" fill="#5e154d" stroke="#5e154d" stroke-width="2.016" stroke-linecap="round" stroke-linejoin="round"/><path d="M 64.969 201.264 C 66.572 202.866 67.565 205.078 67.565 207.519 C 67.565 209.96 66.572 212.172 64.969 213.773 C 63.367 215.375 61.153 216.366 58.71 216.366 C 56.267 216.366 54.053 215.375 52.45 213.773 C 50.848 212.172 49.855 209.96 49.855 207.519 C 49.855 205.078 50.848 202.866 52.45 201.264 C 54.053 199.662 56.267 198.671 58.71 198.671 C 61.153 198.671 63.367 199.662 64.969 201.264 Z " data-paper-data="{&quot;index&quot;:null}" id="Oval" fill="#c5a2fc" stroke="#c5a2fc" stroke-width="1.008" stroke-linecap="butt" stroke-linejoin="miter"/><path d="M 62.389 203.843 C 63.331 204.784 63.914 206.084 63.914 207.519 C 63.914 208.953 63.331 210.253 62.389 211.194 C 61.447 212.136 60.146 212.718 58.71 212.718 C 57.274 212.718 55.973 212.136 55.031 211.194 C 54.089 210.253 53.506 208.953 53.506 207.519 C 53.506 206.084 54.089 204.784 55.031 203.843 C 55.973 202.902 57.274 202.319 58.71 202.319 C 60.146 202.319 61.447 202.902 62.389 203.843 Z " data-paper-data="{&quot;index&quot;:null}" id="Oval" fill="#ffffff" stroke="#8b49d4" stroke-width="1.512" stroke-linecap="round" stroke-linejoin="round"/><g data-paper-data="{&quot;index&quot;:null}" id="Group"><g id="Path" stroke-linecap="butt" stroke-linejoin="miter"><path d="M 91.051 121.371 L 91.051 120.322 L 92.436 120.322 L 92.436 121.371 C 92.436 122.083 93.317 121.706 93.317 122.503 L 93.317 124.012 L 90.212 124.012 L 90.212 122.503 C 90.212 121.622 91.051 122.083 91.051 121.371 Z " id="ID0.5353642306290567" stroke-width="1" fill="#ffffff" stroke="none"/><path d="M 93.317 124.012 L 93.905 124.012 C 94.259 124.034 94.535 124.328 94.534 124.683 L 94.534 127.031 C 94.535 127.386 94.259 127.68 93.905 127.702 L 93.317 127.702 Z " id="ID0.828804534394294" stroke-width="1" fill="#ffffff" stroke="none"/><path d="M 91.765 127.702 L 89.624 127.702 C 89.254 127.702 88.953 127.402 88.953 127.031 L 88.953 124.683 C 88.953 124.313 89.254 124.012 89.624 124.012 L 93.317 124.012 L 93.317 127.702 Z " id="ID0.13529655151069164" stroke-width="1" fill="#ffffff" stroke="none"/></g><path d="M 93.319 130.596 L 93.319 127.702 L 94.242 127.702 L 94.242 129.589 C 94.125 130.478 94.679 131.318 95.543 131.56 C 96.592 132.021 96.592 133.405 96.592 134.831 L 96.592 145.817 C 96.592 147.075 96.089 147.872 94.956 147.872 L 94.284 147.872 C 94.284 144.349 94.284 135.292 94.284 133.279 C 94.326 131.937 93.319 132.147 93.319 130.596 Z " id="Path" fill="#f7c1d8" stroke="none" stroke-width="1" stroke-linecap="butt" stroke-linejoin="miter"/><path d="M 87.779 131.56 C 88.643 131.318 89.197 130.478 89.08 129.589 L 89.08 127.702 L 93.277 127.702 L 93.277 130.596 C 93.277 132.147 94.284 131.937 94.284 133.279 L 94.284 147.872 L 88.535 147.872 C 87.444 147.872 86.94 147.075 86.94 145.817 L 86.94 134.621 C 86.94 133.195 86.94 132.021 87.779 131.56 Z " id="Path" fill="#ea3681" stroke="none" stroke-width="1" stroke-linecap="butt" stroke-linejoin="miter"/><path d="M 94.536 128.205 L 88.954 128.205 L 88.954 124.012 L 94.536 124.012 Z " id="Rectangle" fill="none" stroke="#663c1d" stroke-width="1.008" stroke-linecap="round" stroke-linejoin="round"/><path d="M 91.053 121.371 L 91.053 120.322 L 92.438 120.322 L 92.438 121.371 C 92.438 122.083 93.319 121.706 93.319 122.503 L 93.319 124.012 L 90.213 124.012 L 90.213 122.503 C 90.213 121.622 91.053 122.083 91.053 121.371 Z " id="Path" fill="none" stroke="#663c1d" stroke-width="1.008" stroke-linecap="round" stroke-linejoin="round"/><path d="M 87.779 131.56 C 88.643 131.318 89.197 130.478 89.08 129.589 L 89.08 127.702 L 94.242 127.702 L 94.242 129.589 C 94.125 130.478 94.679 131.318 95.543 131.56 C 96.592 132.021 96.592 133.405 96.592 134.831 L 96.592 145.817 C 96.592 147.075 96.089 147.872 94.956 147.872 L 88.535 147.872 C 87.444 147.872 86.94 147.075 86.94 145.817 L 86.94 134.621 C 86.94 133.195 86.94 132.021 87.779 131.56 Z " id="Path" fill="none" stroke="#663c1d" stroke-width="1.008" stroke-linecap="round" stroke-linejoin="round"/></g><g data-paper-data="{&quot;index&quot;:null}" id="Group"><g id="Path" stroke-linecap="butt" stroke-linejoin="miter"><path d="M 78.619 121.371 L 78.619 120.322 L 80.004 120.322 L 80.004 121.371 C 80.004 122.083 80.843 121.706 80.843 122.503 L 80.843 124.012 L 77.738 124.012 L 77.738 122.503 C 77.738 121.622 78.619 122.083 78.619 121.371 Z " id="ID0.5415528495796025" stroke-width="1" fill="#ffffff" stroke="none"/><path d="M 80.843 124.012 L 81.431 124.012 C 81.802 124.012 82.102 124.313 82.102 124.683 L 82.102 127.031 C 82.102 127.402 81.802 127.702 81.431 127.702 L 80.843 127.702 Z " id="ID0.8399107838049531" stroke-width="1" fill="#ffffff" stroke="none"/><path d="M 79.374 127.702 L 77.234 127.702 C 76.88 127.68 76.604 127.386 76.605 127.031 L 76.605 124.683 C 76.604 124.328 76.88 124.034 77.234 124.012 L 80.927 124.012 L 80.927 127.702 Z " id="ID0.8566809166222811" stroke-width="1" fill="#ffffff" stroke="none"/></g><path d="M 80.845 130.596 L 80.845 127.702 L 81.768 127.702 L 81.768 129.589 C 81.651 130.478 82.205 131.318 83.069 131.56 C 84.118 132.021 84.118 133.405 84.118 134.831 L 84.118 145.817 C 84.118 147.075 83.614 147.872 82.523 147.872 L 81.81 147.872 C 81.81 144.349 81.81 135.292 81.81 133.279 C 81.852 131.937 80.845 132.147 80.845 130.596 Z " id="Path" fill="#fde982" stroke="none" stroke-width="1" stroke-linecap="butt" stroke-linejoin="miter"/><path d="M 75.515 131.56 C 76.379 131.318 76.933 130.478 76.816 129.589 L 76.816 127.702 L 81.013 127.702 L 81.013 130.596 C 81.013 132.147 82.02 131.937 82.02 133.279 L 82.02 147.872 L 76.313 147.872 C 75.179 147.872 74.676 147.075 74.676 145.817 L 74.676 134.621 C 74.466 133.195 74.466 132.021 75.515 131.56 Z " id="Path" fill="#fdbb38" stroke="none" stroke-width="1" stroke-linecap="butt" stroke-linejoin="miter"/><path d="M 82.104 128.205 L 76.522 128.205 L 76.522 124.012 L 82.104 124.012 Z " id="Rectangle" fill="none" stroke="#663c1d" stroke-width="1.008" stroke-linecap="round" stroke-linejoin="round"/><path d="M 78.621 121.371 L 78.621 120.322 L 80.005 120.322 L 80.005 121.371 C 80.005 122.083 80.845 121.706 80.845 122.503 L 80.845 124.012 L 77.739 124.012 L 77.739 122.503 C 77.739 121.622 78.621 122.083 78.621 121.371 Z " id="Path" fill="none" stroke="#663c1d" stroke-width="1.008" stroke-linecap="round" stroke-linejoin="round"/><path d="M 75.515 131.56 C 76.379 131.318 76.933 130.478 76.816 129.589 L 76.816 127.702 L 81.768 127.702 L 81.768 129.589 C 81.651 130.478 82.205 131.318 83.069 131.56 C 84.118 132.021 84.118 133.405 84.118 134.831 L 84.118 145.817 C 84.118 147.075 83.614 147.872 82.523 147.872 L 76.103 147.872 C 74.97 147.872 74.466 147.075 74.466 145.817 L 74.466 134.621 C 74.466 133.195 74.466 132.021 75.515 131.56 Z " id="Path" fill="none" stroke="#663c1d" stroke-width="1.008" stroke-linecap="round" stroke-linejoin="round"/></g></g></g></svg>