<svg version="1.1" xmlns="http://www.w3.org/2000/svg" xmlns:xlink="http://www.w3.org/1999/xlink" width="168.17373" height="33.15726" viewBox="0,0,168.17373,33.15726"><g transform="translate(-155.06192,-109.11426)"><g data-paper-data="{&quot;isPaintingLayer&quot;:true}" fill-rule="nonzero" stroke="none" stroke-width="0" stroke-linecap="butt" stroke-linejoin="miter" stroke-miterlimit="10" stroke-dasharray="" stroke-dashoffset="0" style="mix-blend-mode: normal"><path d="M169.96262,140.25908l-9.96107,-9.96107l8.92616,-8.92616l9.96107,9.96107z" fill="#3ed3f7"/><path d="M224.29851,136.2342l-9.96108,-9.96108l8.92616,-8.92615l9.96107,9.96107z" fill="#f74848"/><path d="M234.90956,142.27152l-9.96108,-9.96107l8.92616,-8.92615l9.96107,9.96107z" fill="#3ed3f7"/><path d="M214.05336,140.99088l-9.96108,-9.96107l8.92616,-8.92615l9.96107,9.96107z" fill="#3ed3f7"/><path d="M205.82065,141.90562l-9.96108,-9.96107l8.92616,-8.92615l9.96107,9.96107z" fill="#f74848"/><path d="M188.98933,140.80793l-9.96108,-9.96107l8.92616,-8.92616l9.96107,9.96107z" fill="#3ed3f7"/><path d="M197.22204,132.57522l-9.96108,-9.96107l8.92616,-8.92615l9.96107,9.96107z" fill="#f74848"/><path d="M210.21143,136.05125l-9.96108,-9.96108l8.92616,-8.92615l9.96107,9.96107z" fill="#3ef744"/><path d="M250.27729,138.42959l-9.96108,-9.96107l8.92616,-8.92615l9.96107,9.96107z" fill="#3ed3f7"/><path d="M260.52244,137.51484l-9.96107,-9.96108l8.92616,-8.92615l9.96107,9.96107z" fill="#3ed3f7"/><path d="M242.41048,139.34433l-9.96108,-9.96107l8.92616,-8.92615l9.96107,9.96107z" fill="#3ed3f7"/><path d="M271.49939,131.29457l-9.96107,-9.96107l8.92616,-8.92615l9.96107,9.96107z" fill="#f74848"/><path d="M281.74454,128.00149l-9.96107,-9.96107l8.92616,-8.92615l9.96107,9.96107z" fill="#3ed3f7"/><path d="M290.70905,132.57522l-9.96108,-9.96108l8.92616,-8.92615l9.96107,9.96107z" fill="#f7f13e"/><path d="M281.5616,139.71023l-9.96107,-9.96107l8.92616,-8.92615l9.96107,9.96107z" fill="#3ef744"/><path d="M301.686,139.16138l-9.96108,-9.96107l8.92616,-8.92615l9.96107,9.96107z" fill="#f74848"/><path d="M308.45512,134.77061l-9.96108,-9.96108l8.92616,-8.92615l9.96107,9.96107z" fill="#3ef744"/><path d="M314.30949,136.6001l-9.96108,-9.96108l8.92616,-8.92616l9.96107,9.96107z" fill="#f74848"/><path d="M175.45109,139.52728l-9.96108,-9.96108l8.92616,-8.92615l9.96107,9.96107z" fill="#f74848"/><path d="M184.4156,136.96599l-9.96108,-9.96107l8.92616,-8.92615l9.96107,9.96107z" fill="#f7f13e"/><path d="M165.02299,142.08857l-9.96108,-9.96107l8.92616,-8.92615l9.96107,9.96107z" fill="#f74848"/><path d="M235.82431,136.41715l-9.96108,-9.96107l8.92616,-8.92615l9.96107,9.96107z" fill="#f7f13e"/><path d="M252.28973,129.83098l-9.96108,-9.96107l8.92616,-8.92615l9.96107,9.96107z" fill="#f74848"/><path d="M241.49573,130.56277l-9.96108,-9.96107l8.92616,-8.92615l9.96107,9.96107z" fill="#f74848"/><path d="M237.47085,133.30701l-9.96108,-9.96107l8.92616,-8.92615l9.96107,9.96107z" fill="#f7f13e"/><path d="M236.922,132.94111l-9.96108,-9.96107l8.92616,-8.92615l9.96107,9.96107z" fill="#f7f13e"/><path d="M261.07129,134.40471l-9.96108,-9.96107l8.92616,-8.92615l9.96107,9.96107z" fill="#3ef744"/><path d="M246.98421,130.19688l-9.96108,-9.96107l8.92616,-8.92615l9.96107,9.96107z" fill="#3ef744"/></g></g></svg>