<svg version="1.1" xmlns="http://www.w3.org/2000/svg" xmlns:xlink="http://www.w3.org/1999/xlink" width="29.41296" height="23.625" viewBox="0,0,29.41296,23.625"><g transform="translate(-231.63306,-161.06056)"><g data-paper-data="{&quot;isPaintingLayer&quot;:true}" fill-rule="nonzero" stroke="none" stroke-width="0" stroke-linecap="butt" stroke-linejoin="miter" stroke-miterlimit="10" stroke-dasharray="" stroke-dashoffset="0" style="mix-blend-mode: normal"><path d="M231.63307,184.68557v-23.625h29.41296v23.625z" fill-opacity="0.00784" fill="#3dff8e"/><g><path d="M238.65583,169.70733l-1.06033,-1.06033l0.95017,-0.95016l1.06033,1.06033z" fill="#3ed3f7"/><path d="M244.43973,169.27889l-1.06033,-1.06033l0.95017,-0.95016l1.06033,1.06033z" fill="#f74848"/><path d="M245.56925,169.92155l-1.06033,-1.06033l0.95017,-0.95016l1.06033,1.06033z" fill="#3ed3f7"/><path d="M243.34916,169.78523l-1.06033,-1.06033l0.95016,-0.95016l1.06034,1.06033z" fill="#3ed3f7"/><path d="M242.47281,169.88259l-1.06033,-1.06033l0.95016,-0.95016l1.06033,1.06033z" fill="#f74848"/><path d="M240.68117,169.76575l-1.06033,-1.06033l0.95017,-0.95017l1.06033,1.06033z" fill="#3ed3f7"/><path d="M241.55752,168.8894l-1.06033,-1.06033l0.95017,-0.95016l1.06033,1.06033z" fill="#f74848"/><path d="M242.9402,169.25942l-1.06033,-1.06033l0.95017,-0.95016l1.06033,1.06033z" fill="#3ef744"/><path d="M247.2051,169.51258l-1.06033,-1.06033l0.95017,-0.95016l1.06033,1.06033z" fill="#3ed3f7"/><path d="M248.29567,169.41521l-1.06034,-1.06034l0.95017,-0.95016l1.06033,1.06033z" fill="#3ed3f7"/><path d="M246.3677,169.60996l-1.06034,-1.06033l0.95017,-0.95016l1.06033,1.06033z" fill="#3ed3f7"/><path d="M249.46413,168.75308l-1.06033,-1.06033l0.95016,-0.95016l1.06033,1.06033z" fill="#f74848"/><path d="M250.5547,168.40254l-1.06033,-1.06033l0.95017,-0.95016l1.06033,1.06033z" fill="#3ed3f7"/><path d="M251.50894,168.8894l-1.06033,-1.06033l0.95017,-0.95016l1.06033,1.06033z" fill="#f7f13e"/><path d="M250.53523,169.6489l-1.06034,-1.06033l0.95017,-0.95016l1.06033,1.06033z" fill="#3ef744"/><path d="M252.67741,169.59048l-1.06033,-1.06033l0.95017,-0.95016l1.06033,1.06033z" fill="#f74848"/><path d="M253.39797,169.1231l-1.06033,-1.06034l0.95017,-0.95016l1.06033,1.06033z" fill="#3ef744"/><path d="M254.02115,169.31784l-1.06033,-1.06033l0.95016,-0.95017l1.06033,1.06033z" fill="#f74848"/><path d="M239.24006,169.62943l-1.06033,-1.06033l0.95017,-0.95016l1.06033,1.06033z" fill="#f74848"/><path d="M240.1943,169.35678l-1.06033,-1.06033l0.95017,-0.95016l1.06033,1.06033z" fill="#f7f13e"/><path d="M238.13002,169.90207l-1.06033,-1.06033l0.95017,-0.95016l1.06033,1.06033z" fill="#f74848"/><path d="M245.66662,169.29836l-1.06033,-1.06033l0.95016,-0.95016l1.06033,1.06033z" fill="#f7f13e"/><path d="M247.41932,168.59729l-1.06033,-1.06034l0.95017,-0.95016l1.06033,1.06033z" fill="#f74848"/><path d="M246.27033,168.67518l-1.06033,-1.06033l0.95016,-0.95016l1.06033,1.06033z" fill="#f74848"/><path d="M245.84189,168.9673l-1.06033,-1.06033l0.95017,-0.95016l1.06033,1.06033z" fill="#f7f13e"/><path d="M245.78346,168.92835l-1.06033,-1.06033l0.95017,-0.95016l1.06033,1.06033z" fill="#f7f13e"/><path d="M248.35409,169.08415l-1.06033,-1.06033l0.95016,-0.95016l1.06033,1.06033z" fill="#3ef744"/><path d="M246.85456,168.63623l-1.06033,-1.06033l0.95016,-0.95016l1.06033,1.06033z" fill="#3ef744"/><path d="M237.17427,179.31082c-0.21739,0 -0.39363,-0.32061 -0.39363,-0.7161v-9.31417c0,-0.39549 0.17624,-0.7161 0.39363,-0.7161h17.87368c0.21739,0 0.39363,0.32061 0.39363,0.7161v9.31417c0,0.39549 -0.17624,0.7161 -0.39363,0.7161z" fill="#feff72"/><g fill="#ffffff"><path d="M245.05376,177.05035l0.40999,-3.84099h1.28392l0.42079,3.84099z"/><path d="M244.35245,172.58358c0,-0.97127 0.78738,-1.75866 1.75866,-1.75866c0.97127,0 1.75865,0.78738 1.75865,1.75866c0,0.97127 -0.78738,1.75865 -1.75865,1.75865c-0.97127,0 -1.75866,-0.78737 -1.75866,-1.75865z"/></g></g></g></g></svg>