<svg version="1.1" xmlns="http://www.w3.org/2000/svg" xmlns:xlink="http://www.w3.org/1999/xlink" width="153.88889" height="83.51852" viewBox="0,0,153.88889,83.51852"><defs><linearGradient x1="240" y1="140.40255" x2="240" y2="218.92107" gradientUnits="userSpaceOnUse" id="color-1"><stop offset="0" stop-color="#ff9266"/><stop offset="1" stop-color="#ff6666"/></linearGradient><radialGradient cx="216.85754" cy="160.59679" r="22.23345" gradientTransform="translate(-269.46027,-261.58712) scale(1.54361,1.54361)" gradientUnits="userSpaceOnUse" id="color-2"><stop offset="0" stop-color="#66b6ff"/><stop offset="1" stop-color="#66ffb5"/></radialGradient><linearGradient x1="294.24779" y1="187.88277" x2="294.24779" y2="214.91345" gradientUnits="userSpaceOnUse" id="color-3"><stop offset="0" stop-color="#3dff8e"/><stop offset="1" stop-color="#259955"/></linearGradient><radialGradient cx="277.89593" cy="200.41327" r="12" gradientTransform="translate(-534.77223,-414.29795) scale(2,2)" gradientUnits="userSpaceOnUse" id="color-4"><stop offset="0" stop-color="#66b6ff"/><stop offset="1" stop-color="#66ffb5"/></radialGradient><linearGradient x1="234.20326" y1="148.42079" x2="234.20326" y2="174.50802" gradientUnits="userSpaceOnUse" id="color-5"><stop offset="0" stop-color="#ffef3e"/><stop offset="1" stop-color="#9a9125"/></linearGradient></defs><g transform="translate(-163.05556,-137.90254)"><g data-paper-data="{&quot;isPaintingLayer&quot;:true}" fill-rule="nonzero" stroke-linecap="butt" stroke-linejoin="miter" stroke-miterlimit="10" stroke-dasharray="" stroke-dashoffset="0" style="mix-blend-mode: normal"><path d="M165.55556,218.92107v-78.51852h148.88889v78.51852z" fill="url(#color-1)" stroke="#ffffff" stroke-width="5"/><text transform="translate(174.56445,169.46398) scale(0.64783,0.64783)" font-size="40" xml:space="preserve" fill="url(#color-2)" fill-rule="nonzero" stroke="none" stroke-width="1" stroke-linecap="butt" stroke-linejoin="miter" stroke-miterlimit="10" stroke-dasharray="" stroke-dashoffset="0" font-family="Sans Serif" font-weight="normal" text-anchor="start" style="mix-blend-mode: normal"><tspan x="0" dy="0">100</tspan></text><g stroke="none"><path d="M280.73246,201.39812c0,-7.46431 6.05103,-13.51533 13.51533,-13.51533c7.46431,0 13.51533,6.05103 13.51533,13.51533c0,7.46431 -6.05102,13.51533 -13.51533,13.51533c-7.46431,0 -13.51533,-6.05102 -13.51533,-13.51533z" fill="url(#color-3)" stroke-width="0"/><text transform="translate(285.82135,211.22499) scale(0.71035,0.71035)" font-size="40" xml:space="preserve" fill="#000000" fill-rule="nonzero" stroke="none" stroke-width="1" stroke-linecap="butt" stroke-linejoin="miter" stroke-miterlimit="10" stroke-dasharray="" stroke-dashoffset="0" font-family="Sans Serif" font-weight="normal" text-anchor="start" style="mix-blend-mode: normal"><tspan x="0" dy="0">$</tspan></text></g><path d="M250.65946,167.67327l12.75416,8.6284l5.02583,-7.42899l4.00526,20.75803l-20.75803,4.00526l5.02583,-7.42898l-12.75416,-8.6284z" fill="#9966ff" stroke="none" stroke-width="0"/><text transform="translate(267.38612,207.14897) scale(0.5,0.5)" font-size="40" xml:space="preserve" fill="url(#color-4)" fill-rule="nonzero" stroke="none" stroke-width="1" stroke-linecap="butt" stroke-linejoin="miter" stroke-miterlimit="10" stroke-dasharray="" stroke-dashoffset="0" font-family="Sans Serif" font-weight="normal" text-anchor="start" style="mix-blend-mode: normal"><tspan x="0" dy="0">1</tspan></text><g stroke="none"><path d="M221.15963,161.46441c0,-7.20379 5.83984,-13.04363 13.04363,-13.04363c7.20379,0 13.04363,5.83984 13.04363,13.04363c0,7.20379 -5.83984,13.04363 -13.04363,13.04363c-7.20379,0 -13.04363,-5.83984 -13.04363,-13.04363z" fill="url(#color-5)" stroke-width="0"/><text transform="translate(226.22806,170.94831) scale(0.68557,0.68557)" font-size="40" xml:space="preserve" fill="#000000" fill-rule="nonzero" stroke="none" stroke-width="1" stroke-linecap="butt" stroke-linejoin="miter" stroke-miterlimit="10" stroke-dasharray="" stroke-dashoffset="0" font-family="Sans Serif" font-weight="normal" text-anchor="start" style="mix-blend-mode: normal"><tspan x="0" dy="0">$</tspan></text></g></g></g></svg>