<svg version="1.1" xmlns="http://www.w3.org/2000/svg" xmlns:xlink="http://www.w3.org/1999/xlink" width="153.88889" height="83.51852" viewBox="0,0,153.88889,83.51852"><defs><linearGradient x1="240" y1="140.40257" x2="240" y2="218.92109" gradientUnits="userSpaceOnUse" id="color-1"><stop offset="0" stop-color="#ff9266"/><stop offset="1" stop-color="#ff6666"/></linearGradient><radialGradient cx="214.43085" cy="159.98946" r="22.23331" gradientTransform="translate(-265.71648,-260.65118) scale(1.54361,1.54361)" gradientUnits="userSpaceOnUse" id="color-2"><stop offset="0" stop-color="#66b6ff"/><stop offset="1" stop-color="#66ffb5"/></radialGradient><linearGradient x1="294.24779" y1="187.88279" x2="294.24779" y2="214.91347" gradientUnits="userSpaceOnUse" id="color-3"><stop offset="0" stop-color="#3dff8e"/><stop offset="1" stop-color="#259955"/></linearGradient><radialGradient cx="267.99246" cy="200.8175" r="12" gradientTransform="translate(-514.96529,-415.10641) scale(2,2)" gradientUnits="userSpaceOnUse" id="color-4"><stop offset="0" stop-color="#66b6ff"/><stop offset="1" stop-color="#66ffb5"/></radialGradient><linearGradient x1="247.34051" y1="147.41025" x2="247.34051" y2="173.49748" gradientUnits="userSpaceOnUse" id="color-5"><stop offset="0" stop-color="#ffef3e"/><stop offset="1" stop-color="#9a9125"/></linearGradient></defs><g transform="translate(-163.05556,-137.90257)"><g data-paper-data="{&quot;isPaintingLayer&quot;:true}" fill-rule="nonzero" stroke-linecap="butt" stroke-linejoin="miter" stroke-miterlimit="10" stroke-dasharray="" stroke-dashoffset="0" style="mix-blend-mode: normal"><path d="M165.55556,218.92109v-78.51852h148.88889v78.51852z" fill="url(#color-1)" stroke="#ffffff" stroke-width="5"/><text transform="translate(172.13911,168.85766) scale(0.64783,0.64783)" font-size="40" xml:space="preserve" fill="url(#color-2)" fill-rule="nonzero" stroke="none" stroke-width="1" stroke-linecap="butt" stroke-linejoin="miter" stroke-miterlimit="10" stroke-dasharray="" stroke-dashoffset="0" font-family="Sans Serif" font-weight="normal" text-anchor="start" style="mix-blend-mode: normal"><tspan x="0" dy="0">1000</tspan></text><g stroke="none"><path d="M280.73246,201.39814c0,-7.46431 6.05103,-13.51533 13.51533,-13.51533c7.46431,0 13.51533,6.05103 13.51533,13.51533c0,7.46431 -6.05102,13.51533 -13.51533,13.51533c-7.46431,0 -13.51533,-6.05102 -13.51533,-13.51533z" fill="url(#color-3)" stroke-width="0"/><text transform="translate(285.82135,211.22501) scale(0.71035,0.71035)" font-size="40" xml:space="preserve" fill="#000000" fill-rule="nonzero" stroke="none" stroke-width="1" stroke-linecap="butt" stroke-linejoin="miter" stroke-miterlimit="10" stroke-dasharray="" stroke-dashoffset="0" font-family="Sans Serif" font-weight="normal" text-anchor="start" style="mix-blend-mode: normal"><tspan x="0" dy="0">$</tspan></text></g><path d="M241.45534,172.63696l9.17409,8.84013l5.14916,-5.34368l0.32421,17.48807l-17.48807,0.32421l5.14916,-5.34368l-9.17409,-8.84013z" fill="#9966ff" stroke="none" stroke-width="0"/><text transform="translate(257.48265,207.55321) scale(0.5,0.5)" font-size="40" xml:space="preserve" fill="url(#color-4)" fill-rule="nonzero" stroke="none" stroke-width="1" stroke-linecap="butt" stroke-linejoin="miter" stroke-miterlimit="10" stroke-dasharray="" stroke-dashoffset="0" font-family="Sans Serif" font-weight="normal" text-anchor="start" style="mix-blend-mode: normal"><tspan x="0" dy="0">10</tspan></text><g stroke="none"><path d="M234.29688,160.45387c0,-7.20379 5.83984,-13.04363 13.04363,-13.04363c7.20379,0 13.04363,5.83984 13.04363,13.04363c0,7.20379 -5.83984,13.04363 -13.04363,13.04363c-7.20379,0 -13.04363,-5.83984 -13.04363,-13.04363z" fill="url(#color-5)" stroke-width="0"/><text transform="translate(239.36531,169.93777) scale(0.68557,0.68557)" font-size="40" xml:space="preserve" fill="#000000" fill-rule="nonzero" stroke="none" stroke-width="1" stroke-linecap="butt" stroke-linejoin="miter" stroke-miterlimit="10" stroke-dasharray="" stroke-dashoffset="0" font-family="Sans Serif" font-weight="normal" text-anchor="start" style="mix-blend-mode: normal"><tspan x="0" dy="0">$</tspan></text></g></g></g></svg>