<svg version="1.1" xmlns="http://www.w3.org/2000/svg" xmlns:xlink="http://www.w3.org/1999/xlink" width="210.28632" height="136.45243" viewBox="0,0,210.28632,136.45243"><g transform="translate(-152.34652,-94.02506)"><g data-paper-data="{&quot;isPaintingLayer&quot;:true}" fill-rule="nonzero" stroke="none" stroke-linecap="butt" stroke-linejoin="miter" stroke-miterlimit="10" stroke-dasharray="" stroke-dashoffset="0" style="mix-blend-mode: normal"><path d="M169.96262,140.25909l-9.96107,-9.96107l8.92616,-8.92616l9.96107,9.96107z" fill="#3ed3f7" stroke-width="0"/><path d="M224.29851,136.2342l-9.96108,-9.96108l8.92616,-8.92615l9.96107,9.96107z" fill="#f74848" stroke-width="0"/><path d="M234.90956,142.27153l-9.96108,-9.96107l8.92616,-8.92615l9.96107,9.96107z" fill="#3ed3f7" stroke-width="0"/><path d="M214.05336,140.99089l-9.96108,-9.96107l8.92616,-8.92615l9.96107,9.96107z" fill="#3ed3f7" stroke-width="0"/><path d="M205.82065,141.90562l-9.96108,-9.96107l8.92616,-8.92615l9.96107,9.96107z" fill="#f74848" stroke-width="0"/><path d="M188.98933,140.80793l-9.96108,-9.96107l8.92616,-8.92616l9.96107,9.96107z" fill="#3ed3f7" stroke-width="0"/><path d="M197.22204,132.57522l-9.96108,-9.96107l8.92616,-8.92615l9.96107,9.96107z" fill="#f74848" stroke-width="0"/><path d="M210.21143,136.05127l-9.96108,-9.96108l8.92616,-8.92615l9.96107,9.96107z" fill="#3ef744" stroke-width="0"/><path d="M250.27729,138.4296l-9.96108,-9.96107l8.92616,-8.92615l9.96107,9.96107z" fill="#3ed3f7" stroke-width="0"/><path d="M260.52244,137.51484l-9.96107,-9.96108l8.92616,-8.92615l9.96107,9.96107z" fill="#3ed3f7" stroke-width="0"/><path d="M242.41048,139.34434l-9.96108,-9.96107l8.92616,-8.92615l9.96107,9.96107z" fill="#3ed3f7" stroke-width="0"/><path d="M271.49939,131.29458l-9.96107,-9.96107l8.92616,-8.92615l9.96107,9.96107z" fill="#f74848" stroke-width="0"/><path d="M281.74454,128.00149l-9.96107,-9.96107l8.92616,-8.92615l9.96107,9.96107z" fill="#3ed3f7" stroke-width="0"/><path d="M290.70905,132.57522l-9.96108,-9.96108l8.92616,-8.92615l9.96107,9.96107z" fill="#f7f13e" stroke-width="0"/><path d="M281.5616,139.71024l-9.96107,-9.96107l8.92616,-8.92615l9.96107,9.96107z" fill="#3ef744" stroke-width="0"/><path d="M301.686,139.16139l-9.96108,-9.96107l8.92616,-8.92615l9.96107,9.96107z" fill="#f74848" stroke-width="0"/><path d="M308.45512,134.7706l-9.96108,-9.96108l8.92616,-8.92615l9.96107,9.96107z" fill="#3ef744" stroke-width="0"/><path d="M314.30949,136.6001l-9.96108,-9.96108l8.92616,-8.92616l9.96107,9.96107z" fill="#f74848" stroke-width="0"/><path d="M175.45109,139.52729l-9.96108,-9.96108l8.92616,-8.92615l9.96107,9.96107z" fill="#f74848" stroke-width="0"/><path d="M184.4156,136.96598l-9.96108,-9.96107l8.92616,-8.92615l9.96107,9.96107z" fill="#f7f13e" stroke-width="0"/><path d="M165.02299,142.08858l-9.96108,-9.96107l8.92616,-8.92615l9.96107,9.96107z" fill="#f74848" stroke-width="0"/><path d="M235.82431,136.41715l-9.96108,-9.96107l8.92616,-8.92615l9.96107,9.96107z" fill="#f7f13e" stroke-width="0"/><path d="M252.28973,129.83099l-9.96108,-9.96107l8.92616,-8.92615l9.96107,9.96107z" fill="#f74848" stroke-width="0"/><path d="M241.49573,130.56277l-9.96108,-9.96107l8.92616,-8.92615l9.96107,9.96107z" fill="#f74848" stroke-width="0"/><path d="M237.47085,133.30701l-9.96108,-9.96107l8.92616,-8.92615l9.96107,9.96107z" fill="#f7f13e" stroke-width="0"/><path d="M236.922,132.94113l-9.96108,-9.96107l8.92616,-8.92615l9.96107,9.96107z" fill="#f7f13e" stroke-width="0"/><path d="M261.07129,134.40472l-9.96108,-9.96107l8.92616,-8.92615l9.96107,9.96107z" fill="#3ef744" stroke-width="0"/><path d="M246.98421,130.19689l-9.96108,-9.96107l8.92616,-8.92615l9.96107,9.96107z" fill="#3ef744" stroke-width="0"/><path d="M156.04436,230.47749c-2.04226,0 -3.69784,-3.0119 -3.69784,-6.72727v-87.50043c0,-3.71537 1.65558,-6.72727 3.69784,-6.72727h167.91127c2.04226,0 3.69784,3.0119 3.69784,6.72727v87.50043c0,3.71537 -1.65558,6.72727 -3.69784,6.72727z" fill="#feff72" stroke-width="0"/><g fill="#ffffff" stroke-width="0"><path d="M230.0669,209.24186l3.85161,-36.08352h12.06163l3.95297,36.08352z"/><path d="M223.47861,167.27957c0,-9.12451 7.39688,-16.52139 16.52139,-16.52139c9.12451,0 16.52139,7.39688 16.52139,16.52139c0,9.12451 -7.39688,16.52139 -16.52139,16.52139c-9.12451,0 -16.52139,-7.39688 -16.52139,-16.52139z"/></g><path d="M323.1869,140.28432c-5.52284,0 -10,-4.47716 -10,-10v-3.5748c0,-5.52285 4.47716,-10 10,-10h8.64222c5.52285,0 10,4.47715 10,10v3.5748c0,5.52284 -4.47715,10 -10,10z" fill="#ffd366" stroke-width="NaN"/><text transform="translate(322.09074,135.28268) scale(0.47439,0.47439)" font-size="40" xml:space="preserve" fill="#0facf9" fill-rule="nonzero" stroke="none" stroke-width="1" stroke-linecap="butt" stroke-linejoin="miter" stroke-miterlimit="10" stroke-dasharray="" stroke-dashoffset="0" font-family="Sans Serif" font-weight="normal" text-anchor="start" style="mix-blend-mode: normal"><tspan x="0" dy="0">5</tspan></text><path d="M316.90979,156.90549c-13.54566,0 -24.52661,-10.98096 -24.52661,-24.52661v-8.76777c0,-13.54568 10.98095,-24.52661 24.52661,-24.52661h21.19644c13.54568,0 24.52661,10.98093 24.52661,24.52661v8.76777c0,13.54566 -10.98093,24.52661 -24.52661,24.52661z" fill="#ffd366" stroke-width="NaN"/><text transform="translate(314.22129,144.63818) scale(1.16352,1.16352)" font-size="40" xml:space="preserve" fill="#0facf9" fill-rule="nonzero" stroke="none" stroke-width="1" stroke-linecap="butt" stroke-linejoin="miter" stroke-miterlimit="10" stroke-dasharray="" stroke-dashoffset="0" font-family="Sans Serif" font-weight="normal" text-anchor="start" style="mix-blend-mode: normal"><tspan x="0" dy="0">5</tspan></text></g></g></svg>