<svg version="1.1" xmlns="http://www.w3.org/2000/svg" xmlns:xlink="http://www.w3.org/1999/xlink" width="160.69945" height="95.48052" viewBox="0,0,160.69945,95.48052"><g transform="translate(-159.65028,-132.25974)"><g data-paper-data="{&quot;isPaintingLayer&quot;:true}" fill-rule="nonzero" stroke-linejoin="miter" stroke-miterlimit="10" stroke-dasharray="" stroke-dashoffset="0" style="mix-blend-mode: normal"><path d="M159.65029,227.74026v-95.48052h160.69945v95.48052z" fill="#59ad0d" stroke="none" stroke-width="0" stroke-linecap="butt"/><path d="M198.61295,198.86378c0,0 -1.69138,-1.42939 -2.25239,-3.77686c-0.5571,-2.33117 -1.44555,-5.54694 -1.83427,-8.62719c-0.30453,-2.41313 -0.1817,-4.74308 -0.15691,-6.49936c0.03555,-2.51656 -0.0266,-5.536 0.5129,-8.28499c0.44766,-2.28098 1.45545,-4.3271 1.95072,-6.18736c0.41986,-1.57699 2.31533,-4.52214 2.31533,-4.52214c0,0 2.61892,-0.61787 4.5958,-0.87126c2.53608,-0.32507 4.70698,-0.27899 6.29082,0.0083c1.9759,0.35841 4.65088,0.89617 4.65088,0.89617c0,0 15.28845,-0.61981 22.79392,-0.61981c7.32493,0 21.7105,0.61981 21.7105,0.61981c0,0 4.05531,-0.57794 7.79856,-1.05524c3.01641,-0.38462 5.98837,-0.15835 7.81804,0.09012c2.84314,0.38609 6.24522,1.58494 6.24522,1.58494c0,0 3.14555,2.5322 3.78662,5.88696c0.62975,2.52611 0.64858,5.38801 0.66711,7.43854c0.02641,2.9224 0.05218,6.62426 0.03682,10.07342c-0.00892,2.00259 -0.47471,5.1491 -1.05053,7.3243c-0.94669,3.57622 -3.79694,6.44414 -3.79694,6.44414c0,0 -3.31881,0.86027 -5.83609,1.1471c-1.79835,0.19136 -5.58696,0.20638 -8.66103,-0.03445c-3.8929,-0.30498 -7.52085,-0.51495 -7.52085,-0.51495c0,0 -14.10409,0.57017 -21.32204,0.54476c-7.44616,-0.02621 -22.69162,-0.6997 -22.69162,-0.6997c0,0 -2.68949,0.28891 -4.62664,0.59901c-1.5307,0.24504 -3.51487,0.32409 -6.43764,0.00592c-2.34369,-0.25513 -4.98632,-0.9702 -4.98632,-0.9702z" fill="#1b2e14" stroke="#000000" stroke-width="0.25" stroke-linecap="round"/><path d="M282.9697,171.242c0,0 -0.66887,-0.54286 -0.92683,-1.03726c-0.24053,-0.46101 -0.69719,-1.58616 -0.69719,-1.58616l-1.9988,-5.24684c0,0 0.20208,-0.33632 0.50412,-0.31618c0.32137,0.02142 0.87005,0.06634 0.87005,0.06634c0,0 1.29503,2.53515 1.74098,3.70308c0.42778,1.12037 0.88244,3.16778 0.88244,3.16778z" data-paper-data="{&quot;index&quot;:null}" fill="#455050" stroke="#000000" stroke-width="0.25" stroke-linecap="round"/><path d="M280.11427,164.15389l0.58165,1.47068" fill="none" stroke="#ffffff" stroke-width="0.25" stroke-linecap="round"/><path d="M281.36022,167.4026l0.53209,1.4178" fill="none" stroke="#ffffff" stroke-width="0.25" stroke-linecap="round"/><path d="M281.36682,165.52874l-0.77004,-1.70202" fill="none" stroke="#ffffff" stroke-width="0.25" stroke-linecap="round"/><path d="M282.03441,167.27701l0.62793,1.97301" fill="none" stroke="#ffffff" stroke-width="0.25" stroke-linecap="round"/><path d="M283.09461,190.5173c0,0 -0.45466,2.0474 -0.88244,3.16778c-0.44594,1.16793 -1.74098,3.70308 -1.74098,3.70308c0,0 -0.54868,0.04491 -0.87005,0.06634c-0.30204,0.02014 -0.50412,-0.31618 -0.50412,-0.31618l1.9988,-5.24684c0,0 0.45667,-1.12515 0.69719,-1.58616c0.25794,-0.49441 0.92683,-1.03726 0.92683,-1.03726z" data-paper-data="{&quot;index&quot;:null}" fill="#455050" stroke="#000000" stroke-width="0.25" stroke-linecap="round"/><path d="M279.86442,196.35616l0.58166,-1.47068" data-paper-data="{&quot;index&quot;:null}" fill="none" stroke="#ffffff" stroke-width="0.25" stroke-linecap="round"/><path d="M281.64246,191.68965l-0.53209,1.4178" data-paper-data="{&quot;index&quot;:null}" fill="none" stroke="#ffffff" stroke-width="0.25" stroke-linecap="round"/><path d="M280.34693,196.68335l0.77004,-1.70202" data-paper-data="{&quot;index&quot;:null}" fill="none" stroke="#ffffff" stroke-width="0.25" stroke-linecap="round"/><path d="M281.78457,193.23304l0.62793,-1.97302" data-paper-data="{&quot;index&quot;:null}" fill="none" stroke="#ffffff" stroke-width="0.25" stroke-linecap="round"/><path d="M282.88233,171.24872c0,0 0.37599,1.84761 0.56949,3.93499c0.16097,1.73632 0.14755,3.61448 0.1304,4.95513c-0.01673,1.30755 -0.03751,3.2548 -0.23255,4.9525c-0.25468,2.21684 -0.69638,4.06326 -0.69638,4.06326" fill="none" stroke="#000000" stroke-width="0.25" stroke-linecap="round"/><path d="M279.20632,196.1597l-14.40523,0.34071c0,0 -0.77079,-0.00292 -0.96677,-0.2419c-0.17392,-0.21207 -0.49238,-0.49629 -0.49238,-0.49629" fill="none" stroke="#000000" stroke-width="0.25" stroke-linecap="round"/><path d="M263.71596,164.58512c0,0 0.31847,-0.28423 0.49239,-0.4963c0.19598,-0.23898 0.96675,-0.24189 0.96675,-0.24189l14.40523,0.34071" data-paper-data="{&quot;index&quot;:null}" fill="none" stroke="#000000" stroke-width="0.25" stroke-linecap="round"/><path d="M250.97746,168.71503c0,0 4.89159,-1.35842 6.98823,-2.17102c1.86742,-0.72376 4.98372,-2.46905 4.98372,-2.46905c0,0 0.65914,0.25625 1.10463,1.18514c0.58069,1.21078 0.91261,3.13792 1.27904,5.11208c0.5814,3.13229 0.29164,6.79269 0.25896,9.79981c-0.02908,2.67483 -0.14196,6.6985 -0.79801,10.07262c-0.43946,2.26023 -0.76925,3.90211 -1.20504,4.92347c-0.28084,0.65824 -0.68421,1.03634 -0.68421,1.03634c0,0 -2.69961,-1.74926 -4.7259,-2.41631c-2.00181,-0.65898 -7.12483,-2.30184 -7.12483,-2.30184c0,0 0.57559,-7.14031 0.6241,-11.31037c0.04547,-3.90827 -0.7007,-11.46087 -0.7007,-11.46087z" fill="#203756" stroke="#000000" stroke-width="0.25" stroke-linecap="round"/><path d="M229.83544,166.60719c0,0 -4.67812,-0.10611 -6.86256,-0.4842c-2.14557,-0.37135 -5.59422,-1.05059 -5.59422,-1.05059c0,0 -0.12717,-0.25428 0.45289,-0.44136c1.24981,-0.40308 3.96277,-0.94917 5.48899,-1.17143c2.57141,-0.47498 6.9432,-0.90356 6.9432,-0.90356c0,0 7.67913,-0.08385 12.15462,-0.13175c6.01715,-0.05744 18.327,0.8099 18.327,0.8099c0,0 -1.22742,0.83302 -2.51441,1.36102c-1.79127,0.73488 -7.31895,2.19042 -7.31895,2.19042z" fill="#203756" stroke="#000000" stroke-width="0.25" stroke-linecap="round"/><path d="M250.88078,193.30921c0,0 5.52768,1.45554 7.31895,2.19042c1.28699,0.52799 2.51441,1.36102 2.51441,1.36102c0,0 -12.30986,0.86734 -18.327,0.8099c-4.47549,-0.0479 -12.15462,-0.13175 -12.15462,-0.13175c0,0 -4.37179,-0.42858 -6.9432,-0.90356c-1.52622,-0.22227 -4.23918,-0.76836 -5.48899,-1.17143c-0.58006,-0.18707 -0.45289,-0.44136 -0.45289,-0.44136c0,0 3.44865,-0.67924 5.59422,-1.05059c2.18445,-0.37808 6.86256,-0.4842 6.86256,-0.4842z" data-paper-data="{&quot;index&quot;:null}" fill="#203756" stroke="#000000" stroke-width="0.25" stroke-linecap="round"/><path d="M256.89279,163.04013l-0.31231,-1.87387" fill="none" stroke="#000000" stroke-width="0.25" stroke-linecap="round"/><path d="M256.84074,197.23826l-0.20821,2.03003" fill="none" stroke="#000000" stroke-width="0.25" stroke-linecap="round"/><path d="M212.05137,193.02205c0,0 -9.41204,-0.74784 -11.03414,-0.93054c-0.45887,-0.05168 -0.88306,-0.41178 -0.88306,-0.41178c0,0 -0.68028,-3.38677 -0.66254,-6.03908c0.01534,-2.29553 -0.2232,-7.15037 0.01211,-11.1444c0.22054,-3.74317 0.91636,-6.29298 0.91636,-6.29298c0,0 0.3582,-0.3652 0.93038,-0.41862c1.75197,-0.1636 10.8827,-0.68446 10.8827,-0.68446c0,0 -1.34807,8.74133 -1.37496,13.04734c-0.02706,4.33444 1.21314,12.87454 1.21314,12.87454z" fill="#203756" stroke="#000000" stroke-width="0.25" stroke-linecap="round"/><path d="M212.23221,167.10018c0,0 0.45672,0.00447 0.67883,0.05337c0.21403,0.04712 0.43829,0.5232 0.43829,0.5232c0,0 -0.34171,2.99796 -0.48306,6.0099c-0.1313,2.79753 -0.06334,5.59394 -0.05418,6.34446c0.013,1.06671 -0.00652,2.32582 0.09969,3.74764c0.30262,4.05101 0.46157,8.16222 0.46157,8.16222c0,0 -0.25044,0.80556 -0.56019,0.86188c-0.24985,0.04542 -0.58095,0.21921 -0.58095,0.21921" fill="none" stroke="#000000" stroke-width="0.25" stroke-linecap="round"/><path d="M196.64263,166.90363l3.07286,0.11128c0,0 0.44438,0.26618 0.53344,0.37305c0.08416,0.101 0.24555,0.46697 0.24555,0.46697" fill="none" stroke="#000000" stroke-width="0.25" stroke-linecap="round"/><path d="M200.15379,192.00214c0,0 -0.16138,0.36597 -0.24554,0.46697c-0.08906,0.10687 -0.53344,0.37305 -0.53344,0.37305l-3.07286,0.11128" data-paper-data="{&quot;index&quot;:null}" fill="none" stroke="#000000" stroke-width="0.25" stroke-linecap="round"/><path d="M253.81858,159.70872l0.38171,1.89122c0,0 -0.59222,0.11663 -0.87196,0.10616c-0.25951,-0.00972 -0.75032,-0.16689 -0.75032,-0.16689c0,0 -0.14053,-0.8568 -0.33491,-1.22021c-0.2042,-0.38176 -0.86228,-1.01802 -0.86228,-1.01802c0,0 0.76255,0.2695 1.21333,0.32512c0.43961,0.05424 1.22444,0.08263 1.22444,0.08263z" fill="#000000" stroke="#000000" stroke-width="0.25" stroke-linecap="round"/><path d="M250.85195,158.85487l-0.86487,-3.17118c0,0 1.01889,-0.14891 1.54789,-0.08279c0.49357,0.0617 1.43109,0.65937 1.43109,0.65937c0,0 0.73819,1.1884 0.96271,1.68553c0.22394,0.49585 0.38264,1.58172 0.38264,1.58172c0,0 -1.13079,0.24768 -1.71276,0.11673c-0.68305,-0.15369 -1.7467,-0.7894 -1.7467,-0.7894z" fill="#1b2e14" stroke="#000000" stroke-width="0.25" stroke-linecap="round"/><path d="M253.00425,200.44233c-0.45078,0.05562 -1.21333,0.32512 -1.21333,0.32512c0,0 0.65808,-0.63627 0.86228,-1.01802c0.19438,-0.36342 0.33491,-1.22021 0.33491,-1.22021c0,0 0.4945,-0.15732 0.75486,-0.16706c0.27909,-0.01044 0.86743,0.10634 0.86743,0.10634l-0.38171,1.89122c0,0 -0.78483,0.02838 -1.22444,0.08263z" data-paper-data="{&quot;index&quot;:null}" fill="#000000" stroke="#000000" stroke-width="0.25" stroke-linecap="round"/><path d="M252.93935,200.35476c0.58196,-0.13095 1.71274,0.11673 1.71274,0.11673c0,0 -0.1587,1.08587 -0.38263,1.58172c-0.22451,0.49714 -0.96271,1.68553 -0.96271,1.68553c0,0 -0.93752,0.59766 -1.43109,0.65937c-0.52899,0.06612 -1.54789,-0.08279 -1.54789,-0.08279l0.86487,-3.17118c0,0 1.06365,-0.6357 1.74671,-0.7894z" data-paper-data="{&quot;index&quot;:null}" fill="#1b2e14" stroke="#000000" stroke-width="0.25" stroke-linecap="round"/><path d="M282.14536,187.22366l-15.09506,1.87387" fill="none" stroke="#000000" stroke-width="0.25" stroke-linecap="round"/><path d="M282.04126,172.75322l-14.67865,-2.29029" fill="none" stroke="#000000" stroke-width="0.25" stroke-linecap="round"/><path d="M281.64995,179.94825l0.41098,-0.00638c0,0 0.17006,0.13364 0.15948,0.21071c-0.01058,0.07707 -0.14721,0.17878 -0.14721,0.17878h-0.41711z" fill="#000000" stroke="#252525" stroke-width="0.25" stroke-linecap="round"/><path d="M221.33666,199.1756l-0.64064,-1.77378c0,0 0.07319,-0.41384 0.194,-0.56916c0.09908,-0.12739 0.53073,-0.3998 0.53073,-0.3998" fill="none" stroke="#000000" stroke-width="0.25" stroke-linecap="round"/><path d="M221.53353,163.61543c0,0 -0.43166,-0.27242 -0.53073,-0.3998c-0.1208,-0.15533 -0.194,-0.56917 -0.194,-0.56917l0.64064,-1.77377" data-paper-data="{&quot;index&quot;:null}" fill="none" stroke="#000000" stroke-width="0.25" stroke-linecap="round"/><path d="M223.33418,162.32736l0.4997,-0.55523l2.09596,-0.18045l0.68014,0.30538" fill="none" stroke="#000000" stroke-width="0.25" stroke-linecap="round"/><path d="M237.96427,160.64781l0.45805,1.6379" fill="none" stroke="#000000" stroke-width="0.25" stroke-linecap="round"/><path d="M239.89365,161.75824l0.4997,-0.54134h1.51299l0.97163,0.43029" fill="none" stroke="#000000" stroke-width="0.25" stroke-linecap="round"/><path d="M226.43153,198.19858l-0.68014,0.30538l-2.09596,-0.18045l-0.4997,-0.55523" data-paper-data="{&quot;index&quot;:null}" fill="none" stroke="#000000" stroke-width="0.25" stroke-linecap="round"/><path d="M238.24386,197.80993l-0.45805,1.6379" data-paper-data="{&quot;index&quot;:null}" fill="none" stroke="#000000" stroke-width="0.25" stroke-linecap="round"/><path d="M242.6995,198.44845l-0.97163,0.43029h-1.51299l-0.4997,-0.54134" data-paper-data="{&quot;index&quot;:null}" fill="none" stroke="#000000" stroke-width="0.25" stroke-linecap="round"/><path d="M216.86587,163.25436l-14.8125,1.78464" fill="none" stroke="#000000" stroke-width="0.25" stroke-linecap="round"/><path d="M217.57973,196.98403l-15.88328,-1.9631" fill="none" stroke="#000000" stroke-width="0.25" stroke-linecap="round"/></g></g></svg>