<svg version="1.1" xmlns="http://www.w3.org/2000/svg" xmlns:xlink="http://www.w3.org/1999/xlink" width="47" height="47" viewBox="0,0,47,47"><g transform="translate(-412.2708,-13.9352)"><g data-paper-data="{&quot;isPaintingLayer&quot;:true}" fill-rule="nonzero" stroke-linecap="butt" stroke-linejoin="miter" stroke-miterlimit="10" stroke-dasharray="" stroke-dashoffset="0" style="mix-blend-mode: normal"><path d="M422.42512,60.9352c-5.60808,0 -10.15432,-4.54624 -10.15432,-10.15432v-26.69136c0,-5.60808 4.54624,-10.15432 10.15432,-10.15432h26.69136c5.60808,0 10.15432,4.54624 10.15432,10.15432v26.69136c0,5.60808 -4.54624,10.15432 -10.15432,10.15432z" fill="#47ed2b" stroke="#ffffff" stroke-width="0"/><path d="M421.47256,37.4352c0,-7.8967 6.40154,-14.29825 14.29825,-14.29825c7.8967,0 14.29825,6.40154 14.29825,14.29825c0,7.8967 -6.40154,14.29825 -14.29825,14.29825c-7.8967,0 -14.29825,-6.40154 -14.29825,-14.29825z" fill="#929292" stroke="#ffffff" stroke-width="0"/><path d="M433.52432,24.38715c-0.6276,0 -1.13636,-0.50198 -1.13636,-1.12121v-4.24881c0,-0.61923 0.50876,-1.12121 1.13636,-1.12121h4.30622c0.6276,0 1.13636,0.50198 1.13636,1.12121v4.24881c0,0.61923 -0.50877,1.12121 -1.13636,1.12121z" fill="#929292" stroke="none" stroke-width="0"/><path d="M433.52432,55.9661c-0.6276,0 -1.13636,-0.50198 -1.13636,-1.12121v-4.24881c0,-0.61923 0.50876,-1.12121 1.13636,-1.12121h4.30622c0.6276,0 1.13636,0.50198 1.13636,1.12121v4.24881c0,0.61923 -0.50877,1.12121 -1.13636,1.12121z" fill="#929292" stroke="none" stroke-width="0"/><path d="M435.26661,22.63277c7.8967,0 14.29825,6.40154 14.29825,14.29825c0,7.8967 -6.40154,14.29825 -14.29825,14.29825c-7.8967,0 -14.29825,-6.40154 -14.29825,-14.29825c0,-7.8967 6.40154,-14.29825 14.29825,-14.29825z" fill="#929292" stroke="#ffffff" stroke-width="0"/><path d="M448.31466,34.68453c0,-0.6276 0.50198,-1.13636 1.12121,-1.13636h4.24881c0.61923,0 1.12121,0.50877 1.12121,1.13636v4.30622c0,0.6276 -0.50198,1.13637 -1.12121,1.13637h-4.24881c-0.61923,0 -1.12121,-0.50877 -1.12121,-1.13637z" fill="#929292" stroke="none" stroke-width="0"/><path d="M416.73572,34.68453c0,-0.62759 0.50198,-1.13636 1.12121,-1.13636h4.24881c0.61923,0 1.12121,0.50876 1.12121,1.13636v4.30622c0,0.6276 -0.50198,1.13637 -1.12121,1.13637h-4.2488c-0.61923,0 -1.12121,-0.50877 -1.12121,-1.13636z" fill="#929292" stroke="none" stroke-width="0"/><path d="M425.3039,27.17714c5.58381,-5.58381 14.63696,-5.58381 20.22077,0c5.58381,5.58381 5.58381,14.63696 0,20.22077c-5.58381,5.58381 -14.63696,5.58381 -20.22077,0c-5.58381,-5.58381 -5.58381,-14.63696 0,-20.22077z" fill="#929292" stroke="#ffffff" stroke-width="0"/><path d="M443.05215,26.47266c-0.44378,-0.44378 -0.44857,-1.15848 -0.01071,-1.59634l3.00436,-3.00436c0.43786,-0.43786 1.15257,-0.43306 1.59634,0.01071l3.04496,3.04496c0.44378,0.44378 0.44858,1.15848 0.01072,1.59635l-3.00436,3.00436c-0.43786,0.43786 -1.15257,0.43306 -1.59635,-0.01072z" fill="#929292" stroke="none" stroke-width="0"/><path d="M420.72246,48.80235c-0.44378,-0.44378 -0.44857,-1.15848 -0.01071,-1.59634l3.00436,-3.00436c0.43786,-0.43786 1.15257,-0.43306 1.59634,0.01071l3.04496,3.04496c0.44378,0.44378 0.44858,1.15848 0.01072,1.59635l-3.00436,3.00436c-0.43786,0.43786 -1.15257,0.43306 -1.59635,-0.01072z" fill="#929292" stroke="none" stroke-width="0"/><path d="M426.01693,47.39791c-5.58381,-5.58381 -5.58381,-14.63696 0,-20.22077c5.58381,-5.58381 14.63696,-5.58381 20.22077,0c5.58381,5.58381 5.58381,14.63696 0,20.22077c-5.58381,5.58381 -14.63696,5.58381 -20.22077,0z" fill="#929292" stroke="#ffffff" stroke-width="0"/><path d="M425.31245,29.64966c-0.44378,0.44378 -1.15848,0.44857 -1.59634,0.01071l-3.00436,-3.00436c-0.43786,-0.43786 -0.43306,-1.15257 0.01071,-1.59634l3.04496,-3.04496c0.44378,-0.44378 1.15848,-0.44858 1.59635,-0.01072l3.00436,3.00436c0.43786,0.43786 0.43306,1.15257 -0.01072,1.59635z" fill="#929292" stroke="none" stroke-width="0"/><path d="M447.64214,51.97935c-0.44378,0.44378 -1.15848,0.44857 -1.59634,0.01071l-3.00436,-3.00436c-0.43786,-0.43786 -0.43306,-1.15257 0.01071,-1.59634l3.04496,-3.04496c0.44378,-0.44378 1.15848,-0.44858 1.59635,-0.01072l3.00436,3.00436c0.43786,0.43786 0.43306,1.15257 -0.01072,1.59635z" fill="#929292" stroke="none" stroke-width="0"/><path d="M428.4901,37.49472c0,-4.02102 3.25968,-7.2807 7.2807,-7.2807c4.02102,0 7.2807,3.25968 7.2807,7.2807c0,4.02102 -3.25968,7.2807 -7.2807,7.2807c-4.02102,0 -7.2807,-3.25968 -7.2807,-7.2807z" fill="#ffffff" stroke="none" stroke-width="0"/><path d="M434.92557,37.47269c0,-0.46024 0.3731,-0.83333 0.83333,-0.83333c0.46024,0 0.83333,0.3731 0.83333,0.83333c0,0.46024 -0.3731,0.83333 -0.83333,0.83333c-0.46024,0 -0.83333,-0.3731 -0.83333,-0.83333z" fill="#929292" stroke="none" stroke-width="0.5"/></g></g></svg>