<svg version="1.1" xmlns="http://www.w3.org/2000/svg" xmlns:xlink="http://www.w3.org/1999/xlink" width="95.18011" height="51.07077" viewBox="0,0,95.18011,51.07077"><g transform="translate(-192.324,-154.45531)"><g data-paper-data="{&quot;isPaintingLayer&quot;:true}" fill-rule="nonzero" stroke-width="0.25" stroke-linecap="round" stroke-linejoin="miter" stroke-miterlimit="10" stroke-dasharray="" stroke-dashoffset="0" style="mix-blend-mode: normal"><path d="M196.91426,199.63925c0,0 -1.76091,-1.48815 -2.34498,-3.93212c-0.58,-2.427 -1.50498,-5.77497 -1.90967,-8.98183c-0.31705,-2.51233 -0.18917,-4.93806 -0.16336,-6.76653c0.03702,-2.62001 -0.02769,-5.76357 0.53399,-8.62557c0.46606,-2.37474 1.51528,-4.50498 2.03091,-6.44171c0.43712,-1.64181 2.41051,-4.70803 2.41051,-4.70803c0,0 2.72658,-0.64326 4.78473,-0.90708c2.64034,-0.33843 4.90047,-0.29046 6.54942,0.00864c2.05712,0.37314 4.84207,0.93301 4.84207,0.93301c0,0 15.91692,-0.64529 23.73093,-0.64529c7.62605,0 22.60297,0.64529 22.60297,0.64529c0,0 4.22201,-0.6017 8.11914,-1.09862c3.1404,-0.40043 6.23453,-0.16486 8.13942,0.09383c2.96001,0.40196 6.50195,1.6501 6.50195,1.6501c0,0 3.27486,2.63629 3.94228,6.12896c0.65563,2.62996 0.67525,5.6095 0.69453,7.74432c0.02749,3.04253 0.05433,6.89657 0.03833,10.48751c-0.00929,2.08492 -0.49423,5.36076 -1.09371,7.62538c-0.98561,3.72323 -3.95302,6.70904 -3.95302,6.70904c0,0 -3.45524,0.89563 -6.076,1.19425c-1.87228,0.19923 -5.81662,0.21486 -9.01706,-0.03587c-4.05293,-0.31752 -7.83002,-0.53612 -7.83002,-0.53612c0,0 -14.68387,0.59361 -22.19854,0.56715c-7.75226,-0.02729 -23.62442,-0.72847 -23.62442,-0.72847c0,0 -2.80005,0.30079 -4.81683,0.62364c-1.59363,0.25511 -3.65936,0.33741 -6.70228,0.00616c-2.44003,-0.26562 -5.1913,-1.01009 -5.1913,-1.01009z" fill="#af3d1b" stroke="#000000"/><path d="M284.73874,170.88199c0,0 -0.69637,-0.56518 -0.96493,-1.0799c-0.25042,-0.47996 -0.72585,-1.65136 -0.72585,-1.65136l-2.08096,-5.46252c0,0 0.21039,-0.35015 0.52484,-0.32918c0.33458,0.02231 0.90582,0.06906 0.90582,0.06906c0,0 1.34827,2.63936 1.81254,3.85531c0.44536,1.16643 0.91872,3.298 0.91872,3.298z" data-paper-data="{&quot;index&quot;:null}" fill="#455050" stroke="#000000"/><path d="M281.76593,163.50251l0.60556,1.53113" fill="none" stroke="#ffffff"/><path d="M283.06309,166.88477l0.55396,1.47608" fill="none" stroke="#ffffff"/><path d="M283.06996,164.93388l-0.80169,-1.77199" fill="none" stroke="#ffffff"/><path d="M284.41874,168.80813l-0.65375,-2.05412" fill="none" stroke="#ffffff"/><path d="M284.86878,190.94966c0,0 -0.47335,2.13157 -0.91872,3.298c-0.46428,1.21594 -1.81254,3.85531 -1.81254,3.85531c0,0 -0.57124,0.04676 -0.90582,0.06906c-0.31446,0.02097 -0.52484,-0.32918 -0.52484,-0.32918l2.08096,-5.46252c0,0 0.47545,-1.1714 0.72585,-1.65136c0.26855,-0.51474 0.96493,-1.0799 0.96493,-1.0799z" data-paper-data="{&quot;index&quot;:null}" fill="#455050" stroke="#000000"/><path d="M281.50581,197.02854l0.60557,-1.53113" data-paper-data="{&quot;index&quot;:null}" fill="none" stroke="#ffffff"/><path d="M282.80297,193.64629l0.55396,-1.47608" data-paper-data="{&quot;index&quot;:null}" fill="none" stroke="#ffffff"/><path d="M282.00815,197.36918l0.80169,-1.77199" data-paper-data="{&quot;index&quot;:null}" fill="none" stroke="#ffffff"/><path d="M284.15863,191.72291l-0.65375,2.05413" data-paper-data="{&quot;index&quot;:null}" fill="none" stroke="#ffffff"/><path d="M284.64777,170.88899c0,0 0.39144,1.92356 0.5929,4.09675c0.16758,1.80769 0.15361,3.76307 0.13576,5.15882c-0.01742,1.3613 -0.03906,3.3886 -0.24211,5.15609c-0.26515,2.30797 -0.72501,4.23029 -0.72501,4.23029" fill="none" stroke="#000000"/><path d="M280.82065,196.82401l-14.9974,0.35471c0,0 -0.80247,-0.00304 -1.00651,-0.25185c-0.18107,-0.22079 -0.51262,-0.51669 -0.51262,-0.51669" fill="none" stroke="#000000"/><path d="M264.69351,163.95147c0,0 0.33156,-0.29591 0.51263,-0.5167c0.20404,-0.2488 1.0065,-0.25184 1.0065,-0.25184l14.9974,0.35471" data-paper-data="{&quot;index&quot;:null}" fill="none" stroke="#000000"/><path d="M251.43136,168.25115c0,0 5.09267,-1.41426 7.2755,-2.26026c1.94419,-0.75352 5.18859,-2.57055 5.18859,-2.57055c0,0 0.68624,0.26678 1.15004,1.23385c0.60456,1.26056 0.95013,3.26691 1.33162,5.32223c0.6053,3.26105 0.30363,7.07193 0.2696,10.20265c-0.03028,2.78478 -0.1478,6.97386 -0.83081,10.48668c-0.45753,2.35314 -0.80087,4.06252 -1.25457,5.12586c-0.29239,0.6853 -0.71234,1.07894 -0.71234,1.07894c0,0 -2.81059,-1.82117 -4.92017,-2.51563c-2.0841,-0.68607 -7.41772,-2.39646 -7.41772,-2.39646c0,0 0.59925,-7.43383 0.64975,-11.77531c0.04734,-4.06893 -0.72951,-11.932 -0.72951,-11.932z" fill="#203756" stroke="#000000"/><path d="M229.42024,166.05666c0,0 -4.87042,-0.11047 -7.14467,-0.5041c-2.23377,-0.38662 -5.82418,-1.09378 -5.82418,-1.09378c0,0 -0.1324,-0.26474 0.47151,-0.4595c1.30119,-0.41965 4.12567,-0.98818 5.71463,-1.21959c2.67712,-0.4945 7.22862,-0.9407 7.22862,-0.9407c0,0 7.99481,-0.0873 12.65427,-0.13716c6.2645,-0.0598 19.08039,0.84319 19.08039,0.84319c0,0 -1.27788,0.86727 -2.61777,1.41697c-1.86491,0.76509 -7.61982,2.28046 -7.61982,2.28046z" fill="#203756" stroke="#000000"/><path d="M251.33071,193.85634c0,0 5.75491,1.51537 7.61982,2.28046c1.33989,0.5497 2.61777,1.41697 2.61777,1.41697c0,0 -12.81589,0.90299 -19.08039,0.84319c-4.65947,-0.04987 -12.65427,-0.13716 -12.65427,-0.13716c0,0 -4.5515,-0.4462 -7.22862,-0.9407c-1.58896,-0.2314 -4.41345,-0.79995 -5.71463,-1.21959c-0.60391,-0.19476 -0.47151,-0.4595 -0.47151,-0.4595c0,0 3.59041,-0.70716 5.82418,-1.09378c2.27424,-0.39363 7.14467,-0.5041 7.14467,-0.5041z" data-paper-data="{&quot;index&quot;:null}" fill="#203756" stroke="#000000"/><path d="M257.58987,162.34296l-0.32515,-1.9509" fill="none" stroke="#000000"/><path d="M257.53567,197.94691l-0.21677,2.11348" fill="none" stroke="#000000"/><path d="M210.90511,193.55738c0,0 -9.79895,-0.77858 -11.48773,-0.96879c-0.47774,-0.05381 -0.91936,-0.4287 -0.91936,-0.4287c0,0 -0.70824,-3.52599 -0.68977,-6.28734c0.01597,-2.38989 -0.23238,-7.4443 0.0126,-11.60252c0.22961,-3.89704 0.95403,-6.55167 0.95403,-6.55167c0,0 0.37292,-0.38022 0.96862,-0.43583c1.82399,-0.17033 11.33007,-0.7126 11.33007,-0.7126c0,0 -1.40349,9.10067 -1.43148,13.58368c-0.02817,4.51262 1.26301,13.40378 1.26301,13.40378z" fill="#203756" stroke="#000000"/><path d="M211.09339,166.56992c0,0 0.4755,0.00466 0.70673,0.05556c0.22283,0.04906 0.4563,0.5447 0.4563,0.5447c0,0 -0.35575,3.12119 -0.50292,6.25696c-0.13669,2.91253 -0.06594,5.8239 -0.05641,6.60527c0.01354,1.11056 -0.00679,2.42143 0.10379,3.9017c0.31506,4.21754 0.48055,8.49775 0.48055,8.49775c0,0 -0.26073,0.83868 -0.58322,0.89731c-0.26012,0.04729 -0.60483,0.22822 -0.60483,0.22822" fill="none" stroke="#000000"/><path d="M194.86296,166.36529l3.19918,0.11586c0,0 0.46265,0.27712 0.55537,0.38839c0.08762,0.10515 0.25565,0.48616 0.25565,0.48616" fill="none" stroke="#000000"/><path d="M198.51845,192.49555c0,0 -0.16801,0.38101 -0.25563,0.48616c-0.09272,0.11127 -0.55537,0.38839 -0.55537,0.38839l-3.19918,0.11586" data-paper-data="{&quot;index&quot;:null}" fill="none" stroke="#000000"/><path d="M254.38928,158.87461l0.3974,1.96897c0,0 -0.61656,0.12142 -0.90781,0.11053c-0.27017,-0.01012 -0.78117,-0.17375 -0.78117,-0.17375c0,0 -0.1463,-0.89202 -0.34868,-1.27037c-0.2126,-0.39745 -0.89773,-1.05987 -0.89773,-1.05987c0,0 0.7939,0.28058 1.26321,0.33848c0.45768,0.05647 1.27477,0.08602 1.27477,0.08602z" fill="#000000" stroke="#000000"/><path d="M251.30069,157.98567l-0.90042,-3.30154c0,0 1.06077,-0.15503 1.61152,-0.08619c0.51385,0.06424 1.48992,0.68647 1.48992,0.68647c0,0 0.76854,1.23725 1.00228,1.75482c0.23315,0.51623 0.39837,1.64674 0.39837,1.64674c0,0 -1.17728,0.25786 -1.78316,0.12153c-0.71113,-0.16001 -1.8185,-0.82185 -1.8185,-0.82185z" fill="#af3d1b" stroke="#000000"/><path d="M253.54147,201.28269c-0.46931,0.0579 -1.26321,0.33848 -1.26321,0.33848c0,0 0.68513,-0.66242 0.89773,-1.05987c0.20237,-0.37836 0.34868,-1.27037 0.34868,-1.27037c0,0 0.51483,-0.16378 0.78589,-0.17393c0.29057,-0.01087 0.90309,0.11071 0.90309,0.11071l-0.3974,1.96897c0,0 -0.81709,0.02955 -1.27477,0.08602z" data-paper-data="{&quot;index&quot;:null}" fill="#000000" stroke="#000000"/><path d="M253.47391,201.19152c0.60588,-0.13633 1.78315,0.12153 1.78315,0.12153c0,0 -0.16523,1.13051 -0.39836,1.64674c-0.23374,0.51757 -1.00228,1.75482 -1.00228,1.75482c0,0 -0.97606,0.62223 -1.48992,0.68647c-0.55074,0.06884 -1.61152,-0.08619 -1.61152,-0.08619l0.90042,-3.30154c0,0 1.10737,-0.66184 1.81851,-0.82185z" data-paper-data="{&quot;index&quot;:null}" fill="#af3d1b" stroke="#000000"/><path d="M268.16492,189.47153l15.71559,-1.9509" fill="none" stroke="#000000"/><path d="M283.77213,172.45534l-15.28206,-2.38444" fill="none" stroke="#000000"/><path d="M283.36473,179.94614l0.42787,-0.00665c0,0 0.17705,0.13914 0.16603,0.21937c-0.01102,0.08023 -0.15326,0.18613 -0.15326,0.18613h-0.43426z" fill="#000000" stroke="#252525"/><path d="M220.5721,199.96388l-0.66697,-1.8467c0,0 0.0762,-0.43085 0.20197,-0.59255c0.10315,-0.13262 0.55255,-0.41623 0.55255,-0.41623" fill="none" stroke="#000000"/><path d="M220.77706,162.94192c0,0 -0.44941,-0.28362 -0.55255,-0.41623c-0.12577,-0.16172 -0.20197,-0.59257 -0.20197,-0.59257l0.66697,-1.84668" data-paper-data="{&quot;index&quot;:null}" fill="none" stroke="#000000"/><path d="M222.65174,161.60089l0.52024,-0.57805l2.18212,-0.18787l0.7081,0.31793" fill="none" stroke="#000000"/><path d="M237.88323,159.8523l0.47688,1.70523" fill="none" stroke="#000000"/><path d="M239.89193,161.00838l0.52024,-0.56359h1.57518l1.01157,0.44798" fill="none" stroke="#000000"/><path d="M225.87641,198.94671l-0.7081,0.31793l-2.18212,-0.18787l-0.52024,-0.57805" data-paper-data="{&quot;index&quot;:null}" fill="none" stroke="#000000"/><path d="M238.17431,198.54208l-0.47688,1.70523" data-paper-data="{&quot;index&quot;:null}" fill="none" stroke="#000000"/><path d="M242.81312,199.20684l-1.01157,0.44798h-1.57518l-0.52024,-0.56359" data-paper-data="{&quot;index&quot;:null}" fill="none" stroke="#000000"/><path d="M200.49612,164.424l15.42141,-1.858" fill="none" stroke="#000000"/><path d="M216.66073,197.68222l-16.5362,-2.0438" fill="none" stroke="#000000"/></g></g></svg>