<svg version="1.1" xmlns="http://www.w3.org/2000/svg" xmlns:xlink="http://www.w3.org/1999/xlink" width="29.41296" height="23.625" viewBox="0,0,29.41296,23.625"><g transform="translate(-231.63308,-161.06055)"><g data-paper-data="{&quot;isPaintingLayer&quot;:true}" fill-rule="nonzero" stroke="none" stroke-width="0" stroke-linecap="butt" stroke-linejoin="miter" stroke-miterlimit="10" stroke-dasharray="" stroke-dashoffset="0" style="mix-blend-mode: normal"><path d="M231.63309,184.68555v-23.625h29.41296v23.625z" fill-opacity="0.00784" fill="#3dff8e"/><g><path d="M238.39783,168.94296l-1.18345,-1.18345l1.06049,-1.06049l1.18345,1.18345z" fill="#3ed3f7"/><path d="M244.8533,168.46478l-1.18345,-1.18345l1.06049,-1.06049l1.18345,1.18345z" fill="#f74848"/><path d="M246.11397,169.18205l-1.18345,-1.18345l1.06049,-1.06049l1.18345,1.18345z" fill="#3ed3f7"/><path d="M243.63611,169.0299l-1.18345,-1.18345l1.06049,-1.06049l1.18345,1.18345z" fill="#3ed3f7"/><path d="M242.65801,169.13857l-1.18345,-1.18345l1.06049,-1.06049l1.18345,1.18345z" fill="#f74848"/><path d="M240.65833,169.00816l-1.18345,-1.18345l1.06049,-1.06049l1.18345,1.18345z" fill="#3ed3f7"/><path d="M241.63643,168.03006l-1.18345,-1.18345l1.06049,-1.06049l1.18345,1.18345z" fill="#f74848"/><path d="M243.17966,168.44304l-1.18345,-1.18345l1.06049,-1.06049l1.18345,1.18345z" fill="#3ef744"/><path d="M247.93976,168.7256l-1.18345,-1.18345l1.06049,-1.06049l1.18345,1.18345z" fill="#3ed3f7"/><path d="M249.15696,168.61692l-1.18345,-1.18345l1.06049,-1.06049l1.18345,1.18345z" fill="#3ed3f7"/><path d="M247.00513,168.83428l-1.18345,-1.18345l1.06049,-1.06049l1.18345,1.18345z" fill="#3ed3f7"/><path d="M250.46109,167.87791l-1.18345,-1.18345l1.06049,-1.06049l1.18345,1.18345z" fill="#f74848"/><path d="M251.67828,167.48667l-1.18345,-1.18345l1.06049,-1.06049l1.18345,1.18345z" fill="#3ed3f7"/><path d="M252.74333,168.03006l-1.18345,-1.18345l1.06049,-1.06049l1.18345,1.18345z" fill="#f7f13e"/><path d="M251.65655,168.87775l-1.18345,-1.18345l1.06049,-1.06049l1.18345,1.18345z" fill="#3ef744"/><path d="M254.04746,168.81254l-1.18345,-1.18345l1.06049,-1.06049l1.18345,1.18345z" fill="#f74848"/><path d="M254.85168,168.29088l-1.18345,-1.18345l1.06049,-1.06049l1.18345,1.18345z" fill="#3ef744"/><path d="M255.54722,168.50824l-1.18345,-1.18345l1.06049,-1.06049l1.18345,1.18345z" fill="#f74848"/><path d="M239.0499,168.85601l-1.18345,-1.18345l1.06049,-1.06049l1.18345,1.18345z" fill="#f74848"/><path d="M240.11494,168.55171l-1.18345,-1.18345l1.06049,-1.06049l1.18345,1.18345z" fill="#f7f13e"/><path d="M237.81097,169.16031l-1.18345,-1.18345l1.06049,-1.06049l1.18345,1.18345z" fill="#f74848"/><path d="M246.22265,168.48651l-1.18345,-1.18345l1.06049,-1.06049l1.18345,1.18345z" fill="#f7f13e"/><path d="M248.17885,167.70403l-1.18345,-1.18345l1.06049,-1.06049l1.18345,1.18345z" fill="#f74848"/><path d="M246.89645,167.79097l-1.18345,-1.18345l1.06049,-1.06049l1.18345,1.18345z" fill="#f74848"/><path d="M246.41827,168.117l-1.18345,-1.18345l1.06049,-1.06049l1.18345,1.18345z" fill="#f7f13e"/><path d="M246.35306,168.07353l-1.18345,-1.18345l1.06049,-1.06049l1.18345,1.18345z" fill="#f7f13e"/><path d="M249.22216,168.24742l-1.18345,-1.18345l1.06049,-1.06049l1.18345,1.18345z" fill="#3ef744"/><path d="M247.54852,167.7475l-1.18345,-1.18345l1.06049,-1.06049l1.18345,1.18345z" fill="#3ef744"/><path d="M236.74425,179.66152c-0.24263,0 -0.43933,-0.35783 -0.43933,-0.79925v-10.39564c0,-0.44141 0.1967,-0.79925 0.43933,-0.79925h19.94901c0.24263,0 0.43933,0.35783 0.43933,0.79925v10.39564c0,0.44141 -0.1967,0.79925 -0.43933,0.79925z" fill="#feff72"/><g fill="#ffffff"><path d="M245.53863,177.13858l0.4576,-4.28697h1.43301l0.46964,4.28697z"/><path d="M244.75589,172.15318c0,-1.08405 0.8788,-1.96285 1.96285,-1.96285c1.08405,0 1.96285,0.8788 1.96285,1.96285c0,1.08405 -0.8788,1.96285 -1.96285,1.96285c-1.08405,0 -1.96285,-0.8788 -1.96285,-1.96285z"/></g></g></g></g></svg>