<svg version="1.1" xmlns="http://www.w3.org/2000/svg" xmlns:xlink="http://www.w3.org/1999/xlink" width="160.69945" height="95.48052" viewBox="0,0,160.69945,95.48052"><g transform="translate(-159.65028,-132.25974)"><g data-paper-data="{&quot;isPaintingLayer&quot;:true}" fill-rule="nonzero" stroke-linejoin="miter" stroke-miterlimit="10" stroke-dasharray="" stroke-dashoffset="0" style="mix-blend-mode: normal"><path d="M159.65029,227.74026v-95.48052h160.69945v95.48052z" fill="#59ad0d" stroke="none" stroke-width="0" stroke-linecap="butt"/><path d="M197.86344,199.20594c0,0 -1.72206,-1.45531 -2.29325,-3.84537c-0.56721,-2.37345 -1.47177,-5.64755 -1.86754,-8.78367c-0.31005,-2.4569 -0.185,-4.82911 -0.15975,-6.61724c0.0362,-2.5622 -0.02708,-5.63641 0.52221,-8.43527c0.45577,-2.32235 1.48185,-4.40559 1.98611,-6.29958c0.42747,-1.60559 2.35732,-4.60416 2.35732,-4.60416c0,0 2.66642,-0.62907 4.67916,-0.88707c2.58208,-0.33096 4.79235,-0.28405 6.40492,0.00845c2.01174,0.36491 4.73524,0.91243 4.73524,0.91243c0,0 15.56575,-0.63106 23.20736,-0.63106c7.45779,0 22.10429,0.63106 22.10429,0.63106c0,0 4.12886,-0.58842 7.94001,-1.07438c3.07112,-0.39159 6.09698,-0.16123 7.95984,0.09176c2.89471,0.3931 6.3585,1.61369 6.3585,1.61369c0,0 3.20261,2.57813 3.8553,5.99374c0.64117,2.57193 0.66035,5.48574 0.67921,7.57346c0.02689,2.97541 0.05313,6.74441 0.03748,10.25613c-0.00908,2.03892 -0.48332,5.24249 -1.06958,7.45715c-0.96386,3.64108 -3.86581,6.56102 -3.86581,6.56102c0,0 -3.37901,0.87587 -5.94195,1.1679c-1.83097,0.19483 -5.68829,0.21012 -8.81812,-0.03508c-3.96351,-0.31051 -7.65727,-0.52429 -7.65727,-0.52429c0,0 -14.35991,0.58051 -21.70877,0.55464c-7.58122,-0.02668 -23.1032,-0.71239 -23.1032,-0.71239c0,0 -2.73827,0.29415 -4.71055,0.60988c-1.55847,0.24948 -3.57862,0.32997 -6.55441,0.00603c-2.3862,-0.25976 -5.07676,-0.9878 -5.07676,-0.9878z" fill="#af3d1b" stroke="#000000" stroke-width="0.25" stroke-linecap="round"/><path d="M283.75025,171.08315c0,0 -0.681,-0.55271 -0.94364,-1.05608c-0.24489,-0.46937 -0.70984,-1.61493 -0.70984,-1.61493l-2.03505,-5.342c0,0 0.20574,-0.34242 0.51326,-0.32192c0.3272,0.02181 0.88583,0.06754 0.88583,0.06754c0,0 1.31852,2.58113 1.77255,3.77025c0.43554,1.1407 0.89845,3.22524 0.89845,3.22524z" data-paper-data="{&quot;index&quot;:null}" fill="#455050" stroke="#000000" stroke-width="0.25" stroke-linecap="round"/><path d="M280.84303,163.86648l0.5922,1.49735" fill="none" stroke="#ffffff" stroke-width="0.25" stroke-linecap="round"/><path d="M282.65332,168.61762l-0.54174,-1.44351" fill="none" stroke="#ffffff" stroke-width="0.25" stroke-linecap="round"/><path d="M282.1183,165.26627l-0.784,-1.7329" fill="none" stroke="#ffffff" stroke-width="0.25" stroke-linecap="round"/><path d="M283.43731,169.05505l-0.63932,-2.0088" fill="none" stroke="#ffffff" stroke-width="0.25" stroke-linecap="round"/><path d="M283.87743,190.70807c0,0 -0.46291,2.08454 -0.89845,3.22524c-0.45403,1.18912 -1.77255,3.77025 -1.77255,3.77025c0,0 -0.55863,0.04573 -0.88583,0.06754c-0.30752,0.0205 -0.51326,-0.32192 -0.51326,-0.32192l2.03505,-5.342c0,0 0.46496,-1.14555 0.70984,-1.61493c0.26262,-0.50338 0.94364,-1.05608 0.94364,-1.05608z" data-paper-data="{&quot;index&quot;:null}" fill="#455050" stroke="#000000" stroke-width="0.25" stroke-linecap="round"/><path d="M280.58865,196.65283l0.59221,-1.49735" data-paper-data="{&quot;index&quot;:null}" fill="none" stroke="#ffffff" stroke-width="0.25" stroke-linecap="round"/><path d="M281.8572,193.3452l0.54174,-1.44351" data-paper-data="{&quot;index&quot;:null}" fill="none" stroke="#ffffff" stroke-width="0.25" stroke-linecap="round"/><path d="M281.07991,196.98596l0.784,-1.7329" data-paper-data="{&quot;index&quot;:null}" fill="none" stroke="#ffffff" stroke-width="0.25" stroke-linecap="round"/><path d="M282.54362,193.47307l0.63932,-2.00881" data-paper-data="{&quot;index&quot;:null}" fill="none" stroke="#ffffff" stroke-width="0.25" stroke-linecap="round"/><path d="M283.6613,171.08999c0,0 0.38281,1.88112 0.57982,4.00636c0.16389,1.76781 0.15022,3.68004 0.13276,5.045c-0.01703,1.33127 -0.0382,3.31384 -0.23677,5.04233c-0.2593,2.25705 -0.70901,4.13696 -0.70901,4.13696" fill="none" stroke="#000000" stroke-width="0.25" stroke-linecap="round"/><path d="M279.91861,196.45281l-14.66651,0.34689c0,0 -0.78477,-0.00298 -0.9843,-0.24629c-0.17707,-0.21592 -0.50131,-0.50529 -0.50131,-0.50529" fill="none" stroke="#000000" stroke-width="0.25" stroke-linecap="round"/><path d="M264.14728,164.30553c0,0 0.32425,-0.28938 0.50132,-0.5053c0.19954,-0.24332 0.98429,-0.24628 0.98429,-0.24628l14.66651,0.34689" data-paper-data="{&quot;index&quot;:null}" fill="none" stroke="#000000" stroke-width="0.25" stroke-linecap="round"/><path d="M251.17774,168.51035c0,0 4.98031,-1.38306 7.11498,-2.21039c1.9013,-0.73689 5.07412,-2.51383 5.07412,-2.51383c0,0 0.6711,0.26089 1.12467,1.20663c0.59122,1.23274 0.92917,3.19484 1.30224,5.2048c0.59194,3.1891 0.29693,6.9159 0.26365,9.97755c-0.02961,2.72334 -0.14454,6.82 -0.81248,10.25531c-0.44743,2.30122 -0.7832,3.97289 -1.22689,5.01277c-0.28594,0.67018 -0.69662,1.05513 -0.69662,1.05513c0,0 -2.74858,-1.78099 -4.81162,-2.46013c-2.03811,-0.67093 -7.25406,-2.34359 -7.25406,-2.34359c0,0 0.58603,-7.26982 0.63542,-11.51552c0.0463,-3.97916 -0.71341,-11.66874 -0.71341,-11.66874z" fill="#203756" stroke="#000000" stroke-width="0.25" stroke-linecap="round"/><path d="M229.65224,166.36428c0,0 -4.76297,-0.10804 -6.98704,-0.49298c-2.18449,-0.37809 -5.69568,-1.06965 -5.69568,-1.06965c0,0 -0.12948,-0.2589 0.4611,-0.44936c1.27248,-0.41039 4.03465,-0.96638 5.58855,-1.19268c2.61805,-0.48359 7.06914,-0.91994 7.06914,-0.91994c0,0 7.81842,-0.08537 12.37508,-0.13414c6.12629,-0.05848 18.65942,0.82459 18.65942,0.82459c0,0 -1.24969,0.84813 -2.56002,1.3857c-1.82376,0.74821 -7.4517,2.23015 -7.4517,2.23015z" fill="#203756" stroke="#000000" stroke-width="0.25" stroke-linecap="round"/><path d="M251.0793,193.55062c0,0 5.62794,1.48194 7.4517,2.23015c1.31033,0.53757 2.56002,1.3857 2.56002,1.3857c0,0 -12.53313,0.88307 -18.65942,0.82459c-4.55667,-0.04876 -12.37508,-0.13414 -12.37508,-0.13414c0,0 -4.45109,-0.43635 -7.06914,-0.91994c-1.5539,-0.2263 -4.31607,-0.7823 -5.58855,-1.19268c-0.59058,-0.19047 -0.4611,-0.44936 -0.4611,-0.44936c0,0 3.5112,-0.69156 5.69568,-1.06965c2.22407,-0.38494 6.98704,-0.49298 6.98704,-0.49298z" data-paper-data="{&quot;index&quot;:null}" fill="#203756" stroke="#000000" stroke-width="0.25" stroke-linecap="round"/><path d="M257.20036,162.73252l-0.31798,-1.90786" fill="none" stroke="#000000" stroke-width="0.25" stroke-linecap="round"/><path d="M256.93537,199.61779l0.21199,-2.06685" fill="none" stroke="#000000" stroke-width="0.25" stroke-linecap="round"/><path d="M211.54561,193.25826c0,0 -9.58275,-0.7614 -11.23427,-0.94742c-0.4672,-0.05262 -0.89907,-0.41925 -0.89907,-0.41925c0,0 -0.69262,-3.4482 -0.67456,-6.14862c0.01562,-2.33717 -0.22725,-7.28006 0.01232,-11.34653c0.22454,-3.81106 0.93298,-6.40712 0.93298,-6.40712c0,0 0.36469,-0.37183 0.94725,-0.42622c1.78375,-0.16657 11.08009,-0.69688 11.08009,-0.69688c0,0 -1.37253,8.89988 -1.3999,13.28399c-0.02755,4.41306 1.23515,13.10806 1.23515,13.10806z" fill="#203756" stroke="#000000" stroke-width="0.25" stroke-linecap="round"/><path d="M211.72973,166.86621c0,0 0.46501,0.00455 0.69114,0.05434c0.21792,0.04798 0.44624,0.53269 0.44624,0.53269c0,0 -0.3479,3.05233 -0.49182,6.11891c-0.13368,2.84827 -0.06449,5.6954 -0.05516,6.45954c0.01324,1.08605 -0.00664,2.36801 0.1015,3.81562c0.30811,4.12449 0.46994,8.31026 0.46994,8.31026c0,0 -0.25498,0.82018 -0.57035,0.87751c-0.25438,0.04625 -0.59149,0.22318 -0.59149,0.22318" fill="none" stroke="#000000" stroke-width="0.25" stroke-linecap="round"/><path d="M195.85739,166.6661l3.1286,0.1133c0,0 0.45244,0.271 0.54312,0.37982c0.08569,0.10283 0.25001,0.47544 0.25001,0.47544" fill="none" stroke="#000000" stroke-width="0.25" stroke-linecap="round"/><path d="M199.43223,192.21985c0,0 -0.1643,0.3726 -0.24999,0.47544c-0.09067,0.10881 -0.54312,0.37982 -0.54312,0.37982l-3.1286,0.1133" data-paper-data="{&quot;index&quot;:null}" fill="none" stroke="#000000" stroke-width="0.25" stroke-linecap="round"/><path d="M254.07039,159.34069l0.38863,1.92553c0,0 -0.60296,0.11875 -0.88778,0.10809c-0.26421,-0.0099 -0.76393,-0.16991 -0.76393,-0.16991c0,0 -0.14308,-0.87234 -0.34099,-1.24235c-0.20791,-0.38868 -0.87792,-1.03649 -0.87792,-1.03649c0,0 0.77638,0.27439 1.23534,0.33101c0.44758,0.05523 1.24665,0.08412 1.24665,0.08412z" fill="#000000" stroke="#000000" stroke-width="0.25" stroke-linecap="round"/><path d="M251.04995,158.47135l-0.88055,-3.22869c0,0 1.03737,-0.15161 1.57597,-0.08429c0.50252,0.06282 1.45704,0.67132 1.45704,0.67132c0,0 0.75158,1.20995 0.98017,1.71611c0.228,0.50484 0.38958,1.61041 0.38958,1.61041c0,0 -1.1513,0.25217 -1.74382,0.11885c-0.69544,-0.15648 -1.77838,-0.80372 -1.77838,-0.80372z" fill="#af3d1b" stroke="#000000" stroke-width="0.25" stroke-linecap="round"/><path d="M253.24129,200.81312c-0.45895,0.05663 -1.23534,0.33101 -1.23534,0.33101c0,0 0.67001,-0.64781 0.87792,-1.03649c0.19791,-0.37001 0.34099,-1.24235 0.34099,-1.24235c0,0 0.50347,-0.16017 0.76855,-0.17009c0.28416,-0.01063 0.88316,0.10826 0.88316,0.10826l-0.38863,1.92553c0,0 -0.79906,0.0289 -1.24665,0.08412z" data-paper-data="{&quot;index&quot;:null}" fill="#000000" stroke="#000000" stroke-width="0.25" stroke-linecap="round"/><path d="M253.17521,200.72396c0.59252,-0.13332 1.74381,0.11885 1.74381,0.11885c0,0 -0.16158,1.10557 -0.38957,1.61041c-0.22859,0.50615 -0.98017,1.71611 -0.98017,1.71611c0,0 -0.95453,0.60851 -1.45704,0.67132c-0.53859,0.06732 -1.57597,-0.08429 -1.57597,-0.08429l0.88055,-3.22869c0,0 1.08294,-0.64723 1.77839,-0.80372z" data-paper-data="{&quot;index&quot;:null}" fill="#af3d1b" stroke="#000000" stroke-width="0.25" stroke-linecap="round"/><path d="M267.5421,189.26255l15.36886,-1.90786" fill="none" stroke="#000000" stroke-width="0.25" stroke-linecap="round"/><path d="M282.80497,172.62179l-14.94489,-2.33184" fill="none" stroke="#000000" stroke-width="0.25" stroke-linecap="round"/><path d="M282.40656,179.94732l0.41843,-0.0065c0,0 0.17314,0.13607 0.16237,0.21453c-0.01077,0.07846 -0.14988,0.18202 -0.14988,0.18202h-0.42468z" fill="#000000" stroke="#252525" stroke-width="0.25" stroke-linecap="round"/><path d="M220.99932,199.52341l-0.65226,-1.80595c0,0 0.07452,-0.42134 0.19751,-0.57948c0.10087,-0.1297 0.54036,-0.40705 0.54036,-0.40705" fill="none" stroke="#000000" stroke-width="0.25" stroke-linecap="round"/><path d="M221.19975,163.31826c0,0 -0.43949,-0.27736 -0.54036,-0.40705c-0.12299,-0.15815 -0.19751,-0.57949 -0.19751,-0.57949l0.65226,-1.80594" data-paper-data="{&quot;index&quot;:null}" fill="none" stroke="#000000" stroke-width="0.25" stroke-linecap="round"/><path d="M223.03307,162.00682l0.50876,-0.5653l2.13398,-0.18373l0.69248,0.31092" fill="none" stroke="#000000" stroke-width="0.25" stroke-linecap="round"/><path d="M237.92851,160.2968l0.46636,1.66761" fill="none" stroke="#000000" stroke-width="0.25" stroke-linecap="round"/><path d="M239.89289,161.42738l0.50876,-0.55115h1.54043l0.98925,0.4381" fill="none" stroke="#000000" stroke-width="0.25" stroke-linecap="round"/><path d="M226.18659,198.52868l-0.69248,0.31092l-2.13398,-0.18373l-0.50876,-0.5653" data-paper-data="{&quot;index&quot;:null}" fill="none" stroke="#000000" stroke-width="0.25" stroke-linecap="round"/><path d="M237.74681,199.80059l0.46636,-1.66761" data-paper-data="{&quot;index&quot;:null}" fill="none" stroke="#000000" stroke-width="0.25" stroke-linecap="round"/><path d="M242.74963,198.78307l-0.98925,0.4381h-1.54043l-0.50876,-0.55115" data-paper-data="{&quot;index&quot;:null}" fill="none" stroke="#000000" stroke-width="0.25" stroke-linecap="round"/><path d="M216.44744,162.95063l-15.08117,1.81701" fill="none" stroke="#000000" stroke-width="0.25" stroke-linecap="round"/><path d="M217.17424,197.29209l-16.17137,-1.99871" fill="none" stroke="#000000" stroke-width="0.25" stroke-linecap="round"/></g></g></svg>