<svg version="1.1" xmlns="http://www.w3.org/2000/svg" xmlns:xlink="http://www.w3.org/1999/xlink" width="119.204" height="95.48052" viewBox="0,0,119.204,95.48052"><g transform="translate(-180.61415,-132.25975)"><g data-paper-data="{&quot;isPaintingLayer&quot;:true}" fill-rule="nonzero" stroke="none" stroke-linecap="butt" stroke-linejoin="miter" stroke-miterlimit="10" stroke-dasharray="" stroke-dashoffset="0" style="mix-blend-mode: normal"><path d="M273.97391,178.37364c-0.22394,-0.54355 -0.10045,-1.17189 0.31757,-1.59122l8.169,-8.16553c0.56877,-0.57108 1.49396,-0.57108 2.06505,0l8.16436,8.16552c0.42035,0.41933 0.54355,1.04767 0.31758,1.59122c-0.22843,0.54601 -0.75864,0.90229 -1.34785,0.90229h-3.57088v10.58946c0,1.07463 -0.87025,1.94518 -1.94169,1.94518h-5.30879c-1.07362,0 -1.94387,-0.87055 -1.94387,-1.94518v-10.58945h-3.57059c-0.5895,0 -1.12174,-0.35628 -1.34988,-0.90229z" fill="#000000" stroke-width="1"/><path d="M182.33727,227.74027v-95.48052h115.32549v95.48052z" fill="#59ad0d" stroke-width="0"/><text transform="translate(240,164.65922) scale(0.42613,0.42613)" font-size="40" xml:space="preserve" fill="#ffffff" fill-rule="nonzero" stroke="none" stroke-width="1" stroke-linecap="butt" stroke-linejoin="miter" stroke-miterlimit="10" stroke-dasharray="" stroke-dashoffset="0" font-family="Sans Serif" font-weight="normal" text-anchor="middle" style="mix-blend-mode: normal"><tspan x="0" dy="0">Room Editor</tspan><tspan x="0" dy="48px">Quick Connect</tspan><tspan x="0" dy="48px">Fullscreen</tspan></text></g></g></svg>