<svg version="1.1" xmlns="http://www.w3.org/2000/svg" xmlns:xlink="http://www.w3.org/1999/xlink" width="38.07016" height="38.07018" viewBox="0,0,38.07016,38.07018"><g transform="translate(-220.96493,-160.96491)"><g data-paper-data="{&quot;isPaintingLayer&quot;:true}" fill-rule="nonzero" stroke-width="0" stroke-linecap="butt" stroke-linejoin="miter" stroke-miterlimit="10" stroke-dasharray="" stroke-dashoffset="0" style="mix-blend-mode: normal"><path d="M237.75353,167.45614c-0.6276,0 -1.13636,-0.50198 -1.13636,-1.12121v-4.24881c0,-0.61923 0.50876,-1.12121 1.13636,-1.12121h4.30622c0.6276,0 1.13636,0.50198 1.13636,1.12121v4.24881c0,0.61923 -0.50877,1.12121 -1.13636,1.12121z" fill="#929292" stroke="none"/><path d="M237.75353,199.03509c-0.6276,0 -1.13636,-0.50198 -1.13636,-1.12121v-4.24881c0,-0.61923 0.50876,-1.12121 1.13636,-1.12121h4.30622c0.6276,0 1.13636,0.50198 1.13636,1.12121v4.24881c0,0.61923 -0.50877,1.12121 -1.13636,1.12121z" fill="#929292" stroke="none"/><path d="M252.54386,177.75352c0,-0.6276 0.50198,-1.13636 1.12121,-1.13636h4.24881c0.61923,0 1.12121,0.50877 1.12121,1.13636v4.30622c0,0.6276 -0.50198,1.13637 -1.12121,1.13637h-4.24881c-0.61923,0 -1.12121,-0.50877 -1.12121,-1.13637z" fill="#929292" stroke="none"/><path d="M220.96493,177.75352c0,-0.62759 0.50198,-1.13636 1.12121,-1.13636h4.24881c0.61923,0 1.12121,0.50876 1.12121,1.13636v4.30622c0,0.6276 -0.50198,1.13637 -1.12121,1.13637h-4.2488c-0.61923,0 -1.12121,-0.50877 -1.12121,-1.13636z" fill="#929292" stroke="none"/><path d="M247.28136,169.54165c-0.44378,-0.44378 -0.44857,-1.15848 -0.01071,-1.59634l3.00436,-3.00436c0.43786,-0.43786 1.15257,-0.43306 1.59634,0.01071l3.04496,3.04496c0.44378,0.44378 0.44858,1.15848 0.01072,1.59635l-3.00436,3.00436c-0.43786,0.43786 -1.15257,0.43306 -1.59635,-0.01072z" fill="#929292" stroke="none"/><path d="M224.95167,191.87134c-0.44378,-0.44378 -0.44857,-1.15848 -0.01071,-1.59634l3.00436,-3.00436c0.43786,-0.43786 1.15257,-0.43306 1.59634,0.01071l3.04496,3.04496c0.44378,0.44378 0.44858,1.15848 0.01072,1.59635l-3.00436,3.00436c-0.43786,0.43786 -1.15257,0.43306 -1.59635,-0.01072z" fill="#929292" stroke="none"/><path d="M229.88963,190.11039c-5.58381,-5.58381 -5.58381,-14.63696 0,-20.22077c5.58381,-5.58381 14.63696,-5.58381 20.22077,0c5.58381,5.58381 5.58381,14.63696 0,20.22077c-5.58381,5.58381 -14.63696,5.58381 -20.22077,0z" fill="#929292" stroke="#ffffff"/><path d="M229.54166,172.71865c-0.44378,0.44378 -1.15848,0.44857 -1.59634,0.01071l-3.00436,-3.00436c-0.43786,-0.43786 -0.43306,-1.15257 0.01071,-1.59634l3.04496,-3.04496c0.44378,-0.44378 1.15848,-0.44858 1.59635,-0.01072l3.00436,3.00436c0.43786,0.43786 0.43306,1.15257 -0.01072,1.59635z" fill="#929292" stroke="none"/><path d="M251.87135,195.04834c-0.44378,0.44378 -1.15848,0.44857 -1.59634,0.01071l-3.00436,-3.00436c-0.43786,-0.43786 -0.43306,-1.15257 0.01071,-1.59634l3.04496,-3.04496c0.44378,-0.44378 1.15848,-0.44858 1.59635,-0.01072l3.00436,3.00436c0.43786,0.43786 0.43306,1.15257 -0.01072,1.59635z" fill="#929292" stroke="none"/><path d="M232.71931,180c0,-4.02102 3.25968,-7.2807 7.2807,-7.2807c4.02102,0 7.2807,3.25968 7.2807,7.2807c0,4.02102 -3.25968,7.2807 -7.2807,7.2807c-4.02102,0 -7.2807,-3.25968 -7.2807,-7.2807z" fill="#ffffff" stroke="none"/></g></g></svg>