<svg version="1.1" xmlns="http://www.w3.org/2000/svg" xmlns:xlink="http://www.w3.org/1999/xlink" width="94.71328" height="50.82085" viewBox="0,0,94.71328,50.82085"><g transform="translate(-192.55752,-154.58031)"><g data-paper-data="{&quot;isPaintingLayer&quot;:true}" fill-rule="nonzero" stroke-width="0.25" stroke-linecap="round" stroke-linejoin="miter" stroke-miterlimit="10" stroke-dasharray="" stroke-dashoffset="0" style="mix-blend-mode: normal"><path d="M197.12582,199.54267c0,0 -1.75225,-1.48083 -2.33345,-3.91278c-0.57715,-2.41506 -1.49758,-5.74657 -1.90028,-8.93766c-0.31549,-2.49998 -0.18824,-4.91377 -0.16255,-6.73326c0.03683,-2.60712 -0.02755,-5.73523 0.53136,-8.58315c0.46377,-2.36306 1.50783,-4.48283 2.02093,-6.41003c0.43497,-1.63374 2.39865,-4.68488 2.39865,-4.68488c0,0 2.71317,-0.6401 4.7612,-0.90262c2.62735,-0.33677 4.87637,-0.28903 6.51722,0.00859c2.04701,0.37131 4.81826,0.92842 4.81826,0.92842c0,0 15.83865,-0.64212 23.61423,-0.64212c7.58855,0 22.49182,0.64212 22.49182,0.64212c0,0 4.20125,-0.59874 8.07922,-1.09321c3.12496,-0.39846 6.20388,-0.16405 8.09939,0.09336c2.94546,0.39999 6.46998,1.64198 6.46998,1.64198c0,0 3.25876,2.62333 3.92289,6.09882c0.65241,2.61702 0.67193,5.58192 0.69112,7.70624c0.02736,3.02757 0.05406,6.86265 0.03814,10.43594c-0.00924,2.07466 -0.4918,5.3344 -1.08834,7.58789c-0.98076,3.70492 -3.93358,6.67605 -3.93358,6.67605c0,0 -3.43825,0.89123 -6.04612,1.18838c-1.86307,0.19825 -5.78802,0.2138 -8.97272,-0.03569c-4.033,-0.31595 -7.79152,-0.53348 -7.79152,-0.53348c0,0 -14.61166,0.59069 -22.08937,0.56436c-7.71413,-0.02715 -23.50825,-0.72488 -23.50825,-0.72488c0,0 -2.78628,0.29931 -4.79314,0.62057c-1.58579,0.25386 -3.64136,0.33576 -6.66932,0.00613c-2.42803,-0.26432 -5.16577,-1.00512 -5.16577,-1.00512z" fill="#1b2e14" stroke="#000000"/><path d="M284.51841,170.92683c0,0 -0.69294,-0.5624 -0.96018,-1.07459c-0.24919,-0.4776 -0.72228,-1.64324 -0.72228,-1.64324l-2.07073,-5.43566c0,0 0.20935,-0.34843 0.52226,-0.32756c0.33293,0.0222 0.90136,0.06872 0.90136,0.06872c0,0 1.34164,2.62638 1.80363,3.83635c0.44317,1.16069 0.9142,3.28178 0.9142,3.28178z" data-paper-data="{&quot;index&quot;:null}" fill="#455050" stroke="#000000"/><path d="M281.56022,163.58364l0.60258,1.5236" fill="none" stroke="#ffffff"/><path d="M282.85101,166.94926l0.55124,1.46882" fill="none" stroke="#ffffff"/><path d="M282.85785,165.00796l-0.79775,-1.76328" fill="none" stroke="#ffffff"/><path d="M284.19999,168.86317l-0.65053,-2.04402" fill="none" stroke="#ffffff"/><path d="M284.64782,190.89582c0,0 -0.47103,2.12109 -0.9142,3.28178c-0.46199,1.20997 -1.80363,3.83635 -1.80363,3.83635c0,0 -0.56843,0.04653 -0.90136,0.06872c-0.31291,0.02086 -0.52226,-0.32756 -0.52226,-0.32756l2.07073,-5.43566c0,0 0.47311,-1.16564 0.72228,-1.64324c0.26723,-0.51221 0.96018,-1.07459 0.96018,-1.07459z" data-paper-data="{&quot;index&quot;:null}" fill="#455050" stroke="#000000"/><path d="M281.30138,196.9448l0.60259,-1.5236" data-paper-data="{&quot;index&quot;:null}" fill="none" stroke="#ffffff"/><path d="M282.59217,193.57918l0.55124,-1.46882" data-paper-data="{&quot;index&quot;:null}" fill="none" stroke="#ffffff"/><path d="M281.80126,197.28377l0.79775,-1.76328" data-paper-data="{&quot;index&quot;:null}" fill="none" stroke="#ffffff"/><path d="M283.94116,191.66526l-0.65053,2.04403" data-paper-data="{&quot;index&quot;:null}" fill="none" stroke="#ffffff"/><path d="M284.4279,170.93379c0,0 0.38952,1.9141 0.58999,4.0766c0.16676,1.7988 0.15286,3.74456 0.13509,5.13345c-0.01733,1.35461 -0.03886,3.37193 -0.24092,5.13073c-0.26385,2.29662 -0.72144,4.20949 -0.72144,4.20949" fill="none" stroke="#000000"/><path d="M280.6196,196.74127l-14.92365,0.35297c0,0 -0.79852,-0.00303 -1.00156,-0.25061c-0.18018,-0.2197 -0.5101,-0.51415 -0.5101,-0.51415" fill="none" stroke="#000000"/><path d="M264.57176,164.03039c0,0 0.32993,-0.29446 0.51011,-0.51416c0.20303,-0.24758 1.00155,-0.2506 1.00155,-0.2506l14.92365,0.35297" data-paper-data="{&quot;index&quot;:null}" fill="none" stroke="#000000"/><path d="M251.37483,168.30892c0,0 5.06763,-1.40731 7.23972,-2.24915c1.93463,-0.74981 5.16308,-2.55791 5.16308,-2.55791c0,0 0.68286,0.26547 1.14439,1.22779c0.60159,1.25436 0.94546,3.25085 1.32507,5.29606c0.60232,3.24501 0.30213,7.03715 0.26828,10.15248c-0.03013,2.77109 -0.14707,6.93957 -0.82673,10.43511c-0.45528,2.34157 -0.79693,4.04254 -1.2484,5.10066c-0.29095,0.68193 -0.70884,1.07363 -0.70884,1.07363c0,0 -2.79676,-1.81221 -4.89598,-2.50326c-2.07385,-0.68269 -7.38124,-2.38468 -7.38124,-2.38468c0,0 0.5963,-7.39727 0.64656,-11.71741c0.04711,-4.04892 -0.72592,-11.87332 -0.72592,-11.87332z" fill="#203756" stroke="#000000"/><path d="M229.47195,166.12523c0,0 -4.84647,-0.10993 -7.10953,-0.50162c-2.22278,-0.38472 -5.79554,-1.0884 -5.79554,-1.0884c0,0 -0.13175,-0.26344 0.46919,-0.45724c1.29479,-0.41759 4.10539,-0.98332 5.68653,-1.21359c2.66395,-0.49207 7.19307,-0.93607 7.19307,-0.93607c0,0 7.95549,-0.08687 12.59205,-0.13649c6.23369,-0.05951 18.98656,0.83905 18.98656,0.83905c0,0 -1.2716,0.863 -2.6049,1.41c-1.85573,0.76133 -7.58235,2.26925 -7.58235,2.26925z" fill="#203756" stroke="#000000"/><path d="M251.27468,193.7882c0,0 5.72661,1.50792 7.58235,2.26925c1.3333,0.547 2.6049,1.41 2.6049,1.41c0,0 -12.75286,0.89855 -18.98656,0.83905c-4.63655,-0.04962 -12.59205,-0.13649 -12.59205,-0.13649c0,0 -4.52912,-0.444 -7.19307,-0.93607c-1.58114,-0.23026 -4.39174,-0.79601 -5.68653,-1.21359c-0.60094,-0.19381 -0.46919,-0.45724 -0.46919,-0.45724c0,0 3.57276,-0.70369 5.79554,-1.0884c2.26306,-0.39169 7.10953,-0.50162 7.10953,-0.50162z" data-paper-data="{&quot;index&quot;:null}" fill="#203756" stroke="#000000"/><path d="M257.50305,162.42979l-0.32355,-1.94131" fill="none" stroke="#000000"/><path d="M257.44912,197.85865l-0.21571,2.10308" fill="none" stroke="#000000"/><path d="M211.04787,193.49071c0,0 -9.75076,-0.77475 -11.43123,-0.96403c-0.47539,-0.05354 -0.91483,-0.4266 -0.91483,-0.4266c0,0 -0.70476,-3.50865 -0.68638,-6.25642c0.01589,-2.37814 -0.23124,-7.40769 0.01254,-11.54546c0.22848,-3.87788 0.94934,-6.51945 0.94934,-6.51945c0,0 0.37109,-0.37835 0.96386,-0.43369c1.81502,-0.16949 11.27435,-0.70909 11.27435,-0.70909c0,0 -1.39659,9.05591 -1.42444,13.51688c-0.02803,4.49043 1.2568,13.33787 1.2568,13.33787z" fill="#203756" stroke="#000000"/><path d="M211.23522,166.63596c0,0 0.47316,0.00463 0.70326,0.05529c0.22174,0.04882 0.45406,0.54203 0.45406,0.54203c0,0 -0.354,3.10585 -0.50044,6.22619c-0.13602,2.8982 -0.06562,5.79526 -0.05613,6.57279c0.01347,1.1051 -0.00676,2.40952 0.10328,3.88251c0.31351,4.1968 0.47818,8.45596 0.47818,8.45596c0,0 -0.25945,0.83456 -0.58035,0.8929c-0.25884,0.04706 -0.60186,0.22709 -0.60186,0.22709" fill="none" stroke="#000000"/><path d="M195.0846,166.43234l3.18345,0.11529c0,0 0.46037,0.27576 0.55264,0.38648c0.08719,0.10464 0.25439,0.48377 0.25439,0.48377" fill="none" stroke="#000000"/><path d="M198.72212,192.4341c0,0 -0.16719,0.37914 -0.25438,0.48377c-0.09226,0.11072 -0.55264,0.38648 -0.55264,0.38648l-3.18345,0.11529" data-paper-data="{&quot;index&quot;:null}" fill="none" stroke="#000000"/><path d="M254.31821,158.9785l0.39544,1.95928c0,0 -0.61353,0.12083 -0.90334,0.10998c-0.26885,-0.01007 -0.77733,-0.17289 -0.77733,-0.17289c0,0 -0.14559,-0.88763 -0.34696,-1.26413c-0.21155,-0.3955 -0.89331,-1.05466 -0.89331,-1.05466c0,0 0.79,0.2792 1.257,0.33682c0.45543,0.05619 1.2685,0.0856 1.2685,0.0856z" fill="#000000" stroke="#000000"/><path d="M251.2448,158.09392l-0.89599,-3.2853c0,0 1.05555,-0.15427 1.6036,-0.08577c0.51133,0.06392 1.48259,0.68309 1.48259,0.68309c0,0 0.76476,1.23116 0.99735,1.74619c0.232,0.5137 0.39641,1.63864 0.39641,1.63864c0,0 -1.17149,0.25659 -1.77439,0.12093c-0.70763,-0.15923 -1.80956,-0.81781 -1.80956,-0.81781z" fill="#1b2e14" stroke="#000000"/><path d="M253.47456,201.17803c-0.467,0.05762 -1.257,0.33682 -1.257,0.33682c0,0 0.68176,-0.65916 0.89331,-1.05466c0.20138,-0.3765 0.34696,-1.26413 0.34696,-1.26413c0,0 0.5123,-0.16298 0.78202,-0.17307c0.28914,-0.01082 0.89864,0.11016 0.89864,0.11016l-0.39544,1.95928c0,0 -0.81307,0.0294 -1.2685,0.0856z" data-paper-data="{&quot;index&quot;:null}" fill="#000000" stroke="#000000"/><path d="M253.40733,201.08731c0.60291,-0.13566 1.77438,0.12093 1.77438,0.12093c0,0 -0.16442,1.12495 -0.3964,1.63864c-0.23259,0.51503 -0.99735,1.74619 -0.99735,1.74619c0,0 -0.97126,0.61917 -1.48259,0.68309c-0.54803,0.0685 -1.6036,-0.08577 -1.6036,-0.08577l0.89599,-3.2853c0,0 1.10192,-0.65858 1.80957,-0.81781z" data-paper-data="{&quot;index&quot;:null}" fill="#1b2e14" stroke="#000000"/><path d="M268.0261,189.42495l15.63831,-1.94131" fill="none" stroke="#000000"/><path d="M283.55656,172.49244l-15.20691,-2.37272" fill="none" stroke="#000000"/><path d="M283.15116,179.9464l0.42577,-0.00661c0,0 0.17618,0.13845 0.16522,0.21829c-0.01096,0.07984 -0.15251,0.18521 -0.15251,0.18521h-0.43212z" fill="#000000" stroke="#252525"/><path d="M220.66732,199.86571l-0.66369,-1.83762c0,0 0.07583,-0.42873 0.20098,-0.58964c0.10264,-0.13197 0.54983,-0.41418 0.54983,-0.41418" fill="none" stroke="#000000"/><path d="M220.87128,163.0258c0,0 -0.4472,-0.28223 -0.54983,-0.41418c-0.12515,-0.16092 -0.20098,-0.58965 -0.20098,-0.58965l0.66369,-1.8376" data-paper-data="{&quot;index&quot;:null}" fill="none" stroke="#000000"/><path d="M222.73673,161.69137l0.51768,-0.57521l2.17139,-0.18695l0.70462,0.31637" fill="none" stroke="#000000"/><path d="M237.89332,159.95138l0.47453,1.69685" fill="none" stroke="#000000"/><path d="M239.89214,161.10177l0.51768,-0.56082h1.56744l1.00659,0.44578" fill="none" stroke="#000000"/><path d="M225.94554,198.85353l-0.70462,0.31637l-2.17139,-0.18695l-0.51768,-0.57521" data-paper-data="{&quot;index&quot;:null}" fill="none" stroke="#000000"/><path d="M238.18298,198.45089l-0.47453,1.69685" data-paper-data="{&quot;index&quot;:null}" fill="none" stroke="#000000"/><path d="M242.79897,199.11239l-1.00659,0.44578h-1.56744l-0.51768,-0.56082" data-paper-data="{&quot;index&quot;:null}" fill="none" stroke="#000000"/><path d="M200.69006,164.5006l15.34557,-1.84886" fill="none" stroke="#000000"/><path d="M216.77518,197.59527l-16.45488,-2.03375" fill="none" stroke="#000000"/></g></g></svg>