<svg version="1.1" xmlns="http://www.w3.org/2000/svg" xmlns:xlink="http://www.w3.org/1999/xlink" width="64.91929" height="63.71929" viewBox="0,0,64.91929,63.71929"><defs><linearGradient x1="238.56428" y1="147.8" x2="238.56428" y2="180.11929" gradientUnits="userSpaceOnUse" id="color-1"><stop offset="0" stop-color="#66ebff" stop-opacity="0"/><stop offset="1" stop-color="#66ebff"/></linearGradient><linearGradient x1="272.32392" y1="178.35965" x2="240.00463" y2="178.35964" gradientUnits="userSpaceOnUse" id="color-2"><stop offset="0" stop-color="#66ebff" stop-opacity="0"/><stop offset="1" stop-color="#66ebff"/></linearGradient><linearGradient x1="241.36428" y1="211.51929" x2="241.36428" y2="179.2" gradientUnits="userSpaceOnUse" id="color-3"><stop offset="0" stop-color="#66ebff" stop-opacity="0"/><stop offset="1" stop-color="#66ebff"/></linearGradient><linearGradient x1="207.40463" y1="181.35965" x2="239.72392" y2="181.35965" gradientUnits="userSpaceOnUse" id="color-4"><stop offset="0" stop-color="#66ebff" stop-opacity="0"/><stop offset="1" stop-color="#66ebff"/></linearGradient></defs><g transform="translate(-207.40463,-147.8)"><g data-paper-data="{&quot;isPaintingLayer&quot;:true}" fill-rule="nonzero" stroke="none" stroke-width="0" stroke-linecap="butt" stroke-linejoin="miter" stroke-miterlimit="10" stroke-dasharray="" stroke-dashoffset="0" style="mix-blend-mode: normal"><path d="M239.80001,147.8c5.01996,0 7.57162,0.14873 11.80645,2.19768c-1.03101,1.85253 -10.90992,28.62905 -11.63405,30.12161c-0.72972,-0.09537 -11.26904,-23.02119 -14.45031,-29.54676c0.40264,-0.2483 8.59664,-2.77253 14.27791,-2.77253z" fill="url(#color-1)"/><path d="M272.32392,179.59537c0,5.01996 -0.14873,7.57162 -2.19768,11.80645c-1.85253,-1.03101 -28.62905,-10.90992 -30.12161,-11.63405c0.09537,-0.72972 23.02119,-11.26904 29.54676,-14.45031c0.2483,0.40264 2.77253,8.59664 2.77253,14.27791z" fill="url(#color-2)"/><path d="M240.12855,211.51929c-5.01996,0 -7.57162,-0.14873 -11.80645,-2.19768c1.03101,-1.85253 10.90992,-28.62905 11.63405,-30.12161c0.72972,0.09537 11.26904,23.02119 14.45031,29.54676c-0.40264,0.2483 -8.59664,2.77253 -14.27791,2.77253z" fill="url(#color-3)"/><path d="M207.40463,180.12392c0,-5.01996 0.14873,-7.57162 2.19768,-11.80645c1.85253,1.03101 28.62905,10.90992 30.12161,11.63405c-0.09537,0.72972 -23.02119,11.26904 -29.54676,14.45031c-0.2483,-0.40264 -2.77253,-8.59664 -2.77253,-14.27791z" fill="url(#color-4)"/></g></g></svg>