<svg version="1.1" xmlns="http://www.w3.org/2000/svg" xmlns:xlink="http://www.w3.org/1999/xlink" width="121" height="121" viewBox="0,0,121,121"><g transform="translate(-179.5,-119.5)"><g data-paper-data="{&quot;isPaintingLayer&quot;:true}" fill-rule="nonzero" stroke="#000000" stroke-linecap="butt" stroke-linejoin="miter" stroke-miterlimit="10" stroke-dasharray="" stroke-dashoffset="0" style="mix-blend-mode: normal"><path d="M191,180c0,-27.06195 21.93805,-49 49,-49c27.06195,0 49,21.93805 49,49c0,27.06195 -21.93805,49 -49,49c-27.06195,0 -49,-21.93805 -49,-49z" fill="#000000" stroke-width="0"/><path d="M182,180c0,-32.03252 25.96748,-58 58,-58c32.03252,0 58,25.96748 58,58c0,32.03252 -25.96748,58 -58,58c-32.03252,0 -58,-25.96748 -58,-58z" fill="none" stroke-width="5"/><path d="M219,180c0,-11.59798 9.40202,-21 21,-21c11.59798,0 21,9.40202 21,21c0,11.59798 -9.40202,21 -21,21c-11.59798,0 -21,-9.40202 -21,-21z" fill="#ffffff" stroke-width="0"/></g></g></svg>