<svg version="1.1" xmlns="http://www.w3.org/2000/svg" xmlns:xlink="http://www.w3.org/1999/xlink" width="153.88889" height="83.51852" viewBox="0,0,153.88889,83.51852"><defs><linearGradient x1="100.84585" y1="264.88808" x2="100.84585" y2="343.4066" gradientUnits="userSpaceOnUse" id="color-1"><stop offset="0" stop-color="#ff9266"/><stop offset="1" stop-color="#ff6666"/></linearGradient><radialGradient cx="75.27266" cy="284.13163" r="22.23275" gradientTransform="translate(-50.91608,-452.28687) scale(1.54361,1.54361)" gradientUnits="userSpaceOnUse" id="color-2"><stop offset="0" stop-color="#66b6ff"/><stop offset="1" stop-color="#66ffb5"/></radialGradient><radialGradient cx="138.74178" cy="323.34796" r="12" gradientTransform="translate(-256.46393,-660.1673) scale(2,2)" gradientUnits="userSpaceOnUse" id="color-3"><stop offset="0" stop-color="#66b6ff"/><stop offset="1" stop-color="#66ffb5"/></radialGradient><linearGradient x1="91.72423" y1="271.08842" x2="91.72423" y2="297.21756" gradientUnits="userSpaceOnUse" id="color-4"><stop offset="0" stop-color="#ff3db8"/><stop offset="1" stop-color="#99256e"/></linearGradient><radialGradient cx="155.16556" cy="322.77124" r="12.88179" gradientUnits="userSpaceOnUse" id="color-5"><stop offset="0" stop-color="#669bff"/><stop offset="1" stop-color="#3f76ff"/></radialGradient></defs><g transform="translate(-23.9014,-262.38808)"><g data-paper-data="{&quot;isPaintingLayer&quot;:true}" fill-rule="nonzero" stroke-linejoin="miter" stroke-miterlimit="10" stroke-dasharray="" stroke-dashoffset="0" style="mix-blend-mode: normal"><path d="M26.40141,343.4066v-78.51852h148.88889v78.51852z" fill="url(#color-1)" stroke="#ffffff" stroke-width="5" stroke-linecap="butt"/><text transform="translate(32.98497,293.005) scale(0.64783,0.64783)" font-size="40" xml:space="preserve" fill="url(#color-2)" fill-rule="nonzero" stroke="none" stroke-width="1" stroke-linecap="butt" stroke-linejoin="miter" stroke-miterlimit="10" stroke-dasharray="" stroke-dashoffset="0" font-family="Sans Serif" font-weight="normal" text-anchor="start" style="mix-blend-mode: normal"><tspan x="0" dy="0">100</tspan></text><path d="M106.91318,291.16029l12.79497,8.30446l4.83714,-7.45276l4.35936,20.48317l-20.48317,4.35936l4.83714,-7.45276l-12.79497,-8.30446z" fill="#9966ff" stroke="none" stroke-width="0" stroke-linecap="butt"/><text transform="translate(128.23197,330.08365) scale(0.5,0.5)" font-size="40" xml:space="preserve" fill="url(#color-3)" fill-rule="nonzero" stroke="none" stroke-width="1" stroke-linecap="butt" stroke-linejoin="miter" stroke-miterlimit="10" stroke-dasharray="" stroke-dashoffset="0" font-family="Sans Serif" font-weight="normal" text-anchor="start" style="mix-blend-mode: normal"><tspan x="0" dy="0">3</tspan></text><g stroke="none" stroke-linecap="butt"><path d="M78.65963,284.15299c0,-7.21536 5.84922,-13.06458 13.06458,-13.06458c7.21536,0 13.06458,5.84922 13.06458,13.06458c0,7.21536 -5.84922,13.06458 -13.06458,13.06458c-7.21536,0 -13.06458,-5.84922 -13.06458,-13.06458z" fill="url(#color-4)" stroke-width="0"/><text transform="translate(83.57882,293.65215) scale(0.68666,0.68666)" font-size="40" xml:space="preserve" fill="#000000" fill-rule="nonzero" stroke="none" stroke-width="1" stroke-linecap="butt" stroke-linejoin="miter" stroke-miterlimit="10" stroke-dasharray="" stroke-dashoffset="0" font-family="Sans Serif" font-weight="normal" text-anchor="start" style="mix-blend-mode: normal"><tspan x="0" dy="0">$</tspan></text></g><path d="M142.28376,322.77124c0,-7.11442 5.76737,-12.88179 12.88179,-12.88179c7.11442,0 12.88179,5.76737 12.88179,12.88179c0,7.11442 -5.76737,12.88179 -12.88179,12.88179c-7.11442,0 -12.88179,-5.76738 -12.88179,-12.88179z" fill="url(#color-5)" stroke="#000000" stroke-width="0.5" stroke-linecap="butt"/><g fill="none" stroke="#000000" stroke-width="0.5" stroke-linecap="round"><path d="M150.24918,310.902l9.83276,23.73849"/><path d="M167.03479,327.68766l-23.73846,-9.83283"/><path d="M167.03481,317.85486l-23.7385,9.83277"/><path d="M150.24914,334.64047l9.83283,-23.73847"/></g></g></g></svg>