<svg version="1.1" xmlns="http://www.w3.org/2000/svg" xmlns:xlink="http://www.w3.org/1999/xlink" width="160.69945" height="95.48052" viewBox="0,0,160.69945,95.48052"><g transform="translate(-159.65029,-132.25976)"><g data-paper-data="{&quot;isPaintingLayer&quot;:true}" fill-rule="nonzero" stroke="none" stroke-width="0" stroke-linecap="butt" stroke-linejoin="miter" stroke-miterlimit="10" stroke-dasharray="" stroke-dashoffset="0" style="mix-blend-mode: normal"><path d="M159.65029,227.74028v-95.48052h160.69945v95.48052z" fill="#59ad0d"/><path d="M250.2066,144.89719c1.57094,0 2.72225,1.2735 2.72225,2.84445v6.04113c0,1.57094 -1.2735,2.84445 -2.84445,2.84445h-33.21695v33.30712c0,1.57094 -1.2735,2.72225 -2.84445,2.72225h-6.04113c-1.57094,0 -2.84445,-1.2735 -2.84445,-2.84445v-42.08652c0,-1.57094 1.2735,-2.84444 2.84445,-2.84444h6.04113c0.10258,0 0.20388,0.00542 0.30365,0.01601z" fill="#ffffff"/><path d="M229.7934,215.10282c-1.57094,0 -2.72225,-1.2735 -2.72225,-2.84445v-6.04113c0,-1.57094 1.2735,-2.84445 2.84445,-2.84445h33.21695v-33.30711c0,-1.57094 1.2735,-2.72226 2.84445,-2.72226h6.04113c1.57094,0 2.84445,1.2735 2.84445,2.84445v42.08652c0,1.57094 -1.2735,2.84445 -2.84445,2.84445h-6.04113c-0.10258,0 -0.20389,-0.00543 -0.30365,-0.01602z" fill="#ffffff"/></g></g></svg>