<svg version="1.1" xmlns="http://www.w3.org/2000/svg" xmlns:xlink="http://www.w3.org/1999/xlink" width="153.88889" height="83.51852" viewBox="0,0,153.88889,83.51852"><defs><linearGradient x1="240" y1="140.74074" x2="240" y2="219.25926" gradientUnits="userSpaceOnUse" id="color-1"><stop offset="0" stop-color="#ff9266"/><stop offset="1" stop-color="#ff6666"/></linearGradient><radialGradient cx="188.562" cy="163.83056" r="15.54787" gradientTransform="translate(-274.45199,-265.22901) scale(1.54361,1.54361)" gradientUnits="userSpaceOnUse" id="color-2"><stop offset="0" stop-color="#66b6ff"/><stop offset="1" stop-color="#66ffb5"/></radialGradient><linearGradient x1="208.55247" y1="149.61767" x2="208.55247" y2="176.64833" gradientUnits="userSpaceOnUse" id="color-3"><stop offset="0" stop-color="#3dff8e"/><stop offset="1" stop-color="#259955"/></linearGradient><radialGradient cx="272.43891" cy="201.22172" r="12" gradientTransform="translate(-504.45549,-414.16592) scale(2,2)" gradientUnits="userSpaceOnUse" id="color-4"><stop offset="0" stop-color="#66b6ff"/><stop offset="1" stop-color="#66ffb5"/></radialGradient><linearGradient x1="290.59241" y1="189.18131" x2="290.59241" y2="215.26856" gradientUnits="userSpaceOnUse" id="color-5"><stop offset="0" stop-color="#ffef3e"/><stop offset="1" stop-color="#9a9125"/></linearGradient></defs><g transform="translate(-163.05556,-138.24074)"><g data-paper-data="{&quot;isPaintingLayer&quot;:true}" fill-rule="nonzero" stroke-linecap="butt" stroke-linejoin="miter" stroke-miterlimit="10" stroke-dasharray="" stroke-dashoffset="0" style="mix-blend-mode: normal"><path d="M165.55556,219.25926v-78.51852h148.88889v78.51852z" fill="url(#color-1)" stroke="#ffffff" stroke-width="5"/><text transform="translate(177.79824,171.82331) scale(0.64783,0.64783)" font-size="40" xml:space="preserve" fill="url(#color-2)" fill-rule="nonzero" stroke="none" stroke-width="1" stroke-linecap="butt" stroke-linejoin="miter" stroke-miterlimit="10" stroke-dasharray="" stroke-dashoffset="0" font-family="Sans Serif" font-weight="normal" text-anchor="start" style="mix-blend-mode: normal"><tspan x="0" dy="0">1</tspan></text><g stroke="none"><path d="M195.03714,163.133c0,-7.46431 6.05103,-13.51533 13.51533,-13.51533c7.46431,0 13.51533,6.05103 13.51533,13.51533c0,7.46431 -6.05102,13.51533 -13.51533,13.51533c-7.46431,0 -13.51533,-6.05102 -13.51533,-13.51533z" fill="url(#color-3)" stroke-width="0"/><text transform="translate(200.12603,172.95989) scale(0.71035,0.71035)" font-size="40" xml:space="preserve" fill="#000000" fill-rule="nonzero" stroke="none" stroke-width="1" stroke-linecap="butt" stroke-linejoin="miter" stroke-miterlimit="10" stroke-dasharray="" stroke-dashoffset="0" font-family="Sans Serif" font-weight="normal" text-anchor="start" style="mix-blend-mode: normal"><tspan x="0" dy="0">$</tspan></text></g><path d="M231.66097,163.36292l12.75416,8.6284l5.02583,-7.42899l4.00526,20.75803l-20.75803,4.00526l5.02583,-7.42898l-12.75416,-8.6284z" fill="#9966ff" stroke="none" stroke-width="0"/><text transform="translate(252.22775,207.08296) scale(0.5,0.5)" font-size="40" xml:space="preserve" fill="url(#color-4)" fill-rule="nonzero" stroke="none" stroke-width="1" stroke-linecap="butt" stroke-linejoin="miter" stroke-miterlimit="10" stroke-dasharray="" stroke-dashoffset="0" font-family="Sans Serif" font-weight="normal" text-anchor="start" style="mix-blend-mode: normal"><tspan x="0" dy="0">75</tspan></text><g stroke="none"><path d="M277.54878,202.22493c0,-7.20379 5.83984,-13.04363 13.04363,-13.04363c7.20379,0 13.04363,5.83984 13.04363,13.04363c0,7.20379 -5.83984,13.04363 -13.04363,13.04363c-7.20379,0 -13.04363,-5.83984 -13.04363,-13.04363z" fill="url(#color-5)" stroke-width="0"/><text transform="translate(282.61721,211.70885) scale(0.68557,0.68557)" font-size="40" xml:space="preserve" fill="#000000" fill-rule="nonzero" stroke="none" stroke-width="1" stroke-linecap="butt" stroke-linejoin="miter" stroke-miterlimit="10" stroke-dasharray="" stroke-dashoffset="0" font-family="Sans Serif" font-weight="normal" text-anchor="start" style="mix-blend-mode: normal"><tspan x="0" dy="0">$</tspan></text></g></g></g></svg>