<svg version="1.1" xmlns="http://www.w3.org/2000/svg" xmlns:xlink="http://www.w3.org/1999/xlink" width="93.77964" height="50.32103" viewBox="0,0,93.77964,50.32103"><g transform="translate(-193.02456,-154.83031)"><g data-paper-data="{&quot;isPaintingLayer&quot;:true}" fill-rule="nonzero" stroke-width="0.25" stroke-linecap="round" stroke-linejoin="miter" stroke-miterlimit="10" stroke-dasharray="" stroke-dashoffset="0" style="mix-blend-mode: normal"><path d="M197.54894,199.34951c0,0 -1.73493,-1.46619 -2.31039,-3.87411c-0.57145,-2.39119 -1.48277,-5.68977 -1.8815,-8.84933c-0.31237,-2.47527 -0.18638,-4.86521 -0.16095,-6.66671c0.03647,-2.58136 -0.02728,-5.67855 0.52611,-8.49832c0.45918,-2.33971 1.49292,-4.43852 2.00095,-6.34667c0.43067,-1.61759 2.37495,-4.63858 2.37495,-4.63858c0,0 2.68636,-0.63377 4.71414,-0.8937c2.60138,-0.33344 4.82817,-0.28618 6.4528,0.00851c2.02677,0.36764 4.77064,0.91925 4.77064,0.91925c0,0 15.6821,-0.63577 23.38084,-0.63577c7.51354,0 22.26952,0.63577 22.26952,0.63577c0,0 4.15972,-0.59282 7.99936,-1.08241c3.09408,-0.39452 6.14256,-0.16243 8.01934,0.09244c2.91634,0.39603 6.40603,1.62575 6.40603,1.62575c0,0 3.22655,2.5974 3.88412,6.03855c0.64596,2.59116 0.66528,5.52675 0.68429,7.63007c0.02709,2.99765 0.05352,6.79482 0.03776,10.33279c-0.00915,2.05416 -0.48694,5.28168 -1.07758,7.51289c-0.97107,3.6683 -3.8947,6.61007 -3.8947,6.61007c0,0 -3.40427,0.88242 -5.98637,1.17663c-1.84466,0.19629 -5.73081,0.21169 -8.88404,-0.03534c-3.99314,-0.31283 -7.71451,-0.52821 -7.71451,-0.52821c0,0 -14.46725,0.58485 -21.87105,0.55879c-7.63789,-0.02688 -23.2759,-0.71772 -23.2759,-0.71772c0,0 -2.75874,0.29635 -4.74577,0.61444c-1.57012,0.25135 -3.60537,0.33244 -6.60341,0.00607c-2.40403,-0.2617 -5.11471,-0.99518 -5.11471,-0.99518z" fill="#ffffff" stroke="#000000"/><path d="M284.07777,171.0165c0,0 -0.68609,-0.55684 -0.95069,-1.06397c-0.24672,-0.47288 -0.71514,-1.627 -0.71514,-1.627l-2.05026,-5.38194c0,0 0.20728,-0.34498 0.5171,-0.32433c0.32964,0.02198 0.89245,0.06804 0.89245,0.06804c0,0 1.32838,2.60042 1.7858,3.79843c0.43879,1.14922 0.90516,3.24934 0.90516,3.24934z" data-paper-data="{&quot;index&quot;:null}" fill="#455050" stroke="#000000"/><path d="M281.14882,163.74589l0.59663,1.50854" fill="none" stroke="#ffffff"/><path d="M282.42685,167.07824l0.54579,1.4543" fill="none" stroke="#ffffff"/><path d="M282.43362,165.15614l-0.78986,-1.74585" fill="none" stroke="#ffffff"/><path d="M283.76249,168.97324l-0.6441,-2.02381" fill="none" stroke="#ffffff"/><path d="M284.2059,190.78812c0,0 -0.46637,2.10012 -0.90516,3.24934c-0.45743,1.19801 -1.7858,3.79843 -1.7858,3.79843c0,0 -0.56281,0.04607 -0.89245,0.06804c-0.30982,0.02066 -0.5171,-0.32433 -0.5171,-0.32433l2.05026,-5.38194c0,0 0.46843,-1.15412 0.71514,-1.627c0.26459,-0.50715 0.95069,-1.06397 0.95069,-1.06397z" data-paper-data="{&quot;index&quot;:null}" fill="#455050" stroke="#000000"/><path d="M280.89254,196.77732l0.59664,-1.50854" data-paper-data="{&quot;index&quot;:null}" fill="none" stroke="#ffffff"/><path d="M282.17057,193.44497l0.54579,-1.4543" data-paper-data="{&quot;index&quot;:null}" fill="none" stroke="#ffffff"/><path d="M281.38747,197.11293l0.78986,-1.74585" data-paper-data="{&quot;index&quot;:null}" fill="none" stroke="#ffffff"/><path d="M283.50622,191.54996l-0.6441,2.02383" data-paper-data="{&quot;index&quot;:null}" fill="none" stroke="#ffffff"/><path d="M283.98815,171.02339c0,0 0.38567,1.89518 0.58416,4.03631c0.16511,1.78102 0.15135,3.70755 0.13375,5.08271c-0.01716,1.34122 -0.03848,3.33861 -0.23854,5.08002c-0.26124,2.27392 -0.71431,4.16789 -0.71431,4.16789" fill="none" stroke="#000000"/><path d="M280.21749,196.5758l-14.77615,0.34948c0,0 -0.79063,-0.003 -0.99166,-0.24813c-0.1784,-0.21753 -0.50506,-0.50907 -0.50506,-0.50907" fill="none" stroke="#000000"/><path d="M264.32827,164.18822c0,0 0.32667,-0.29155 0.50507,-0.50908c0.20103,-0.24513 0.99165,-0.24812 0.99165,-0.24812l14.77615,0.34948" data-paper-data="{&quot;index&quot;:null}" fill="none" stroke="#000000"/><path d="M251.26177,168.42447c0,0 5.01754,-1.3934 7.16816,-2.22692c1.91551,-0.7424 5.11205,-2.53262 5.11205,-2.53262c0,0 0.67611,0.26284 1.13308,1.21565c0.59564,1.24196 0.93611,3.21872 1.31198,5.24371c0.59637,3.21294 0.29915,6.9676 0.26562,10.05214c-0.02983,2.7437 -0.14562,6.87098 -0.81855,10.33197c-0.45078,2.31842 -0.78906,4.00258 -1.23606,5.05024c-0.28807,0.67519 -0.70183,1.06302 -0.70183,1.06302c0,0 -2.76912,-1.7943 -4.84759,-2.47852c-2.05335,-0.67595 -7.30829,-2.36111 -7.30829,-2.36111c0,0 0.59041,-7.32416 0.64017,-11.6016c0.04664,-4.0089 -0.71874,-11.75597 -0.71874,-11.75597z" fill="#203756" stroke="#000000"/><path d="M229.57537,166.26235c0,0 -4.79857,-0.10884 -7.03927,-0.49666c-2.20081,-0.38091 -5.73826,-1.07764 -5.73826,-1.07764c0,0 -0.13045,-0.26083 0.46455,-0.45272c1.28199,-0.41346 4.06481,-0.97361 5.63033,-1.20159c2.63762,-0.48721 7.12198,-0.92682 7.12198,-0.92682c0,0 7.87686,-0.08601 12.46759,-0.13514c6.17208,-0.05892 18.7989,0.83075 18.7989,0.83075c0,0 -1.25903,0.85447 -2.57915,1.39606c-1.83739,0.7538 -7.5074,2.24682 -7.5074,2.24682z" fill="#203756" stroke="#000000"/><path d="M251.1626,193.65191c0,0 5.67001,1.49301 7.5074,2.24682c1.32012,0.54159 2.57915,1.39606 2.57915,1.39606c0,0 -12.62682,0.88967 -18.7989,0.83075c-4.59073,-0.04913 -12.46759,-0.13514 -12.46759,-0.13514c0,0 -4.48436,-0.43961 -7.12198,-0.92682c-1.56552,-0.22799 -4.34834,-0.78815 -5.63033,-1.20159c-0.595,-0.19189 -0.46455,-0.45272 -0.46455,-0.45272c0,0 3.53744,-0.69673 5.73826,-1.07764c2.24069,-0.38782 7.03927,-0.49666 7.03927,-0.49666z" data-paper-data="{&quot;index&quot;:null}" fill="#203756" stroke="#000000"/><path d="M257.32942,162.60344l-0.32035,-1.92212" fill="none" stroke="#000000"/><path d="M257.27602,197.68214l-0.21357,2.0823" fill="none" stroke="#000000"/><path d="M211.33339,193.35737c0,0 -9.65439,-0.76709 -11.31825,-0.9545c-0.47069,-0.05301 -0.90579,-0.42238 -0.90579,-0.42238c0,0 -0.69779,-3.47398 -0.6796,-6.19458c0.01574,-2.35464 -0.22895,-7.33448 0.01242,-11.43135c0.22622,-3.83955 0.93996,-6.45502 0.93996,-6.45502c0,0 0.36742,-0.37461 0.95433,-0.4294c1.79708,-0.16781 11.16292,-0.70209 11.16292,-0.70209c0,0 -1.38279,8.96641 -1.41036,13.38329c-0.02776,4.44604 1.24438,13.20604 1.24438,13.20604z" fill="#203756" stroke="#000000"/><path d="M211.51889,166.76804c0,0 0.46848,0.00459 0.69631,0.05474c0.21954,0.04833 0.44957,0.53667 0.44957,0.53667c0,0 -0.35051,3.07515 -0.4955,6.16465c-0.13468,2.86956 -0.06497,5.73798 -0.05557,6.50782c0.01334,1.09417 -0.00669,2.38571 0.10226,3.84414c0.31041,4.15532 0.47346,8.37238 0.47346,8.37238c0,0 -0.25688,0.82631 -0.57461,0.88407c-0.25628,0.04659 -0.59591,0.22485 -0.59591,0.22485" fill="none" stroke="#000000"/><path d="M195.5279,166.56643l3.15198,0.11415c0,0 0.45582,0.27303 0.54718,0.38266c0.08633,0.1036 0.25187,0.47899 0.25187,0.47899" fill="none" stroke="#000000"/><path d="M199.12946,192.3112c0,0 -0.16553,0.37539 -0.25186,0.47899c-0.09135,0.10962 -0.54718,0.38266 -0.54718,0.38266l-3.15198,0.11415" data-paper-data="{&quot;index&quot;:null}" fill="none" stroke="#000000"/><path d="M254.17605,159.18626l0.39154,1.93992c0,0 -0.60747,0.11963 -0.89441,0.10889c-0.26619,-0.00997 -0.76964,-0.17118 -0.76964,-0.17118c0,0 -0.14415,-0.87886 -0.34353,-1.25163c-0.20946,-0.39159 -0.88448,-1.04424 -0.88448,-1.04424c0,0 0.78219,0.27644 1.24457,0.33349c0.45093,0.05564 1.25596,0.08475 1.25596,0.08475z" fill="#000000" stroke="#000000"/><path d="M251.13303,158.31043l-0.88714,-3.25283c0,0 1.04512,-0.15274 1.58775,-0.08492c0.50627,0.06329 1.46794,0.67634 1.46794,0.67634c0,0 0.7572,1.219 0.9875,1.72893c0.22971,0.50862 0.3925,1.62245 0.3925,1.62245c0,0 -1.15991,0.25405 -1.75686,0.11974c-0.70064,-0.15765 -1.79167,-0.80973 -1.79167,-0.80973z" fill="#ffffff" stroke="#000000"/><path d="M253.34075,200.96871c-0.46239,0.05705 -1.24457,0.33349 -1.24457,0.33349c0,0 0.67502,-0.65265 0.88448,-1.04424c0.19939,-0.37278 0.34353,-1.25163 0.34353,-1.25163c0,0 0.50723,-0.16137 0.77429,-0.17136c0.28628,-0.01071 0.88976,0.10907 0.88976,0.10907l-0.39154,1.93992c0,0 -0.80504,0.02911 -1.25596,0.08475z" data-paper-data="{&quot;index&quot;:null}" fill="#000000" stroke="#000000"/><path d="M253.27418,200.87888c0.59695,-0.13432 1.75684,0.11974 1.75684,0.11974c0,0 -0.16279,1.11383 -0.39248,1.62245c-0.2303,0.50994 -0.9875,1.72893 -0.9875,1.72893c0,0 -0.96166,0.61305 -1.46794,0.67634c-0.54261,0.06783 -1.58775,-0.08492 -1.58775,-0.08492l0.88714,-3.25283c0,0 1.09103,-0.65207 1.79169,-0.80973z" data-paper-data="{&quot;index&quot;:null}" fill="#ffffff" stroke="#000000"/><path d="M267.74846,189.33179l15.48374,-1.92212" fill="none" stroke="#000000"/><path d="M283.12542,172.56664l-15.05661,-2.34927" fill="none" stroke="#000000"/><path d="M282.72403,179.94693l0.42156,-0.00655c0,0 0.17444,0.13709 0.16359,0.21614c-0.01085,0.07905 -0.151,0.18338 -0.151,0.18338h-0.42785z" fill="#000000" stroke="#252525"/><path d="M220.85776,199.66935l-0.65713,-1.81945c0,0 0.07508,-0.42449 0.19899,-0.58381c0.10163,-0.13067 0.5444,-0.41009 0.5444,-0.41009" fill="none" stroke="#000000"/><path d="M221.0597,163.19356c0,0 -0.44278,-0.27944 -0.5444,-0.41009c-0.12391,-0.15933 -0.19899,-0.58382 -0.19899,-0.58382l0.65713,-1.81944" data-paper-data="{&quot;index&quot;:null}" fill="none" stroke="#000000"/><path d="M222.90672,161.87232l0.51257,-0.56952l2.14993,-0.1851l0.69765,0.31324" fill="none" stroke="#000000"/><path d="M237.91351,160.14953l0.46984,1.68007" fill="none" stroke="#000000"/><path d="M239.89257,161.28855l0.51257,-0.55527h1.55195l0.99664,0.44137" fill="none" stroke="#000000"/><path d="M226.08382,198.66719l-0.69765,0.31324l-2.14993,-0.1851l-0.51257,-0.56952" data-paper-data="{&quot;index&quot;:null}" fill="none" stroke="#000000"/><path d="M238.2003,198.26853l-0.46984,1.68007" data-paper-data="{&quot;index&quot;:null}" fill="none" stroke="#000000"/><path d="M242.77067,198.92348l-0.99664,0.44137h-1.55195l-0.51257,-0.55527" data-paper-data="{&quot;index&quot;:null}" fill="none" stroke="#000000"/><path d="M201.07796,164.65378l15.1939,-1.83059" fill="none" stroke="#000000"/><path d="M217.00409,197.42136l-16.29225,-2.01365" fill="none" stroke="#000000"/></g></g></svg>