<svg version="1.1" xmlns="http://www.w3.org/2000/svg" xmlns:xlink="http://www.w3.org/1999/xlink" width="58.37275" height="59.53333" viewBox="0,0,58.37275,59.53333"><g transform="translate(-400.89805,-13.9352)"><g data-paper-data="{&quot;isPaintingLayer&quot;:true}" fill-rule="nonzero" stroke-linecap="butt" stroke-linejoin="miter" stroke-miterlimit="10" stroke-dasharray="" stroke-dashoffset="0" style="mix-blend-mode: normal"><path d="M422.42512,60.9352c-5.60808,0 -10.15432,-4.54624 -10.15432,-10.15432v-26.69136c0,-5.60808 4.54624,-10.15432 10.15432,-10.15432h26.69136c5.60808,0 10.15432,4.54624 10.15432,10.15432v26.69136c0,5.60808 -4.54624,10.15432 -10.15432,10.15432z" fill="#47ed2b" stroke="#ffffff" stroke-width="0"/><g fill="#ffffff" stroke="none" stroke-width="1"><path d="M402.52984,68.37541v-1.73068c0,-0.2731 0.22143,-0.49448 0.49448,-0.49448h1.73068c0.27305,0 0.49448,0.22138 0.49448,0.49448v1.73068c0,0.2731 -0.22143,0.49448 -0.49448,0.49448h-1.73068c-0.27305,0 -0.49448,-0.22138 -0.49448,-0.49448zM403.5188,67.88093h0.74172v-0.74172h-0.74172z"/><path d="M405.87375,68.37541v-1.73068c0,-0.2731 0.22143,-0.49448 0.49448,-0.49448h1.73067c0.27305,0 0.49448,0.22138 0.49448,0.49448v1.73068c0,0.2731 -0.22143,0.49448 -0.49448,0.49448h-1.73067c-0.27305,0 -0.49448,-0.22138 -0.49448,-0.49448zM406.86271,67.88093h0.74172v-0.74172h-0.74172z"/><path d="M409.21766,68.37541v-1.73068c0,-0.2731 0.22143,-0.49448 0.49448,-0.49448h1.73068c0.27305,0 0.49448,0.22138 0.49448,0.49448v1.73068c0,0.2731 -0.22143,0.49448 -0.49448,0.49448h-1.73068c-0.27305,0 -0.49448,-0.22138 -0.49448,-0.49448zM410.20662,67.88093h0.74172v-0.74172h-0.74172z"/><path d="M405.87375,71.49062v-1.73068c0,-0.2731 0.22143,-0.49448 0.49448,-0.49448h5.07458c0.27305,0 0.49448,0.22138 0.49448,0.49448v1.73068c0,0.2731 -0.22143,0.49448 -0.49448,0.49448h-5.07458c-0.27305,0 -0.49448,-0.22138 -0.49448,-0.49448zM406.86271,70.99614h4.08563v-0.74172h-4.08563z"/><path d="M412.53067,68.37541v-1.73068c0,-0.2731 0.22143,-0.49448 0.49448,-0.49448h1.73068c0.27305,0 0.49448,0.22138 0.49448,0.49448v1.73068c0,0.2731 -0.22143,0.49448 -0.49448,0.49448h-1.73068c-0.27305,0 -0.49448,-0.22138 -0.49448,-0.49448zM413.51962,67.88093h0.74172v-0.74172h-0.74172z"/><path d="M417.97611,68.37541v-1.73068c0,-0.2731 0.22143,-0.49448 0.49448,-0.49448h1.73068c0.27305,0 0.49448,0.22138 0.49448,0.49448v1.73068c0,0.2731 -0.22143,0.49448 -0.49448,0.49448h-1.73068c-0.27305,0 -0.49448,-0.22138 -0.49448,-0.49448zM418.96506,67.88093h0.74172v-0.74172h-0.74172z"/><path d="M421.32002,68.37541v-1.73068c0,-0.2731 0.22143,-0.49448 0.49448,-0.49448h1.73068c0.27305,0 0.49448,0.22138 0.49448,0.49448v1.73068c0,0.2731 -0.22143,0.49448 -0.49448,0.49448h-1.73068c-0.27305,0 -0.49448,-0.22138 -0.49448,-0.49448zM422.30898,67.88093h0.74172v-0.74172h-0.74172z"/><path d="M402.52984,71.49062v-1.73068c0,-0.2731 0.22143,-0.49448 0.49448,-0.49448h1.73068c0.27305,0 0.49448,0.22138 0.49448,0.49448v1.73068c0,0.2731 -0.22143,0.49448 -0.49448,0.49448h-1.73068c-0.27305,0 -0.49448,-0.22138 -0.49448,-0.49448zM403.5188,70.99614h0.74172v-0.74172h-0.74172z"/><path d="M412.53067,71.49062v-1.73068c0,-0.2731 0.22143,-0.49448 0.49448,-0.49448h1.73068c0.27305,0 0.49448,0.22138 0.49448,0.49448v1.73068c0,0.2731 -0.22143,0.49448 -0.49448,0.49448h-1.73068c-0.27305,0 -0.49448,-0.22138 -0.49448,-0.49448zM413.51962,70.99614h0.74172v-0.74172h-0.74172z"/><path d="M417.97611,71.49062v-1.73068c0,-0.2731 0.22143,-0.49448 0.49448,-0.49448h1.73068c0.27305,0 0.49448,0.22138 0.49448,0.49448v1.73068c0,0.2731 -0.22143,0.49448 -0.49448,0.49448h-1.73068c-0.27305,0 -0.49448,-0.22138 -0.49448,-0.49448zM418.96506,70.99614h0.74172v-0.74172h-0.74172z"/><path d="M421.32002,71.49062v-1.73068c0,-0.2731 0.22143,-0.49448 0.49448,-0.49448h1.73068c0.27305,0 0.49448,0.22138 0.49448,0.49448v1.73068c0,0.2731 -0.22143,0.49448 -0.49448,0.49448h-1.73068c-0.27305,0 -0.49448,-0.22138 -0.49448,-0.49448zM422.30898,70.99614h0.74172v-0.74172h-0.74172z"/><path d="M402.52984,65.26019v-1.73068c0,-0.2731 0.22143,-0.49448 0.49448,-0.49448h1.73068c0.27305,0 0.49448,0.22138 0.49448,0.49448v1.73068c0,0.2731 -0.22143,0.49448 -0.49448,0.49448h-1.73068c-0.27305,0 -0.49448,-0.22138 -0.49448,-0.49448zM403.5188,64.76571h0.74172v-0.74172h-0.74172z"/><path d="M405.87375,65.26019v-1.73068c0,-0.2731 0.22143,-0.49448 0.49448,-0.49448h1.73067c0.27305,0 0.49448,0.22138 0.49448,0.49448v1.73068c0,0.2731 -0.22143,0.49448 -0.49448,0.49448h-1.73067c-0.27305,0 -0.49448,-0.22138 -0.49448,-0.49448zM406.86271,64.76571h0.74172v-0.74172h-0.74172z"/><path d="M409.21766,65.26019v-1.73068c0,-0.2731 0.22143,-0.49448 0.49448,-0.49448h1.73068c0.27305,0 0.49448,0.22138 0.49448,0.49448v1.73068c0,0.2731 -0.22143,0.49448 -0.49448,0.49448h-1.73068c-0.27305,0 -0.49448,-0.22138 -0.49448,-0.49448zM410.20662,64.76571h0.74172v-0.74172h-0.74172z"/><path d="M412.53067,65.26019v-1.73068c0,-0.2731 0.22143,-0.49448 0.49448,-0.49448h1.73068c0.27305,0 0.49448,0.22138 0.49448,0.49448v1.73068c0,0.2731 -0.22143,0.49448 -0.49448,0.49448h-1.73068c-0.27305,0 -0.49448,-0.22138 -0.49448,-0.49448zM413.51962,64.76571h0.74172v-0.74172h-0.74172z"/><path d="M417.97611,65.26019v-1.73068c0,-0.2731 0.22143,-0.49448 0.49448,-0.49448h1.73068c0.27305,0 0.49448,0.22138 0.49448,0.49448v1.73068c0,0.2731 -0.22143,0.49448 -0.49448,0.49448h-1.73068c-0.27305,0 -0.49448,-0.22138 -0.49448,-0.49448zM418.96506,64.76571h0.74172v-0.74172h-0.74172z"/><path d="M421.32002,65.26019v-1.73068c0,-0.2731 0.22143,-0.49448 0.49448,-0.49448h1.73068c0.27305,0 0.49448,0.22138 0.49448,0.49448v1.73068c0,0.2731 -0.22143,0.49448 -0.49448,0.49448h-1.73068c-0.27305,0 -0.49448,-0.22138 -0.49448,-0.49448zM422.30898,64.76571h0.74172v-0.74172h-0.74172z"/><path d="M410.98542,56.06289v-0.64282c0,-0.2731 0.22143,-0.49448 0.49448,-0.49448c0.27305,0 0.49448,0.22138 0.49448,0.49448v0.64282c0,0.2731 -0.22143,0.49448 -0.49448,0.49448c-0.27305,0 -0.49448,-0.22138 -0.49448,-0.49448z"/><path d="M425.72087,62.04608v10.92797c0,0.2731 -0.22143,0.49448 -0.49448,0.49448h-23.83386c-0.27305,0 -0.49448,-0.22138 -0.49448,-0.49448v-10.92797c0,-0.2731 0.22143,-0.49448 0.49448,-0.49448h12.85639v-1.1373c0,-0.6271 -0.51015,-1.1373 -1.1373,-1.1373c-0.93096,0 -1.74551,-0.59575 -2.02687,-1.48245c-0.08263,-0.26034 0.06142,-0.53829 0.32171,-0.62092c0.26049,-0.08258 0.53829,0.06146 0.62092,0.32176c0.15047,0.47411 0.58625,0.79265 1.08429,0.79265c1.17241,0 2.12626,0.95385 2.12626,2.12626v1.1373h9.98846c0.27305,0 0.49448,0.22138 0.49448,0.49448zM424.73192,62.54056h-22.8449v9.93901h22.8449z"/></g></g></g></svg>