<svg version="1.1" xmlns="http://www.w3.org/2000/svg" xmlns:xlink="http://www.w3.org/1999/xlink" width="160.69945" height="95.48052" viewBox="0,0,160.69945,95.48052"><g transform="translate(-159.65028,-132.25974)"><g data-paper-data="{&quot;isPaintingLayer&quot;:true}" fill-rule="nonzero" stroke-linejoin="miter" stroke-miterlimit="10" stroke-dasharray="" stroke-dashoffset="0" style="mix-blend-mode: normal"><path d="M159.65029,227.74026v-95.48052h160.69945v95.48052z" fill="#59ad0d" stroke="none" stroke-width="0" stroke-linecap="butt"/><path d="M196.77557,188.44351c0,0 -1.48096,-3.82776 -1.33967,-8.29493c0.1425,-4.31292 1.76775,-9.11915 1.76775,-9.11915c0,0 0.63898,-4.74418 0.84307,-5.86909c0.08705,-0.47984 0.27238,-1.30478 0.78397,-2.02398c0.53719,-0.7552 1.5678,-1.55679 1.5678,-1.55679c0,0 5.5832,-0.78773 9.14307,-0.78773c3.71222,0 11.17875,0.95071 11.17875,0.95071l38.38373,0.26484c0,0 6.62675,-1.14535 8.99489,-1.18377c2.04473,-0.03318 8.08667,0.80364 8.08667,0.80364c0,0 2.63718,1.14777 3.62838,1.7138c0.99399,0.83587 1.47311,1.99397 1.47311,1.99397l1.52063,5.37153c0,0 1.7659,3.13768 1.7659,9.31699c0,6.11592 -1.86401,9.03176 -1.86401,9.03176l-1.51617,5.14681c0,0 -0.37896,1.28459 -1.12897,1.85341c-0.87243,0.66167 -4.29868,2.04328 -4.29868,2.04328c0,0 -5.09956,1.10163 -7.41316,1.12316c-2.37002,0.02205 -9.16449,-0.82945 -9.16449,-0.82945l-38.18751,-0.11544c0,0 -7.24487,0.95071 -11.06664,0.95071c-3.46928,0 -9.99331,-0.95071 -9.99331,-0.95071c0,0 -1.0096,-0.6897 -1.25558,-1.37827c-0.23915,-0.66944 -0.62914,-1.45765 -0.72128,-1.96272c-0.18969,-1.03976 -1.18825,-6.49258 -1.18825,-6.49258z" fill="#246291" stroke="#000000" stroke-width="0.5" stroke-linecap="round"/><path d="M244.79056,170.28494c0,0 0.91833,-1.81996 2.8308,-2.45344c2.21459,-0.73355 9.68382,-2.45245 9.68382,-2.45245c0,0 2.74144,0.34991 3.85725,3.7385c0.92787,2.81783 1.22487,8.50423 1.20424,10.77051c-0.01998,2.19571 -0.34326,8.4498 -1.16315,11.29571c-1.05685,3.66843 -3.6248,3.73074 -3.6248,3.73074c0,0 -7.89631,-2.1753 -9.91345,-2.86186c-2.22513,-0.75736 -2.87471,-2.06117 -2.87471,-2.06117z" fill="#4c5e73" stroke="#000000" stroke-width="0.5" stroke-linecap="round"/><path d="M255.04285,195.77746c0,0 -13.01012,0.82185 -16.98767,0.86493c-6.46781,0.07005 -18.1253,-0.48464 -18.1253,-0.48464c0,0 -1.56969,-0.06648 -2.14821,-0.22846c-0.43859,-0.1228 -1.5641,-0.59096 -1.5641,-0.59096l-0.68854,-0.95647c0,0 1.40452,-0.49179 3.15207,-1.06655c1.77022,-0.5822 3.80457,-1.15445 6.31799,-1.48195c3.54546,-0.46197 6.12277,-0.47448 9.72672,-0.28607c3.55751,0.02358 9.37655,1.27565 9.37655,1.27565c0,0 8.76166,2.12314 10.50305,2.60352c1.91767,0.52901 0.43745,0.351 0.43745,0.351z" fill="#4c5e73" stroke="#000000" stroke-width="0.5" stroke-linecap="round"/><path d="M254.37723,164.30497c-1.74139,0.48039 -10.50305,2.60352 -10.50305,2.60352c0,0 -5.81903,1.25207 -9.37655,1.27565c-3.60396,0.18841 -6.18127,0.17591 -9.72672,-0.28606c-2.51342,-0.32749 -4.54777,-0.89975 -6.31799,-1.48195c-1.74755,-0.57475 -3.15207,-1.06655 -3.15207,-1.06655l0.68854,-0.95647c0,0 1.12551,-0.46816 1.5641,-0.59096c0.57852,-0.16199 2.14821,-0.22846 2.14821,-0.22846c0,0 11.65748,-0.55468 18.1253,-0.48464c3.97757,0.04308 16.98768,0.86493 16.98768,0.86493c0,0 1.48023,-0.17802 -0.43745,0.351z" data-paper-data="{&quot;index&quot;:null}" fill="#4c5e73" stroke="#000000" stroke-width="0.5" stroke-linecap="round"/><path d="M218.07848,171.39179l-0.38693,17.30297c0,0 0.08183,0.74766 -0.67733,1.15132c-1.95913,1.0417 -6.23424,2.48285 -7.57505,2.85183c-1.76178,0.48482 -2.24326,-0.43797 -2.24326,-0.43797c0,0 -1.98133,-2.86469 -2.39212,-12.54818c0.89444,-9.70769 2.53722,-12.69323 2.53722,-12.69323c0,0 0.42217,-0.76628 1.81326,-0.43372c1.41639,0.33861 5.76903,2.08781 7.90549,3.37693c0.84635,0.51068 1.01872,1.43007 1.01872,1.43007z" fill="#4c5e73" stroke="#000000" stroke-width="0.5" stroke-linecap="round"/><path d="M200.70172,194.73864c0,0 -1.58467,-1.61194 -2.587,-3.4829c-1.07229,-2.00156 -1.66528,-3.77709 -1.66528,-3.77709" fill="none" stroke="#000000" stroke-width="0.5" stroke-linecap="round"/><path d="M196.96801,171.50668c0,0 0.59299,-1.77552 1.66528,-3.77707c1.00233,-1.87097 2.587,-3.4829 2.587,-3.4829" data-paper-data="{&quot;index&quot;:null}" fill="none" stroke="#000000" stroke-width="0.5" stroke-linecap="round"/><path d="M259.70417,165.94414c0,0 0.46435,-0.82467 0.80161,-1.1766c0.27446,-0.28639 1.07265,-0.77916 1.07265,-0.77916c0,0 0.65616,-0.15332 1.3816,-0.06367c2.10535,0.26016 13.75617,1.31092 13.75617,1.31092c0,0 1.16559,0.3759 1.36216,1.11759c0.73946,2.79001 2.16384,9.90983 2.19415,13.8427c0.02721,3.5299 -1.70584,10.65191 -2.47561,13.75079c-0.29601,1.19165 -1.1158,1.15429 -1.1158,1.15429c0,0 -11.38755,0.7875 -13.49289,1.04766c-0.72544,0.08965 -1.3816,-0.06367 -1.3816,-0.06367c0,0 -0.7982,-0.49277 -1.07265,-0.77916c-0.33726,-0.35192 -0.80161,-1.1766 -0.80161,-1.1766" fill="none" stroke="#000000" stroke-width="0.25" stroke-linecap="round"/><path d="M279.18348,195.55168c0,0 -1.35856,0.70911 -2.01895,0.95676c-0.47562,0.17836 -1.41068,0.40146 -1.83029,0.42696c-0.27519,0.01672 -0.15137,-0.14019 -0.15137,-0.14019c0,0 2.60744,-1.01553 3.75483,-2.42222c1.09371,-1.34088 3.12833,-5.67785 3.12833,-5.67785c0,0 -0.9149,2.97039 -1.34397,4.1248c-0.18302,0.49238 -0.45753,1.22008 -0.76953,1.72196c-0.29436,0.4735 -0.76905,1.00977 -0.76905,1.00977z" fill="#ffffff" stroke="#000000" stroke-width="0.25" stroke-linecap="round"/><path d="M279.37363,164.60101c0,0 0.47468,0.53627 0.76905,1.00977c0.312,0.50188 0.58652,1.22958 0.76953,1.72196c0.42908,1.15441 1.34397,4.1248 1.34397,4.1248c0,0 -2.03461,-4.33697 -3.12834,-5.67785c-1.14739,-1.40669 -3.75483,-2.42222 -3.75483,-2.42222c0,0 -0.12382,-0.15691 0.15137,-0.14018c0.41961,0.02551 1.35466,0.2486 1.83029,0.42696c0.66038,0.24765 2.01895,0.95676 2.01895,0.95676z" data-paper-data="{&quot;index&quot;:null}" fill="#ffffff" stroke="#000000" stroke-width="0.25" stroke-linecap="round"/><path d="M255.07125,195.56965l-0.45634,1.42607c0,0 0.3854,0.83189 0.1278,1.15532c-0.23701,0.29758 -0.6945,1.4409 -1.35814,2.01688c-0.97291,0.8444 -2.0211,1.35319 -2.0211,1.35319l-0.83662,-0.11409c0,0 -0.54746,-0.33818 -0.36851,-0.78243c0.29719,-0.73776 1.35724,-3.05845 1.35724,-3.05845c0,0 0.3857,-0.65799 0.66584,-0.803c0.32727,-0.16939 1.12141,-0.15163 1.12141,-0.15163l0.28521,-1.42607z" fill="#246291" stroke="#000000" stroke-width="0.5" stroke-linecap="round"/><path d="M252.95425,164.81456l-0.28521,-1.42607c0,0 -0.79415,0.01776 -1.12141,-0.15163c-0.28014,-0.14501 -0.66584,-0.803 -0.66584,-0.803c0,0 -1.06005,-2.3207 -1.35724,-3.05845c-0.17897,-0.44425 0.36851,-0.78243 0.36851,-0.78243l0.83662,-0.11409c0,0 1.04819,0.50879 2.0211,1.35319c0.66364,0.57598 1.12113,1.7193 1.35814,2.01688c0.25761,0.32343 -0.12781,1.15532 -0.12781,1.15532l0.45634,1.42607z" data-paper-data="{&quot;index&quot;:null}" fill="#246291" stroke="#000000" stroke-width="0.5" stroke-linecap="round"/><path d="M284.28638,176.1326c0,0 -3.52258,-1.16672 -5.04623,-1.71523c-1.63722,-0.5894 -5.34823,-2.97495 -5.34823,-2.97495" fill="none" stroke="#000000" stroke-width="0.5" stroke-linecap="round"/><path d="M273.76516,188.55524c0,0 3.71101,-2.38555 5.34823,-2.97495c1.52365,-0.54851 5.04623,-1.71523 5.04623,-1.71523" data-paper-data="{&quot;index&quot;:null}" fill="none" stroke="#000000" stroke-width="0.5" stroke-linecap="round"/><path d="M267.12386,193.74814c0,0 -3.98806,1.37473 -6.02938,1.72984c-1.60234,0.27876 -6.15702,0.85005 -6.15702,0.85005" fill="none" stroke="#000000" stroke-width="0.5" stroke-linecap="round"/><path d="M254.31516,163.67107c0,0 4.55468,0.57129 6.15702,0.85004c2.04132,0.35511 6.02938,1.72984 6.02938,1.72984" data-paper-data="{&quot;index&quot;:null}" fill="none" stroke="#000000" stroke-width="0.5" stroke-linecap="round"/><path d="M200.01709,165.77457h3.7775c0,0 1.38501,0.33305 1.93957,0.60033c0.77187,0.37201 1.35624,0.92082 1.35624,0.92082" fill="none" stroke="#000000" stroke-width="0.25" stroke-linecap="round"/><path d="M206.90026,192.01425c0,0 -0.58437,0.54881 -1.35624,0.92082c-0.55457,0.26727 -1.93957,0.60033 -1.93957,0.60033h-3.7775" data-paper-data="{&quot;index&quot;:null}" fill="none" stroke="#000000" stroke-width="0.25" stroke-linecap="round"/><path d="M217.5182,195.8281c0,0 -2.33246,0.49935 -4.67007,0.22008c-1.63016,-0.13792 -3.88272,-0.83619 -4.56963,-1.2752c-1.56287,-0.99883 -1.99069,-4.49434 -1.99069,-4.49434" fill="none" stroke="#000000" stroke-width="0.5" stroke-linecap="round"/><path d="M206.58714,169.24148c0,0 0.404,-3.30089 1.87984,-4.24411c0.64867,-0.41456 2.77581,-1.07396 4.3152,-1.20421c2.20745,-0.26372 4.41004,0.20782 4.41004,0.20782" data-paper-data="{&quot;index&quot;:null}" fill="none" stroke="#000000" stroke-width="0.5" stroke-linecap="round"/><path d="M218.25808,163.74639l0.38029,-2.02819" fill="none" stroke="#000000" stroke-width="0.25" stroke-linecap="round"/><path d="M218.51162,196.07061l0.6338,2.28171" fill="none" stroke="#000000" stroke-width="0.25" stroke-linecap="round"/><path d="M224.83796,161.73342l-0.79958,0.02925c0,0 -0.93306,-0.54258 -1.47964,-0.49586c-0.8278,-0.04931 -0.70762,-0.07849 -1.21433,-0.03797c-0.65647,0.0525 -1.43067,0.38756 -1.43067,0.38756l-0.92542,-0.14078c0,0 0.77327,-0.41143 1.59464,-0.59985c0.79429,-0.18222 1.62895,-0.14201 2.11973,-0.12038c0.94907,0.04182 2.13525,0.97802 2.13525,0.97802z" fill="#246291" stroke="#000000" stroke-width="0.25" stroke-linecap="round"/><path d="M240.4988,161.86825l-0.79958,0.02925c0,0 -0.93306,-0.54258 -1.47964,-0.49586c-0.8278,-0.04931 -0.70762,-0.07849 -1.21433,-0.03797c-0.65647,0.0525 -1.43065,0.38756 -1.43065,0.38756l-0.92543,-0.14077c0,0 0.77327,-0.41143 1.59464,-0.59985c0.79429,-0.18222 1.62895,-0.14201 2.11973,-0.12038c0.94907,0.04182 2.13525,0.97802 2.13525,0.97802z" fill="#246291" stroke="#000000" stroke-width="0.25" stroke-linecap="round"/><path d="M223.98618,199.38362c-0.49078,0.02163 -1.32545,0.06183 -2.11973,-0.12038c-0.82137,-0.18842 -1.59464,-0.59985 -1.59464,-0.59985l0.92542,-0.14077c0,0 0.77418,0.33506 1.43067,0.38756c0.50671,0.04053 0.38652,0.01133 1.21433,-0.03797c0.54658,0.04672 1.47964,-0.49585 1.47964,-0.49585l0.79958,0.02925c0,0 -1.18618,0.9362 -2.13525,0.97802z" data-paper-data="{&quot;index&quot;:null}" fill="#246291" stroke="#000000" stroke-width="0.25" stroke-linecap="round"/><path d="M239.3618,199.3914c-0.49078,0.02163 -1.32545,0.06183 -2.11973,-0.12038c-0.82137,-0.18842 -1.59464,-0.59985 -1.59464,-0.59985l0.92543,-0.14078c0,0 0.77418,0.33506 1.43065,0.38756c0.50671,0.04053 0.38652,0.01134 1.21433,-0.03797c0.54658,0.04672 1.47964,-0.49585 1.47964,-0.49585l0.79958,0.02925c0,0 -1.18618,0.9362 -2.13525,0.97802z" data-paper-data="{&quot;index&quot;:null}" fill="#246291" stroke="#000000" stroke-width="0.25" stroke-linecap="round"/><path d="M234.71334,198.28895l-0.42782,-1.71128" fill="none" stroke="#000000" stroke-width="0.25" stroke-linecap="round"/><path d="M233.8577,162.06679l-0.42782,1.28346" fill="none" stroke="#000000" stroke-width="0.25" stroke-linecap="round"/><path d="M197.62129,192.52763c0,0 1.44212,2.59646 1.98665,3.35044c0.3963,0.54874 0.55175,0.7091 0.55175,0.7091c0,0 0.39802,0.36716 0.83538,0.62126c0.47603,0.27658 0.99865,0.44556 1.10527,0.5407c0.20736,0.18502 0.05584,0.27361 0.05584,0.27361l-1.92995,-0.80811c0,0 -0.42031,-0.32884 -0.73738,-0.71679c-0.25848,-0.31627 -0.44806,-0.65587 -0.62974,-1.01922c-0.43048,-0.86097 -1.23783,-2.951 -1.23783,-2.951z" fill="#650000" stroke="#000000" stroke-width="0.25" stroke-linecap="round"/><path d="M198.96284,164.28594c0.18167,-0.36335 0.37125,-0.70295 0.62974,-1.01922c0.31708,-0.38795 0.73738,-0.71679 0.73738,-0.71679l1.92995,-0.80811c0,0 0.15152,0.08859 -0.05584,0.27361c-0.10662,0.09514 -0.62925,0.26412 -1.10528,0.5407c-0.43735,0.2541 -0.83538,0.62126 -0.83538,0.62126c0,0 -0.15544,0.16036 -0.55174,0.7091c-0.54454,0.75398 -1.98666,3.35044 -1.98666,3.35044c0,0 0.80735,-2.09003 1.23783,-2.951z" data-paper-data="{&quot;index&quot;:null}" fill="#670000" stroke="#000000" stroke-width="0.25" stroke-linecap="round"/></g></g></svg>