<svg version="1.1" xmlns="http://www.w3.org/2000/svg" xmlns:xlink="http://www.w3.org/1999/xlink" width="324.32432" height="45.04508" viewBox="0,0,324.32432,45.04508"><g transform="translate(-77.83784,-157.47747)"><g data-paper-data="{&quot;isPaintingLayer&quot;:true}" fill-rule="nonzero" stroke="none" stroke-width="0" stroke-linecap="butt" stroke-linejoin="miter" stroke-miterlimit="10" stroke-dasharray="" stroke-dashoffset="0" style="mix-blend-mode: normal"><path d="M87.83784,202.52252c-5.52285,0 -10,-4.47715 -10,-10v-25.04505c0,-5.52285 4.47715,-10 10,-10h304.32432c5.52285,0 10,4.47715 10,10v25.04505c0,5.52285 -4.47715,10 -10,10z" fill="#66d7ff"/><path d="M84.47968,202.52256c-3.66818,0 -6.64184,-4.47715 -6.64184,-10v-25.04505c0,-5.52285 2.97366,-10 6.64184,-10h202.1278c3.66818,0 6.64184,4.47715 6.64184,10v25.04505c0,5.52285 -2.97366,10 -6.64184,10z" fill="#99ff66"/></g></g></svg>