<svg xmlns="http://www.w3.org/2000/svg" xmlns:xlink="http://www.w3.org/1999/xlink" version="1.1" width="273.6512878417969" height="119.03999786376953" viewBox="-0.1800000309944153 -0.1800000309944153 273.6512878417969 119.03999786376953"><g><g data-paper-data="{&quot;isPaintingLayer&quot;:true}" fill-rule="nonzero" stroke-linecap="none" stroke-linejoin="none" stroke-miterlimit="10" stroke-dasharray="" stroke-dashoffset="0" font-family="none" font-weight="none" font-size="none" text-anchor="none" style="mix-blend-mode: normal"><g data-paper-data="{&quot;index&quot;:null}" id="Tire-1"><path d="M 234.365 96.565 C 235.919 98.118 236.88 100.263 236.88 102.63 C 236.88 104.997 235.919 107.142 234.365 108.695 C 232.812 110.249 230.667 111.21 228.3 111.21 C 225.933 111.21 223.788 110.249 222.235 108.695 C 220.681 107.142 219.72 104.997 219.72 102.63 C 219.72 100.263 220.681 98.118 222.235 96.565 C 223.788 95.011 225.933 94.05 228.3 94.05 C 230.667 94.05 232.812 95.011 234.365 96.565 Z " id="Oval" fill="#f7c1d8" stroke="none" stroke-width="1" stroke-linecap="butt" stroke-linejoin="miter"/><path d="M 228.3 87.96 C 236.584 87.96 243.3 94.676 243.3 102.96 C 243.3 111.244 236.584 117.96 228.3 117.96 C 220.016 117.96 213.3 111.244 213.3 102.96 C 213.3 94.676 220.016 87.96 228.3 87.96 Z M 228.3 110.34 C 232.401 110.241 235.655 106.854 235.589 102.753 C 235.524 98.652 232.163 95.37 228.061 95.402 C 223.96 95.435 220.651 98.768 220.65 102.87 C 220.649 104.883 221.461 106.811 222.901 108.217 C 224.341 109.623 226.288 110.389 228.3 110.34 Z " id="Shape" fill="#5e154d" stroke="#5e154d" stroke-width="1.44" stroke-linecap="round" stroke-linejoin="round"/><path d="M 231.015 100.155 C 231.71 100.851 232.14 101.811 232.14 102.87 C 232.14 103.929 231.71 104.889 231.015 105.585 C 230.319 106.28 229.359 106.71 228.3 106.71 C 227.241 106.71 226.281 106.28 225.585 105.585 C 224.89 104.889 224.46 103.929 224.46 102.87 C 224.46 101.811 224.89 100.851 225.585 100.155 C 226.281 99.46 227.241 99.03 228.3 99.03 C 229.359 99.03 230.319 99.46 231.015 100.155 Z " id="Oval" fill="#ffffff" stroke="#da53d6" stroke-width="1.08" stroke-linecap="round" stroke-linejoin="round"/></g><g data-paper-data="{&quot;index&quot;:null}" id="Tire-2"><path d="M 98.88 90.9 C 105.507 90.9 110.88 96.273 110.88 102.9 C 110.88 109.527 105.507 114.9 98.88 114.9 C 92.253 114.9 86.88 109.527 86.88 102.9 C 86.88 96.273 92.253 90.9 98.88 90.9 Z " id="Path" fill="#f7c1d8" stroke="none" stroke-width="1" stroke-linecap="butt" stroke-linejoin="miter"/><path d="M 98.88 87.96 C 107.164 87.96 113.88 94.676 113.88 102.96 C 113.88 111.244 107.164 117.96 98.88 117.96 C 90.596 117.96 83.88 111.244 83.88 102.96 C 83.88 94.676 90.596 87.96 98.88 87.96 Z M 98.88 110.34 C 101.901 110.34 104.625 108.52 105.781 105.729 C 106.938 102.937 106.298 99.724 104.162 97.588 C 102.026 95.452 98.813 94.812 96.021 95.969 C 93.23 97.125 91.41 99.849 91.41 102.87 C 91.402 104.854 92.186 106.758 93.589 108.161 C 94.992 109.564 96.896 110.348 98.88 110.34 Z " id="Shape" fill="#5e154d" stroke="#5e154d" stroke-width="1.44" stroke-linecap="round" stroke-linejoin="round"/><path d="M 101.595 100.155 C 102.29 100.851 102.72 101.811 102.72 102.87 C 102.72 103.929 102.29 104.889 101.595 105.585 C 100.899 106.28 99.939 106.71 98.88 106.71 C 97.821 106.71 96.861 106.28 96.165 105.585 C 95.47 104.889 95.04 103.929 95.04 102.87 C 95.04 101.811 95.47 100.851 96.165 100.155 C 96.861 99.46 97.821 99.03 98.88 99.03 C 99.939 99.03 100.899 99.46 101.595 100.155 Z " id="Oval" fill="#ffffff" stroke="#da53d6" stroke-width="1.08" stroke-linecap="round" stroke-linejoin="round"/></g><g data-paper-data="{&quot;index&quot;:null}" id="Tire-3"><path d="M 55.65 90.9 C 62.277 90.9 67.65 96.273 67.65 102.9 C 67.65 109.527 62.277 114.9 55.65 114.9 C 49.023 114.9 43.65 109.527 43.65 102.9 C 43.65 96.273 49.023 90.9 55.65 90.9 Z " id="Path" fill="#f7c1d8" stroke="none" stroke-width="1" stroke-linecap="butt" stroke-linejoin="miter"/><path d="M 55.65 87.96 C 63.934 87.96 70.65 94.676 70.65 102.96 C 70.65 111.244 63.934 117.96 55.65 117.96 C 47.366 117.96 40.65 111.244 40.65 102.96 C 40.65 98.982 42.23 95.166 45.043 92.353 C 47.856 89.54 51.672 87.96 55.65 87.96 Z M 55.65 110.34 C 59.776 110.34 63.12 106.996 63.12 102.87 C 63.12 98.744 59.776 95.4 55.65 95.4 C 51.524 95.4 48.18 98.744 48.18 102.87 C 48.18 106.996 51.524 110.34 55.65 110.34 Z " id="Shape" fill="#5e154d" stroke="#5e154d" stroke-width="1.44" stroke-linecap="round" stroke-linejoin="round"/><path d="M 58.455 100.155 C 59.15 100.851 59.58 101.811 59.58 102.87 C 59.58 103.929 59.15 104.889 58.455 105.585 C 57.759 106.28 56.799 106.71 55.74 106.71 C 54.681 106.71 53.721 106.28 53.025 105.585 C 52.33 104.889 51.9 103.929 51.9 102.87 C 51.9 101.811 52.33 100.851 53.025 100.155 C 53.721 99.46 54.681 99.03 55.74 99.03 C 56.799 99.03 57.759 99.46 58.455 100.155 Z " id="Oval" fill="#ffffff" stroke="#da53d6" stroke-width="1.08" stroke-linecap="round" stroke-linejoin="round"/></g><g data-paper-data="{&quot;index&quot;:null}" id="Group-3" stroke-linejoin="miter"><g id="Group-2"><path d="M 159.9 105.51 L 131.82 105.51 L 131.82 92.34 L 159.9 92.34 Z " id="Rectangle" fill="#fdbb38" stroke-width="1.44" stroke-linecap="butt" stroke="#5e154d"/><path d="M 151.62 92.34 L 151.62 105.51 " id="Path" fill="none" stroke-width="1.08" stroke-linecap="round" stroke="#5e154d"/><path d="M 140.07 105.51 L 140.07 92.34 " id="Path" fill="none" stroke-width="1.08" stroke-linecap="round" stroke="#5e154d"/></g><path d="M 185.19 92.34 L 0.72 92.34 L 0.72 82.95 L 185.19 82.95 Z " id="Rectangle" fill="#ffffff" stroke-width="1.44" stroke-linecap="round" stroke="#5e154d"/><path d="M 185.19 102.87 L 6.99 102.87 L 6.99 92.34 L 185.19 92.34 Z " id="Rectangle" fill="#fdbb38" stroke-width="1.44" stroke-linecap="butt" stroke="#5e154d"/></g><g data-paper-data="{&quot;index&quot;:null}" id="Group"><path d="M 261.9 65.88 L 241.65 54.48 L 240.72 50.07 C 240.72 50.07 258.99 60.18 262.92 62.4 C 267.39 64.89 267.36 67.05 267.36 72.36 L 267.36 102.87 L 264.18 102.87 L 264.18 72.06 C 264.12 69.36 264.03 67.14 261.9 65.88 Z " id="Path" fill="#25b0b7" stroke="none" stroke-width="1" stroke-linecap="butt" stroke-linejoin="miter"/><path d="M 225.69 10.5 C 230.04 10.5 231.9 11.67 232.92 16.23 C 233.13 17.31 233.64 19.47 234.24 22.23 L 230.55 22.23 C 229.314 22.246 228.316 23.244 228.3 24.48 L 228.3 45.81 C 228.3 47.058 229.303 48.074 230.55 48.09 L 240.18 48.09 L 240.66 50.07 L 241.65 54.48 L 261.96 65.88 C 264.09 67.08 264.18 69.36 264.18 72.06 L 264.18 102.87 L 247.29 102.87 C 247.29 92.564 238.936 84.21 228.63 84.21 C 218.324 84.21 209.97 92.564 209.97 102.87 L 185.25 102.87 L 185.25 10.5 Z " id="Path" fill="#43c3d7" stroke="none" stroke-width="1" stroke-linecap="butt" stroke-linejoin="miter"/><path d="M 203.94 57.48 L 194.58 57.48 L 194.58 53.94 L 203.94 53.94 Z " id="Rectangle" fill="none" stroke="#009cc6" stroke-width="1.08" stroke-linecap="round" stroke-linejoin="round"/><path d="M 256.83 92.37 L 250.83 92.37 L 250.83 89.04 L 256.83 89.04 Z " id="Rectangle" fill="none" stroke="#5e154d" stroke-width="1.44" stroke-linecap="round" stroke-linejoin="round"/><path d="M 192.87 17.19 L 220.65 17.19 C 222.068 17.206 223.214 18.352 223.23 19.77 L 223.23 79.47 C 214.525 80.855 207.611 87.529 205.92 96.18 L 192.84 96.18 C 191.422 96.164 190.276 95.018 190.26 93.6 L 190.26 19.77 C 190.276 18.34 191.44 17.19 192.87 17.19 Z " id="Path" fill="none" stroke="#009cc6" stroke-width="1.08" stroke-linecap="round" stroke-linejoin="round"/><path d="M 219.12 62.82 L 215.64 62.82 L 215.64 56.37 L 219.12 56.37 Z " id="Rectangle" fill="none" stroke="#009cc6" stroke-width="1.08" stroke-linecap="round" stroke-linejoin="round"/><path d="M 194.55 22.23 L 197.4 22.23 L 206.43 48.09 L 194.55 48.09 L 194.55 22.23 " id="Path" fill="#f7c1d8" stroke="none" stroke-width="1" stroke-linecap="butt" stroke-linejoin="miter"/><path d="M 219 22.23 L 219 48.09 L 215.34 48.09 L 206.31 22.23 L 219 22.23 " id="Path" fill="#f7c1d8" stroke="none" stroke-width="1" stroke-linecap="butt" stroke-linejoin="miter"/><path d="M 206.31 22.23 L 215.34 48.09 L 210.81 48.09 L 201.75 22.23 L 206.31 22.23 " id="Path" fill="#ffeef6" stroke="none" stroke-width="1" stroke-linecap="butt" stroke-linejoin="miter"/><path d="M 230.55 22.14 L 234.24 22.14 C 236.07 30.15 239.07 43.14 240.24 48 L 236.82 48 L 228.39 24 C 228.596 22.957 229.488 22.189 230.55 22.14 Z " id="Path" fill="#f7c1d8" stroke="none" stroke-width="1" stroke-linecap="butt" stroke-linejoin="miter"/><path d="M 234.24 48.09 L 230.55 48.09 C 229.303 48.074 228.3 47.058 228.3 45.81 L 228.3 30.48 Z " id="Path" fill="#f7c1d8" stroke="none" stroke-width="1" stroke-linecap="butt" stroke-linejoin="miter"/><path d="M 228.3 24.48 C 228.285 24.33 228.285 24.18 228.3 24.03 L 236.73 48.03 L 234.21 48.03 L 228.21 30.42 Z " id="Path" fill="#ffeef6" stroke="none" stroke-width="1" stroke-linecap="butt" stroke-linejoin="miter"/><path d="M 201.75 22.23 L 210.81 48.09 L 208.44 48.09 L 199.41 22.23 L 201.75 22.23 " id="Path" fill="#f7c1d8" stroke="none" stroke-width="1" stroke-linecap="butt" stroke-linejoin="miter"/><path d="M 199.41 22.23 L 208.44 48.09 L 206.43 48.09 L 197.4 22.23 L 199.41 22.23 " id="Path" fill="#ffeef6" stroke="none" stroke-width="1" stroke-linecap="butt" stroke-linejoin="miter"/><path d="M 239.88 16.32 C 241.14 16.32 241.44 17.64 242.16 20.04 C 243.15 23.37 244.83 29.76 244.83 29.76 L 240.18 29.76 L 236.88 16.32 Z " id="Path" fill="#43c3d7" stroke="#5e154d" stroke-width="1.08" stroke-linecap="round" stroke-linejoin="round"/><path d="M 236.88 16.32 L 237.75 19.8 L 233.7 19.8 L 232.92 16.32 L 236.88 16.32 " id="Path" fill="#43c3d7" stroke="#5e154d" stroke-width="1.08" stroke-linecap="round" stroke-linejoin="round"/><path d="M 225.69 10.5 C 230.04 10.5 231.9 11.67 232.92 16.23 C 233.13 17.31 233.64 19.47 234.24 22.23 C 236.07 30.24 239.07 43.23 240.24 48.09 L 240.72 50.07 C 240.72 50.07 258.99 60.18 262.92 62.4 C 267.39 64.89 267.36 67.05 267.36 72.36 L 267.36 102.87 L 247.29 102.87 C 247.29 92.564 238.936 84.21 228.63 84.21 C 218.324 84.21 209.97 92.564 209.97 102.87 L 185.25 102.87 L 185.25 10.5 Z " id="Path" fill="none" stroke="#5e154d" stroke-width="1.44" stroke-linecap="butt" stroke-linejoin="round"/><path d="M 219 48.09 L 194.55 48.09 L 194.55 22.23 L 219 22.23 Z " id="Rectangle" fill="none" stroke="#5e154d" stroke-width="1.08" stroke-linecap="round" stroke-linejoin="round"/><path d="M 225.69 10.5 C 230.04 10.5 231.9 11.67 232.92 16.23 C 233.13 17.31 233.64 19.47 234.24 22.23 C 236.07 30.24 239.07 43.23 240.24 48.09 L 240.72 50.07 C 240.72 50.07 258.99 60.18 262.92 62.4 C 267.39 64.89 267.36 67.05 267.36 72.36 L 267.36 102.87 L 247.29 102.87 C 247.29 92.564 238.936 84.21 228.63 84.21 C 218.324 84.21 209.97 92.564 209.97 102.87 L 185.25 102.87 L 185.25 10.5 Z " id="Path" fill="none" stroke="#5e154d" stroke-width="1.44" stroke-linecap="round" stroke-linejoin="round"/><path d="M 228.33 24.03 C 228.565 22.989 229.483 22.245 230.55 22.23 L 234.24 22.23 C 236.07 30.24 239.07 43.23 240.24 48.09 L 230.55 48.09 C 229.303 48.074 228.3 47.058 228.3 45.81 L 228.3 24.48 C 228.295 24.329 228.305 24.179 228.33 24.03 Z " id="Path" fill="none" stroke="#5e154d" stroke-width="1.08" stroke-linecap="round" stroke-linejoin="round"/><path d="M 269.55 94.8 L 269.55 97.59 L 256.32 97.59 L 255.72 94.8 L 269.55 94.8 " id="Path" fill="#00828c" stroke="#5e154d" stroke-width="1.08" stroke-linecap="round" stroke-linejoin="round"/><path d="M 269.55 100.05 L 256.83 100.05 L 256.32 97.59 L 269.55 97.59 L 269.55 100.05 " id="Path" fill="#00828c" stroke="#5e154d" stroke-width="1.08" stroke-linecap="round" stroke-linejoin="round"/><path d="M 255.21 92.34 L 269.55 92.34 L 269.55 94.8 L 255.72 94.8 L 255.21 92.34 " id="Path" fill="#00828c" stroke="#5e154d" stroke-width="1.08" stroke-linecap="round" stroke-linejoin="round"/><path d="M 267.3 77.1 L 269.55 77.1 C 271.29 77.1 272.04 79.65 272.34 82.23 L 267.3 82.23 Z " id="Path" fill="#fdbb38" stroke="none" stroke-width="1" stroke-linecap="butt" stroke-linejoin="miter"/><path d="M 272.34 82.14 C 272.541 83.842 272.611 85.557 272.55 87.27 L 267.3 87.27 L 267.3 82.14 Z " id="Path" fill="#ffffff" stroke="none" stroke-width="1" stroke-linecap="butt" stroke-linejoin="miter"/><path d="M 269.55 77.1 C 271.29 77.1 272.04 79.65 272.34 82.23 C 272.541 83.932 272.611 85.647 272.55 87.36 L 267.3 87.36 L 267.3 77.1 Z " id="Path" fill="none" stroke="#5e154d" stroke-width="1.44" stroke-linecap="round" stroke-linejoin="round"/></g><g data-paper-data="{&quot;index&quot;:null}" id="Back-of-Truck"><path d="M 5.43 11.91 C 5.43 3.72 9.09 0.72 14.88 0.72 L 181.23 0.72 L 181.23 82.53 L 5.43 82.53 Z " id="Path" fill="#da53d6" stroke="none" stroke-width="1" stroke-linecap="butt" stroke-linejoin="miter"/><path d="M 5.43 11.91 C 5.43 3.72 9.09 0.72 14.88 0.72 L 181.23 0.72 L 181.23 82.53 L 5.43 82.53 Z " id="Path" fill="none" stroke="#5e154d" stroke-width="1.44" stroke-linecap="round" stroke-linejoin="round"/><path d="M 5.43 16.77 L 181.23 16.77 " id="Path" fill="none" stroke="#fc9fe4" stroke-width="1.44" stroke-linecap="butt" stroke-linejoin="round"/><path d="M 5.43 33.51 L 181.23 33.51 " id="Path" fill="none" stroke="#fc9fe4" stroke-width="1.44" stroke-linecap="butt" stroke-linejoin="round"/><path d="M 181.23 50.25 L 5.43 50.25 " id="Path" fill="none" stroke="#fc9fe4" stroke-width="1.44" stroke-linecap="butt" stroke-linejoin="round"/><path d="M 181.23 66.99 L 5.43 66.99 " id="Path" fill="none" stroke="#fc9fe4" stroke-width="1.44" stroke-linecap="butt" stroke-linejoin="round"/><path d="M 10.11 12.72 L 10.11 10.38 C 9.955 8.878 10.502 7.388 11.593 6.344 C 12.684 5.3 14.196 4.819 15.69 5.04 L 18.9 5.04 " id="Path" fill="none" stroke="#ffffff" stroke-width="1.8" stroke-linecap="round" stroke-linejoin="round"/><path d="M 185.19 82.53 L 181.23 82.53 L 181.23 14.7 L 185.19 14.7 Z " id="Rectangle" fill="#5e154d" stroke="#5e154d" stroke-width="1.08" stroke-linecap="round" stroke-linejoin="round"/></g></g></g></svg>