<svg version="1.1" xmlns="http://www.w3.org/2000/svg" xmlns:xlink="http://www.w3.org/1999/xlink" width="160.69945" height="95.48052" viewBox="0,0,160.69945,95.48052"><defs><radialGradient cx="235.97977" cy="170.88125" r="8.12482" gradientUnits="userSpaceOnUse" id="color-1"><stop offset="0" stop-color="#00bfba"/><stop offset="1" stop-color="#2100bf"/></radialGradient></defs><g transform="translate(-159.65027,-132.25974)"><g data-paper-data="{&quot;isPaintingLayer&quot;:true}" fill-rule="nonzero" stroke-linejoin="miter" stroke-miterlimit="10" stroke-dasharray="" stroke-dashoffset="0" style="mix-blend-mode: normal"><path d="M159.65028,227.74026v-95.48052h160.69945v95.48052z" fill="#59ad0d" stroke="none" stroke-width="0" stroke-linecap="butt"/><g><path d="M193.21778,189.13848c0,0 -1.60285,-4.14282 -1.44994,-8.97768c0.15423,-4.66792 1.91326,-9.86974 1.91326,-9.86974c0,0 0.69158,-5.13467 0.91246,-6.35218c0.09421,-0.51934 0.2948,-1.41218 0.8485,-2.19057c0.58141,-0.81736 1.69684,-1.68493 1.69684,-1.68493c0,0 6.04275,-0.85256 9.89564,-0.85256c4.01777,0 12.09887,1.02896 12.09887,1.02896l41.54308,0.28664c0,0 7.17219,-1.23962 9.73525,-1.28121c2.21303,-0.03591 8.75228,0.86979 8.75228,0.86979c0,0 2.85424,1.24224 3.92703,1.85487c1.07581,0.90467 1.59436,2.1581 1.59436,2.1581l1.6458,5.81366c0,0 1.91125,3.39594 1.91125,10.08386c0,6.61932 -2.01743,9.77516 -2.01743,9.77516l-1.64097,5.57044c0,0 -0.41015,1.39033 -1.22189,2.00596c-0.94424,0.71614 -4.65251,2.21146 -4.65251,2.21146c0,0 -5.51931,1.19231 -8.02334,1.21561c-2.5651,0.02387 -9.91881,-0.89772 -9.91881,-0.89772l-41.3307,-0.12495c0,0 -7.8412,1.02896 -11.97753,1.02896c-3.75484,0 -10.81585,-1.02896 -10.81585,-1.02896c0,0 -1.0927,-0.74647 -1.35893,-1.49171c-0.25883,-0.72454 -0.68092,-1.57763 -0.78065,-2.12427c-0.2053,-1.12535 -1.28605,-7.02698 -1.28605,-7.02698z" fill="#517fcd" stroke="#000000" stroke-width="0.5" stroke-linecap="round"/><path d="M245.08196,169.48529c0,0 0.99392,-1.96976 3.06381,-2.65538c2.39688,-0.79392 10.48089,-2.65431 10.48089,-2.65431c0,0 2.96709,0.37871 4.17474,4.04622c1.00424,3.04977 1.32569,9.20421 1.30336,11.65703c-0.02162,2.37644 -0.37151,9.1453 -1.25889,12.22545c-1.14384,3.97038 -3.92316,4.03782 -3.92316,4.03782c0,0 -8.54626,-2.35435 -10.72942,-3.09742c-2.40828,-0.81969 -3.11133,-2.23083 -3.11133,-2.23083z" fill="#4c5e73" stroke="#000000" stroke-width="0.5" stroke-linecap="round"/><path d="M199.5952,199.21632l-1.7155,-0.66994c0,0 -0.68856,-0.5528 -1.63099,-1.80785c-1.0481,-1.47278 -2.15405,-4.1693 -1.81792,-4.01063c0.43927,0.20737 2.36213,4.54612 3.94815,4.75471c4.0786,0.53638 11.77845,0.86445 19.59561,0.76767c5.8064,-0.07188 10.4464,0.12211 15.49124,0.06203c10.68046,-0.12719 19.75321,-0.38689 19.75321,-0.38689c0,0 9.68781,-1.24608 13.87698,-2.63381c5.94727,-1.97014 18.33052,-8.59393 18.33052,-8.59393c0,0 -2.17434,5.79354 -3.22918,7.34889c-1.17338,1.73012 -5.51391,3.91049 -5.51391,3.91049c0,0 -3.38913,0.18305 -6.62181,0.29476c-4.25841,0.14716 -16.7103,0.51149 -16.7103,0.51149c0,0 -12.32311,0.2024 -19.77305,0.25741c-2.64993,0.01957 -7.85832,-0.21742 -13.24907,-0.02053c-4.68333,0.17104 -9.27979,0.77965 -12.6803,0.79168c-7.17653,0.0254 -8.05367,-0.57555 -8.05367,-0.57555z" data-paper-data="{&quot;index&quot;:null}" fill="#ffffff" stroke="none" stroke-width="0" stroke-linecap="round"/><path d="M256.28102,197.07609c0,0 -14.08097,0.8895 -18.38592,0.93612c-7.00018,0.07581 -19.61718,-0.52453 -19.61718,-0.52453c0,0 -1.69889,-0.07195 -2.32503,-0.24726c-0.47469,-0.13291 -1.69284,-0.6396 -1.69284,-0.6396l-0.74521,-1.0352c0,0 1.52012,-0.53227 3.41151,-1.15434c1.91592,-0.63012 4.11772,-1.24948 6.83802,-1.60393c3.83728,-0.49999 6.62674,-0.51354 10.52733,-0.30962c3.85032,0.02552 10.14833,1.38064 10.14833,1.38064c0,0 9.48283,2.2979 11.36755,2.81782c2.07552,0.57256 0.47346,0.37989 0.47346,0.37989z" fill="#4c5e73" stroke="#000000" stroke-width="0.5" stroke-linecap="round"/><path d="M255.56061,163.01311c-1.88472,0.51993 -11.36755,2.81782 -11.36755,2.81782c0,0 -6.298,1.35512 -10.14833,1.38064c-3.9006,0.20392 -6.69004,0.19039 -10.52733,-0.3096c-2.7203,-0.35445 -4.92209,-0.9738 -6.83802,-1.60393c-1.89139,-0.62206 -3.41151,-1.15434 -3.41151,-1.15434l0.74521,-1.0352c0,0 1.21815,-0.5067 1.69284,-0.6396c0.62613,-0.17532 2.32503,-0.24726 2.32503,-0.24726c0,0 12.61701,-0.60034 19.61718,-0.52453c4.30496,0.04662 18.38593,0.93612 18.38593,0.93612c0,0 1.60206,-0.19267 -0.47346,0.37989z" data-paper-data="{&quot;index&quot;:null}" fill="#4c5e73" stroke="#000000" stroke-width="0.5" stroke-linecap="round"/><path d="M199.5952,160.72671c0,0 0.87715,-0.60093 8.05367,-0.57553c3.40051,0.01204 7.99697,0.62064 12.6803,0.79168c5.39074,0.19687 10.59914,-0.0401 13.24907,-0.02053c7.44994,0.055 19.77305,0.2574 19.77305,0.2574c0,0 12.45189,0.36433 16.7103,0.51149c3.23268,0.11171 6.62181,0.29476 6.62181,0.29476c0,0 4.34053,2.18037 5.51391,3.91049c1.05484,1.55535 3.22918,7.34889 3.22918,7.34889c0,0 -12.38324,-6.62379 -18.33052,-8.59393c-4.18916,-1.38774 -13.87698,-2.63383 -13.87698,-2.63383c0,0 -9.07274,-0.25969 -19.75321,-0.38689c-5.04484,-0.06008 -9.68484,0.1339 -15.49124,0.06202c-7.81717,-0.09678 -15.51701,0.23129 -19.59561,0.76767c-1.58602,0.20859 -3.50889,4.54734 -3.94815,4.75471c-0.33613,0.15868 0.76982,-2.53784 1.81792,-4.01062c0.94243,-1.25505 1.63099,-1.80785 1.63099,-1.80785l1.7155,-0.66994z" fill="#ffffff" stroke="none" stroke-width="0" stroke-linecap="round"/><path d="M216.27413,170.68324l-0.41878,18.72717c0,0 0.08857,0.8092 -0.73308,1.24608c-2.12039,1.12745 -6.74737,2.68722 -8.19855,3.08656c-1.90679,0.52472 -2.42791,-0.47402 -2.42791,-0.47402c0,0 -2.14442,-3.10048 -2.58902,-13.58102c0.96806,-10.50673 2.74605,-13.73801 2.74605,-13.73801c0,0 0.45692,-0.82935 1.96251,-0.46942c1.53298,0.36648 6.24388,2.25966 8.55618,3.65488c0.91602,0.55271 1.10257,1.54778 1.10257,1.54778z" fill="#4c5e73" stroke="#000000" stroke-width="0.5" stroke-linecap="round"/><path d="M197.46709,195.95177c0,0 -1.7151,-1.74461 -2.79994,-3.76958c-1.16055,-2.16631 -1.80235,-4.08798 -1.80235,-4.08798" fill="none" stroke="#000000" stroke-width="0.5" stroke-linecap="round"/><path d="M193.42606,170.8076c0,0 0.6418,-1.92167 1.80235,-4.08796c1.08483,-2.02497 2.79994,-3.76958 2.79994,-3.76958" data-paper-data="{&quot;index&quot;:null}" fill="none" stroke="#000000" stroke-width="0.5" stroke-linecap="round"/><path d="M261.02417,165.03416c0,0 0.66721,-1.1395 1.03223,-1.52039c0.29705,-0.30996 1.16094,-0.84329 1.16094,-0.84329c0,0 0.71017,-0.16594 1.49532,-0.06891c2.27864,0.28157 14.88843,1.41882 14.88843,1.41882c0,0 1.26153,0.40684 1.47428,1.20958c0.80032,3.01965 2.34194,10.72551 2.37475,14.98209c0.02945,3.82044 -1.84625,11.52867 -2.67938,14.88262c-0.32037,1.28973 -1.20764,1.2493 -1.20764,1.2493c0,0 -12.32485,0.85232 -14.60349,1.13389c-0.78515,0.09703 -1.49532,-0.06891 -1.49532,-0.06891c0,0 -0.8639,-0.53333 -1.16094,-0.84329c-0.36502,-0.38089 -0.86759,-1.27344 -0.86759,-1.27344" fill="none" stroke="#000000" stroke-width="0.25" stroke-linecap="round"/><path d="M282.40865,196.83173c0,0 -1.47039,0.76748 -2.18513,1.03551c-0.51477,0.19304 -1.52679,0.4345 -1.98094,0.46211c-0.29784,0.0181 -0.16383,-0.15173 -0.16383,-0.15173c0,0 2.82205,-1.09912 4.06389,-2.62159c1.18374,-1.45125 3.38582,-6.14519 3.38582,-6.14519c0,0 -0.9902,3.21488 -1.45459,4.46431c-0.19808,0.53291 -0.49519,1.3205 -0.83287,1.86369c-0.31859,0.51247 -0.83235,1.09288 -0.83235,1.09288z" fill="#ffffff" stroke="#000000" stroke-width="0.25" stroke-linecap="round"/><path d="M282.61445,163.33352c0,0 0.51375,0.58041 0.83235,1.09288c0.33768,0.54319 0.6348,1.33079 0.83287,1.86369c0.46439,1.24943 1.45459,4.46431 1.45459,4.46431c0,0 -2.20208,-4.69395 -3.38583,-6.14519c-1.24183,-1.52247 -4.06389,-2.62159 -4.06389,-2.62159c0,0 -0.13401,-0.16983 0.16383,-0.15171c0.45414,0.02761 1.46616,0.26907 1.98094,0.46211c0.71474,0.26803 2.18513,1.03551 2.18513,1.03551z" data-paper-data="{&quot;index&quot;:null}" fill="#ffffff" stroke="#000000" stroke-width="0.25" stroke-linecap="round"/><path d="M256.31175,196.85118l-0.4939,1.54345c0,0 0.41713,0.90036 0.13832,1.25041c-0.25652,0.32207 -0.75166,1.5595 -1.46993,2.18289c-1.05299,0.91391 -2.18746,1.46457 -2.18746,1.46457l-0.90549,-0.12348c0,0 -0.59252,-0.36602 -0.39884,-0.84683c0.32165,-0.79848 1.46895,-3.31019 1.46895,-3.31019c0,0 0.41745,-0.71215 0.72064,-0.8691c0.3542,-0.18334 1.21372,-0.16411 1.21372,-0.16411l0.30869,-1.54345z" fill="#517fcd" stroke="#000000" stroke-width="0.5" stroke-linecap="round"/><path d="M254.02051,163.56465l-0.30869,-1.54345c0,0 -0.85952,0.01923 -1.21372,-0.16411c-0.30319,-0.15695 -0.72064,-0.8691 -0.72064,-0.8691c0,0 -1.1473,-2.51172 -1.46895,-3.31019c-0.1937,-0.48081 0.39884,-0.84683 0.39884,-0.84683l0.90549,-0.12348c0,0 1.13447,0.55067 2.18746,1.46457c0.71826,0.62339 1.21341,1.86082 1.46993,2.18289c0.27881,0.35005 -0.13833,1.25041 -0.13833,1.25041l0.4939,1.54345z" data-paper-data="{&quot;index&quot;:null}" fill="#517fcd" stroke="#000000" stroke-width="0.5" stroke-linecap="round"/><path d="M287.93157,175.81427c0,0 -3.81253,-1.26275 -5.46158,-1.85641c-1.77198,-0.63791 -5.78844,-3.21982 -5.78844,-3.21982" fill="none" stroke="#000000" stroke-width="0.5" stroke-linecap="round"/><path d="M276.54436,189.25942c0,0 4.01646,-2.5819 5.78844,-3.21982c1.64906,-0.59366 5.46158,-1.85641 5.46158,-1.85641" data-paper-data="{&quot;index&quot;:null}" fill="none" stroke="#000000" stroke-width="0.5" stroke-linecap="round"/><path d="M269.35641,194.87974c0,0 -4.31632,1.48788 -6.52566,1.87223c-1.73423,0.3017 -6.66381,0.92002 -6.66381,0.92002" fill="none" stroke="#000000" stroke-width="0.5" stroke-linecap="round"/><path d="M255.35624,162.32704c0,0 4.92957,0.61832 6.66381,0.92001c2.20934,0.38434 6.52566,1.87223 6.52566,1.87223" data-paper-data="{&quot;index&quot;:null}" fill="none" stroke="#000000" stroke-width="0.5" stroke-linecap="round"/><path d="M196.72611,164.60368h4.08842c0,0 1.49901,0.36046 2.09921,0.64974c0.8354,0.40263 1.46787,0.99661 1.46787,0.99661" fill="none" stroke="#000000" stroke-width="0.25" stroke-linecap="round"/><path d="M204.17583,193.00313c0,0 -0.63247,0.59398 -1.46787,0.99661c-0.60022,0.28927 -2.09921,0.64974 -2.09921,0.64974h-4.08842" data-paper-data="{&quot;index&quot;:null}" fill="none" stroke="#000000" stroke-width="0.25" stroke-linecap="round"/><path d="M215.66774,197.1309c0,0 -2.52444,0.54045 -5.05446,0.2382c-1.76433,-0.14927 -4.2023,-0.90502 -4.94575,-1.38016c-1.69151,-1.08104 -2.15454,-4.86427 -2.15454,-4.86427" fill="none" stroke="#000000" stroke-width="0.5" stroke-linecap="round"/><path d="M203.83694,168.35595c0,0 0.43725,-3.57259 2.03457,-4.59344c0.70206,-0.44869 3.00429,-1.16235 4.67039,-1.30332c2.38915,-0.28543 4.77303,0.22492 4.77303,0.22492" data-paper-data="{&quot;index&quot;:null}" fill="none" stroke="#000000" stroke-width="0.5" stroke-linecap="round"/><path d="M216.46851,162.40856l0.41159,-2.19513" fill="none" stroke="#000000" stroke-width="0.25" stroke-linecap="round"/><path d="M216.74291,197.39337l0.68597,2.46952" fill="none" stroke="#000000" stroke-width="0.25" stroke-linecap="round"/><path d="M223.58998,160.2299l-0.86539,0.03166c0,0 -1.00986,-0.58724 -1.60143,-0.53668c-0.89594,-0.05337 -0.76586,-0.08495 -1.31428,-0.04109c-0.7105,0.05682 -1.54842,0.41946 -1.54842,0.41946l-1.00159,-0.15237c0,0 0.83692,-0.44529 1.7259,-0.64922c0.85966,-0.19722 1.76302,-0.1537 2.29421,-0.13029c1.02718,0.04527 2.311,1.05852 2.311,1.05852z" fill="#5285cc" stroke="#000000" stroke-width="0.25" stroke-linecap="round"/><path d="M240.53985,160.37583l-0.86539,0.03166c0,0 -1.00986,-0.58724 -1.60143,-0.53668c-0.89594,-0.05337 -0.76586,-0.08495 -1.31428,-0.04109c-0.7105,0.05682 -1.54841,0.41946 -1.54841,0.41946l-1.0016,-0.15236c0,0 0.83692,-0.44529 1.7259,-0.64922c0.85966,-0.19722 1.76302,-0.1537 2.29421,-0.13029c1.02718,0.04527 2.311,1.05852 2.311,1.05852z" fill="#5285cc" stroke="#000000" stroke-width="0.25" stroke-linecap="round"/><path d="M222.66809,200.97907c-0.53118,0.02341 -1.43454,0.06692 -2.29421,-0.13029c-0.88898,-0.20393 -1.7259,-0.64922 -1.7259,-0.64922l1.00159,-0.15236c0,0 0.83791,0.36264 1.54842,0.41946c0.54842,0.04387 0.41834,0.01226 1.31428,-0.04109c0.59157,0.05056 1.60143,-0.53666 1.60143,-0.53666l0.86539,0.03166c0,0 -1.28382,1.01325 -2.311,1.05852z" data-paper-data="{&quot;index&quot;:null}" fill="#5281cc" stroke="#000000" stroke-width="0.25" stroke-linecap="round"/><path d="M239.30927,200.98749c-0.53118,0.02341 -1.43454,0.06692 -2.29421,-0.13029c-0.88898,-0.20393 -1.7259,-0.64922 -1.7259,-0.64922l1.0016,-0.15237c0,0 0.83791,0.36264 1.54841,0.41946c0.54842,0.04387 0.41834,0.01227 1.31428,-0.04109c0.59157,0.05056 1.60143,-0.53666 1.60143,-0.53666l0.86539,0.03166c0,0 -1.28382,1.01325 -2.311,1.05852z" data-paper-data="{&quot;index&quot;:null}" fill="#5281cc" stroke="#000000" stroke-width="0.25" stroke-linecap="round"/><path d="M234.2782,199.7943l-0.46303,-1.85214" fill="none" stroke="#000000" stroke-width="0.25" stroke-linecap="round"/><path d="M233.35213,160.59071l-0.46303,1.3891" fill="none" stroke="#000000" stroke-width="0.25" stroke-linecap="round"/><path d="M194.13312,193.55877c0,0 1.56082,2.81017 2.15017,3.62621c0.42892,0.59391 0.59717,0.76746 0.59717,0.76746c0,0 0.43078,0.39738 0.90414,0.6724c0.51522,0.29934 1.08085,0.48223 1.19625,0.5852c0.22443,0.20025 0.06044,0.29613 0.06044,0.29613l-2.0888,-0.87463c0,0 -0.45491,-0.35591 -0.79807,-0.77579c-0.27976,-0.3423 -0.48494,-0.70985 -0.68157,-1.10311c-0.46591,-0.93184 -1.33971,-3.1939 -1.33971,-3.1939z" fill="#650000" stroke="#000000" stroke-width="0.25" stroke-linecap="round"/><path d="M195.58508,162.99251c0.19662,-0.39326 0.4018,-0.76081 0.68157,-1.10311c0.34318,-0.41988 0.79807,-0.77579 0.79807,-0.77579l2.0888,-0.87463c0,0 0.16399,0.09588 -0.06044,0.29613c-0.1154,0.10297 -0.68104,0.28586 -1.19626,0.5852c-0.47334,0.27502 -0.90414,0.6724 -0.90414,0.6724c0,0 -0.16824,0.17356 -0.59715,0.76746c-0.58936,0.81604 -2.15018,3.62621 -2.15018,3.62621c0,0 0.8738,-2.26206 1.33971,-3.1939z" data-paper-data="{&quot;index&quot;:null}" fill="#670000" stroke="#000000" stroke-width="0.25" stroke-linecap="round"/><text transform="translate(280.13295,184.7472) rotate(-89.56776) scale(0.06792,0.05997) skewX(-0.10792)" font-size="40" xml:space="preserve" data-paper-data="{&quot;index&quot;:null}" fill="#ffffff" fill-rule="nonzero" stroke="none" stroke-width="1" stroke-linecap="butt" stroke-linejoin="miter" stroke-miterlimit="10" stroke-dasharray="" stroke-dashoffset="0" font-family="Sans Serif" font-weight="normal" text-anchor="start" style="mix-blend-mode: normal"><tspan x="0" dy="0">POLIZIA</tspan></text><path d="M232.92982,188.29775v-16.51489c0,0 0.27117,-0.33929 0.69085,-0.38474c1.21315,-0.13139 3.66717,-0.0783 4.39915,-0.0783c0.42105,0 0.74715,0.46303 0.74715,0.46303v16.51489c0,0 -0.21965,0.38586 -0.66998,0.38586c-0.70431,0 -3.12017,0.11856 -4.40573,0.00522c-0.54587,-0.04812 -0.76144,-0.39108 -0.76144,-0.39108z" fill="#0010ca" stroke="#000000" stroke-width="0.5" stroke-linecap="butt"/><path d="M234.98042,186.77619v-12.81062c0,0 0.04156,-0.32261 0.32893,-0.4169c0.35645,-0.11696 0.84633,-0.05801 1.03939,-0.05801c0.27839,0 0.56099,0.4749 0.56099,0.4749v12.81062c0,0 -0.25157,0.19985 -0.50863,0.2631c-0.31584,0.07772 -0.66414,0.02184 -0.85969,0.02184c-0.25458,0 -0.56099,-0.28495 -0.56099,-0.28495z" fill="#ffffff" stroke="#000000" stroke-width="0.5" stroke-linecap="butt"/><path d="M233.11938,175.90675h1.56719" fill="none" stroke="#000000" stroke-width="0.5" stroke-linecap="round"/><path d="M237.01361,175.95425h1.32974" fill="none" stroke="#000000" stroke-width="0.5" stroke-linecap="round"/><path d="M238.58081,184.88249h-1.37724" fill="none" stroke="#000000" stroke-width="0.5" stroke-linecap="round"/><path d="M233.26184,184.88251l1.5197,-0.00001" fill="none" stroke="#000000" stroke-width="0.5" stroke-linecap="round"/><path d="M243.8989,170.88125c0,4.48721 -3.54551,8.12482 -7.91912,8.12482c-4.37361,0 -7.91912,-3.63761 -7.91912,-8.12482c0,-4.48721 3.54551,-8.12482 7.91912,-8.12482c4.37361,0 7.91912,3.6376 7.91912,8.12482z" fill="url(#color-1)" stroke="none" stroke-width="0" stroke-linecap="butt"/></g></g></g></svg>