<svg version="1.1" xmlns="http://www.w3.org/2000/svg" xmlns:xlink="http://www.w3.org/1999/xlink" width="482.85714" height="361.02129" viewBox="0,0,482.85714,361.02129"><defs><linearGradient x1="402.20933" y1="241.7483" x2="404.20487" y2="249.48899" gradientUnits="userSpaceOnUse" id="color-1"><stop offset="0" stop-color="#1a1a1a"/><stop offset="1" stop-color="#f30000" stop-opacity="0"/></linearGradient><linearGradient x1="393.26598" y1="235.919" x2="395.36408" y2="239.15335" gradientUnits="userSpaceOnUse" id="color-2"><stop offset="0" stop-color="#1a1a1a"/><stop offset="1" stop-color="#f30000" stop-opacity="0"/></linearGradient><linearGradient x1="395.71939" y1="235.05574" x2="405.51361" y2="253.73006" gradientUnits="userSpaceOnUse" id="color-3"><stop offset="0" stop-color="#1a1a1a"/><stop offset="1" stop-color="#f30000" stop-opacity="0"/></linearGradient><linearGradient x1="395.50111" y1="230.88509" x2="395.94337" y2="235.83882" gradientUnits="userSpaceOnUse" id="color-4"><stop offset="0" stop-color="#1a1a1a"/><stop offset="1" stop-color="#f30000" stop-opacity="0"/></linearGradient><linearGradient x1="401.08021" y1="233.73228" x2="394.9309" y2="255.07007" gradientUnits="userSpaceOnUse" id="color-5"><stop offset="0" stop-color="#1a1a1a"/><stop offset="1" stop-color="#f30000" stop-opacity="0"/></linearGradient><linearGradient x1="399.16709" y1="240.69495" x2="412.53024" y2="260.86656" gradientUnits="userSpaceOnUse" id="color-6"><stop offset="0" stop-color="#1a1a1a"/><stop offset="1" stop-color="#f30000" stop-opacity="0"/></linearGradient><linearGradient x1="406.10831" y1="244.39933" x2="415.83213" y2="261.73962" gradientUnits="userSpaceOnUse" id="color-7"><stop offset="0" stop-color="#1a1a1a"/><stop offset="1" stop-color="#f30000" stop-opacity="0"/></linearGradient></defs><g transform="translate(1.42857,0.51064)"><g data-paper-data="{&quot;isPaintingLayer&quot;:true}" stroke-dasharray="" stroke-dashoffset="0" style="mix-blend-mode: normal"><path d="M-1.42857,360.51066v-361.02129h482.85714v361.02129z" fill="#000000" fill-rule="nonzero" stroke="#ff0000" stroke-width="0" stroke-linecap="butt" stroke-linejoin="miter" stroke-miterlimit="10"/><text transform="translate(183.63002,42.62647) scale(0.5,0.5)" font-size="40" xml:space="preserve" fill="#ffffff" fill-rule="nonzero" stroke="none" stroke-width="1" stroke-linecap="butt" stroke-linejoin="miter" stroke-miterlimit="10" stroke-dasharray="" stroke-dashoffset="0" font-family="Sans Serif" font-weight="normal" text-anchor="start" style="mix-blend-mode: normal"><tspan x="0" dy="0">Welcome to</tspan></text><text transform="translate(95.43005,67.05182) scale(0.5,0.5)" font-size="40" xml:space="preserve" fill="#ffffff" fill-rule="nonzero" stroke="none" stroke-width="1" stroke-linecap="butt" stroke-linejoin="miter" stroke-miterlimit="10" stroke-dasharray="" stroke-dashoffset="0" font-family="Sans Serif" font-weight="normal" text-anchor="start" style="mix-blend-mode: normal"><tspan x="0" dy="0">Räuber und Gerdam Autospiel</tspan></text><text transform="translate(37.48479,122.75747) scale(0.5,0.5)" font-size="40" xml:space="preserve" fill="#ffffff" fill-rule="nonzero" stroke="none" stroke-width="1" stroke-linecap="butt" stroke-linejoin="miter" stroke-miterlimit="10" stroke-dasharray="" stroke-dashoffset="0" font-family="Sans Serif" font-weight="normal" text-anchor="start" style="mix-blend-mode: normal"><tspan x="0" dy="0">Controls:</tspan></text><path d="M325.51553,305.64135h115.99171v-18l30,30l-30,30v-18h-115.99171z" fill="#000000" fill-rule="nonzero" stroke="#ffffff" stroke-width="3.5" stroke-linecap="butt" stroke-linejoin="miter" stroke-miterlimit="10"/><text transform="translate(328.65103,324.0338) scale(0.5,0.5)" font-size="40" xml:space="preserve" fill="#ffffff" fill-rule="nonzero" stroke="none" stroke-width="1" stroke-linecap="butt" stroke-linejoin="miter" stroke-miterlimit="10" stroke-dasharray="" stroke-dashoffset="0" font-family="Sans Serif" font-weight="normal" text-anchor="start" style="mix-blend-mode: normal"><tspan x="0" dy="0">Next</tspan></text><text transform="translate(193.5602,108.27429) scale(0.5,0.5)" font-size="40" xml:space="preserve" fill="#ffffff" fill-rule="nonzero" stroke="none" stroke-width="1" stroke-linecap="butt" stroke-linejoin="miter" stroke-miterlimit="10" stroke-dasharray="" stroke-dashoffset="0" font-family="Sans Serif" font-weight="normal" text-anchor="start" style="mix-blend-mode: normal"><tspan x="0" dy="0">Press the Actionbutton (right)</tspan><tspan x="0" dy="46.150000000000006px">to redeem a blue Boost</tspan></text><g><path d="M381.19582,213.50926c7.1888,-1.0672 14.2967,-0.79467 21.15114,0.99182l2.26292,0.59145l-2.03048,1.15552c-8.15276,4.60583 -17.47417,4.30145 -21.97354,-1.19402l-1.06366,-1.29933z" data-paper-data="{&quot;index&quot;:null}" fill="#4d4d4d" fill-rule="nonzero" stroke="#4d4d4d" stroke-width="1" stroke-linecap="butt" stroke-linejoin="miter" stroke-miterlimit="4"/><path d="M418.89158,268.47639c0,0 -20.30725,-17.97286 -27.43524,-23.39928c-7.44429,-5.66721 -28.25866,-20.33684 -28.25866,-20.33684c0,0 13.2524,-5.0941 21.35272,-1.82981c28.77071,11.59412 55.95871,54.63152 55.95871,54.63152" data-paper-data="{&quot;index&quot;:null}" fill="none" fill-rule="nonzero" stroke="#292929" stroke-width="1.5" stroke-linecap="round" stroke-linejoin="round" stroke-miterlimit="4" opacity="0.5"/><path d="M398.74222,246.08567c2.21992,-3.16152 8.04754,-2.94329 13.43683,0.33321l3.47559,3.07145c-0.50638,-0.29513 -0.90934,-0.541 -1.05842,-0.64639c-4.65593,-3.29271 -12.23012,-4.47969 -14.61257,-1.08677c-0.28773,0.40981 -0.49589,0.85682 -0.64001,1.33387l-1.43017,-0.80923c0.09987,-0.80532 0.37378,-1.54828 0.82876,-2.19619z" data-paper-data="{&quot;index&quot;:null}" fill="url(#color-1)" fill-rule="nonzero" stroke="none" stroke-width="1" stroke-linecap="butt" stroke-linejoin="miter" stroke-miterlimit="10"/><path d="M395.99562,244.50744c2.21992,-3.16153 8.04757,-2.9433 13.43686,0.33319l3.47559,3.07146c-0.50638,-0.29515 -0.90933,-0.54096 -1.05844,-0.6464c-4.65593,-3.29271 -12.2301,-4.47969 -14.61256,-1.08677c-0.28773,0.4098 -0.4959,0.85683 -0.64001,1.33388l-1.43014,-0.80921c0.09987,-0.80534 0.37378,-1.54828 0.82876,-2.1962z" data-paper-data="{&quot;index&quot;:null}" fill="url(#color-2)" fill-rule="nonzero" stroke="none" stroke-width="1" stroke-linecap="butt" stroke-linejoin="miter" stroke-miterlimit="10"/><path d="M394.51255,243.05163c2.21992,-3.16157 8.04754,-2.94331 13.43683,0.33322l3.47559,3.07145c-0.50639,-0.29513 -0.90935,-0.54098 -1.05842,-0.64639c-4.65593,-3.29271 -12.23014,-4.47968 -14.61257,-1.08676c-0.28773,0.4098 -0.4959,0.85683 -0.64001,1.33387l-1.43014,-0.80923c0.09987,-0.80534 0.37378,-1.54828 0.82876,-2.1962z" data-paper-data="{&quot;index&quot;:null}" fill="url(#color-3)" fill-rule="nonzero" stroke="none" stroke-width="1" stroke-linecap="butt" stroke-linejoin="miter" stroke-miterlimit="10"/><path d="M391.11762,238.77394c3.8131,-3.63948 11.78388,-1.48955 17.94339,4.78572l10.67067,9.2775l-1.13717,0.72885c-0.64144,-0.86221 -7.33041,-6.48836 -8.10901,-7.30964c-5.06164,-5.33893 -14.34758,-8.75323 -18.21658,-5.06026c-0.46726,0.446 -0.8462,0.95891 -1.14874,1.52619l-1.60152,-1.38001c0.32925,-0.99378 0.8602,-1.86312 1.599,-2.56827z" data-paper-data="{&quot;index&quot;:null}" fill="url(#color-4)" fill-rule="nonzero" stroke="none" stroke-width="1" stroke-linecap="butt" stroke-linejoin="miter" stroke-miterlimit="10"/><path d="M391.11762,238.77394c3.8131,-3.63948 11.78388,-1.48955 17.94339,4.78572l10.67067,9.2775l-1.13717,0.72885c-0.64144,-0.86221 -7.33041,-6.48836 -8.10901,-7.30964c-5.06164,-5.33893 -14.34758,-8.75323 -18.21658,-5.06026c-0.46726,0.446 -0.8462,0.95891 -1.14874,1.52619l-1.60152,-1.38001c0.32925,-0.99378 0.8602,-1.86312 1.599,-2.56827z" data-paper-data="{&quot;index&quot;:null}" fill="url(#color-5)" fill-rule="nonzero" stroke="none" stroke-width="1" stroke-linecap="butt" stroke-linejoin="miter" stroke-miterlimit="10"/><path d="M401.45677,251.00719c0.08927,-0.7194 0.33393,-1.38311 0.74032,-1.96187c1.98314,-2.82432 7.18907,-2.62929 12.00343,0.29766l3.10482,2.74379c-0.45231,-0.26368 -0.81236,-0.48323 -0.9455,-0.57746c-4.15922,-2.94144 -10.92547,-4.00181 -13.05373,-0.97082c-0.25705,0.36604 -0.44297,0.76539 -0.57173,1.19156l-1.27758,-0.72291z" data-paper-data="{&quot;index&quot;:null}" fill="url(#color-6)" fill-rule="nonzero" stroke="none" stroke-width="1" stroke-linecap="butt" stroke-linejoin="miter" stroke-miterlimit="10"/><path d="M404.88151,254.18236c0.08925,-0.7194 0.33391,-1.38313 0.7403,-1.96188c1.98316,-2.82432 7.18905,-2.62927 12.00342,0.29767l3.10483,2.74377c-0.45232,-0.26367 -0.81236,-0.48322 -0.9455,-0.57745c-4.15926,-2.94142 -10.92547,-4.00181 -13.05373,-0.97081c-0.25705,0.36604 -0.44294,0.76538 -0.57169,1.19158l-1.27761,-0.72288z" data-paper-data="{&quot;index&quot;:null}" fill="url(#color-7)" fill-rule="nonzero" stroke="none" stroke-width="1" stroke-linecap="butt" stroke-linejoin="miter" stroke-miterlimit="10"/><path d="M432.9856,273.46439c1.86238,6.95027 -2.26196,14.09401 -9.21219,15.95629l-30.83747,8.26272c-6.95022,1.86225 -14.094,-2.26225 -15.95637,-9.21252l-17.26718,-64.43977c-1.86238,-6.95027 2.26198,-14.09403 9.2122,-15.95632l30.83747,-8.26272c6.95022,-1.86227 14.09399,2.26226 15.9564,9.21252z" data-paper-data="{&quot;index&quot;:null}" fill="none" fill-rule="evenodd" stroke="#ffffff" stroke-width="16.97" stroke-linecap="round" stroke-linejoin="round" stroke-miterlimit="1.5"/><path d="M431.75324,272.24618c1.86238,6.95027 -2.26196,14.09401 -9.21218,15.95629l-30.83748,8.26272c-6.95022,1.86225 -14.094,-2.26225 -15.95637,-9.21252l-17.26718,-64.43977c-1.86238,-6.95027 2.26199,-14.09403 9.2122,-15.95632l30.83748,-8.26272c6.95022,-1.86227 14.09398,2.26226 15.95639,9.21252z" data-paper-data="{&quot;index&quot;:null}" fill="#000000" fill-rule="evenodd" stroke="none" stroke-width="1" stroke-linecap="round" stroke-linejoin="round" stroke-miterlimit="1.5"/><path d="M381.71205,287.12694l-18.00802,-67.20644l44.80483,-12.00565l18.00802,67.20645z" data-paper-data="{&quot;index&quot;:null}" fill="#ffffff" fill-rule="evenodd" stroke="none" stroke-width="1" stroke-linecap="round" stroke-linejoin="round" stroke-miterlimit="1.5"/><path d="M408.44559,238.12959v9.83336" data-paper-data="{&quot;index&quot;:null}" fill="none" fill-rule="evenodd" stroke="#000000" stroke-width="5.33" stroke-linecap="round" stroke-linejoin="round" stroke-miterlimit="1.5"/><path d="M381.773,234.90118v9.83338" data-paper-data="{&quot;index&quot;:null}" fill="none" fill-rule="evenodd" stroke="#000000" stroke-width="5.33" stroke-linecap="round" stroke-linejoin="round" stroke-miterlimit="1.5"/><path d="M404.17504,258.37082c-6.34524,3.66343 -14.4707,1.48622 -18.13412,-4.85905" data-paper-data="{&quot;index&quot;:null}" fill="none" fill-rule="evenodd" stroke="#000000" stroke-width="6" stroke-linecap="round" stroke-linejoin="round" stroke-miterlimit="1.5"/></g><g data-paper-data="{&quot;isHelperItem&quot;:true}" fill="#000000" fill-rule="nonzero" stroke="#000000" stroke-linecap="butt" stroke-linejoin="miter" stroke-miterlimit="10"><path d="" stroke-width="0"/><g data-paper-data="{&quot;isSelectionBound&quot;:true,&quot;isHelperItem&quot;:true}" stroke-width="0.68213"><path d=""/><path d=""/><path d=""/></g></g><text transform="translate(164.70525,166.60237) scale(0.5,0.5)" font-size="40" xml:space="preserve" fill="#ffffff" fill-rule="nonzero" stroke="none" stroke-width="1" stroke-linecap="butt" stroke-linejoin="miter" stroke-miterlimit="10" stroke-dasharray="" stroke-dashoffset="0" font-family="Sans Serif" font-weight="normal" text-anchor="start" style="mix-blend-mode: normal"><tspan x="0" dy="0">Drive vorward</tspan></text><text transform="translate(167.38478,343.98715) scale(0.5,0.5)" font-size="40" xml:space="preserve" fill="#ffffff" fill-rule="nonzero" stroke="none" stroke-width="1" stroke-linecap="butt" stroke-linejoin="miter" stroke-miterlimit="10" stroke-dasharray="" stroke-dashoffset="0" font-family="Sans Serif" font-weight="normal" text-anchor="start" style="mix-blend-mode: normal"><tspan x="0" dy="0">Drive Backward</tspan></text><text transform="translate(240.80386,239.48554) scale(0.5,0.5)" font-size="40" xml:space="preserve" fill="#ffffff" fill-rule="nonzero" stroke="none" stroke-width="1" stroke-linecap="butt" stroke-linejoin="miter" stroke-miterlimit="10" stroke-dasharray="" stroke-dashoffset="0" font-family="Sans Serif" font-weight="normal" text-anchor="start" style="mix-blend-mode: normal"><tspan x="0" dy="0">Turn Right</tspan></text><g fill-rule="nonzero" stroke-linecap="butt" stroke-linejoin="miter" stroke-miterlimit="10"><g stroke="none" stroke-width="0"><path d="M80.30011,250.47161c0,-43.06401 34.91027,-77.97428 77.97428,-77.97428c43.06401,0 77.97427,34.91027 77.97427,77.97428c0,43.06401 -34.91026,77.97428 -77.97427,77.97428c-43.06401,0 -77.97428,-34.91026 -77.97428,-77.97428z" fill="#5a5a5a"/><path d="M89.63505,250.47161c0,-37.90846 30.73088,-68.63933 68.63933,-68.63933c37.90846,0 68.63933,30.73087 68.63933,68.63933c0,37.90845 -30.73087,68.63933 -68.63933,68.63933c-37.90846,0 -68.63933,-30.73088 -68.63933,-68.63933z" fill="#000000"/><path d="M100.06823,250.47161c0,-32.14637 26.05978,-58.20615 58.20615,-58.20615c32.14637,0 58.20615,26.05978 58.20615,58.20615c0,32.14637 -26.05978,58.20615 -58.20615,58.20615c-32.14637,0 -58.20615,-26.05978 -58.20615,-58.20615z" fill="#5a5a5a"/><path d="M136.85891,250.47161c0,-11.82744 9.58803,-21.41547 21.41547,-21.41547c11.82744,0 21.41547,9.58803 21.41547,21.41547c0,11.82744 -9.58803,21.41547 -21.41547,21.41547c-11.82744,0 -21.41547,-9.58803 -21.41547,-21.41547z" fill="#ffffff"/></g><path d="M182.91575,245.33119h41.29605v-7.71062l30,12.85102l-30,12.85102v-7.71062h-41.29605z" fill="#fffdfd" stroke="#000000" stroke-width="0.5"/><path d="M151.2583,227.70591v-41.29604h-7.71061l12.85102,-30l12.85102,30h-7.71061v41.29604z" fill="#fffdfd" stroke="#000000" stroke-width="0.5"/><path d="M136.5805,256.41587h-41.29604v7.71061l-30,-12.85102l30,-12.85102v7.71061h41.29604z" fill="#fffdfd" stroke="#000000" stroke-width="0.5"/><path d="M162.61093,274.30911v41.29604h7.71061l-12.85101,30l-12.85102,-30h7.71061v-41.29604z" fill="#fffdfd" stroke="#000000" stroke-width="0.5"/></g><text transform="translate(1.78993,240.02145) scale(0.5,0.5)" font-size="40" xml:space="preserve" fill="#ffffff" fill-rule="nonzero" stroke="none" stroke-width="1" stroke-linecap="butt" stroke-linejoin="miter" stroke-miterlimit="10" stroke-dasharray="" stroke-dashoffset="0" font-family="Sans Serif" font-weight="normal" text-anchor="start" style="mix-blend-mode: normal"><tspan x="0" dy="0">Turn Left</tspan></text></g></g></svg>