<svg version="1.1" xmlns="http://www.w3.org/2000/svg" xmlns:xlink="http://www.w3.org/1999/xlink" width="175.30695" height="121.36322" viewBox="0,0,175.30695,121.36322"><g transform="translate(-152.34652,-109.11428)"><g data-paper-data="{&quot;isPaintingLayer&quot;:true}" fill-rule="nonzero" stroke="none" stroke-width="0" stroke-linecap="butt" stroke-linejoin="miter" stroke-miterlimit="10" stroke-dasharray="" stroke-dashoffset="0" style="mix-blend-mode: normal"><path d="M169.96262,140.2591l-9.96107,-9.96107l8.92616,-8.92616l9.96107,9.96107z" fill="#3ed3f7"/><path d="M224.29851,136.23422l-9.96108,-9.96108l8.92616,-8.92615l9.96107,9.96107z" fill="#f74848"/><path d="M234.90956,142.27154l-9.96108,-9.96107l8.92616,-8.92615l9.96107,9.96107z" fill="#3ed3f7"/><path d="M214.05336,140.99087l-9.96108,-9.96107l8.92616,-8.92615l9.96107,9.96107z" fill="#3ed3f7"/><path d="M205.82065,141.90562l-9.96108,-9.96107l8.92616,-8.92615l9.96107,9.96107z" fill="#f74848"/><path d="M188.98933,140.80793l-9.96108,-9.96107l8.92616,-8.92616l9.96107,9.96107z" fill="#3ed3f7"/><path d="M197.22204,132.57521l-9.96108,-9.96107l8.92616,-8.92615l9.96107,9.96107z" fill="#f74848"/><path d="M210.21143,136.05127l-9.96108,-9.96108l8.92616,-8.92615l9.96107,9.96107z" fill="#3ef744"/><path d="M250.27729,138.42961l-9.96108,-9.96107l8.92616,-8.92615l9.96107,9.96107z" fill="#3ed3f7"/><path d="M260.52244,137.51486l-9.96107,-9.96108l8.92616,-8.92615l9.96107,9.96107z" fill="#3ed3f7"/><path d="M242.41048,139.34435l-9.96108,-9.96107l8.92616,-8.92615l9.96107,9.96107z" fill="#3ed3f7"/><path d="M271.49939,131.29459l-9.96107,-9.96107l8.92616,-8.92615l9.96107,9.96107z" fill="#f74848"/><path d="M281.74454,128.00151l-9.96107,-9.96107l8.92616,-8.92615l9.96107,9.96107z" fill="#3ed3f7"/><path d="M290.70905,132.57521l-9.96108,-9.96108l8.92616,-8.92615l9.96107,9.96107z" fill="#f7f13e"/><path d="M281.5616,139.71024l-9.96107,-9.96107l8.92616,-8.92615l9.96107,9.96107z" fill="#3ef744"/><path d="M301.686,139.1614l-9.96108,-9.96107l8.92616,-8.92615l9.96107,9.96107z" fill="#f74848"/><path d="M308.45512,134.7706l-9.96108,-9.96108l8.92616,-8.92615l9.96107,9.96107z" fill="#3ef744"/><path d="M314.30949,136.60011l-9.96108,-9.96108l8.92616,-8.92616l9.96107,9.96107z" fill="#f74848"/><path d="M175.45109,139.5273l-9.96108,-9.96108l8.92616,-8.92615l9.96107,9.96107z" fill="#f74848"/><path d="M184.4156,136.96598l-9.96108,-9.96107l8.92616,-8.92615l9.96107,9.96107z" fill="#f7f13e"/><path d="M165.02299,142.08856l-9.96108,-9.96107l8.92616,-8.92615l9.96107,9.96107z" fill="#f74848"/><path d="M235.82431,136.41717l-9.96108,-9.96107l8.92616,-8.92615l9.96107,9.96107z" fill="#f7f13e"/><path d="M252.28973,129.831l-9.96108,-9.96107l8.92616,-8.92615l9.96107,9.96107z" fill="#f74848"/><path d="M241.49573,130.56277l-9.96108,-9.96107l8.92616,-8.92615l9.96107,9.96107z" fill="#f74848"/><path d="M237.47085,133.30703l-9.96108,-9.96107l8.92616,-8.92615l9.96107,9.96107z" fill="#f7f13e"/><path d="M236.922,132.94113l-9.96108,-9.96107l8.92616,-8.92615l9.96107,9.96107z" fill="#f7f13e"/><path d="M261.07129,134.40473l-9.96108,-9.96107l8.92616,-8.92615l9.96107,9.96107z" fill="#3ef744"/><path d="M246.98421,130.1969l-9.96108,-9.96107l8.92616,-8.92615l9.96107,9.96107z" fill="#3ef744"/><path d="M156.04436,230.47751c-2.04226,0 -3.69784,-3.0119 -3.69784,-6.72727v-87.50043c0,-3.71537 1.65558,-6.72727 3.69784,-6.72727h167.91127c2.04226,0 3.69784,3.0119 3.69784,6.72727v87.50043c0,3.71537 -1.65558,6.72727 -3.69784,6.72727z" fill="#feff72"/><g fill="#ffffff"><path d="M230.0669,209.24186l3.85161,-36.08352h12.06163l3.95297,36.08352z"/><path d="M223.47861,167.27955c0,-9.12451 7.39688,-16.52139 16.52139,-16.52139c9.12451,0 16.52139,7.39688 16.52139,16.52139c0,9.12451 -7.39688,16.52139 -16.52139,16.52139c-9.12451,0 -16.52139,-7.39688 -16.52139,-16.52139z"/></g></g></g></svg>