<svg version="1.1" xmlns="http://www.w3.org/2000/svg" xmlns:xlink="http://www.w3.org/1999/xlink" width="86.89559" height="42.22952" viewBox="0,0,86.89559,42.22952"><g transform="translate(-196.55221,-158.88524)"><g data-paper-data="{&quot;isPaintingLayer&quot;:true}" fill-rule="nonzero" stroke="#000000" stroke-linecap="round" stroke-linejoin="miter" stroke-miterlimit="10" stroke-dasharray="" stroke-dashoffset="0" style="mix-blend-mode: normal"><g><path d="M198.10974,188.18289c0,0 -1.43524,-3.70961 -1.29832,-8.0389c0.13811,-4.1798 1.71319,-8.83768 1.71319,-8.83768c0,0 0.61926,-4.59774 0.81705,-5.68794c0.08436,-0.46503 0.26397,-1.26451 0.75977,-1.96151c0.52061,-0.73189 1.51941,-1.50874 1.51941,-1.50874c0,0 5.41086,-0.76341 8.86086,-0.76341c3.59763,0 10.8337,0.92136 10.8337,0.92136l37.19898,0.25666c0,0 6.42221,-1.11 8.71725,-1.14724c1.98162,-0.03215 7.83706,0.77884 7.83706,0.77884c0,0 2.55578,1.11234 3.51638,1.66091c0.96331,0.81007 1.42764,1.93243 1.42764,1.93243l1.4737,5.20573c0,0 1.71139,3.04083 1.71139,9.02941c0,5.92714 -1.80647,8.75299 -1.80647,8.75299l-1.46938,4.98795c0,0 -0.36726,1.24494 -1.09412,1.7962c-0.84551,0.64125 -4.166,1.98021 -4.166,1.98021c0,0 -4.94216,1.06763 -7.18435,1.08849c-2.29687,0.02137 -8.88162,-0.80385 -8.88162,-0.80385l-37.00881,-0.11188c0,0 -7.02125,0.92136 -10.72505,0.92136c-3.3622,0 -9.68485,-0.92136 -9.68485,-0.92136c0,0 -0.97844,-0.66842 -1.21682,-1.33573c-0.23176,-0.64878 -0.60972,-1.41266 -0.69902,-1.90213c-0.18383,-1.00767 -1.15157,-6.29218 -1.15157,-6.29218z" fill="#c51515" stroke-width="0.5"/><path d="M244.64269,170.58481c0,0 0.88999,-1.76379 2.74343,-2.37771c2.14624,-0.71091 9.38491,-2.37675 9.38491,-2.37675c0,0 2.65682,0.33911 3.7382,3.62311c0.89923,2.73086 1.18706,8.24174 1.16707,10.43807c-0.01936,2.12794 -0.33267,8.18899 -1.12725,10.94705c-1.02423,3.5552 -3.51292,3.61559 -3.51292,3.61559c0,0 -7.65259,-2.10816 -9.60746,-2.77352c-2.15645,-0.73398 -2.78598,-1.99755 -2.78598,-1.99755z" fill="#4c5e73" stroke-width="0.5"/><path d="M254.57854,195.29048c0,0 -12.60854,0.79648 -16.46333,0.83823c-6.26818,0.06789 -17.56584,-0.46968 -17.56584,-0.46968c0,0 -1.52124,-0.06443 -2.0819,-0.2214c-0.42505,-0.11901 -1.51582,-0.57272 -1.51582,-0.57272l-0.66729,-0.92695c0,0 1.36117,-0.47661 3.05478,-1.03363c1.71558,-0.56423 3.68714,-1.11882 6.12297,-1.43621c3.43602,-0.44771 5.93379,-0.45984 9.4265,-0.27724c3.4477,0.02285 9.08713,1.23627 9.08713,1.23627c0,0 8.49123,2.05761 10.17886,2.52316c1.85848,0.51269 0.42395,0.34016 0.42395,0.34016z" fill="#4c5e73" stroke-width="0.5"/><path d="M253.93347,164.78942c-1.68764,0.46556 -10.17886,2.52316 -10.17886,2.52316c0,0 -5.63942,1.21342 -9.08713,1.23627c-3.49272,0.1826 -5.99047,0.17048 -9.4265,-0.27723c-2.43584,-0.31739 -4.4074,-0.87197 -6.12297,-1.43621c-1.69361,-0.55701 -3.05478,-1.03363 -3.05478,-1.03363l0.66729,-0.92695c0,0 1.09077,-0.45371 1.51582,-0.57272c0.56066,-0.15699 2.0819,-0.2214 2.0819,-0.2214c0,0 11.29766,-0.53756 17.56584,-0.46968c3.8548,0.04175 16.46334,0.83823 16.46334,0.83823c0,0 1.43454,-0.17252 -0.42395,0.34016z" data-paper-data="{&quot;index&quot;:null}" fill="#4c5e73" stroke-width="0.5"/><path d="M218.75511,171.65748l-0.37499,16.7689c0,0 0.07931,0.72458 -0.65642,1.11578c-1.89866,1.00955 -6.04181,2.40622 -7.34124,2.7638c-1.7074,0.46985 -2.17402,-0.42446 -2.17402,-0.42446c0,0 -1.92018,-2.77627 -2.31829,-12.16087c0.86683,-9.40806 2.4589,-12.30144 2.4589,-12.30144c0,0 0.40914,-0.74263 1.7573,-0.42033c1.37268,0.32815 5.59096,2.02337 7.66147,3.2727c0.82023,0.49492 0.98727,1.38593 0.98727,1.38593z" fill="#4c5e73" stroke-width="0.5"/><path d="M201.91471,194.28372c0,0 -1.53576,-1.56218 -2.50715,-3.3754c-1.03919,-1.93978 -1.61388,-3.6605 -1.61388,-3.6605" fill="none" stroke-width="0.5"/><path d="M198.29624,171.76884c0,0 0.57469,-1.72072 1.61388,-3.66049c0.97139,-1.81322 2.50715,-3.3754 2.50715,-3.3754" data-paper-data="{&quot;index&quot;:null}" fill="none" stroke-width="0.5"/><path d="M259.09598,166.378c0,0 0.45002,-0.79921 0.77687,-1.14028c0.26598,-0.27755 1.03955,-0.75511 1.03955,-0.75511c0,0 0.63591,-0.14859 1.33895,-0.06171c2.04036,0.25213 13.33157,1.27046 13.33157,1.27046c0,0 1.12961,0.3643 1.32011,1.0831c0.71663,2.70389 2.09705,9.60395 2.12642,13.41543c0.02637,3.42094 -1.65319,10.32313 -2.3992,13.32636c-0.28687,1.15486 -1.08136,1.11867 -1.08136,1.11867c0,0 -11.03606,0.76319 -13.07642,1.01532c-0.70304,0.08688 -1.33895,-0.06171 -1.33895,-0.06171c0,0 -0.77356,-0.47756 -1.03955,-0.75511c-0.32685,-0.34106 -0.77687,-1.14028 -0.77687,-1.14028" fill="none" stroke-width="0.25"/><path d="M277.97404,195.07167c0,0 -1.31663,0.68722 -1.95663,0.92722c-0.46094,0.17286 -1.36714,0.38906 -1.77379,0.41379c-0.26669,0.01621 -0.1467,-0.13586 -0.1467,-0.13586c0,0 2.52695,-0.98419 3.63893,-2.34745c1.05996,-1.29949 3.03177,-5.5026 3.03177,-5.5026c0,0 -0.88666,2.8787 -1.30249,3.99748c-0.17737,0.47718 -0.44341,1.18242 -0.74578,1.66881c-0.28528,0.45889 -0.74531,0.9786 -0.74531,0.9786z" fill="#ffffff" stroke-width="0.25"/><path d="M278.15831,165.07632c0,0 0.46002,0.51972 0.74531,0.9786c0.30237,0.48639 0.56842,1.19163 0.74578,1.66881c0.41583,1.11878 1.30249,3.99748 1.30249,3.99748c0,0 -1.97181,-4.20311 -3.03178,-5.5026c-1.11198,-1.36327 -3.63893,-2.34745 -3.63893,-2.34745c0,0 -0.12,-0.15207 0.1467,-0.13585c0.40665,0.02472 1.31285,0.24093 1.77379,0.41379c0.64,0.24 1.95663,0.92722 1.95663,0.92722z" data-paper-data="{&quot;index&quot;:null}" fill="#ffffff" stroke-width="0.25"/><path d="M254.60606,195.08907l-0.44226,1.38205c0,0 0.37351,0.80621 0.12385,1.11966c-0.2297,0.2884 -0.67306,1.39642 -1.31622,1.95463c-0.94288,0.81834 -1.95872,1.31142 -1.95872,1.31142l-0.8108,-0.11056c0,0 -0.53056,-0.32775 -0.35713,-0.75828c0.28802,-0.71499 1.31535,-2.96405 1.31535,-2.96405c0,0 0.3738,-0.63768 0.64529,-0.77822c0.31716,-0.16417 1.0868,-0.14695 1.0868,-0.14695l0.27641,-1.38205z" fill="#c51515" stroke-width="0.5"/><path d="M252.5544,165.28327l-0.27641,-1.38205c0,0 -0.76964,0.01721 -1.0868,-0.14695c-0.27149,-0.14054 -0.64529,-0.77822 -0.64529,-0.77822c0,0 -1.02733,-2.24907 -1.31535,-2.96405c-0.17344,-0.43054 0.35713,-0.75828 0.35713,-0.75828l0.8108,-0.11056c0,0 1.01584,0.49308 1.95872,1.31142c0.64315,0.55821 1.08652,1.66623 1.31622,1.95463c0.24965,0.31345 -0.12386,1.11966 -0.12386,1.11966l0.44226,1.38205z" data-paper-data="{&quot;index&quot;:null}" fill="#c51515" stroke-width="0.5"/><path d="M282.91943,176.25197c0,0 -3.41386,-1.13071 -4.89047,-1.66229c-1.58668,-0.57121 -5.18315,-2.88313 -5.18315,-2.88313" fill="none" stroke-width="0.5"/><path d="M272.72297,188.29117c0,0 3.59646,-2.31192 5.18315,-2.88313c1.47662,-0.53158 4.89047,-1.66229 4.89047,-1.66229" data-paper-data="{&quot;index&quot;:null}" fill="none" stroke-width="0.5"/><path d="M266.28664,193.32379c0,0 -3.86497,1.3323 -5.84328,1.67645c-1.55288,0.27015 -5.96698,0.82381 -5.96698,0.82381" fill="none" stroke-width="0.5"/><path d="M253.87331,164.17509c0,0 4.4141,0.55366 5.96698,0.8238c1.97831,0.34415 5.84328,1.67645 5.84328,1.67645" data-paper-data="{&quot;index&quot;:null}" fill="none" stroke-width="0.5"/><path d="M201.25121,166.21365h3.6609c0,0 1.34226,0.32277 1.8797,0.5818c0.74804,0.36053 1.31438,0.8924 1.31438,0.8924" fill="none" stroke-width="0.25"/><path d="M207.92192,191.64341c0,0 -0.56633,0.53187 -1.31438,0.8924c-0.53745,0.25902 -1.8797,0.5818 -1.8797,0.5818h-3.6609" data-paper-data="{&quot;index&quot;:null}" fill="none" stroke-width="0.25"/><path d="M218.21213,195.33955c0,0 -2.26046,0.48394 -4.52592,0.21329c-1.57984,-0.13366 -3.76287,-0.81038 -4.42858,-1.23584c-1.51463,-0.968 -1.92924,-4.35562 -1.92924,-4.35562" fill="none" stroke-width="0.5"/><path d="M207.61847,169.57356c0,0 0.39153,-3.19901 1.82182,-4.11311c0.62865,-0.40177 2.69014,-1.04081 4.18201,-1.16704c2.13932,-0.25558 4.27392,0.2014 4.27392,0.2014" data-paper-data="{&quot;index&quot;:null}" fill="none" stroke-width="0.5"/><path d="M219.29773,162.28249l-0.36855,1.96559" fill="none" stroke-width="0.25"/><path d="M219.17488,195.57458l0.61424,2.21128" fill="none" stroke-width="0.25"/><path d="M225.30596,162.29724l-0.7749,0.02835c0,0 -0.90426,-0.52583 -1.43397,-0.48056c-0.80225,-0.04779 -0.68577,-0.07607 -1.17684,-0.0368c-0.63621,0.05088 -1.38651,0.3756 -1.38651,0.3756l-0.89685,-0.13644c0,0 0.7494,-0.39873 1.54542,-0.58134c0.76977,-0.17659 1.57867,-0.13763 2.0543,-0.11667c0.91977,0.04053 2.06934,0.94783 2.06934,0.94783z" fill="#c51616" stroke-width="0.25"/><path d="M240.4834,162.4279l-0.7749,0.02835c0,0 -0.90426,-0.52583 -1.43397,-0.48056c-0.80225,-0.04779 -0.68577,-0.07607 -1.17684,-0.0368c-0.63621,0.05088 -1.3865,0.3756 -1.3865,0.3756l-0.89686,-0.13643c0,0 0.7494,-0.39873 1.54542,-0.58134c0.76977,-0.17659 1.57867,-0.13763 2.0543,-0.11667c0.91977,0.04053 2.06934,0.94783 2.06934,0.94783z" fill="#c51616" stroke-width="0.25"/><path d="M224.48046,198.78533c-0.47564,0.02096 -1.28453,0.05993 -2.0543,-0.11667c-0.79602,-0.18261 -1.54542,-0.58134 -1.54542,-0.58134l0.89685,-0.13643c0,0 0.75029,0.32472 1.38651,0.3756c0.49107,0.03928 0.37459,0.01098 1.17684,-0.0368c0.52971,0.04528 1.43397,-0.48054 1.43397,-0.48054l0.7749,0.02835c0,0 -1.14957,0.9073 -2.06934,0.94783z" data-paper-data="{&quot;index&quot;:null}" fill="#c31616" stroke-width="0.25"/><path d="M239.3815,198.79286c-0.47564,0.02096 -1.28453,0.05993 -2.0543,-0.11667c-0.79602,-0.18261 -1.54542,-0.58134 -1.54542,-0.58134l0.89686,-0.13644c0,0 0.75029,0.32472 1.3865,0.3756c0.49107,0.03928 0.37459,0.01099 1.17684,-0.0368c0.52971,0.04528 1.43397,-0.48054 1.43397,-0.48054l0.7749,0.02835c0,0 -1.14957,0.9073 -2.06934,0.94783z" data-paper-data="{&quot;index&quot;:null}" fill="#c31616" stroke-width="0.25"/><path d="M234.87652,197.72444l-0.41462,-1.65846" fill="none" stroke-width="0.25"/><path d="M234.04729,162.62032l-0.41462,1.24385" fill="none" stroke-width="0.25"/><path d="M198.92936,192.14096c0,0 1.39761,2.51632 1.92533,3.24703c0.38407,0.5318 0.53472,0.68721 0.53472,0.68721c0,0 0.38574,0.35583 0.80959,0.60209c0.46134,0.26804 0.96782,0.43181 1.07116,0.52401c0.20096,0.17931 0.05412,0.26517 0.05412,0.26517l-1.87038,-0.78317c0,0 -0.40734,-0.31869 -0.71462,-0.69466c-0.25051,-0.30651 -0.43423,-0.63562 -0.6103,-0.98776c-0.41719,-0.83439 -1.19962,-2.85992 -1.19962,-2.85992z" fill="#650000" stroke-width="0.25"/><path d="M200.2295,164.77096c0.17606,-0.35214 0.35979,-0.68125 0.6103,-0.98776c0.30729,-0.37597 0.71462,-0.69466 0.71462,-0.69466l1.87038,-0.78317c0,0 0.14684,0.08585 -0.05412,0.26517c-0.10333,0.0922 -0.60983,0.25597 -1.07117,0.52401c-0.42385,0.24626 -0.80959,0.60209 -0.80959,0.60209c0,0 -0.15064,0.15541 -0.53471,0.68721c-0.52773,0.73071 -1.92534,3.24703 -1.92534,3.24703c0,0 0.78243,-2.02552 1.19962,-2.85992z" data-paper-data="{&quot;index&quot;:null}" fill="#670000" stroke-width="0.25"/></g></g></g></svg>