<svg version="1.1" xmlns="http://www.w3.org/2000/svg" xmlns:xlink="http://www.w3.org/1999/xlink" width="115.32549" height="95.48052" viewBox="0,0,115.32549,95.48052"><g transform="translate(-182.33726,-132.25975)"><g data-paper-data="{&quot;isPaintingLayer&quot;:true}" fill-rule="nonzero" stroke="none" stroke-linecap="butt" stroke-linejoin="miter" stroke-miterlimit="10" stroke-dasharray="" stroke-dashoffset="0" style="mix-blend-mode: normal"><path d="M273.97391,178.37364c-0.22394,-0.54355 -0.10045,-1.17189 0.31757,-1.59122l8.169,-8.16553c0.56877,-0.57108 1.49396,-0.57108 2.06505,0l8.16436,8.16552c0.42035,0.41933 0.54355,1.04767 0.31758,1.59122c-0.22843,0.54601 -0.75864,0.90229 -1.34785,0.90229h-3.57088v10.58946c0,1.07463 -0.87025,1.94518 -1.94169,1.94518h-5.30879c-1.07362,0 -1.94387,-0.87055 -1.94387,-1.94518v-10.58945h-3.57059c-0.5895,0 -1.12174,-0.35628 -1.34988,-0.90229z" fill="#000000" stroke-width="1"/><path d="M182.33727,227.74027v-95.48052h115.32549v95.48052z" fill="#59ad0d" stroke-width="0"/><g fill="#000000" stroke-width="1"><path d="M276.04862,175.74625c-0.06958,0.1678 -0.16917,0.31924 -0.29605,0.44475l-16.36972,16.36972c-0.26603,0.26603 -0.61528,0.39973 -0.96453,0.39973c-0.34925,0 -0.6985,-0.1337 -0.96453,-0.39973c-0.53343,-0.53343 -0.53343,-1.39563 0,-1.92906l14.0423,-14.0423h-29.44885c-0.75443,0 -1.36426,-0.60982 -1.36426,-1.36426c0,-0.75443 0.60982,-1.36426 1.36426,-1.36426h29.44885l-14.0423,-14.0423c-0.53343,-0.53343 -0.53343,-1.39563 0,-1.92906c0.53343,-0.53343 1.39564,-0.53343 1.92906,0l16.36972,16.36836c0.12551,0.12687 0.22647,0.2783 0.29605,0.44611c0.13779,0.33288 0.13779,0.70941 0,1.04229z"/><path d="M252.96129,183.41064v23.19237c0,0.75443 -0.60982,1.36426 -1.36426,1.36426h-15.00683v8.18554c0,0.43656 -0.20737,0.84584 -0.55934,1.10232c-0.23601,0.1719 -0.51842,0.26194 -0.80491,0.26194c-0.13916,0 -0.2783,-0.02183 -0.412,-0.06275l-30.01366,-9.5498c-0.02319,-0.00819 -0.04093,-0.02456 -0.06412,-0.03274c-0.05457,-0.02046 -0.10096,-0.04911 -0.15143,-0.0764c-0.0955,-0.05048 -0.18417,-0.10778 -0.2633,-0.17735c-0.04366,-0.03957 -0.08322,-0.07913 -0.12278,-0.12278c-0.07231,-0.08186 -0.12961,-0.17053 -0.18008,-0.26739c-0.02456,-0.04775 -0.0532,-0.09004 -0.0723,-0.14052c-0.05866,-0.1528 -0.09823,-0.31378 -0.09823,-0.48431v-62.75583c0,-0.16644 0.0382,-0.32606 0.0955,-0.47885c0.01091,-0.02729 0.01773,-0.05457 0.03001,-0.08186c0.06275,-0.13643 0.14734,-0.26057 0.25102,-0.37244c0.02183,-0.02319 0.04639,-0.04229 0.06958,-0.06412c0.0382,-0.03411 0.07094,-0.07367 0.11323,-0.10505c0.03411,-0.02456 0.0764,-0.02456 0.11187,-0.04639c0.1105,-0.06685 0.2251,-0.11323 0.35334,-0.14734c0.07231,-0.0191 0.13916,-0.03684 0.21555,-0.04366c0.04229,-0.00409 0.08049,-0.02456 0.12415,-0.02456h46.38475c0.75443,0 1.36426,0.60982 1.36426,1.36426v23.19237c0,0.75443 -0.60982,1.36426 -1.36426,1.36426c-0.75443,0 -1.36426,-0.60982 -1.36426,-1.36426v-21.82811h-36.23331l21.63985,6.88541c0.56617,0.18008 0.95089,0.70532 0.95089,1.30014v51.84177h13.64257v-21.82811c0,-0.75443 0.60982,-1.36426 1.36426,-1.36426c0.75307,0 1.36426,0.60982 1.36426,1.36426z"/></g></g></g></svg>