<svg version="1.1" xmlns="http://www.w3.org/2000/svg" xmlns:xlink="http://www.w3.org/1999/xlink" width="482.85714" height="361.02129" viewBox="0,0,482.85714,361.02129"><g transform="translate(1.42857,0.51064)"><g data-paper-data="{&quot;isPaintingLayer&quot;:true}" fill-rule="nonzero" stroke-linecap="butt" stroke-linejoin="miter" stroke-miterlimit="10" stroke-dasharray="" stroke-dashoffset="0" style="mix-blend-mode: normal"><path d="M-1.42857,360.51065v-361.02129h482.85714v361.02129z" fill="#000000" stroke="#ff0000" stroke-width="0"/><text transform="translate(183.63002,42.62645) scale(0.5,0.5)" font-size="40" xml:space="preserve" fill="#ffffff" fill-rule="nonzero" stroke="none" stroke-width="1" stroke-linecap="butt" stroke-linejoin="miter" stroke-miterlimit="10" stroke-dasharray="" stroke-dashoffset="0" font-family="Sans Serif" font-weight="normal" text-anchor="start" style="mix-blend-mode: normal"><tspan x="0" dy="0">Welcome to</tspan></text><text transform="translate(95.43005,67.0518) scale(0.5,0.5)" font-size="40" xml:space="preserve" fill="#ffffff" fill-rule="nonzero" stroke="none" stroke-width="1" stroke-linecap="butt" stroke-linejoin="miter" stroke-miterlimit="10" stroke-dasharray="" stroke-dashoffset="0" font-family="Sans Serif" font-weight="normal" text-anchor="start" style="mix-blend-mode: normal"><tspan x="0" dy="0">Räuber und Gerdam Autospiel</tspan></text><text transform="translate(37.48479,122.75745) scale(0.5,0.5)" font-size="40" xml:space="preserve" fill="#ffffff" fill-rule="nonzero" stroke="none" stroke-width="1" stroke-linecap="butt" stroke-linejoin="miter" stroke-miterlimit="10" stroke-dasharray="" stroke-dashoffset="0" font-family="Sans Serif" font-weight="normal" text-anchor="start" style="mix-blend-mode: normal"><tspan x="0" dy="0">Controls:</tspan></text><path d="M325.51553,305.64135h115.99171v-18l30,30l-30,30v-18h-115.99171z" fill="#000000" stroke="#ffffff" stroke-width="3.5"/><text transform="translate(328.65103,324.0338) scale(0.5,0.5)" font-size="40" xml:space="preserve" fill="#ffffff" fill-rule="nonzero" stroke="none" stroke-width="1" stroke-linecap="butt" stroke-linejoin="miter" stroke-miterlimit="10" stroke-dasharray="" stroke-dashoffset="0" font-family="Sans Serif" font-weight="normal" text-anchor="start" style="mix-blend-mode: normal"><tspan x="0" dy="0">Next</tspan></text><g fill="#ffffff" stroke="none" stroke-width="1"><path d="M82.18409,255.70958v-11.6177c0,-1.83326 1.48641,-3.31934 3.31934,-3.31934h11.6177c1.83293,0 3.31934,1.48608 3.31934,3.31934v11.6177c0,1.83326 -1.48641,3.31934 -3.31934,3.31934h-11.6177c-1.83293,0 -3.31934,-1.48608 -3.31934,-3.31934zM88.82277,252.39024h4.97902v-4.97902h-4.97902z"/><path d="M104.63107,255.70958v-11.6177c0,-1.83326 1.48641,-3.31934 3.31934,-3.31934h11.61764c1.83293,0 3.31934,1.48608 3.31934,3.31934v11.6177c0,1.83326 -1.48641,3.31934 -3.31934,3.31934h-11.61764c-1.83293,0 -3.31934,-1.48608 -3.31934,-3.31934zM111.26976,252.39024h4.97902v-4.97902h-4.97902z"/><path d="M127.07806,255.70958v-11.6177c0,-1.83326 1.48641,-3.31934 3.31934,-3.31934h11.6177c1.83293,0 3.31934,1.48608 3.31934,3.31934v11.6177c0,1.83326 -1.48641,3.31934 -3.31934,3.31934h-11.6177c-1.83293,0 -3.31934,-1.48608 -3.31934,-3.31934zM133.71675,252.39024h4.97902v-4.97902h-4.97902z"/><path d="M104.63107,276.62135v-11.6177c0,-1.83326 1.48641,-3.31934 3.31934,-3.31934h34.06462c1.83293,0 3.31934,1.48608 3.31934,3.31934v11.6177c0,1.83326 -1.48641,3.31934 -3.31934,3.31934h-34.06462c-1.83293,0 -3.31934,-1.48608 -3.31934,-3.31934zM111.26976,273.30201h27.426v-4.97902h-27.426z"/><path d="M149.31763,255.70958v-11.6177c0,-1.83326 1.48641,-3.31934 3.31934,-3.31934h11.6177c1.83293,0 3.31934,1.48608 3.31934,3.31934v11.6177c0,1.83326 -1.48641,3.31934 -3.31934,3.31934h-11.6177c-1.83293,0 -3.31934,-1.48608 -3.31934,-3.31934zM155.95625,252.39024h4.97902v-4.97902h-4.97902z"/><path d="M185.87176,255.70958v-11.6177c0,-1.83326 1.48641,-3.31934 3.31934,-3.31934h11.6177c1.83293,0 3.31934,1.48608 3.31934,3.31934v11.6177c0,1.83326 -1.48641,3.31934 -3.31934,3.31934h-11.6177c-1.83293,0 -3.31934,-1.48608 -3.31934,-3.31934zM192.51038,252.39024h4.97902v-4.97902h-4.97902z"/><path d="M208.31875,255.70958v-11.6177c0,-1.83326 1.48641,-3.31934 3.31934,-3.31934h11.6177c1.83293,0 3.31934,1.48608 3.31934,3.31934v11.6177c0,1.83326 -1.48641,3.31934 -3.31934,3.31934h-11.6177c-1.83293,0 -3.31934,-1.48608 -3.31934,-3.31934zM214.95743,252.39024h4.97902v-4.97902h-4.97902z"/><path d="M82.18409,276.62135v-11.6177c0,-1.83326 1.48641,-3.31934 3.31934,-3.31934h11.6177c1.83293,0 3.31934,1.48608 3.31934,3.31934v11.6177c0,1.83326 -1.48641,3.31934 -3.31934,3.31934h-11.6177c-1.83293,0 -3.31934,-1.48608 -3.31934,-3.31934zM88.82277,273.30201h4.97902v-4.97902h-4.97902z"/><path d="M149.31763,276.62135v-11.6177c0,-1.83326 1.48641,-3.31934 3.31934,-3.31934h11.6177c1.83293,0 3.31934,1.48608 3.31934,3.31934v11.6177c0,1.83326 -1.48641,3.31934 -3.31934,3.31934h-11.6177c-1.83293,0 -3.31934,-1.48608 -3.31934,-3.31934zM155.95625,273.30201h4.97902v-4.97902h-4.97902z"/><path d="M185.87176,276.62135v-11.6177c0,-1.83326 1.48641,-3.31934 3.31934,-3.31934h11.6177c1.83293,0 3.31934,1.48608 3.31934,3.31934v11.6177c0,1.83326 -1.48641,3.31934 -3.31934,3.31934h-11.6177c-1.83293,0 -3.31934,-1.48608 -3.31934,-3.31934zM192.51038,273.30201h4.97902v-4.97902h-4.97902z"/><path d="M208.31875,276.62135v-11.6177c0,-1.83326 1.48641,-3.31934 3.31934,-3.31934h11.6177c1.83293,0 3.31934,1.48608 3.31934,3.31934v11.6177c0,1.83326 -1.48641,3.31934 -3.31934,3.31934h-11.6177c-1.83293,0 -3.31934,-1.48608 -3.31934,-3.31934zM214.95743,273.30201h4.97902v-4.97902h-4.97902z"/><path d="M82.18409,234.79774v-11.6177c0,-1.83326 1.48641,-3.31934 3.31934,-3.31934h11.6177c1.83293,0 3.31934,1.48608 3.31934,3.31934v11.6177c0,1.83326 -1.48641,3.31934 -3.31934,3.31934h-11.6177c-1.83293,0 -3.31934,-1.48608 -3.31934,-3.31934zM88.82277,231.4784h4.97902v-4.97902h-4.97902z"/><path d="M104.63107,234.79774v-11.6177c0,-1.83326 1.48641,-3.31934 3.31934,-3.31934h11.61764c1.83293,0 3.31934,1.48608 3.31934,3.31934v11.6177c0,1.83326 -1.48641,3.31934 -3.31934,3.31934h-11.61764c-1.83293,0 -3.31934,-1.48608 -3.31934,-3.31934zM111.26976,231.4784h4.97902v-4.97902h-4.97902z"/><path d="M127.07806,234.79774v-11.6177c0,-1.83326 1.48641,-3.31934 3.31934,-3.31934h11.6177c1.83293,0 3.31934,1.48608 3.31934,3.31934v11.6177c0,1.83326 -1.48641,3.31934 -3.31934,3.31934h-11.6177c-1.83293,0 -3.31934,-1.48608 -3.31934,-3.31934zM133.71675,231.4784h4.97902v-4.97902h-4.97902z"/><path d="M149.31763,234.79774v-11.6177c0,-1.83326 1.48641,-3.31934 3.31934,-3.31934h11.6177c1.83293,0 3.31934,1.48608 3.31934,3.31934v11.6177c0,1.83326 -1.48641,3.31934 -3.31934,3.31934h-11.6177c-1.83293,0 -3.31934,-1.48608 -3.31934,-3.31934zM155.95625,231.4784h4.97902v-4.97902h-4.97902z"/><path d="M185.87176,234.79774v-11.6177c0,-1.83326 1.48641,-3.31934 3.31934,-3.31934h11.6177c1.83293,0 3.31934,1.48608 3.31934,3.31934v11.6177c0,1.83326 -1.48641,3.31934 -3.31934,3.31934h-11.6177c-1.83293,0 -3.31934,-1.48608 -3.31934,-3.31934zM192.51038,231.4784h4.97902v-4.97902h-4.97902z"/><path d="M208.31875,234.79774v-11.6177c0,-1.83326 1.48641,-3.31934 3.31934,-3.31934h11.6177c1.83293,0 3.31934,1.48608 3.31934,3.31934v11.6177c0,1.83326 -1.48641,3.31934 -3.31934,3.31934h-11.6177c-1.83293,0 -3.31934,-1.48608 -3.31934,-3.31934zM214.95743,231.4784h4.97902v-4.97902h-4.97902z"/><path d="M138.94468,173.05814v-4.31512c0,-1.83326 1.48641,-3.31934 3.31934,-3.31934c1.83293,0 3.31934,1.48608 3.31934,3.31934v4.31512c0,1.83326 -1.48641,3.31934 -3.31934,3.31934c-1.83293,0 -3.31934,-1.48608 -3.31934,-3.31934z"/><path d="M237.86076,213.22208v73.35724c0,1.83326 -1.48641,3.31934 -3.31934,3.31934h-159.99186c-1.83293,0 -3.31934,-1.48608 -3.31934,-3.31934v-73.35724c0,-1.83326 1.48641,-3.31934 3.31934,-3.31934h86.30233v-7.63446c0,-4.20959 -3.42453,-7.63446 -7.63446,-7.63446c-6.24935,0 -11.71725,-3.99915 -13.60597,-9.95139c-0.55468,-1.74761 0.4123,-3.61343 2.15957,-4.16811c1.74862,-0.55434 3.61343,0.41257 4.16811,2.15991c1.01007,3.1826 3.93538,5.3209 7.27862,5.3209c7.87015,0 14.27315,6.403 14.27315,14.27315v7.63446h67.0505c1.83293,0 3.31934,1.48608 3.31934,3.31934zM231.22214,216.54142h-153.35317v66.71855h153.35317z"/></g><text transform="translate(255.59444,145.95837) scale(0.5,0.5)" font-size="40" xml:space="preserve" fill="#ffffff" fill-rule="nonzero" stroke="none" stroke-width="1" stroke-linecap="butt" stroke-linejoin="miter" stroke-miterlimit="10" stroke-dasharray="" stroke-dashoffset="0" font-family="Sans Serif" font-weight="normal" text-anchor="start" style="mix-blend-mode: normal"><tspan x="0" dy="0">Controll with WASD</tspan><tspan x="0" dy="46.150000000000006px">Press Space to redeem</tspan><tspan x="0" dy="46.150000000000006px">a blue Boost (left Bar)</tspan></text></g></g></svg>