<svg version="1.1" xmlns="http://www.w3.org/2000/svg" xmlns:xlink="http://www.w3.org/1999/xlink" width="482.85714" height="361.02129" viewBox="0,0,482.85714,361.02129"><g transform="translate(1.42857,0.51063)"><g data-paper-data="{&quot;isPaintingLayer&quot;:true}" fill-rule="nonzero" stroke-miterlimit="10" stroke-dasharray="" stroke-dashoffset="0" style="mix-blend-mode: normal"><path d="M-1.42857,360.51066v-361.02129h482.85714v361.02129z" fill="#000000" stroke="#ff0000" stroke-width="0" stroke-linecap="butt" stroke-linejoin="miter"/><text transform="translate(183.63002,42.62647) scale(0.5,0.5)" font-size="40" xml:space="preserve" fill="#ffffff" fill-rule="nonzero" stroke="none" stroke-width="1" stroke-linecap="butt" stroke-linejoin="miter" stroke-miterlimit="10" stroke-dasharray="" stroke-dashoffset="0" font-family="Sans Serif" font-weight="normal" text-anchor="start" style="mix-blend-mode: normal"><tspan x="0" dy="0">Welcome to</tspan></text><text transform="translate(95.43005,67.05182) scale(0.5,0.5)" font-size="40" xml:space="preserve" fill="#ffffff" fill-rule="nonzero" stroke="none" stroke-width="1" stroke-linecap="butt" stroke-linejoin="miter" stroke-miterlimit="10" stroke-dasharray="" stroke-dashoffset="0" font-family="Sans Serif" font-weight="normal" text-anchor="start" style="mix-blend-mode: normal"><tspan x="0" dy="0">Räuber und Gerdam Autospiel</tspan></text><text transform="translate(37.48479,122.75747) scale(0.5,0.5)" font-size="40" xml:space="preserve" fill="#ffffff" fill-rule="nonzero" stroke="none" stroke-width="1" stroke-linecap="butt" stroke-linejoin="miter" stroke-miterlimit="10" stroke-dasharray="" stroke-dashoffset="0" font-family="Sans Serif" font-weight="normal" text-anchor="start" style="mix-blend-mode: normal"><tspan x="0" dy="0">Controls:</tspan></text><path d="M325.51553,305.64135h115.99171v-18l30,30l-30,30v-18h-115.99171z" fill="#000000" stroke="#ffffff" stroke-width="3.5" stroke-linecap="butt" stroke-linejoin="miter"/><text transform="translate(328.65103,324.0338) scale(0.5,0.5)" font-size="40" xml:space="preserve" fill="#ffffff" fill-rule="nonzero" stroke="none" stroke-width="1" stroke-linecap="butt" stroke-linejoin="miter" stroke-miterlimit="10" stroke-dasharray="" stroke-dashoffset="0" font-family="Sans Serif" font-weight="normal" text-anchor="start" style="mix-blend-mode: normal"><tspan x="0" dy="0">Next</tspan></text><g data-paper-data="{&quot;isHelperItem&quot;:true}" fill="#000000" stroke="#000000" stroke-linecap="butt" stroke-linejoin="miter"><path d="" stroke-width="0"/><g data-paper-data="{&quot;isSelectionBound&quot;:true,&quot;isHelperItem&quot;:true}" stroke-width="0.68213"><path d=""/><path d=""/><path d=""/></g></g><g stroke-width="1"><path d="M136.36913,304.24529c-2.05473,0 -3.72043,0 -3.72043,0v-96.0243c0,0 1.66569,0 3.72043,0h96.73118c2.05473,0 3.72043,0 3.72043,0v96.0243c0,0 -1.66569,0 -3.72043,0z" fill="#ffffff" stroke="#7c87a5" stroke-linecap="round" stroke-linejoin="round"/><path d="M143.81004,315.77861c-2.05473,0 -3.72043,0 -3.72043,0v-119.05378c0,0 1.66569,0 3.72043,0h81.84946c2.05473,0 3.72043,0 3.72043,0v119.05378c0,0 -1.66569,0 -3.72043,0z" fill="#e6e7e8" stroke="#7c87a5" stroke-linecap="round" stroke-linejoin="round"/><path d="M140.0896,297.17647v-48.3656h89.29033v48.3656z" fill="#ffffff" stroke="#7c87a5" stroke-linecap="round" stroke-linejoin="round"/><path d="M184.73477,248.81087v-14.88172" fill="#e6e7e8" stroke="#7c87a5" stroke-linecap="round" stroke-linejoin="round"/><path d="M151.25087,241.37002c-2.05473,0 -3.72043,0 -3.72043,0v-37.2043c0,0 1.66569,0 3.72043,0h66.96774c2.05473,0 3.72043,0 3.72043,0v37.2043c0,0 -1.66569,0 -3.72043,0z" fill="#414757" stroke="none" stroke-linecap="butt" stroke-linejoin="miter"/><path d="M182.87455,277.19777c-1.02737,0 -1.86022,0 -1.86022,0v-7.44085c0,0 0.83285,0 1.86022,0h3.72043c1.02737,0 1.86022,0 1.86022,0v7.44085c0,0 -0.83285,0 -1.86022,0z" fill="#7c87a5" stroke="none" stroke-linecap="butt" stroke-linejoin="miter" opacity="0.5"/><path d="M164.49562,269.7569h5.58065c1.02737,0 1.86022,0.83285 1.86022,1.86022v3.72043c0,1.02737 -0.83285,1.86022 -1.86022,1.86022h-5.58065c-2.05473,0 -3.72043,-1.66569 -3.72043,-3.72043c0,-2.05473 1.66569,-3.72043 3.72043,-3.72043z" fill="#7c87a5" stroke="none" stroke-linecap="butt" stroke-linejoin="miter" opacity="0.5"/><path d="M204.9367,277.19777h-5.61784c-1.02737,0 -1.86022,-0.83285 -1.86022,-1.86022v-3.72043c0,-1.02737 0.83285,-1.86022 1.86022,-1.86022h5.58065c2.05473,0 3.72043,1.66569 3.72043,3.72043c0.00009,2.0403 -1.64304,3.70002 -3.68323,3.72043z" fill="#7c87a5" stroke="none" stroke-linecap="butt" stroke-linejoin="miter" opacity="0.5"/><path d="M161.40768,259.97216h-12.01699c-1.02737,0 -1.86022,-0.83285 -1.86022,-1.86022v-9.30107h22.32257l-6.8828,10.34279c-0.35467,0.51308 -0.93885,0.81908 -1.56259,0.81849z" fill="#7c87a5" stroke="none" stroke-linecap="butt" stroke-linejoin="miter" opacity="0.5"/><path d="M198.31433,264.99476l-1.86022,1.86022c-0.36333,0.34999 -0.56537,0.83492 -0.55807,1.33936v1.07893c0,1.02737 -0.83285,1.86022 -1.86022,1.86022h-1.86022c-1.02737,0 -1.86022,-0.83285 -1.86022,-1.86022c0,-1.02737 -0.83285,-1.86022 -1.86022,-1.86022h-7.44085c-1.02737,0 -1.86022,0.83285 -1.86022,1.86022c0,1.02737 -0.83285,1.86022 -1.86022,1.86022h-1.86022c-1.02737,0 -1.86022,-0.83285 -1.86022,-1.86022v-1.07893c0.00732,-0.50443 -0.19472,-0.98936 -0.55807,-1.33936l-1.86022,-1.86022c-0.71353,-0.73597 -0.71353,-1.90555 0,-2.6415l5.61784,-5.54344c0.33587,-0.3614 0.80881,-0.56408 1.30215,-0.55807h13.31914c0.49335,-0.00601 0.96627,0.19665 1.30215,0.55807l5.61784,5.54344c0.71353,0.73597 0.71353,1.90555 0,2.6415z" fill="#7c87a5" stroke="none" stroke-linecap="butt" stroke-linejoin="miter" opacity="0.5"/><path d="M171.15516,282.10873l1.86022,-1.86022c0.36333,-0.34999 0.56537,-0.83492 0.55807,-1.33936v-1.07893c0,-1.02737 0.83285,-1.86022 1.86022,-1.86022h1.86022c1.02737,0 1.86022,0.83285 1.86022,1.86022c0,1.02737 0.83285,1.86022 1.86022,1.86022h7.44085c1.02737,0 1.86022,-0.83285 1.86022,-1.86022c0,-1.02737 0.83285,-1.86022 1.86022,-1.86022h1.86022c1.02737,0 1.86022,0.83285 1.86022,1.86022v1.07893c-0.00732,0.50443 0.19472,0.98936 0.55807,1.33936l1.86022,1.86022c0.70901,0.72333 0.70901,1.88098 0,2.60429l-5.61784,5.58065c-0.33587,0.3614 -0.80881,0.56408 -1.30215,0.55807h-13.31914c-0.49335,0.00601 -0.96627,-0.19665 -1.30215,-0.55807l-5.61784,-5.58065c-0.70901,-0.72333 -0.70901,-1.88098 0,-2.60429z" fill="#7c87a5" stroke="none" stroke-linecap="butt" stroke-linejoin="miter" opacity="0.5"/><path d="M210.77778,297.17647h18.60216v14.88172c0,2.05473 -1.66569,3.72043 -3.72043,3.72043h-14.88172z" fill="#f15a29" stroke="#cc4c23" stroke-linecap="round" stroke-linejoin="round"/></g><text transform="translate(301.3612,137.12755) scale(0.5,0.5)" font-size="40" xml:space="preserve" fill="#ffffff" fill-rule="nonzero" stroke="none" stroke-width="1" stroke-linecap="butt" stroke-linejoin="miter" stroke-miterlimit="10" stroke-dasharray="" stroke-dashoffset="0" font-family="Sans Serif" font-weight="normal" text-anchor="start" style="mix-blend-mode: normal"><tspan x="0" dy="0">Experimental</tspan></text><path d="M309.11872,148.90972l-35.21735,35.60132l11.89019,11.76195l-39.42024,0.21373l-0.21373,-39.42024l11.89019,11.76195l35.21735,-35.60132z" fill="#ffffff" stroke="none" stroke-width="0" stroke-linecap="butt" stroke-linejoin="miter"/></g></g></svg>