<svg version="1.1" xmlns="http://www.w3.org/2000/svg" xmlns:xlink="http://www.w3.org/1999/xlink" width="35.38462" height="41.38522" viewBox="0,0,35.38462,41.38522"><defs><radialGradient cx="246.28785" cy="187.15165" r="9.96512" gradientUnits="userSpaceOnUse" id="color-1"><stop offset="0" stop-color="#669bff"/><stop offset="1" stop-color="#3f76ff"/></radialGradient></defs><g transform="translate(-222.30769,-159.78516)"><g data-paper-data="{&quot;isPaintingLayer&quot;:true}" fill-rule="nonzero" stroke-linejoin="miter" stroke-miterlimit="10" stroke-dasharray="" stroke-dashoffset="0" style="mix-blend-mode: normal"><path d="M222.30769,197.69231v-35.38462h35.38462v35.38462z" fill="#ffc400" stroke="none" stroke-width="0" stroke-linecap="butt"/><text transform="translate(225.48427,181.53516) scale(0.5,0.5)" font-size="40" xml:space="preserve" fill="#2cb967" fill-rule="nonzero" stroke="none" stroke-width="1" stroke-linecap="butt" stroke-linejoin="miter" stroke-miterlimit="10" stroke-dasharray="" stroke-dashoffset="0" font-family="Sans Serif" font-weight="normal" text-anchor="start" style="mix-blend-mode: normal"><tspan x="0" dy="0">3</tspan></text><text transform="translate(239.88114,194.35413) scale(0.5453,0.5453)" font-size="40" xml:space="preserve" fill="#ffffff" fill-rule="nonzero" stroke="none" stroke-width="1" stroke-linecap="butt" stroke-linejoin="miter" stroke-miterlimit="10" stroke-dasharray="" stroke-dashoffset="0" font-family="Sans Serif" font-weight="normal" text-anchor="start" style="mix-blend-mode: normal"><tspan x="0" dy="0">D</tspan></text><g stroke="#000000" stroke-width="0.5"><path d="M236.32273,187.15165c0,-5.50358 4.46154,-9.96512 9.96512,-9.96512c5.50358,0 9.96512,4.46154 9.96512,9.96512c0,5.50358 -4.46154,9.96512 -9.96512,9.96512c-5.50358,0 -9.96512,-4.46154 -9.96512,-9.96512z" fill="url(#color-1)" stroke-linecap="butt"/><path d="M242.48462,177.96982l7.60645,18.36368" fill="none" stroke-linecap="round"/><path d="M255.46968,190.95491l-18.36365,-7.6065" fill="none" stroke-linecap="round"/><path d="M255.46969,183.34842l-18.36368,7.60646" fill="none" stroke-linecap="round"/><path d="M250.0911,177.96982l-7.6065,18.36365" fill="none" stroke-linecap="round"/></g></g></g></svg>