<svg xmlns="http://www.w3.org/2000/svg" xmlns:xlink="http://www.w3.org/1999/xlink" version="1.1" width="243.14831115722657" height="249.5157733154297" viewBox="-0.25199998378753663 -1.545745620727539 243.14831115722657 249.5157733154297"><g><g data-paper-data="{&quot;isPaintingLayer&quot;:true}" fill-rule="evenodd" stroke-linecap="none" stroke-linejoin="none" stroke-miterlimit="10" stroke-dasharray="" stroke-dashoffset="0" font-family="none" font-weight="none" font-size="none" text-anchor="none" style="mix-blend-mode: normal"><g data-paper-data="{&quot;index&quot;:null}" id="Group" stroke-linejoin="miter"><path d="M 206.8052 94.4955 C 205.5537 94.4955 204.5391 94.4955 204.5391 94.4955 L 204.5391 64.3462 C 204.5391 64.3462 205.5537 64.3462 206.8052 64.3462 L 206.8052 64.3462 C 208.0567 64.3462 209.0713 64.3462 209.0713 64.3462 L 209.0713 94.4955 C 209.0713 94.4955 208.0567 94.4955 206.8052 94.4955 Z " id="Rectangle" fill="#d974e8" stroke="#5e154d" stroke-width="0.6" stroke-linecap="butt"/><g id="Path"><path d="M 180.4091 71.8101 L 198.3282 71.8101 C 200.7906 71.5253 203.0318 70.2542 204.5391 68.2878 L 204.5391 90.5958 C 203.0318 88.6294 200.7906 87.3583 198.3282 87.0735 L 180.4091 87.0735 C 176.1909 87.0735 172.7714 83.6567 172.7714 79.4418 C 172.7714 75.2269 176.191 71.8101 180.4091 71.8101 Z " fill="#8b49d4" stroke="#5e154d" stroke-width="0.6" stroke-linecap="butt"/><path d="M 185.0672 98.2694 L 180.8707 98.2694 L 180.8707 87.0735 L 185.0672 87.0735 Z " fill="#8b49d4" stroke="#5e154d" stroke-width="0.6" stroke-linecap="butt"/><path d="M 176.6743 79.5257 C 176.6743 77.2098 178.5531 75.3324 180.8708 75.3324 " fill="none" stroke="#ffffff" stroke-width="0.6" stroke-linecap="butt"/><path d="M 225.8154 79.4418 L 218.6813 79.4418 " fill="none" stroke="#5e154d" stroke-width="1.2" stroke-linecap="round"/><path d="M 218.6813 90.9732 L 224.1368 96.3825 " fill="none" stroke="#5e154d" stroke-width="1.2" stroke-linecap="round"/><path d="M 218.6813 67.9104 L 224.1368 62.5011 " fill="none" stroke="#5e154d" stroke-width="1.2" stroke-linecap="round"/></g></g><g data-paper-data="{&quot;index&quot;:null}" id="Group" stroke-linecap="butt" stroke-linejoin="miter"><path d="M 6.5473 104.769 C 6.5473 100.3661 8.6876 98.2694 12.4644 98.2694 L 193.2925 98.2694 C 196.7696 98.5645 199.5587 101.2638 199.9648 104.727 L 207.0151 149.8463 L 231.8584 167.1643 C 235.0603 168.9021 236.8365 172.4518 236.3067 176.054 L 236.3067 193.6236 L 6.5473 193.6236 Z " id="Path" fill="#f7c1d8" stroke-width="1" stroke="none"/><path d="M 236.3067 192.4915 L 236.3067 229.6016 L 208.1901 229.6016 C 208.2585 222.7713 205.5675 216.202 200.7258 211.3798 C 195.8841 206.5577 189.3009 203.8903 182.4655 203.9809 C 175.7284 203.9288 169.2649 206.641 164.5849 211.4837 C 159.905 216.3265 157.4184 222.8757 157.706 229.6016 L 84.1411 229.6016 C 83.5795 215.615 72.0685 204.5653 58.0597 204.5653 C 44.0509 204.5653 32.5399 215.615 31.9783 229.6016 L 6.5474 229.6016 L 6.5474 192.4915 Z " id="Path" fill="#da53d6" stroke-width="1" stroke="none"/></g><path d="M 115.9506 98.2694 L 110.705 98.2694 L 110.705 86.151 L 115.9506 86.151 Z " data-paper-data="{&quot;index&quot;:null}" id="Path" fill="#5e154d" stroke="#5e154d" stroke-width="1.512" stroke-linecap="round" stroke-linejoin="round"/><path d="M 45.1973 98.1436 L 39.9517 98.1436 L 39.9517 86.0252 L 45.1973 86.0252 Z " data-paper-data="{&quot;index&quot;:null}" id="Path" fill="#5e154d" stroke="#5e154d" stroke-width="1.512" stroke-linecap="round" stroke-linejoin="round"/><g data-paper-data="{&quot;index&quot;:null}" id="Group" stroke-linecap="butt"><path d="M 191.7816 117.7261 C 193.7961 117.7261 195.6844 118.2292 196.23 121.9193 L 201.0979 155.4652 C 201.0783 156.536 200.5483 157.5332 199.6711 158.1489 L 189.5155 117.5164 Z " id="Path" fill="#b3e0d7" stroke="none" stroke-width="1" stroke-linejoin="miter"/><path d="M 185.8226 117.768 L 196.146 159.1552 L 186.4101 159.1552 C 184.3937 159.1552 182.7591 157.5219 182.7591 155.5071 L 182.7591 121.3742 C 182.7736 119.5902 184.0633 118.072 185.8226 117.768 Z " id="Path" fill="#b3e0d7" stroke="none" stroke-width="1" stroke-linejoin="miter"/><path d="M 186.4102 117.7261 L 189.5155 117.7261 L 199.6711 158.3585 C 198.9999 158.881 198.1718 159.1617 197.321 159.1552 L 196.146 159.1552 L 185.8226 117.768 Z " id="Path" fill="#d4fff5" stroke="none" stroke-width="1" stroke-linejoin="miter"/><path d="M 185.8226 117.768 L 191.7816 117.768 C 193.7961 117.768 195.6844 118.2712 196.23 121.9612 L 201.0979 155.5071 C 201.0783 156.578 200.5483 157.5751 199.6711 158.1908 C 198.9999 158.7133 198.1718 158.994 197.321 158.9875 L 186.4101 158.9875 C 184.3937 158.9875 182.7591 157.3542 182.7591 155.3394 L 182.7591 121.3742 C 182.7736 119.5902 184.0633 118.072 185.8226 117.768 Z " id="Path" fill="none" stroke="#5e154d" stroke-width="1.512" stroke-linejoin="round"/></g><g data-paper-data="{&quot;index&quot;:null}" id="Group"><path d="M 60.3887 126.1545 L 60.3887 171.064 L 51.4082 171.064 L 40.1615 126.1545 Z " id="Path" fill="#b3e0d7" stroke="none" stroke-width="1" stroke-linecap="butt" stroke-linejoin="miter"/><path d="M 40.1615 126.1545 L 51.4082 171.064 L 45.3652 171.064 L 34.1185 126.1545 Z " id="Path" fill="#d4fff5" stroke="none" stroke-width="1" stroke-linecap="butt" stroke-linejoin="miter"/><path d="M 30.7193 126.1545 L 41.924 171.064 L 38.5249 171.064 L 27.2782 126.1545 Z " id="Path" fill="#d4fff5" stroke="none" stroke-width="1" stroke-linecap="butt" stroke-linejoin="miter"/><path d="M 34.1185 126.1545 L 45.3652 171.064 L 41.924 171.064 L 30.7193 126.1545 Z " id="Path" fill="#b3e0d7" stroke="none" stroke-width="1" stroke-linecap="butt" stroke-linejoin="miter"/><path d="M 25.8933 126.1545 L 27.2782 126.1545 L 38.5249 171.064 L 25.8933 171.064 Z " id="Path" fill="#b3e0d7" stroke="none" stroke-width="1" stroke-linecap="butt" stroke-linejoin="miter"/><g id="Path" stroke-linejoin="round"><path d="M 109.0683 175.5927 L 21.3611 175.5927 L 21.3611 171.064 L 109.0683 171.064 Z " fill="#996cd4" stroke-linecap="round" stroke-width="1.512" stroke="#5e154d"/><path d="M 25.5576 109.2977 L 65.1308 109.2977 L 65.2567 109.2977 L 104.8718 109.2977 L 108.5647 126.1545 L 65.2567 126.1545 L 65.1308 126.1545 L 21.8647 126.1545 Z " fill="#ea3681" stroke-linecap="butt" stroke-width="1.512" stroke="#5e154d"/><path d="M 104.4941 171.064 L 60.3887 171.064 L 60.3887 126.1545 L 104.4941 126.1545 Z " fill="#43c3d7" stroke-linecap="round" stroke-width="1.512" stroke="#5e154d"/><path d="M 104.4941 182.7212 L 100.2976 182.7212 L 100.2976 175.5927 L 104.4941 175.5927 Z " fill="#5e154d" stroke-linecap="round" stroke-width="1.512" stroke="#5e154d"/><path d="M 29.5443 182.7212 L 25.3478 182.7212 L 25.3478 175.5927 L 29.5443 175.5927 Z " fill="#5e154d" stroke-linecap="round" stroke-width="1.512" stroke="#5e154d"/><path d="M 60.3887 171.064 L 25.8933 171.064 L 25.8933 126.1545 L 60.3887 126.1545 Z " fill="none" stroke-linecap="round" stroke-width="1.512" stroke="#5e154d"/></g></g><g data-paper-data="{&quot;index&quot;:null}" id="Group" stroke-linecap="butt"><path d="M 127.3231 117.7261 L 171.2188 117.7261 C 173.2352 117.7261 174.8698 119.3594 174.8698 121.3742 L 174.8698 197.104 C 162.7089 199.0561 153.058 208.3813 150.6978 220.4604 L 127.4072 220.4604 C 125.4233 220.4377 123.8208 218.8364 123.798 216.8542 L 123.798 121.3742 C 123.7969 119.4075 125.3561 117.7939 127.3231 117.7261 Z " id="Path" fill="#fc9fe4" stroke="#5e154d" stroke-width="1.512" stroke-linejoin="round"/><path d="M 167.316 126.5738 L 167.316 159.6584 L 162.6998 159.6584 L 154.4327 126.5738 Z " id="Path" fill="#b3e0d7" stroke="none" stroke-width="1" stroke-linejoin="miter"/><path d="M 154.4327 126.5738 L 162.6998 159.6584 L 156.6149 159.6584 L 148.3897 126.5738 Z " id="Path" fill="#d4fff5" stroke="none" stroke-width="1" stroke-linejoin="miter"/><path d="M 148.3897 126.5738 L 156.6149 159.6584 L 153.2157 159.6584 L 144.9905 126.5738 Z " id="Path" fill="#b3e0d7" stroke="none" stroke-width="1" stroke-linejoin="miter"/><path d="M 144.9905 126.5738 L 153.2157 159.6584 L 149.7745 159.6584 L 141.5494 126.5738 Z " id="Path" fill="#d4fff5" stroke="none" stroke-width="1" stroke-linejoin="miter"/><path d="M 131.2259 126.5738 L 141.5494 126.5738 L 149.7745 159.6584 L 131.2259 159.6584 Z " id="Path" fill="#b3e0d7" stroke="none" stroke-width="1" stroke-linejoin="miter"/><path d="M 167.316 180.0376 L 163.1195 180.0376 L 163.1195 171.0221 L 167.316 171.0221 Z " id="Path" fill="none" stroke="#d974e8" stroke-width="1.512" stroke-linejoin="round"/></g><g data-paper-data="{&quot;index&quot;:null}" id="Group" stroke-linejoin="miter"><g id="Path" stroke-linecap="butt"><path d="M 241.6363 206.413 L 236.2648 206.413 L 236.2648 195.5525 L 241.6363 195.5525 Z " fill="#f7c1d8" stroke="#5e154d" stroke-width="2.016"/><path d="M 221.9966 211.0256 L 213.6036 211.0256 L 213.6036 206.3711 L 221.9966 206.3711 Z " fill="none" stroke="#fc9fe4" stroke-width="1.512"/><path d="M 6.5474 206.413 L 1.008 206.413 L 1.008 195.5525 L 6.5474 195.5525 Z " fill="#8b49d4" stroke="#5e154d" stroke-width="2.016"/><path d="M 196.7336 171.0221 L 185.8646 171.0221 " fill="none" stroke="#000000" stroke-width="2.016"/><path d="M 185.8645 175.8024 L 196.7335 175.8024 " fill="none" stroke="#000000" stroke-width="2.016"/><path d="M 196.7336 180.6246 L 185.8646 180.6246 " fill="none" stroke="#000000" stroke-width="2.016"/><path d="M 12.4644 98.2694 L 193.2925 98.2694 C 196.7696 98.5645 199.5587 101.2638 199.9648 104.727 L 207.0151 149.8463 L 231.8584 167.1643 C 235.0603 168.9021 236.8365 172.4518 236.3067 176.054 L 236.3067 229.6016 L 208.1901 229.6016 C 208.1795 222.722 205.4138 216.1327 200.51 211.3037 C 195.6062 206.4746 188.9722 203.8074 182.0878 203.8971 C 168.5139 204.8684 157.9124 216.0068 157.6221 229.6016 L 84.1411 229.6016 C 84.0718 215.2461 72.4056 203.6453 58.0387 203.6455 C 43.6866 203.6455 32.8596 217.1477 32.4819 229.6016 L 6.5474 229.6016 L 6.5474 104.769 C 6.5474 100.3661 8.6877 98.2694 12.4645 98.2694 Z " fill="none" stroke="#5e154d" stroke-width="2.016"/></g><path d="M 233.2852 216.5607 L 233.2852 206.3711 L 239.7479 206.3711 L 239.7479 229.6016 L 226.8646 229.6016 L 226.8646 216.5606 Z " id="Path" fill="#d974e8" stroke="#5e154d" stroke-width="2.016" stroke-linecap="butt"/><path d="M 182.7592 209.3902 C 170.9115 209.7105 161.5417 219.5223 161.7766 231.3628 L 155.5238 231.3628 C 154.5263 220.9999 159.4962 210.9682 168.3481 205.4774 C 177.2 199.9865 188.4024 199.9865 197.2543 205.4774 C 206.1062 210.9682 211.0761 220.9999 210.0785 231.3628 L 203.8257 231.3628 C 204.0601 219.4904 194.64 209.6651 182.7592 209.3902 Z " id="Path" fill="#fdbb38" stroke="#5e154d" stroke-width="1.512" stroke-linecap="butt"/><path d="M 58.7101 209.3902 C 46.8724 209.733 37.5155 219.5313 37.7276 231.3628 L 31.4748 231.3628 C 30.4771 220.9999 35.447 210.9682 44.299 205.4774 C 53.1509 199.9865 64.3533 199.9865 73.2052 205.4774 C 82.0571 210.9682 87.0271 220.9999 86.0294 231.3628 L 79.8185 231.3628 C 80.0296 219.4835 70.5973 209.6652 58.7101 209.3902 Z " id="Path" fill="#fdbb38" stroke="#5e154d" stroke-width="1.512" stroke-linecap="butt"/><path d="M 230.3058 219.7894 L 230.3058 225.66 " id="Path" fill="none" stroke="#ffffff" stroke-width="1.512" stroke-linecap="round"/></g><g data-paper-data="{&quot;index&quot;:null}" id="Group" stroke-linejoin="miter"><g id="Path" stroke-linecap="round"><path d="M 12.0028 114.8327 L 12.0028 108.5429 C 11.8328 107.1486 12.3019 105.7521 13.2794 104.7427 C 14.2569 103.7333 15.6385 103.219 17.0386 103.3433 L 22.662 103.3433 " stroke-width="2.52" fill="none" stroke="#ffffff"/><path d="M 26.4389 103.3433 L 29.7962 103.3433 " stroke-width="2.52" fill="none" stroke="#ffffff"/></g><g id="Path" stroke-linecap="round"><path d="M 112.0058 199.8716 L 115.1532 202.052 " stroke-width="1.512" fill="none" stroke="#cc48cc"/><path d="M 97.6538 197.9007 L 96.7305 201.6327 " stroke-width="1.512" fill="none" stroke="#cc48cc"/><path d="M 106.1727 212.9545 L 105.7111 209.1386 " stroke-width="1.512" fill="none" stroke="#cc48cc"/><path d="M 135.6743 224.1504 L 139.2832 225.4922 " stroke-width="1.512" fill="none" stroke="#cc48cc"/><path d="M 226.8645 200.3748 L 223.3815 198.7394 " stroke-width="1.512" fill="none" stroke="#cc48cc"/><path d="M 217.2125 218.6153 L 218.3457 222.3054 " stroke-width="1.512" fill="none" stroke="#cc48cc"/><path d="M 205.5882 202.8907 L 207.5187 199.578 " stroke-width="1.512" fill="none" stroke="#cc48cc"/><path d="M 188.0887 197.3976 L 191.9075 197.6492 " stroke-width="1.512" fill="none" stroke="#cc48cc"/><path d="M 167.8196 203.939 L 170.6731 201.3392 " stroke-width="1.512" fill="none" stroke="#cc48cc"/><path d="M 156.3631 216.2671 L 156.3631 212.4093 " stroke-width="1.512" fill="none" stroke="#cc48cc"/><path d="M 95.3457 221.6764 L 96.2689 217.9444 " stroke-width="1.512" fill="none" stroke="#cc48cc"/><path d="M 86.8688 207.6291 L 90.0162 209.8095 " stroke-width="1.512" fill="none" stroke="#cc48cc"/><path d="M 78.5177 198.1943 L 76.2516 201.3392 " stroke-width="1.512" fill="none" stroke="#cc48cc"/><path d="M 62.3192 197.5234 L 58.4583 197.733 " stroke-width="1.512" fill="none" stroke="#cc48cc"/><path d="M 42.0499 198.1104 L 44.6937 200.9618 " stroke-width="1.512" fill="none" stroke="#cc48cc"/><path d="M 29.2506 206.5807 L 32.356 204.3164 " stroke-width="1.512" fill="none" stroke="#cc48cc"/><path d="M 23.0397 200.207 L 19.4307 198.8652 " stroke-width="1.512" fill="none" stroke="#cc48cc"/><path d="M 15.1923 210.6063 L 14.5627 206.8323 " stroke-width="1.512" fill="none" stroke="#cc48cc"/><path d="M 15.2341 222.8086 L 16.9967 219.412 " stroke-width="1.512" fill="none" stroke="#cc48cc"/><path d="M 24.2567 214.7156 L 27.404 216.938 " stroke-width="1.512" fill="none" stroke="#cc48cc"/><path d="M 110.9147 221.0893 L 114.5238 219.8314 " stroke-width="1.512" fill="none" stroke="#cc48cc"/></g><path d="M 167.316 159.6165 L 131.2259 159.6165 L 131.2259 126.5738 L 167.316 126.5738 Z " id="Path" fill="none" stroke="#5e154d" stroke-width="1.512" stroke-linecap="butt"/><g id="Path" stroke-linecap="round"><path d="M 108.7326 126.1545 L 108.7326 130.9767 C 108.7326 133.6399 106.572 135.7989 103.9067 135.7989 C 101.2413 135.7989 99.0807 133.6399 99.0807 130.9767 L 99.0807 126.1545 Z " fill="#ffffff" stroke-width="1.512" stroke="#5e154d"/><path d="M 98.9127 126.1545 L 98.9127 130.9767 C 99.0833 132.7991 98.2066 134.561 96.6495 135.5251 C 95.0923 136.4891 93.1231 136.4891 91.5659 135.5251 C 90.0087 134.561 89.132 132.7991 89.3027 130.9767 L 89.3027 126.1545 Z " fill="#f7c1d8" stroke-width="1.512" stroke="#5e154d"/><path d="M 89.3028 126.1545 L 89.3028 130.9767 C 89.3028 133.6399 87.1421 135.7989 84.4768 135.7989 C 81.8115 135.7989 79.6508 133.6399 79.6508 130.9767 L 79.6508 126.1545 Z " fill="#ffffff" stroke-width="1.512" stroke="#5e154d"/><path d="M 79.6507 126.1545 L 79.6507 130.9767 C 79.8213 132.7991 78.9446 134.561 77.3875 135.5251 C 75.8304 136.4891 73.8612 136.4891 72.304 135.5251 C 70.7468 134.561 69.8701 132.7991 70.0408 130.9767 L 70.0408 126.1545 Z " fill="#f7c1d8" stroke-width="1.512" stroke="#5e154d"/><path d="M 70.0408 126.1545 L 70.0408 130.9767 C 70.0408 133.6399 67.8801 135.7989 65.2148 135.7989 C 62.5494 135.7989 60.3888 133.6399 60.3888 130.9767 L 60.3888 126.1545 Z " fill="#ffffff" stroke-width="1.512" stroke="#5e154d"/><path d="M 60.3887 126.1545 L 60.3887 130.9767 C 60.3887 133.6399 58.228 135.7989 55.5627 135.7989 C 52.8973 135.7989 50.7368 133.6399 50.7368 130.9767 L 50.7368 126.1545 Z " fill="#f7c1d8" stroke-width="1.512" stroke="#5e154d"/><path d="M 50.7368 126.1545 L 50.7368 130.9767 C 50.9074 132.7991 50.0307 134.561 48.4735 135.5251 C 46.9164 136.4891 44.9472 136.4891 43.39 135.5251 C 41.8328 134.561 40.9561 132.7991 41.1268 130.9767 L 41.1268 126.1545 Z " fill="#ffffff" stroke-width="1.512" stroke="#5e154d"/><path d="M 41.1267 126.1545 L 41.1267 130.9767 C 41.1267 133.6399 38.966 135.7989 36.3007 135.7989 C 33.6353 135.7989 31.4748 133.6399 31.4748 130.9767 L 31.4748 126.1545 Z " fill="#f7c1d8" stroke-width="1.512" stroke="#5e154d"/><path d="M 31.4748 126.1545 L 31.4748 130.9767 C 31.6454 132.7991 30.7687 134.561 29.2115 135.5251 C 27.6543 136.4891 25.6852 136.4891 24.128 135.5251 C 22.5708 134.561 21.6941 132.7991 21.8647 130.9767 L 21.8647 126.1545 Z " fill="#ffffff" stroke-width="1.512" stroke="#5e154d"/></g><path d="M 182.8431 246.71 C 173.6419 246.71 166.1829 239.2568 166.1829 230.0629 C 166.1829 220.8689 173.6419 213.4157 182.8431 213.4157 C 192.0443 213.4157 199.5033 220.8689 199.5033 230.0629 C 199.5033 239.2568 192.0443 246.71 182.8431 246.71 Z " id="Oval" fill="#5e154d" stroke="#5e154d" stroke-width="2.016" stroke-linecap="round"/></g><path d="M 182.8431 238.9106 C 177.9528 238.9106 173.9885 234.9493 173.9885 230.0629 C 173.9885 225.1764 177.9528 221.2151 182.8431 221.2151 C 187.7334 221.2151 191.6978 225.1764 191.6978 230.0629 C 191.6978 234.9493 187.7334 238.9106 182.8431 238.9106 Z " data-paper-data="{&quot;index&quot;:null}" id="Oval" fill="#c5a2fc" stroke="#c5a2fc" stroke-width="1.008" stroke-linecap="butt" stroke-linejoin="miter"/><path d="M 182.8431 235.2625 C 179.9692 235.2625 177.6394 232.9345 177.6394 230.0629 C 177.6394 227.1912 179.9692 224.8633 182.8431 224.8633 C 185.717 224.8633 188.0468 227.1912 188.0468 230.0629 C 188.0468 232.9345 185.717 235.2625 182.8431 235.2625 Z " data-paper-data="{&quot;index&quot;:null}" id="Oval" fill="#ffffff" stroke="#8b49d4" stroke-width="1.512" stroke-linecap="round" stroke-linejoin="round"/><path d="M 58.7101 246.71 C 49.5089 246.71 42.0499 239.2568 42.0499 230.0629 C 42.0499 220.8689 49.5089 213.4157 58.7101 213.4157 C 67.9113 213.4157 75.3703 220.8689 75.3703 230.0629 C 75.3703 239.2568 67.9113 246.71 58.7101 246.71 Z " data-paper-data="{&quot;index&quot;:null}" id="Oval" fill="#5e154d" stroke="#5e154d" stroke-width="2.016" stroke-linecap="round" stroke-linejoin="round"/><path d="M 58.7101 238.9106 C 53.8198 238.9106 49.8555 234.9493 49.8555 230.0629 C 49.8555 225.1764 53.8198 221.2151 58.7101 221.2151 C 63.6004 221.2151 67.5648 225.1764 67.5648 230.0629 C 67.5648 234.9493 63.6004 238.9106 58.7101 238.9106 Z " data-paper-data="{&quot;index&quot;:null}" id="Oval" fill="#c5a2fc" stroke="#c5a2fc" stroke-width="1.008" stroke-linecap="butt" stroke-linejoin="miter"/><path d="M 58.7101 235.2625 C 55.8362 235.2625 53.5064 232.9345 53.5064 230.0629 C 53.5064 227.1912 55.8362 224.8633 58.7101 224.8633 C 61.584 224.8633 63.9138 227.1912 63.9138 230.0629 C 63.9138 232.9345 61.584 235.2625 58.7101 235.2625 Z " data-paper-data="{&quot;index&quot;:null}" id="Oval" fill="#ffffff" stroke="#8b49d4" stroke-width="1.512" stroke-linecap="round" stroke-linejoin="round"/><g data-paper-data="{&quot;index&quot;:null}" id="Group" stroke-linejoin="miter"><path d="M 136.5974 84.9769 C 136.2197 86.9058 132.4009 98.9404 132.4009 98.9404 C 129.2955 101.666 99.2904 106.5301 69.4531 99.8209 C 40.6231 93.3214 22.3682 71.6424 21.2352 67.4492 L 25.9772 55.121 L 95.5555 19.4366 Z " id="Path" fill="#fde982" stroke="#e89f1f" stroke-width="1.512" stroke-linecap="butt"/><path d="M 129.7151 88.9605 C 129.7151 88.9605 97.1082 94.9149 70.7121 88.4153 C 54.1828 84.0251 39.5377 74.3675 28.9987 60.9077 " id="Path" fill="none" stroke="#ffffff" stroke-width="1.512" stroke-linecap="round"/><g id="Path"><path d="M 74.3211 38.5578 L 71.9711 47.6151 " fill="none" stroke-width="2.016" stroke-linecap="round" stroke="#fdbb38"/><path d="M 111.8003 62.2084 L 97.598 70.3643 L 89.4358 56.1731 L 103.638 48.0173 Z " fill="none" stroke-width="2.1" stroke-linecap="butt" stroke="#fdbb38"/><path d="M 101.6112 41.5789 L 87.4738 49.7347 L 79.3116 35.6084 L 93.449 27.4525 Z " fill="none" stroke-width="1.512" stroke-linecap="butt" stroke="#fdbb38"/><path d="M 95.8397 44.86 L 87.4808 49.6822 L 82.6549 41.3299 L 91.0137 36.5077 Z " fill="#fdbb38" stroke-width="1.512" stroke-linecap="butt" stroke="#fdbb38"/><path d="M 60.2209 46.483 L 74.3212 38.5577 L 82.4624 52.689 L 68.3621 60.8238 Z " fill="none" stroke-width="1.512" stroke-linecap="butt" stroke="#fdbb38"/><path d="M 93.6359 72.1922 L 79.4986 80.3481 L 71.3363 66.2217 L 85.4737 58.0659 Z " fill="none" stroke-width="1.512" stroke-linecap="butt" stroke="#fdbb38"/><path d="M 94.0867 85.1865 C 91.178 85.0648 88.2781 84.7849 85.3999 84.3479 L 96.9403 77.6806 L 101.1369 85.2285 C 98.7882 85.3605 96.4336 85.3465 94.0867 85.1865 Z " fill="none" stroke-width="1.512" stroke-linecap="butt" stroke="#fdbb38"/><path d="M 56.6539 74.4938 L 66.2639 69.0006 L 73.7757 82.0416 C 70.6996 81.1004 67.6861 79.966 64.7531 78.6451 C 60.3048 76.6323 56.6539 74.4938 56.6539 74.4938 Z " fill="none" stroke-width="1.512" stroke-linecap="butt" stroke="#fdbb38"/><path d="M 113.2228 84.4737 C 109.4879 84.8511 107.5156 84.8511 107.5156 84.8511 L 102.0601 74.7873 L 116.2023 66.6524 L 124.3436 80.7836 L 119.3498 83.635 C 119.3498 83.635 116.9578 84.0963 113.2228 84.4737 Z " fill="none" stroke-width="1.512" stroke-linecap="butt" stroke="#fdbb38"/><path d="M 44.316 64.8493 C 42.3113 63.0388 40.4059 61.1211 38.6087 59.1046 L 55.1011 49.586 L 63.2423 63.6752 L 51.1983 70.636 C 51.1983 70.636 48.0929 68.2878 44.316 64.8493 Z " fill="none" stroke-width="1.512" stroke-linecap="butt" stroke="#fdbb38"/><path d="M 76.8011 55.951 L 68.4423 60.7732 L 63.6163 52.4209 L 71.9752 47.5987 Z " fill="#fdbb38" stroke-width="1.512" stroke-linecap="butt" stroke="#fdbb38"/><path d="M 43.3928 63.9688 L 53.1287 58.3918 L 57.9547 66.7363 L 51.1983 70.636 Z " fill="#fdbb38" stroke-width="1.512" stroke-linecap="butt" stroke="#fdbb38"/><path d="M 107.1994 64.5486 L 98.8405 69.3708 L 94.0145 61.0185 L 102.3734 56.1963 Z " fill="#fdbb38" stroke-width="1.512" stroke-linecap="butt" stroke="#fdbb38"/><path d="M 87.9008 75.4217 L 79.5419 80.2439 L 74.7159 71.8916 L 83.0748 67.0694 Z " fill="#fdbb38" stroke-width="1.512" stroke-linecap="butt" stroke="#fdbb38"/><path d="M 105.2075 80.6159 L 114.1881 75.4163 L 119.0141 83.8028 L 107.5156 84.8511 Z " fill="#fdbb38" stroke-width="1.512" stroke-linecap="butt" stroke="#fdbb38"/><path d="M 104.8298 47.1539 L 102.3538 56.2113 " fill="none" stroke-width="1.512" stroke-linecap="butt" stroke="#fdbb38"/><path d="M 85.4419 58.0982 L 83.0499 67.0298 " fill="none" stroke-width="1.512" stroke-linecap="butt" stroke="#fdbb38"/><path d="M 114.1881 75.4163 L 116.2023 66.6524 " fill="none" stroke-width="1.512" stroke-linecap="butt" stroke="#fdbb38"/><path d="M 53.1287 58.3918 L 55.1011 49.586 " fill="none" stroke-width="1.512" stroke-linecap="butt" stroke="#fdbb38"/><path d="M 64.2495 78.3935 L 66.2638 69.0006 " fill="none" stroke-width="1.512" stroke-linecap="butt" stroke="#fdbb38"/><path d="M 96.7725 77.6806 L 95.2199 85.2285 " fill="none" stroke-width="1.512" stroke-linecap="butt" stroke="#fdbb38"/></g></g><path d="M 91.4009 18.6818 C 97.1067 16.2041 103.7462 17.4314 108.187 21.7848 C 109.9005 23.7875 110.702 26.4126 110.3996 29.03 C 110.0969 31.6474 108.7176 34.0208 106.5924 35.5806 C 101.9343 38.0965 100.6753 35.5806 97.4021 37.0901 C 94.8002 38.3062 94.7163 40.864 90.6037 41.6188 C 86.4911 42.3736 85.4 41.0318 82.5464 42.2897 C 79.6927 43.5477 78.6017 48.7892 74.1533 48.3699 C 68.8238 47.8667 70.3765 42.3736 66.9773 39.6061 C 63.5781 36.8385 59.2557 39.1029 57.1155 33.2743 C 55.3529 28.3263 59.5075 24.4265 64.3755 24.0911 C 70.4604 23.7137 71.9712 27.5295 77.5945 26.8167 C 83.2178 26.1038 85.9456 20.6107 91.401 18.6818 Z " data-paper-data="{&quot;index&quot;:null}" id="Path" fill="#ffffff" stroke="#fc9fe4" stroke-width="1.512" stroke-linecap="round" stroke-linejoin="round"/><g data-paper-data="{&quot;index&quot;:null}" id="Group" stroke-linecap="butt" stroke-linejoin="miter"><path d="M 74.9086 7.402 C 74.0273 4.5506 73.1462 1.1541 74.9086 0.609 C 76.6712 0.0638 79.6507 5.1377 79.6507 5.1377 C 79.6507 5.1377 81.0776 -0.6071 83.2597 -0.2716 C 85.4419 0.0638 85.4419 5.8924 85.4419 5.8924 C 86.0714 5.1377 90.3938 2.4121 91.275 3.7958 C 92.1564 5.1796 89.051 9.3728 89.051 9.3728 Z " id="Path" fill="#43c3d7" stroke="#43c3d7" stroke-width="1.218"/><g id="Path"><path d="M 85.2321 30.968 C 83.6176 32.8663 81.1285 33.7848 78.6668 33.3905 C 76.205 32.9963 74.1279 31.3465 73.188 29.0391 C 68.446 20.8204 67.9424 10.4211 69.7889 8.4503 C 71.6353 6.4795 76.1676 5.3054 83.0079 6.4795 C 88.883 7.5278 93.9608 10.0857 93.9608 13.4822 C 92.9748 20.0864 89.9188 26.2082 85.2321 30.968 Z " fill="#ea3681" stroke="#ea3681" stroke-width="1.512"/><path d="M 80.1543 12.4758 L 79.0212 14.0692 " fill="none" stroke="#ffffff" stroke-width="1.218"/><path d="M 87.1205 16.2078 L 85.3579 15.3692 " fill="none" stroke="#ffffff" stroke-width="1.218"/><path d="M 74.5309 18.4302 L 73.6916 16.711 " fill="none" stroke="#ffffff" stroke-width="1.218"/><path d="M 83.2597 20.5688 L 81.7071 21.7429 " fill="none" stroke="#ffffff" stroke-width="1.218"/><path d="M 81.9588 26.8167 L 83.0079 28.4521 " fill="none" stroke="#ffffff" stroke-width="1.218"/><path d="M 75.7061 25.0136 L 76.5034 23.2524 " fill="none" stroke="#ffffff" stroke-width="1.218"/></g></g><path d="M 72.013 35.5806 C 74.0974 33.4261 76.9882 32.2402 79.9864 32.3098 C 83.1462 31.9989 86.2646 33.2142 88.3794 35.5806 " data-paper-data="{&quot;index&quot;:null}" id="Path" fill="#ffffff" stroke="#fc9fe4" stroke-width="1.512" stroke-linecap="round" stroke-linejoin="round"/><g data-paper-data="{&quot;index&quot;:null}" id="Group"><g id="Path" stroke-linecap="butt" stroke-linejoin="miter"><path d="M 91.0232 143.9338 L 91.0232 142.8855 L 92.4081 142.8855 L 92.4081 143.9338 C 92.4081 144.6466 93.2894 144.2692 93.2894 145.066 L 93.2894 146.5755 L 90.1839 146.5755 L 90.1839 145.066 C 90.1839 144.1854 91.0232 144.6466 91.0232 143.9338 Z " stroke-width="1" fill="#ffffff" stroke="none"/><path d="M 93.2894 146.5755 L 93.8769 146.5755 C 94.2312 146.5977 94.507 146.8917 94.5065 147.2464 L 94.5065 149.5947 C 94.507 149.9494 94.2312 150.2434 93.8769 150.2656 L 93.2894 150.2656 Z " stroke-width="1" fill="#ffffff" stroke="none"/><path d="M 91.7368 150.2656 L 89.5965 150.2656 C 89.2257 150.2656 88.925 149.9652 88.925 149.5947 L 88.925 147.2464 C 88.925 146.8759 89.2257 146.5755 89.5965 146.5755 L 93.2895 146.5755 L 93.2895 150.2656 Z " stroke-width="1" fill="#ffffff" stroke="none"/></g><path d="M 93.2894 153.1589 L 93.2894 150.2656 L 94.2126 150.2656 L 94.2126 152.1525 C 94.0958 153.0413 94.6499 153.8808 95.5136 154.1234 C 96.5627 154.5846 96.5627 155.9684 96.5627 157.3941 L 96.5627 168.3804 C 96.5627 169.6383 96.0592 170.435 94.9261 170.435 L 94.2547 170.435 C 94.2547 166.9127 94.2547 157.8553 94.2547 155.8426 C 94.2966 154.5007 93.2895 154.7104 93.2895 153.1589 Z " id="Path" fill="#f7c1d8" stroke="none" stroke-width="1" stroke-linecap="butt" stroke-linejoin="miter"/><path d="M 87.75 154.1234 C 88.6136 153.8808 89.1678 153.0413 89.051 152.1525 L 89.051 150.2656 L 93.2474 150.2656 L 93.2474 153.1589 C 93.2474 154.7104 94.2546 154.5007 94.2546 155.8426 L 94.2546 170.435 L 88.5053 170.435 C 87.4142 170.435 86.9107 169.6383 86.9107 168.3804 L 86.9107 157.1844 C 86.9107 155.7587 86.9107 154.5846 87.75 154.1234 Z " id="Path" fill="#ea3681" stroke="none" stroke-width="1" stroke-linecap="butt" stroke-linejoin="miter"/><path d="M 89.219 150.7688 C 89.0567 150.7688 88.925 150.7688 88.925 150.7688 L 88.925 146.5755 C 88.925 146.5755 89.0567 146.5755 89.219 146.5755 L 94.2124 146.5755 C 94.3748 146.5755 94.5064 146.5755 94.5064 146.5755 L 94.5064 150.7688 C 94.5064 150.7688 94.3748 150.7688 94.2124 150.7688 Z " id="Rectangle" fill="none" stroke="#663c1d" stroke-width="1.008" stroke-linecap="round" stroke-linejoin="round"/><path d="M 91.0232 143.9338 L 91.0232 142.8855 L 92.4081 142.8855 L 92.4081 143.9338 C 92.4081 144.6466 93.2894 144.2692 93.2894 145.066 L 93.2894 146.5755 L 90.1839 146.5755 L 90.1839 145.066 C 90.1839 144.1854 91.0232 144.6466 91.0232 143.9338 Z " id="Path" fill="none" stroke="#663c1d" stroke-width="1.008" stroke-linecap="round" stroke-linejoin="round"/><path d="M 87.75 154.1234 C 88.6136 153.8808 89.1678 153.0413 89.051 152.1525 L 89.051 150.2656 L 94.2126 150.2656 L 94.2126 152.1525 C 94.0958 153.0413 94.6499 153.8808 95.5136 154.1234 C 96.5627 154.5846 96.5627 155.9684 96.5627 157.3941 L 96.5627 168.3804 C 96.5627 169.6383 96.0592 170.435 94.9261 170.435 L 88.5054 170.435 C 87.4143 170.435 86.9108 169.6383 86.9108 168.3804 L 86.9108 157.1844 C 86.9108 155.7587 86.9108 154.5846 87.7501 154.1234 Z " id="Path" fill="none" stroke="#663c1d" stroke-width="1.008" stroke-linecap="round" stroke-linejoin="round"/></g><g data-paper-data="{&quot;index&quot;:null}" id="Group"><g id="Path" stroke-linecap="butt" stroke-linejoin="miter"><path d="M 78.6017 143.9338 L 78.6017 142.8855 L 79.9865 142.8855 L 79.9865 143.9338 C 79.9865 144.6466 80.8258 144.2692 80.8258 145.066 L 80.8258 146.5755 L 77.7204 146.5755 L 77.7204 145.066 C 77.7204 144.1854 78.6017 144.6466 78.6017 143.9338 Z " stroke-width="1" fill="#ffffff" stroke="none"/><path d="M 80.8257 146.5755 L 81.4133 146.5755 C 81.7841 146.5755 82.0848 146.8759 82.0848 147.2464 L 82.0848 149.5947 C 82.0848 149.9652 81.7841 150.2656 81.4133 150.2656 L 80.8257 150.2656 Z " stroke-width="1" fill="#ffffff" stroke="none"/><path d="M 79.3569 150.2656 L 77.2167 150.2656 C 76.8624 150.2434 76.5865 149.9494 76.5872 149.5947 L 76.5872 147.2464 C 76.5865 146.8917 76.8624 146.5977 77.2167 146.5755 L 80.9096 146.5755 L 80.9096 150.2656 Z " stroke-width="1" fill="#ffffff" stroke="none"/></g><path d="M 80.8257 153.1589 L 80.8257 150.2656 L 81.749 150.2656 L 81.749 152.1525 C 81.6321 153.0413 82.1863 153.8808 83.0499 154.1234 C 84.0991 154.5846 84.0991 155.9684 84.0991 157.3941 L 84.0991 168.3804 C 84.0991 169.6383 83.5954 170.435 82.5044 170.435 L 81.791 170.435 C 81.791 166.9127 81.791 157.8553 81.791 155.8426 C 81.833 154.5007 80.8257 154.7104 80.8257 153.1589 Z " id="Path" fill="#fde982" stroke="none" stroke-width="1" stroke-linecap="butt" stroke-linejoin="miter"/><path d="M 75.4962 154.1234 C 76.3597 153.8808 76.9141 153.0413 76.7971 152.1525 L 76.7971 150.2656 L 80.9936 150.2656 L 80.9936 153.1589 C 80.9936 154.7104 82.0007 154.5007 82.0007 155.8426 L 82.0007 170.435 L 76.2935 170.435 C 75.1604 170.435 74.6568 169.6383 74.6568 168.3804 L 74.6568 157.1844 C 74.447 155.7587 74.447 154.5846 75.4962 154.1234 Z " id="Path" fill="#fdbb38" stroke="none" stroke-width="1" stroke-linecap="butt" stroke-linejoin="miter"/><path d="M 76.7973 150.7688 C 76.635 150.7688 76.5033 150.7688 76.5033 150.7688 L 76.5033 146.5755 C 76.5033 146.5755 76.635 146.5755 76.7973 146.5755 L 81.7907 146.5755 C 81.9531 146.5755 82.0847 146.5755 82.0847 146.5755 L 82.0847 150.7688 C 82.0847 150.7688 81.9531 150.7688 81.7907 150.7688 Z " id="Rectangle" fill="none" stroke="#663c1d" stroke-width="1.008" stroke-linecap="round" stroke-linejoin="round"/><path d="M 78.6017 143.9338 L 78.6017 142.8855 L 79.9865 142.8855 L 79.9865 143.9338 C 79.9865 144.6466 80.8258 144.2692 80.8258 145.066 L 80.8258 146.5755 L 77.7204 146.5755 L 77.7204 145.066 C 77.7204 144.1854 78.6017 144.6466 78.6017 143.9338 Z " id="Path" fill="none" stroke="#663c1d" stroke-width="1.008" stroke-linecap="round" stroke-linejoin="round"/><path d="M 75.4962 154.1234 C 76.3597 153.8808 76.9141 153.0413 76.7971 152.1525 L 76.7971 150.2656 L 81.7489 150.2656 L 81.7489 152.1525 C 81.632 153.0413 82.1862 153.8808 83.0499 154.1234 C 84.099 154.5846 84.099 155.9684 84.099 157.3941 L 84.099 168.3804 C 84.099 169.6383 83.5954 170.435 82.5043 170.435 L 76.0836 170.435 C 74.9506 170.435 74.447 169.6383 74.447 168.3804 L 74.447 157.1844 C 74.447 155.7587 74.447 154.5846 75.4962 154.1234 Z " id="Path" fill="none" stroke="#663c1d" stroke-width="1.008" stroke-linecap="round" stroke-linejoin="round"/></g></g></g></svg>