<svg version="1.1" xmlns="http://www.w3.org/2000/svg" xmlns:xlink="http://www.w3.org/1999/xlink" width="60.61866" height="61.11091" viewBox="0,0,60.61866,61.11091"><defs><linearGradient x1="413.93161" y1="49.89371" x2="414.08994" y2="51.66719" gradientUnits="userSpaceOnUse" id="color-1"><stop offset="0" stop-color="#1a1a1a"/><stop offset="1" stop-color="#f30000" stop-opacity="0"/></linearGradient></defs><g transform="translate(-398.65215,-13.9352)"><g data-paper-data="{&quot;isPaintingLayer&quot;:true}" stroke-dasharray="" stroke-dashoffset="0" style="mix-blend-mode: normal"><path d="M422.42513,60.9352c-5.60808,0 -10.15432,-4.54624 -10.15432,-10.15432v-26.69136c0,-5.60808 4.54624,-10.15432 10.15432,-10.15432h26.69136c5.60808,0 10.15432,4.54624 10.15432,10.15432v26.69136c0,5.60808 -4.54624,10.15432 -10.15432,10.15432z" fill="#47ed2b" fill-rule="nonzero" stroke="#ffffff" stroke-width="0" stroke-linecap="butt" stroke-linejoin="miter" stroke-miterlimit="10"/><path d="M412.36228,52.718c1.36512,-1.30297 4.21875,-0.53327 6.42392,1.71334l3.8202,3.32143l-0.40712,0.26094c-0.22965,-0.30868 -2.62436,-2.3229 -2.90311,-2.61693c-1.81212,-1.91139 -5.13658,-3.13374 -6.52172,-1.81162c-0.16728,0.15968 -0.30295,0.3433 -0.41126,0.54639l-0.57336,-0.49406c0.11788,-0.35578 0.30796,-0.66702 0.57246,-0.91947z" data-paper-data="{&quot;index&quot;:null}" fill="url(#color-1)" fill-rule="nonzero" stroke="none" stroke-width="1" stroke-linecap="butt" stroke-linejoin="miter" stroke-miterlimit="10"/><g fill-rule="evenodd" stroke-linecap="round" stroke-linejoin="round" stroke-miterlimit="1.5"><path d="M420.70425,64.91197c0.45247,1.6886 -0.54955,3.42421 -2.23815,3.87667l-7.49212,2.00747c-1.6886,0.45244 -3.42421,-0.54963 -3.87668,-2.23823l-4.19515,-15.65598c-0.45247,-1.6886 0.54956,-3.42421 2.23815,-3.87667l7.49212,-2.00747c1.6886,-0.45245 3.4242,0.54963 3.87669,2.23823z" data-paper-data="{&quot;index&quot;:null}" fill="none" stroke="#ffffff" stroke-width="8.5"/><path d="M420.27434,64.616c0.45247,1.6886 -0.54955,3.42421 -2.23815,3.87667l-7.49212,2.00747c-1.6886,0.45244 -3.42421,-0.54962 -3.87668,-2.23823l-4.19515,-15.65598c-0.45247,-1.6886 0.54956,-3.42422 2.23815,-3.87667l7.49212,-2.00747c1.6886,-0.45245 3.4242,0.54963 3.87669,2.23823z" data-paper-data="{&quot;index&quot;:null}" fill="#000000" stroke="none" stroke-width="1"/><path d="M408.24708,68.23136l-4.37514,-16.32815l10.88556,-2.91683l4.37514,16.32815z" data-paper-data="{&quot;index&quot;:null}" fill="#ffffff" stroke="none" stroke-width="1"/><path d="M414.61162,58.71627v-2.38907" data-paper-data="{&quot;index&quot;:null}" fill="none" stroke="#000000" stroke-width="2.5"/><path d="M408.13139,57.93192v-2.38907" data-paper-data="{&quot;index&quot;:null}" fill="none" stroke="#000000" stroke-width="2.5"/><path d="M413.57408,61.24492c-1.54161,0.89005 -3.51573,0.36108 -4.40577,-1.18053" data-paper-data="{&quot;index&quot;:null}" fill="none" stroke="#000000" stroke-width="3"/></g></g></g></svg>