<svg version="1.1" xmlns="http://www.w3.org/2000/svg" xmlns:xlink="http://www.w3.org/1999/xlink" width="56.28963" height="46.32647" viewBox="0,0,56.28963,46.32647"><defs><linearGradient x1="371.42027" y1="-269.66057" x2="371.45327" y2="-314.82827" gradientUnits="userSpaceOnUse" id="color-1"><stop offset="0" stop-color="#ee2a7b"/><stop offset="1" stop-color="#811150"/></linearGradient></defs><g transform="translate(-212.29895,-157.05767)"><g data-paper-data="{&quot;isPaintingLayer&quot;:true}" fill="url(#color-1)" fill-rule="nonzero" stroke="#ffffff" stroke-width="1.15823" stroke-linecap="butt" stroke-linejoin="miter" stroke-miterlimit="10" stroke-dasharray="" stroke-dashoffset="0" style="mix-blend-mode: normal"><path d="M242.01547,166.06363c-1.9273,-1.9282 -1.925,-5.0554 0.0051,-6.9822c1.9292,-1.9282 5.0555,-1.9259 6.9837,0.0051c7.6077,7.6188 17.5616,17.5877 17.5616,17.5877c1.9268,1.9292 1.9245,5.056 -0.0051,6.9832c0,0 -11.5513,11.5359 -17.7292,17.7038c-1.9296,1.9273 -5.0554,1.9245 -6.9836,-0.0051c-1.9273,-1.9296 -1.925,-5.0559 0.0051,-6.9832c7.6188,-7.6072 9.2703,-9.2762 9.2703,-9.2762c0,0 -24.5813,-0.0281 -33.3107,-0.0345c-2.7274,-0.002 -4.9366,-2.2139 -4.9346,-4.9413c0.002,-2.727 2.2145,-4.9366 4.9418,-4.9347c10.412,0.0076 33.3375,0.0341 33.3375,0.0341c0,0 -2.973,-2.977 -9.1419,-9.1567z"/></g></g></svg>