<svg version="1.1" xmlns="http://www.w3.org/2000/svg" xmlns:xlink="http://www.w3.org/1999/xlink" width="36.44009" height="35.38462" viewBox="0,0,36.44009,35.38462"><g transform="translate(-221.25222,-162.30769)"><g data-paper-data="{&quot;isPaintingLayer&quot;:true}" fill-rule="nonzero" stroke="none" stroke-linecap="butt" stroke-linejoin="miter" stroke-miterlimit="10" stroke-dasharray="" stroke-dashoffset="0" style="mix-blend-mode: normal"><path d="M222.30769,197.69231v-35.38462h35.38462v35.38462z" fill="#2fc4ff" stroke-width="0"/><text transform="translate(221.50223,186) scale(0.5,0.5)" font-size="40" xml:space="preserve" fill="#ffb566" fill-rule="nonzero" stroke="none" stroke-width="1" stroke-linecap="butt" stroke-linejoin="miter" stroke-miterlimit="10" stroke-dasharray="" stroke-dashoffset="0" font-family="Sans Serif" font-weight="normal" text-anchor="start" style="mix-blend-mode: normal"><tspan x="0" dy="0">1</tspan></text><g stroke-width="0"><path d="M233.29885,175.61197l-1.47983,-1.47983l1.32608,-1.32608l1.47983,1.47983z" fill="#3ed3f7"/><path d="M241.37107,175.01403l-1.47983,-1.47983l1.32608,-1.32608l1.47983,1.47983z" fill="#f74848"/><path d="M242.94746,175.91094l-1.47983,-1.47983l1.32608,-1.32608l1.47983,1.47983z" fill="#3ed3f7"/><path d="M239.84903,175.72069l-1.47983,-1.47983l1.32608,-1.32608l1.47983,1.47983z" fill="#3ed3f7"/><path d="M238.62597,175.85658l-1.47983,-1.47983l1.32608,-1.32608l1.47983,1.47983z" fill="#f74848"/><path d="M236.12549,175.69351l-1.47983,-1.47983l1.32608,-1.32608l1.47983,1.47983z" fill="#3ed3f7"/><path d="M237.34855,174.47045l-1.47983,-1.47983l1.32608,-1.32608l1.47983,1.47983z" fill="#f74848"/><path d="M239.27827,174.98685l-1.47983,-1.47983l1.32608,-1.32608l1.47983,1.47983z" fill="#3ef744"/><path d="M245.23051,175.34018l-1.47983,-1.47983l1.32608,-1.32608l1.47983,1.47983z" fill="#3ed3f7"/><path d="M246.75254,175.20429l-1.47983,-1.47983l1.32608,-1.32608l1.47983,1.47983z" fill="#3ed3f7"/><path d="M244.06181,175.47608l-1.47983,-1.47983l1.32608,-1.32608l1.47983,1.47983z" fill="#3ed3f7"/><path d="M248.3833,174.28019l-1.47983,-1.47983l1.32608,-1.32608l1.47983,1.47983z" fill="#f74848"/><path d="M249.90533,173.79097l-1.47983,-1.47983l1.32608,-1.32608l1.47983,1.47983z" fill="#3ed3f7"/><path d="M251.23711,174.47045l-1.47983,-1.47983l1.32608,-1.32608l1.47983,1.47983z" fill="#f7f13e"/><path d="M249.87815,175.53044l-1.47983,-1.47983l1.32608,-1.32608l1.47983,1.47983z" fill="#3ef744"/><path d="M252.86786,175.4489l-1.47983,-1.47983l1.32608,-1.32608l1.47983,1.47983z" fill="#f74848"/><path d="M253.87349,174.7966l-1.47983,-1.47983l1.32608,-1.32608l1.47983,1.47983z" fill="#3ef744"/><path d="M254.74322,175.06839l-1.47983,-1.47983l1.32608,-1.32608l1.47983,1.47983z" fill="#f74848"/><path d="M234.11423,175.50326l-1.47983,-1.47983l1.32608,-1.32608l1.47983,1.47983z" fill="#f74848"/><path d="M235.44601,175.12275l-1.47983,-1.47983l1.32608,-1.32608l1.47983,1.47983z" fill="#f7f13e"/><path d="M232.56501,175.88376l-1.47983,-1.47983l1.32608,-1.32608l1.47983,1.47983z" fill="#f74848"/><path d="M243.08336,175.04121l-1.47983,-1.47983l1.32608,-1.32608l1.47983,1.47983z" fill="#f7f13e"/><path d="M245.52948,174.06276l-1.47983,-1.47983l1.32608,-1.32608l1.47983,1.47983z" fill="#f74848"/><path d="M243.92591,174.17148l-1.47983,-1.47983l1.32608,-1.32608l1.47983,1.47983z" fill="#f74848"/><path d="M243.32797,174.57917l-1.47983,-1.47983l1.32608,-1.32608l1.47983,1.47983z" fill="#f7f13e"/><path d="M243.24643,174.52481l-1.47983,-1.47983l1.32608,-1.32608l1.47983,1.47983z" fill="#f7f13e"/><path d="M246.83408,174.74224l-1.47983,-1.47983l1.32608,-1.32608l1.47983,1.47983z" fill="#3ef744"/><path d="M244.74129,174.11712l-1.47983,-1.47983l1.32608,-1.32608l1.47983,1.47983z" fill="#3ef744"/><path d="M231.23114,189.01495c-0.3034,0 -0.54936,-0.44745 -0.54936,-0.99941v-12.99918c0,-0.55196 0.24596,-0.99941 0.54936,-0.99941h24.94513c0.3034,0 0.54936,0.44745 0.54936,0.99941v12.99918c0,0.55196 -0.24596,0.99941 -0.54936,0.99941z" fill="#feff72"/><g fill="#ffffff"><path d="M242.22803,185.86015l0.5722,-5.36062h1.79189l0.58726,5.36062z"/><path d="M241.24926,179.62617c0,-1.35555 1.09889,-2.45444 2.45444,-2.45444c1.35555,0 2.45444,1.09889 2.45444,2.45444c0,1.35555 -1.09889,2.45444 -2.45444,2.45444c-1.35555,0 -2.45444,-1.09889 -2.45444,-2.45444z"/></g></g></g></g></svg>