<svg version="1.1" xmlns="http://www.w3.org/2000/svg" xmlns:xlink="http://www.w3.org/1999/xlink" width="35.00467" height="24.23338" viewBox="0,0,35.00467,24.23338"><g transform="translate(-226.20138,-167.88332)"><g data-paper-data="{&quot;isPaintingLayer&quot;:true}" fill-rule="nonzero" stroke="none" stroke-width="0" stroke-linecap="butt" stroke-linejoin="miter" stroke-miterlimit="10" stroke-dasharray="" stroke-dashoffset="0" style="mix-blend-mode: normal"><path d="M229.7189,174.10219l-1.98899,-1.98899l1.78234,-1.78234l1.98899,1.98899z" fill="#3ed3f7"/><path d="M240.5685,173.29852l-1.98899,-1.98899l1.78234,-1.78234l1.98899,1.98899z" fill="#f74848"/><path d="M242.68728,174.50403l-1.98899,-1.98899l1.78234,-1.78234l1.98899,1.98899z" fill="#3ed3f7"/><path d="M238.52278,174.24832l-1.98899,-1.98899l1.78234,-1.78234l1.98899,1.98899z" fill="#3ed3f7"/><path d="M236.87891,174.43097l-1.98899,-1.98899l1.78234,-1.78234l1.98899,1.98899z" fill="#f74848"/><path d="M233.51809,174.21179l-1.98899,-1.98899l1.78234,-1.78234l1.98899,1.98899z" fill="#3ed3f7"/><path d="M235.16197,172.56791l-1.98899,-1.98899l1.78234,-1.78234l1.98899,1.98899z" fill="#f74848"/><path d="M237.75564,173.26199l-1.98899,-1.98899l1.78234,-1.78234l1.98899,1.98899z" fill="#3ef744"/><path d="M245.75585,173.73689l-1.98899,-1.98899l1.78234,-1.78234l1.98899,1.98899z" fill="#3ed3f7"/><path d="M247.80156,173.55424l-1.98899,-1.98899l1.78234,-1.78234l1.98899,1.98899z" fill="#3ed3f7"/><path d="M244.18504,173.91955l-1.98899,-1.98899l1.78234,-1.78234l1.98899,1.98899z" fill="#3ed3f7"/><path d="M249.99341,172.31219l-1.98899,-1.98899l1.78234,-1.78234l1.98899,1.98899z" fill="#f74848"/><path d="M252.03912,171.65465l-1.98899,-1.98899l1.78234,-1.78234l1.98899,1.98899z" fill="#3ed3f7"/><path d="M253.82912,172.56791l-1.98899,-1.98899l1.78234,-1.78234l1.98899,1.98899z" fill="#f7f13e"/><path d="M252.00259,173.99261l-1.98899,-1.98899l1.78234,-1.78234l1.98899,1.98899z" fill="#3ef744"/><path d="M256.02096,173.88302l-1.98899,-1.98899l1.78234,-1.78234l1.98899,1.98899z" fill="#f74848"/><path d="M257.37259,173.00628l-1.98899,-1.98899l1.78234,-1.78234l1.98899,1.98899z" fill="#3ef744"/><path d="M258.54157,173.37159l-1.98899,-1.98899l1.78234,-1.78234l1.98899,1.98899z" fill="#f74848"/><path d="M230.81483,173.95608l-1.98899,-1.98899l1.78234,-1.78234l1.98899,1.98899z" fill="#f74848"/><path d="M232.60483,173.44465l-1.98899,-1.98899l1.78234,-1.78234l1.98899,1.98899z" fill="#f7f13e"/><path d="M228.73257,174.4675l-1.98899,-1.98899l1.78234,-1.78234l1.98899,1.98899z" fill="#f74848"/><path d="M242.86993,173.33505l-1.98899,-1.98899l1.78234,-1.78234l1.98899,1.98899z" fill="#f7f13e"/><path d="M246.15768,172.01995l-1.98899,-1.98899l1.78234,-1.78234l1.98899,1.98899z" fill="#f74848"/><path d="M244.00238,172.16608l-1.98899,-1.98899l1.78234,-1.78234l1.98899,1.98899z" fill="#f74848"/><path d="M243.19871,172.71404l-1.98899,-1.98899l1.78234,-1.78234l1.98899,1.98899z" fill="#f7f13e"/><path d="M243.08911,172.64098l-1.98899,-1.98899l1.78234,-1.78234l1.98899,1.98899z" fill="#f7f13e"/><path d="M247.91115,172.93322l-1.98899,-1.98899l1.78234,-1.78234l1.98899,1.98899z" fill="#3ef744"/><path d="M245.0983,172.09301l-1.98899,-1.98899l1.78234,-1.78234l1.98899,1.98899z" fill="#3ef744"/><path d="M226.93976,192.11669c-0.40779,0 -0.73838,-0.6014 -0.73838,-1.34327v-17.47177c0,-0.74187 0.33059,-1.34327 0.73838,-1.34327h33.52792c0.40779,0 0.73838,0.6014 0.73838,1.34327v17.47177c0,0.74187 -0.33059,1.34327 -0.73838,1.34327z" fill="#feff72"/><g fill="#ffffff"><path d="M241.72031,187.87643l0.76907,-7.20503h2.40842l0.78932,7.20503z"/><path d="M240.40478,179.49755c0,-1.82195 1.47698,-3.29893 3.29893,-3.29893c1.82195,0 3.29893,1.47698 3.29893,3.29893c0,1.82195 -1.47698,3.29893 -3.29893,3.29893c-1.82195,0 -3.29893,-1.47698 -3.29893,-3.29893z"/></g></g></g></svg>