<svg version="1.1" xmlns="http://www.w3.org/2000/svg" xmlns:xlink="http://www.w3.org/1999/xlink" width="121" height="153.46016" viewBox="0,0,121,153.46016"><g transform="translate(-179.5,-87.03984)"><g data-paper-data="{&quot;isPaintingLayer&quot;:true}" fill-rule="nonzero" stroke-linecap="butt" stroke-linejoin="miter" stroke-miterlimit="10" stroke-dasharray="" stroke-dashoffset="0" style="mix-blend-mode: normal"><path d="M191,180c0,-27.06195 21.93805,-49 49,-49c27.06195,0 49,21.93805 49,49c0,27.06195 -21.93805,49 -49,49c-27.06195,0 -49,-21.93805 -49,-49z" fill="#000000" stroke="#000000" stroke-width="0"/><path d="M182,180c0,-32.03252 25.96748,-58 58,-58c32.03252,0 58,25.96748 58,58c0,32.03252 -25.96748,58 -58,58c-32.03252,0 -58,-25.96748 -58,-58z" fill="none" stroke="#000000" stroke-width="5"/><text transform="translate(202.26002,174.23125) scale(0.5,0.5)" font-size="40" xml:space="preserve" fill="#ff0000" fill-rule="nonzero" stroke="none" stroke-width="1" stroke-linecap="butt" stroke-linejoin="miter" stroke-miterlimit="10" stroke-dasharray="" stroke-dashoffset="0" font-family="Sans Serif" font-weight="normal" text-anchor="start" style="mix-blend-mode: normal"><tspan x="0" dy="0">Click to</tspan><tspan x="0" dy="46.15px">activate</tspan></text><path d="M261.92031,87.03984l-21.92031,21.92031l-21.92031,-21.92031z" fill="#000000" stroke="none" stroke-width="0"/></g></g></svg>