<svg version="1.1" xmlns="http://www.w3.org/2000/svg" xmlns:xlink="http://www.w3.org/1999/xlink" width="62.67621" height="63.217" viewBox="0,0,62.67621,63.217"><g transform="translate(-396.59459,-13.9352)"><g data-paper-data="{&quot;isPaintingLayer&quot;:true}" fill-rule="nonzero" stroke-linecap="butt" stroke-linejoin="miter" stroke-dasharray="" stroke-dashoffset="0" style="mix-blend-mode: normal"><path d="M422.42512,60.9352c-5.60808,0 -10.15432,-4.54624 -10.15432,-10.15432v-26.69136c0,-5.60808 4.54624,-10.15432 10.15432,-10.15432h26.69136c5.60808,0 10.15432,4.54624 10.15432,10.15432v26.69136c0,5.60808 -4.54624,10.15432 -10.15432,10.15432z" fill="#47ed2b" stroke="#ffffff" stroke-width="0" stroke-miterlimit="10"/><path d="M409.09631,59.23763c0,0 0.00456,-0.07073 0.10506,-0.07073c0.60481,0 6.36708,0 6.36708,0c1.56445,-1.63573 3.96453,-2.15947 6.06815,-1.32404c2.10361,0.83542 3.49063,2.86306 3.50661,5.12644c0.53432,3.42621 0.82055,6.8866 0.85643,10.35405c0,2.07251 -0.8564,3.39983 -2.49215,3.73383c-0.30716,0.06297 -0.62001,0.09465 -0.93356,0.09428c-1.51451,0.03196 -2.86085,-0.95931 -3.28001,-2.41501c-0.334,-0.95061 -0.93342,-2.25255 -1.30168,-3.03188c-1.93596,0.8755 -4.19374,-0.20412 -4.72738,-2.26074h-1.93548c-0.5327,2.06189 -2.79772,3.14301 -4.73596,2.26074c-0.36825,0.7879 -0.96789,2.08983 -1.30189,3.03188c-0.41834,1.45258 -1.76008,2.44304 -3.27144,2.41501c-0.31069,-0.00032 -0.62041,-0.03194 -0.92478,-0.09428c-1.6443,-0.30831 -2.50072,-1.66132 -2.50072,-3.73383c0.03588,-3.46744 0.3219,-6.92783 0.85622,-10.35404c0.01597,-2.26338 1.40299,-4.29101 3.5066,-5.12643c0.65738,-0.26107 1.34358,-0.3894 2.02432,-0.39257c1.49762,-0.00696 2.96827,0.59205 4.04383,1.71662z" fill="none" stroke-opacity="0.14902" stroke="#000000" stroke-width="4" stroke-miterlimit="10"/><path d="M412.29712,60.32478v-8.37424c0,0 0.06442,-2.44785 1.93252,-2.44785c1.8681,0 2.20145,1.5408 2.21663,2.12186c0.01518,0.58106 0.03037,1.16211 0.04555,1.74317c0.01518,0.58106 0.70858,1.44939 1.80368,1.44939c1.09509,0 1.9592,-0.43758 1.93252,-1.57822c-0.02565,-1.09669 -0.06442,-7.18663 -0.06442,-7.18663" fill="none" stroke-opacity="0.14902" stroke="#000000" stroke-width="8" stroke-miterlimit="4"/><path d="M409.02557,59.16689h6.54287c1.56445,-1.63573 3.96453,-2.15947 6.06815,-1.32404c2.10361,0.83542 3.49063,2.86306 3.50661,5.12644c0.53432,3.42621 0.82055,6.8866 0.85643,10.35405c0,2.07251 -0.8564,3.39983 -2.49215,3.73383c-0.30716,0.06297 -0.62001,0.09465 -0.93356,0.09428c-1.51451,0.03196 -2.86085,-0.95931 -3.28001,-2.41501c-0.334,-0.95061 -0.93342,-2.25255 -1.30168,-3.03188c-1.93596,0.8755 -4.19374,-0.20412 -4.72738,-2.26074h-1.93548c-0.5327,2.06189 -2.79772,3.14301 -4.73596,2.26074c-0.36825,0.7879 -0.96789,2.08983 -1.30189,3.03188c-0.41834,1.45258 -1.76008,2.44304 -3.27144,2.41501c-0.31069,-0.00032 -0.62041,-0.03194 -0.92478,-0.09428c-1.6443,-0.30831 -2.50072,-1.66132 -2.50072,-3.73383c0.03588,-3.46744 0.3219,-6.92783 0.85622,-10.35404c0.01597,-2.26338 1.40299,-4.29101 3.5066,-5.12643c0.65738,-0.26107 1.34358,-0.3894 2.02432,-0.39257c1.49762,-0.00696 2.96827,0.59205 4.04383,1.71662z" fill="#ffffff" stroke="none" stroke-width="9.34454" stroke-miterlimit="10"/><path d="M412.29712,60.32478v-8.37424c0,0 0.06442,-2.44785 1.93252,-2.44785c1.8681,0 2.20145,1.5408 2.21663,2.12186c0.01518,0.58106 0.03037,1.16211 0.04555,1.74317c0.01518,0.58106 0.70858,1.44939 1.80368,1.44939c1.09509,0 1.9592,-0.43758 1.93252,-1.57822c-0.02565,-1.09669 -0.06442,-7.18663 -0.06442,-7.18663" fill="none" stroke="#fdffff" stroke-width="4" stroke-miterlimit="4"/><path d="M418.73529,59.48064c0.28155,-0.244 0.65516,-0.35375 1.02394,-0.30079c0.66691,0.09603 1.1463,0.69101 1.09826,1.36308c-0.04803,0.67207 -0.60717,1.19283 -1.28096,1.19303c-0.70942,-0.00004 -1.28449,-0.57512 -1.28454,-1.28454c0,-0.37257 0.16174,-0.72678 0.44329,-0.97079zM403.73295,60.02331h2.56928v1.71265h1.71285v2.56928h-1.71285v1.71285h-2.56928v-1.71285h-1.71285v-2.56928h1.71285zM420.00463,60.45163c0.00006,-0.23649 -0.1916,-0.42824 -0.42809,-0.42831c-0.11357,-0.00003 -0.2225,0.04506 -0.30282,0.12534c-0.08033,0.08029 -0.12547,0.18919 -0.12549,0.30276c-0.00005,0.23649 0.19161,0.42824 0.4281,0.4283c0.23649,0.00006 0.42824,-0.19161 0.4283,-0.4281zM404.58938,60.87954v1.71285h-1.71285v0.85643h1.71285v1.71285h0.85643v-1.71285h1.71285v-0.85643h-1.71285v-1.71285zM416.16607,62.04983c0.2816,-0.24401 0.65527,-0.35373 1.02408,-0.3007c0.66695,0.09604 1.14634,0.69108 1.09825,1.36319c-0.0481,0.67211 -0.60733,1.19283 -1.28116,1.19293c-0.70941,-0.00004 -1.28449,-0.57512 -1.28454,-1.28454c-0.00001,-0.37261 0.16176,-0.72687 0.44336,-0.97088zM421.30443,62.04983c0.2816,-0.24401 0.65527,-0.35373 1.02408,-0.3007c0.66691,0.09603 1.14629,0.69101 1.09826,1.36308c-0.04804,0.67207 -0.60717,1.19282 -1.28095,1.19303c-0.34071,0.00003 -0.66748,-0.13528 -0.90842,-0.37618c-0.24094,-0.2409 -0.37631,-0.56765 -0.37633,-0.90836c-0.00001,-0.37261 0.16176,-0.72687 0.44336,-0.97088zM417.43555,63.02048c-0.00006,-0.23649 -0.19181,-0.42816 -0.4283,-0.4281c-0.11357,0.00003 -0.22248,0.04517 -0.30276,0.12549c-0.08029,0.08032 -0.12537,0.18926 -0.12534,0.30283c0.00006,0.23649 0.19182,0.42815 0.42831,0.42809c0.23649,-0.00006 0.42815,-0.19182 0.4281,-0.42831zM422.14581,62.59239c-0.11361,-0.00003 -0.22257,0.04509 -0.3029,0.12542c-0.08033,0.08033 -0.12545,0.1893 -0.12542,0.3029c0.00006,0.23646 0.19178,0.42811 0.42824,0.42809c0.23646,-0.00002 0.42815,-0.19171 0.42817,-0.42817c0.00002,-0.23646 -0.19163,-0.42818 -0.42809,-0.42824zM418.73536,64.61913c0.28154,-0.24396 0.65512,-0.35368 1.02387,-0.30072c0.66691,0.09603 1.14629,0.69101 1.09825,1.36308c-0.04804,0.67207 -0.60716,1.19282 -1.28095,1.19303c-0.34071,-0.00002 -0.66746,-0.13539 -0.90836,-0.37633c-0.2409,-0.24094 -0.37621,-0.56771 -0.37618,-0.90842c0.00006,-0.37253 0.16183,-0.72669 0.44337,-0.97065zM420.00463,65.58998c0.00006,-0.23649 -0.1916,-0.42825 -0.42809,-0.42831c-0.11357,-0.00003 -0.2225,0.04506 -0.30282,0.12535c-0.08033,0.08029 -0.12547,0.18919 -0.12549,0.30276c-0.00005,0.23649 0.19161,0.42824 0.4281,0.4283c0.23649,0.00006 0.42824,-0.19161 0.4283,-0.4281zM406.43253,67.93174c0.26517,-0.64003 0.88977,-1.0573 1.58256,-1.05722c0.94591,0.0001 1.71267,0.76694 1.71265,1.71285c-0.00001,0.69278 -0.41736,1.31734 -1.05741,1.58243c-0.64006,0.26509 -1.37678,0.11851 -1.86662,-0.37139c-0.48984,-0.4899 -0.63634,-1.22664 -0.37117,-1.86667zM414.86636,68.58735c-0.00001,-0.94595 0.76683,-1.71281 1.71278,-1.71283c0.45428,-0.00001 0.88996,0.18045 1.21118,0.50167c0.32122,0.32122 0.50168,0.7569 0.50167,1.21118c-0.00002,0.94595 -0.76688,1.71279 -1.71283,1.71278c-0.94595,-0.00001 -1.7128,-0.76685 -1.7128,-1.7128zM408.59966,67.96135c-0.17344,-0.16199 -0.40633,-0.24475 -0.6431,-0.22852c-0.46152,0.03032 -0.81558,0.42161 -0.79976,0.88385c0.01581,0.46224 0.39578,0.82841 0.8583,0.82712c0.22714,0 0.44498,-0.09022 0.60559,-0.25084c0.16061,-0.16061 0.25084,-0.37845 0.25084,-0.60559c0.00004,-0.23733 -0.09841,-0.46403 -0.27185,-0.62602zM417.16372,67.96135c-0.17344,-0.16199 -0.40633,-0.24475 -0.6431,-0.22852c-0.46151,0.03032 -0.81558,0.42161 -0.79976,0.88384c0.01581,0.46224 0.39579,0.82841 0.8583,0.82712c0.22714,0 0.44498,-0.09023 0.60559,-0.25084c0.16061,-0.16061 0.25084,-0.37845 0.25083,-0.60559c0.00004,-0.23733 -0.09841,-0.46403 -0.27185,-0.62602z" fill="#00b745" stroke="none" stroke-width="9.34454" stroke-miterlimit="10"/><path d="M422.57986,63.02063c-0.00002,0.23646 -0.19766,0.43409 -0.43412,0.43412c-0.23646,0.00002 -0.43413,-0.19758 -0.43419,-0.43404c-0.00003,-0.11361 0.04683,-0.22678 0.12716,-0.30711c0.08033,-0.08033 0.19351,-0.12719 0.30711,-0.12716c0.23646,0.00006 0.43406,0.19773 0.43404,0.43419z" data-paper-data="{&quot;noHover&quot;:false,&quot;origItem&quot;:[&quot;Path&quot;,{&quot;applyMatrix&quot;:true,&quot;segments&quot;:[[[357.74897,136.43652],[1.98674,0.00053],[-0.95452,-0.00025]],[[355.20399,137.49029],[0.67495,-0.67495],[-0.67494,0.67496]],[[354.15023,140.03527],[-0.00025,-0.95452],[0.00054,1.98675]],[[357.74833,143.63209],[-1.98675,0.00017],[1.98676,-0.00018]],[[361.34579,140.03463],[-0.00017,1.98674],[0.00018,-1.98675]]],&quot;closed&quot;:true,&quot;fillColor&quot;:[1,1,1],&quot;strokeWidth&quot;:9.34454}]}" fill="#ffffff" stroke="#ffffff" stroke-width="1.5" stroke-miterlimit="10"/><path d="M420.01058,60.45163c-0.00006,0.23649 -0.19777,0.4341 -0.43426,0.43405c-0.23649,-0.00006 -0.4341,-0.19776 -0.43405,-0.43425c0.00003,-0.11357 0.04691,-0.22668 0.12723,-0.30697c0.08032,-0.08029 0.19347,-0.12712 0.30704,-0.12709c0.23649,0.00007 0.4341,0.19777 0.43404,0.43426z" data-paper-data="{&quot;noHover&quot;:false,&quot;origItem&quot;:[&quot;Path&quot;,{&quot;applyMatrix&quot;:true,&quot;segments&quot;:[[[339.75865,118.44983],[0,0],[0.00049,-1.98698]],[[336.16182,114.85115],[1.98699,0.00054],[-0.95421,-0.00025]],[[333.61748,115.90429],[0.6749,-0.67457],[-0.67491,0.67456]],[[332.56309,118.44812],[0.00021,-0.95421],[-0.00045,1.98698]],[[336.16001,122.04671],[-1.98699,-0.00047],[1.98698,0.00047]],[[339.75864,118.44983],[-0.00051,1.98698],[0,0]]],&quot;closed&quot;:true,&quot;fillColor&quot;:[1,1,1],&quot;strokeWidth&quot;:9.34454}]}" fill="#ffffff" stroke="#ffffff" stroke-width="1.5" stroke-miterlimit="10"/><path d="M417.4415,63.02048c0.00006,0.23649 -0.19756,0.4342 -0.43405,0.43426c-0.23649,0.00006 -0.4342,-0.19755 -0.43427,-0.43404c-0.00003,-0.11357 0.0468,-0.22671 0.12709,-0.30704c0.08029,-0.08032 0.1934,-0.12721 0.30697,-0.12724c0.23649,-0.00005 0.43419,0.19756 0.43425,0.43405z" data-paper-data="{&quot;noHover&quot;:false,&quot;origItem&quot;:[&quot;Path&quot;,{&quot;applyMatrix&quot;:true,&quot;segments&quot;:[[[318.17325,140.0334],[0,0],[-0.00048,-1.98699]],[[314.57466,136.43648],[1.98699,-0.00045],[-0.95421,0.00021]],[[312.03083,137.49088],[0.67457,-0.6749],[-0.67457,0.6749]],[[310.9777,140.03523],[-0.00025,-0.95421],[0.00054,1.98698]],[[314.5764,143.63205],[-1.98699,0.00051],[1.98698,-0.00051]],[[318.17326,140.0334],[0.00048,1.98699],[0,0]]],&quot;closed&quot;:true,&quot;fillColor&quot;:[1,1,1],&quot;strokeWidth&quot;:9.34454}]}" fill="#ffffff" stroke="#ffffff" stroke-width="1.5" stroke-miterlimit="10"/><path d="M420.01058,65.58997c-0.00006,0.23649 -0.19777,0.4341 -0.43426,0.43405c-0.23649,-0.00006 -0.4341,-0.19776 -0.43405,-0.43425c0.00003,-0.11357 0.04691,-0.22669 0.12723,-0.30697c0.08032,-0.08029 0.19347,-0.12712 0.30704,-0.12709c0.23649,0.00006 0.4341,0.19778 0.43404,0.43427z" data-paper-data="{&quot;noHover&quot;:false,&quot;origItem&quot;:[&quot;Path&quot;,{&quot;applyMatrix&quot;:true,&quot;segments&quot;:[[[339.75865,161.62233],[0,0],[0.00049,-1.98699]],[[336.16182,158.02363],[1.98699,0.00053],[-0.95421,-0.00026]],[[333.61748,159.07678],[0.6749,-0.67456],[-0.67491,0.67455]],[[332.56309,161.6206],[0.00021,-0.95421],[-0.00045,1.98698]],[[336.16001,165.21919],[-1.98699,-0.00048],[1.98698,0.00047]],[[339.75864,161.62231],[-0.00051,1.98699],[0,0]]],&quot;closed&quot;:true,&quot;fillColor&quot;:[1,1,1],&quot;strokeWidth&quot;:9.34454}]}" fill="#ffffff" stroke="#ffffff" stroke-width="1.5" stroke-miterlimit="10"/><path d="M417.16779,67.957c0.17344,0.16199 0.27377,0.39304 0.27374,0.63037c0,0.22714 -0.09196,0.44918 -0.25257,0.6098c-0.16061,0.16061 -0.38265,0.25259 -0.6098,0.25258c-0.46251,0.00129 -0.84844,-0.37063 -0.86425,-0.83287c-0.01581,-0.46224 0.3438,-0.85967 0.80531,-0.88999c0.23677,-0.01623 0.47413,0.06812 0.64757,0.23012z" data-paper-data="{&quot;noHover&quot;:false,&quot;origItem&quot;:[&quot;Path&quot;,{&quot;applyMatrix&quot;:true,&quot;segments&quot;:[[[315.88931,181.54666],[0,0],[-1.45728,-1.36107]],[[310.48593,179.62662],[1.98937,-0.13633],[-3.87765,0.25476]],[[303.7663,187.05271],[-0.13287,-3.88375],[0.13287,3.88375]],[[310.97772,194.00223],[-3.88601,0.01083],[1.90844,0.00004]],[[316.06591,191.8947],[-1.34946,1.34946],[1.34946,-1.34947]],[[318.17342,186.8065],[0.00004,1.90845],[0.00032,-1.99402]],[[315.88931,181.54665],[1.45729,1.36106],[0,0]]],&quot;closed&quot;:true,&quot;fillColor&quot;:[1,1,1],&quot;strokeWidth&quot;:9.34454}]}" fill="#ffffff" stroke="none" stroke-width="4.67227" stroke-miterlimit="10"/><path d="M408.60373,67.95701c0.17345,0.16199 0.27377,0.39304 0.27374,0.63037c0.00001,0.22714 -0.09196,0.44919 -0.25257,0.6098c-0.16061,0.16061 -0.38265,0.25259 -0.6098,0.25258c-0.46251,0.00129 -0.84844,-0.37063 -0.86425,-0.83287c-0.01581,-0.46224 0.3438,-0.85967 0.80531,-0.88999c0.23677,-0.01623 0.47413,0.06812 0.64757,0.23012z" data-paper-data="{&quot;noHover&quot;:false,&quot;origItem&quot;:[&quot;Path&quot;,{&quot;applyMatrix&quot;:true,&quot;segments&quot;:[[[243.93392,181.54665],[0,0],[-1.45728,-1.36107]],[[238.53054,179.62661],[1.98936,-0.13632],[-3.87766,0.25477]],[[231.81091,187.05271],[-0.13287,-3.88375],[0.13287,3.88375]],[[239.02232,194.00223],[-3.88601,0.01083],[1.90844,0.00004]],[[244.11051,191.89471],[-1.34946,1.34946],[1.34945,-1.34947]],[[246.21802,186.8065],[0.00005,1.90845],[0.00032,-1.99402]],[[243.93391,181.54666],[1.45729,1.36106],[0,0]]],&quot;closed&quot;:true,&quot;fillColor&quot;:[1,1,1],&quot;strokeWidth&quot;:9.34454}]}" fill="#ffffff" stroke="none" stroke-width="4.67227" stroke-miterlimit="10"/><path d="M405.44698,60.8737l0.00304,1.71448l1.71448,0.00304v0.85876l-1.71448,0.00304l-0.00304,1.71448h-0.85876l-0.00304,-1.71448l-1.71448,-0.00304v-0.85876l1.71448,-0.00304l0.00304,-1.71448z" data-paper-data="{&quot;noHover&quot;:false,&quot;origItem&quot;:[&quot;Path&quot;,{&quot;applyMatrix&quot;:true,&quot;segments&quot;:[[210.23947,122.04511],[210.23947,136.43653],[195.84803,136.43653],[195.84803,143.63225],[210.23947,143.63225],[210.23947,158.02368],[217.43518,158.02368],[217.43518,143.63225],[231.82661,143.63225],[231.82661,136.43653],[217.43518,136.43653],[217.43518,122.04511]],&quot;closed&quot;:true,&quot;fillColor&quot;:[1,1,1],&quot;strokeWidth&quot;:9.34454}]}" fill="#ffffff" stroke="none" stroke-width="4.67227" stroke-miterlimit="10"/><path d="M413.32862,61.59337c0,0.22215 -0.18007,0.40224 -0.40222,0.40224h-1.25858c-0.22215,0 -0.40224,-0.18009 -0.40224,-0.40224v0c0,-0.22213 0.18009,-0.40222 0.40224,-0.40222h1.25858c0.22215,0 0.40222,0.18009 0.40222,0.40222z" fill="#00b745" stroke="#00b745" stroke-width="1" stroke-miterlimit="10"/></g></g></svg>