<svg version="1.1" xmlns="http://www.w3.org/2000/svg" xmlns:xlink="http://www.w3.org/1999/xlink" width="160.69945" height="95.48052" viewBox="0,0,160.69945,95.48052"><g transform="translate(-159.65028,-132.25974)"><g data-paper-data="{&quot;isPaintingLayer&quot;:true}" fill-rule="nonzero" stroke-linejoin="miter" stroke-miterlimit="10" stroke-dasharray="" stroke-dashoffset="0" style="mix-blend-mode: normal"><path d="M159.65029,227.74026v-95.48052h160.69945v95.48052z" fill="#59ad0d" stroke="none" stroke-width="0" stroke-linecap="butt"/><path d="M198.23819,199.03486c0,0 -1.70672,-1.44235 -2.27282,-3.81111c-0.56215,-2.35231 -1.45866,-5.59725 -1.8509,-8.70543c-0.30729,-2.43502 -0.18335,-4.78609 -0.15833,-6.5583c0.03588,-2.53938 -0.02684,-5.58621 0.51755,-8.36013c0.45171,-2.30166 1.46865,-4.36635 1.96842,-6.24347c0.42367,-1.59129 2.33633,-4.56315 2.33633,-4.56315c0,0 2.64267,-0.62347 4.63748,-0.87916c2.55908,-0.32801 4.74966,-0.28152 6.34787,0.00837c1.99382,0.36166 4.69306,0.9043 4.69306,0.9043c0,0 15.4271,-0.62543 23.00064,-0.62543c7.39136,0 21.90739,0.62543 21.90739,0.62543c0,0 4.09208,-0.58318 7.86929,-1.06481c3.04376,-0.38811 6.04267,-0.15979 7.88894,0.09094c2.86892,0.38959 6.30186,1.59932 6.30186,1.59932c0,0 3.17408,2.55516 3.82096,5.94035c0.63546,2.54902 0.65447,5.43688 0.67316,7.506c0.02665,2.9489 0.05265,6.68433 0.03715,10.16477c-0.009,2.02075 -0.47902,5.19579 -1.06006,7.39072c-0.95528,3.60865 -3.83137,6.50258 -3.83137,6.50258c0,0 -3.34891,0.86807 -5.88902,1.1575c-1.81466,0.1931 -5.63763,0.20825 -8.73958,-0.03477c-3.92821,-0.30774 -7.58906,-0.51962 -7.58906,-0.51962c0,0 -14.232,0.57534 -21.51541,0.5497c-7.51369,-0.02645 -22.89741,-0.70605 -22.89741,-0.70605c0,0 -2.71388,0.29153 -4.6686,0.60445c-1.54458,0.24726 -3.54675,0.32703 -6.49603,0.00598c-2.36494,-0.25745 -5.03154,-0.979 -5.03154,-0.979z" fill="#56c0e0" stroke="#000000" stroke-width="0.25" stroke-linecap="round"/><path d="M283.35998,171.16257c0,0 -0.67494,-0.54778 -0.93523,-1.04667c-0.24271,-0.46519 -0.70352,-1.60054 -0.70352,-1.60054l-2.01692,-5.29442c0,0 0.20391,-0.33937 0.50869,-0.31905c0.32428,0.02162 0.87794,0.06694 0.87794,0.06694c0,0 1.30678,2.55814 1.75676,3.73666c0.43166,1.13054 0.89045,3.19651 0.89045,3.19651z" data-paper-data="{&quot;index&quot;:null}" fill="#455050" stroke="#000000" stroke-width="0.25" stroke-linecap="round"/><path d="M280.47865,164.01019l0.58692,1.48401" fill="none" stroke="#ffffff" stroke-width="0.25" stroke-linecap="round"/><path d="M282.27282,168.71901l-0.53692,-1.43065" fill="none" stroke="#ffffff" stroke-width="0.25" stroke-linecap="round"/><path d="M280.96554,163.68004l0.77702,1.71746" fill="none" stroke="#ffffff" stroke-width="0.25" stroke-linecap="round"/><path d="M283.04982,169.15253l-0.63363,-1.9909" fill="none" stroke="#ffffff" stroke-width="0.25" stroke-linecap="round"/><path d="M283.48602,190.61269c0,0 -0.45879,2.06597 -0.89045,3.19651c-0.44999,1.17853 -1.75676,3.73666 -1.75676,3.73666c0,0 -0.55366,0.04532 -0.87794,0.06694c-0.30478,0.02032 -0.50869,-0.31905 -0.50869,-0.31905l2.01692,-5.29442c0,0 0.46082,-1.13535 0.70352,-1.60054c0.26028,-0.4989 0.93523,-1.04667 0.93523,-1.04667z" data-paper-data="{&quot;index&quot;:null}" fill="#455050" stroke="#000000" stroke-width="0.25" stroke-linecap="round"/><path d="M280.22654,196.5045l0.58694,-1.48401" data-paper-data="{&quot;index&quot;:null}" fill="none" stroke="#ffffff" stroke-width="0.25" stroke-linecap="round"/><path d="M281.48379,193.22633l0.53692,-1.43065" data-paper-data="{&quot;index&quot;:null}" fill="none" stroke="#ffffff" stroke-width="0.25" stroke-linecap="round"/><path d="M280.71342,196.83465l0.77702,-1.71746" data-paper-data="{&quot;index&quot;:null}" fill="none" stroke="#ffffff" stroke-width="0.25" stroke-linecap="round"/><path d="M282.79772,191.36214l-0.63363,1.99092" data-paper-data="{&quot;index&quot;:null}" fill="none" stroke="#ffffff" stroke-width="0.25" stroke-linecap="round"/><path d="M283.27181,171.16936c0,0 0.3794,1.86437 0.57466,3.97068c0.16243,1.75206 0.14889,3.64726 0.13158,5.00006c-0.01688,1.31941 -0.03786,3.28432 -0.23466,4.99742c-0.25699,2.23694 -0.7027,4.10011 -0.7027,4.10011" fill="none" stroke="#000000" stroke-width="0.25" stroke-linecap="round"/><path d="M279.56247,196.30626l-14.53587,0.3438c0,0 -0.77778,-0.00295 -0.97553,-0.2441c-0.1755,-0.214 -0.49684,-0.50079 -0.49684,-0.50079" fill="none" stroke="#000000" stroke-width="0.25" stroke-linecap="round"/><path d="M263.93162,164.44533c0,0 0.32136,-0.28681 0.49686,-0.5008c0.19776,-0.24115 0.97552,-0.24409 0.97552,-0.24409l14.53587,0.3438" data-paper-data="{&quot;index&quot;:null}" fill="none" stroke="#000000" stroke-width="0.25" stroke-linecap="round"/><path d="M251.0776,168.61269c0,0 4.93595,-1.37074 7.0516,-2.19071c1.88436,-0.73033 5.02892,-2.49144 5.02892,-2.49144c0,0 0.66512,0.25857 1.11465,1.19588c0.58595,1.22176 0.92089,3.16638 1.29064,5.15844c0.58667,3.16069 0.29428,6.8543 0.2613,9.88868c-0.02935,2.69908 -0.14325,6.75925 -0.80524,10.16396c-0.44345,2.28072 -0.77623,3.9375 -1.21596,4.96812c-0.28339,0.66421 -0.69042,1.04574 -0.69042,1.04574c0,0 -2.72409,-1.76512 -4.76876,-2.43822c-2.01996,-0.66495 -7.18945,-2.32271 -7.18945,-2.32271c0,0 0.58081,-7.20506 0.62976,-11.41294c0.04588,-3.94371 -0.70706,-11.56481 -0.70706,-11.56481z" fill="#203756" stroke="#000000" stroke-width="0.25" stroke-linecap="round"/><path d="M229.74384,166.48573c0,0 -4.72054,-0.10707 -6.9248,-0.48859c-2.16503,-0.37472 -5.64495,-1.06012 -5.64495,-1.06012c0,0 -0.12833,-0.25659 0.457,-0.44536c1.26114,-0.40674 3.99871,-0.95777 5.53877,-1.18206c2.59473,-0.47928 7.00617,-0.91175 7.00617,-0.91175c0,0 7.74878,-0.08461 12.26485,-0.13294c6.07172,-0.05796 18.49321,0.81724 18.49321,0.81724c0,0 -1.23855,0.84058 -2.53721,1.37336c-1.80752,0.74155 -7.38533,2.21028 -7.38533,2.21028z" fill="#203756" stroke="#000000" stroke-width="0.25" stroke-linecap="round"/><path d="M250.98004,193.42991c0,0 5.57781,1.46874 7.38533,2.21028c1.29866,0.53278 2.53721,1.37336 2.53721,1.37336c0,0 -12.42149,0.87521 -18.49321,0.81724c-4.51608,-0.04833 -12.26485,-0.13294 -12.26485,-0.13294c0,0 -4.41144,-0.43247 -7.00617,-0.91175c-1.54006,-0.22428 -4.27763,-0.77533 -5.53877,-1.18206c-0.58532,-0.18877 -0.457,-0.44536 -0.457,-0.44536c0,0 3.47992,-0.6854 5.64495,-1.06012c2.20426,-0.38151 6.9248,-0.48859 6.9248,-0.48859z" data-paper-data="{&quot;index&quot;:null}" fill="#203756" stroke="#000000" stroke-width="0.25" stroke-linecap="round"/><path d="M256.73144,160.99546l0.31514,1.89086" fill="none" stroke="#000000" stroke-width="0.25" stroke-linecap="round"/><path d="M256.99405,197.3946l-0.2101,2.04844" fill="none" stroke="#000000" stroke-width="0.25" stroke-linecap="round"/><path d="M211.79849,193.14016c0,0 -9.4974,-0.75462 -11.13421,-0.93898c-0.46303,-0.05215 -0.89106,-0.41551 -0.89106,-0.41551c0,0 -0.68645,-3.41749 -0.66855,-6.09385c0.01548,-2.31635 -0.22523,-7.21521 0.01221,-11.24546c0.22254,-3.77712 0.92467,-6.35005 0.92467,-6.35005c0,0 0.36145,-0.36852 0.93881,-0.42242c1.76786,-0.16509 10.9814,-0.69067 10.9814,-0.69067c0,0 -1.3603,8.82061 -1.38743,13.16566c-0.0273,4.37375 1.22415,12.9913 1.22415,12.9913z" fill="#203756" stroke="#000000" stroke-width="0.25" stroke-linecap="round"/><path d="M211.98097,166.9832c0,0 0.46087,0.00451 0.68498,0.05385c0.21597,0.04755 0.44226,0.52794 0.44226,0.52794c0,0 -0.34481,3.02514 -0.48744,6.06441c-0.13249,2.8229 -0.06391,5.64467 -0.05467,6.402c0.01312,1.07638 -0.00658,2.34692 0.10059,3.78163c0.30536,4.08775 0.46576,8.23624 0.46576,8.23624c0,0 -0.25271,0.81287 -0.56527,0.8697c-0.25212,0.04583 -0.58622,0.22119 -0.58622,0.22119" fill="none" stroke="#000000" stroke-width="0.25" stroke-linecap="round"/><path d="M196.25001,166.78487l3.10073,0.11229c0,0 0.44841,0.26859 0.53828,0.37643c0.08493,0.10192 0.24778,0.4712 0.24778,0.4712" fill="none" stroke="#000000" stroke-width="0.25" stroke-linecap="round"/><path d="M199.79301,192.111c0,0 -0.16284,0.36929 -0.24777,0.4712c-0.08987,0.10784 -0.53828,0.37643 -0.53828,0.37643l-3.10073,0.11229" data-paper-data="{&quot;index&quot;:null}" fill="none" stroke="#000000" stroke-width="0.25" stroke-linecap="round"/><path d="M253.94449,159.5247l0.38517,1.90837c0,0 -0.59759,0.11769 -0.87987,0.10712c-0.26186,-0.00981 -0.75713,-0.1684 -0.75713,-0.1684c0,0 -0.1418,-0.86457 -0.33795,-1.23128c-0.20605,-0.38522 -0.8701,-1.02726 -0.8701,-1.02726c0,0 0.76947,0.27194 1.22433,0.32807c0.4436,0.05473 1.23554,0.08337 1.23554,0.08337z" fill="#000000" stroke="#000000" stroke-width="0.25" stroke-linecap="round"/><path d="M250.95095,158.66311l-0.87271,-3.19994c0,0 1.02813,-0.15026 1.56193,-0.08354c0.49804,0.06226 1.44407,0.66534 1.44407,0.66534c0,0 0.74489,1.19917 0.97144,1.70082c0.22597,0.50035 0.38611,1.59607 0.38611,1.59607c0,0 -1.14105,0.24992 -1.72829,0.11779c-0.68925,-0.15509 -1.76254,-0.79656 -1.76254,-0.79656z" fill="#56c0e0" stroke="#000000" stroke-width="0.25" stroke-linecap="round"/><path d="M253.12277,200.62773c-0.45487,0.05612 -1.22433,0.32807 -1.22433,0.32807c0,0 0.66405,-0.64204 0.8701,-1.02726c0.19615,-0.36671 0.33795,-1.23128 0.33795,-1.23128c0,0 0.49899,-0.15874 0.7617,-0.16858c0.28163,-0.01054 0.87529,0.1073 0.87529,0.1073l-0.38517,1.90837c0,0 -0.79194,0.02864 -1.23554,0.08337z" data-paper-data="{&quot;index&quot;:null}" fill="#000000" stroke="#000000" stroke-width="0.25" stroke-linecap="round"/><path d="M253.05728,200.53936c0.58724,-0.13213 1.72828,0.11779 1.72828,0.11779c0,0 -0.16014,1.09572 -0.3861,1.59607c-0.22655,0.50165 -0.97144,1.70082 -0.97144,1.70082c0,0 -0.94602,0.60308 -1.44407,0.66534c-0.53379,0.06672 -1.56193,-0.08354 -1.56193,-0.08354l0.87271,-3.19994c0,0 1.07329,-0.64147 1.76255,-0.79656z" data-paper-data="{&quot;index&quot;:null}" fill="#56c0e0" stroke="#000000" stroke-width="0.25" stroke-linecap="round"/><path d="M267.2962,189.18004l15.23196,-1.89086" fill="none" stroke="#000000" stroke-width="0.25" stroke-linecap="round"/><path d="M267.61135,170.37644l14.81177,2.31107" fill="none" stroke="#000000" stroke-width="0.25" stroke-linecap="round"/><path d="M282.02825,179.94778l0.4147,-0.00644c0,0 0.1716,0.13486 0.16093,0.21262c-0.01068,0.07776 -0.14855,0.1804 -0.14855,0.1804h-0.42089z" fill="#000000" stroke="#252525" stroke-width="0.25" stroke-linecap="round"/><path d="M221.16799,199.3495l-0.64645,-1.78987c0,0 0.07386,-0.41759 0.19575,-0.57432c0.09998,-0.12854 0.53554,-0.40342 0.53554,-0.40342" fill="none" stroke="#000000" stroke-width="0.25" stroke-linecap="round"/><path d="M221.36664,163.46684c0,0 -0.43558,-0.27489 -0.53554,-0.40342c-0.1219,-0.15674 -0.19575,-0.57433 -0.19575,-0.57433l0.64645,-1.78985" data-paper-data="{&quot;index&quot;:null}" fill="none" stroke="#000000" stroke-width="0.25" stroke-linecap="round"/><path d="M223.18363,162.16709l0.50423,-0.56026l2.11497,-0.18209l0.68631,0.30815" fill="none" stroke="#000000" stroke-width="0.25" stroke-linecap="round"/><path d="M237.94639,160.47231l0.4622,1.65275" fill="none" stroke="#000000" stroke-width="0.25" stroke-linecap="round"/><path d="M239.89327,161.59281l0.50423,-0.54625h1.52671l0.98044,0.43419" fill="none" stroke="#000000" stroke-width="0.25" stroke-linecap="round"/><path d="M226.30906,198.36363l-0.68631,0.30815l-2.11497,-0.18209l-0.50423,-0.56026" data-paper-data="{&quot;index&quot;:null}" fill="none" stroke="#000000" stroke-width="0.25" stroke-linecap="round"/><path d="M238.22852,197.97145l-0.4622,1.65275" data-paper-data="{&quot;index&quot;:null}" fill="none" stroke="#000000" stroke-width="0.25" stroke-linecap="round"/><path d="M242.72456,198.61576l-0.98044,0.43419h-1.52671l-0.50423,-0.54625" data-paper-data="{&quot;index&quot;:null}" fill="none" stroke="#000000" stroke-width="0.25" stroke-linecap="round"/><path d="M201.70982,164.90332l14.94683,-1.80082" fill="none" stroke="#000000" stroke-width="0.25" stroke-linecap="round"/><path d="M217.37698,197.13806l-16.02732,-1.98091" fill="none" stroke="#000000" stroke-width="0.25" stroke-linecap="round"/></g></g></svg>