<svg version="1.1" xmlns="http://www.w3.org/2000/svg" xmlns:xlink="http://www.w3.org/1999/xlink" width="217.775" height="125.90101" viewBox="0,0,217.775,125.90101"><g transform="translate(-131.11308,-117.13128)"><g data-paper-data="{&quot;isPaintingLayer&quot;:true}" fill-rule="nonzero" stroke-miterlimit="10" stroke-dasharray="" stroke-dashoffset="0" style="mix-blend-mode: normal"><g><path d="M348.26308,225.18928h-57.075c-0.713,-1.26 -1.625,-2.396 -2.7,-3.364h59.775z" fill="#fc9fe4" stroke="#fc9fe4" stroke-width="1.2" stroke-linecap="butt" stroke-linejoin="miter"/><path d="M267.71308,225.18928h-80.475c-0.73,-1.256 -1.649,-2.39 -2.725,-3.364h85.9c-1.068,0.975 -1.979,2.109 -2.7,3.364z" fill="#fc9fe4" stroke="#fc9fe4" stroke-width="1.2" stroke-linecap="butt" stroke-linejoin="miter"/><path d="M166.43808,221.75028c-1.067,1.004 -1.977,2.163 -2.7,3.439h-32.025v-3.439z" fill="#fc9fe4" stroke="#fc9fe4" stroke-width="1.2" stroke-linecap="butt" stroke-linejoin="miter"/><path d="M136.03808,117.27928h201.75c1.825,10.265 7.625,43.244 7.625,45.979v58.102h-56.925c-5.136,-4.646 -12.939,-4.646 -18.075,0h-85.9c-5.136,-4.646 -12.939,-4.646 -18.075,0h-34.725v-66.309v-33.38c-0.007,-1.158 0.445,-2.272 1.256,-3.095c0.811,-0.824 1.915,-1.291 3.069,-1.297z" data-paper-data="{&quot;index&quot;:null}" fill="#ea3681" stroke="none" stroke-width="1" stroke-linecap="butt" stroke-linejoin="miter"/><path d="M265.91308,231.84528h-76.9c-0.009,-2.342 -0.621,-4.641 -1.775,-6.676h80.475c-1.173,2.028 -1.793,4.331 -1.8,6.676z" fill="#5e154d" stroke="#5e154d" stroke-width="1.2" stroke-linecap="butt" stroke-linejoin="miter"/><path d="M348.26308,227.50328c-0.014,2.392 -1.942,4.328 -4.325,4.342h-50.95c-0.007,-2.345 -0.627,-4.648 -1.8,-6.676h57.075z" fill="#5e154d" stroke="#5e154d" stroke-width="1.2" stroke-linecap="butt" stroke-linejoin="miter"/><path d="M163.73808,225.16928c-1.174,2.055 -1.795,4.382 -1.8,6.751h-25.9c-2.383,-0.013 -4.311,-1.949 -4.325,-4.342v-2.409z" fill="#5e154d" stroke="#5e154d" stroke-width="1.2" stroke-linecap="butt" stroke-linejoin="miter"/><path d="M308.71308,126.65128l9.575,25.098h-28.55l-9.575,-25.098h28.55" fill="#a170e0" stroke="none" stroke-width="1" stroke-linecap="butt" stroke-linejoin="miter"/><path d="M310.16308,126.65128l9.575,25.098h-1.45l-9.575,-25.098h1.45" fill="#c5a2fc" stroke="none" stroke-width="1" stroke-linecap="butt" stroke-linejoin="miter"/><path d="M282.16308,126.65128l9.725,25.098h-3.6l-9.6,-25.098h3.475" fill="#c5a2fc" stroke="none" stroke-width="1" stroke-linecap="butt" stroke-linejoin="miter"/><path d="M278.68808,126.65128l9.6,25.098h-60.95l-9.575,-25.098h60.925" fill="#a170e0" stroke="none" stroke-width="1" stroke-linecap="butt" stroke-linejoin="miter"/><path d="M313.36308,126.65128l9.575,25.098h-3.2l-9.575,-25.098h3.2" fill="#a170e0" stroke="none" stroke-width="1" stroke-linecap="butt" stroke-linejoin="miter"/><path d="M318.86308,126.65128l9.625,25.098h-5.55l-9.575,-25.098h5.5" fill="#c5a2fc" stroke="none" stroke-width="1" stroke-linecap="butt" stroke-linejoin="miter"/><path d="M329.53808,126.65128c2,0 1.8,-0.401 2.2,1.406c0.4,1.807 2.925,18.171 3.25,20.63c0.325,2.46 -0.5,3.113 -2.5,3.113h-4l-9.625,-25.098z" fill="#a170e0" stroke="none" stroke-width="1" stroke-linecap="butt" stroke-linejoin="miter"/><path d="M209.08808,126.65128l9.575,25.098h-61.925l-9.575,-25.098h61.925" fill="#a170e0" stroke="none" stroke-width="1" stroke-linecap="butt" stroke-linejoin="miter"/><path d="M149.06308,126.65128l9.475,25.098h-3.275l-9.575,-25.098h3.375" fill="#c5a2fc" stroke="none" stroke-width="1" stroke-linecap="butt" stroke-linejoin="miter"/><path d="M141.63808,126.65128h4.05l9.575,25.098h-13.625v-25.098" fill="#a170e0" stroke="none" stroke-width="1" stroke-linecap="butt" stroke-linejoin="miter"/><path d="M213.06308,126.65128l9.575,25.098h-5.775l-9.3,-25.098h5.5" fill="#c5a2fc" stroke="none" stroke-width="1" stroke-linecap="butt" stroke-linejoin="miter"/><path d="M217.76308,126.65128l9.575,25.098h-1.45l-9.6,-25.098h1.475" fill="#c5a2fc" stroke="none" stroke-width="1" stroke-linecap="butt" stroke-linejoin="miter"/><path d="M216.28808,126.65128l9.6,25.098h-3.25l-9.575,-25.098h3.225" fill="#a170e0" stroke="none" stroke-width="1" stroke-linecap="butt" stroke-linejoin="miter"/><path d="M331.63808,128.00728c0.4,1.807 3.075,18.321 3.35,20.63c0.275,2.309 -0.6,3.112 -2.5,3.112h-190.95v-25.098h187.875c2.025,0 1.825,-0.451 2.225,1.356z" fill="none" stroke="#5e154d" stroke-width="0.9" stroke-linecap="round" stroke-linejoin="round"/><path d="M304.26308,151.80028h-3.475v-25.199h3.475z" fill="#5e154d" stroke="#5e154d" stroke-width="0.725" stroke-linecap="round" stroke-linejoin="round"/><path d="M270.71308,151.80028h-3.475v-25.199h3.475z" fill="#5e154d" stroke="#5e154d" stroke-width="0.725" stroke-linecap="round" stroke-linejoin="round"/><path d="M236.83808,151.80028h-3.475v-25.199h3.475z" fill="#5e154d" stroke="#5e154d" stroke-width="0.725" stroke-linecap="round" stroke-linejoin="round"/><path d="M202.93808,151.80028h-3.475v-25.199h3.475z" fill="#5e154d" stroke="#5e154d" stroke-width="0.725" stroke-linecap="round" stroke-linejoin="round"/><path d="M169.03808,151.80028h-3.475v-25.199h3.475z" fill="#5e154d" stroke="#5e154d" stroke-width="0.725" stroke-linecap="round" stroke-linejoin="round"/><path d="M284.61708,226.79028c1.295,1.3 2.096,3.094 2.096,5.075c0,1.98 -0.801,3.775 -2.096,5.074c-1.294,1.299 -3.081,2.104 -5.054,2.104c-1.973,0 -3.76,-0.805 -5.054,-2.104c-1.295,-1.299 -2.096,-3.094 -2.096,-5.074c0,-1.981 0.801,-3.775 2.096,-5.075c1.294,-1.299 3.081,-2.103 5.054,-2.103c1.973,0 3.76,0.804 5.054,2.103z" fill="#fde982" stroke="none" stroke-width="1" stroke-linecap="butt" stroke-linejoin="miter"/><path d="M279.46308,221.75028c5.771,0 10.45,4.697 10.45,10.491c0,5.794 -4.679,10.491 -10.45,10.491c-5.771,0 -10.45,-4.697 -10.45,-10.491c0,-5.794 4.679,-10.491 10.45,-10.491zM279.46308,238.21428c2.419,0 4.599,-1.464 5.523,-3.708c0.923,-2.245 0.407,-4.827 -1.307,-6.54c-1.714,-1.714 -4.288,-2.221 -6.52,-1.285c-2.232,0.937 -3.681,3.132 -3.671,5.56c0,1.589 0.63,3.112 1.752,4.233c1.121,1.121 2.641,1.747 4.223,1.74z" fill="#5e154d" stroke="#5e154d" stroke-width="0.6" stroke-linecap="round" stroke-linejoin="round"/><path d="M281.56608,230.13028c0.539,0.54 0.872,1.287 0.872,2.111c0,0.824 -0.333,1.571 -0.872,2.111c-0.538,0.541 -1.282,0.876 -2.103,0.876c-0.821,0 -1.565,-0.335 -2.103,-0.876c-0.539,-0.54 -0.872,-1.287 -0.872,-2.111c0,-0.824 0.333,-1.571 0.872,-2.111c0.538,-0.541 1.282,-0.876 2.103,-0.876c0.821,0 1.565,0.335 2.103,0.876z" fill="#ffffff" stroke="#a170e0" stroke-width="0.9" stroke-linecap="round" stroke-linejoin="round"/><path d="M180.54208,226.79028c1.295,1.3 2.096,3.094 2.096,5.075c0,1.98 -0.801,3.775 -2.096,5.074c-1.294,1.299 -3.081,2.104 -5.054,2.104c-1.973,0 -3.76,-0.805 -5.054,-2.104c-1.295,-1.299 -2.096,-3.094 -2.096,-5.074c0,-1.981 0.801,-3.775 2.096,-5.075c1.294,-1.299 3.081,-2.103 5.054,-2.103c1.973,0 3.76,0.804 5.054,2.103z" fill="#fde982" stroke="none" stroke-width="1" stroke-linecap="butt" stroke-linejoin="miter"/><path d="M175.48808,221.75028c5.765,0.028 10.418,4.737 10.4,10.524c-0.018,5.788 -4.702,10.467 -10.467,10.458c-5.764,-0.009 -10.433,-4.703 -10.433,-10.491c0,-2.791 1.108,-5.467 3.078,-7.436c1.971,-1.969 4.642,-3.068 7.422,-3.055zM175.48808,238.21428c2.421,0.011 4.609,-1.447 5.54,-3.691c0.932,-2.244 0.422,-4.83 -1.29,-6.548c-1.712,-1.719 -4.288,-2.231 -6.523,-1.296c-2.235,0.935 -3.687,3.131 -3.677,5.562c0,3.299 2.664,5.973 5.95,5.973z" fill="#5e154d" stroke="#5e154d" stroke-width="0.6" stroke-linecap="round" stroke-linejoin="round"/><path d="M177.59108,230.13028c0.539,0.54 0.872,1.287 0.872,2.111c0,0.824 -0.333,1.571 -0.872,2.111c-0.538,0.541 -1.282,0.876 -2.103,0.876c-0.821,0 -1.565,-0.335 -2.103,-0.876c-0.539,-0.54 -0.872,-1.287 -0.872,-2.111c0,-0.824 0.333,-1.571 0.872,-2.111c0.538,-0.541 1.282,-0.876 2.103,-0.876c0.821,0 1.565,0.335 2.103,0.876z" fill="#ffffff" stroke="#a170e0" stroke-width="0.9" stroke-linecap="round" stroke-linejoin="round"/><path d="M298.51308,180.01928h37.5v51.853h-37.5v-51.853" fill="#fde982" stroke="#5e154d" stroke-width="0.9" stroke-linecap="butt" stroke-linejoin="round"/><path d="M319.28808,184.26128h12.625v37.496h-12.625v-37.496" fill="#8b49d4" stroke="#ffffff" stroke-width="0.9" stroke-linecap="round" stroke-linejoin="round"/><path d="M310.13808,184.26128l5,13.251v3.966l-6.55,-17.217h1.55" fill="#b388ed" stroke="none" stroke-width="1" stroke-linecap="butt" stroke-linejoin="miter"/><path d="M315.18808,184.26128v13.327l-5,-13.252l5,-0.075" fill="#8b49d4" stroke="none" stroke-width="1" stroke-linecap="butt" stroke-linejoin="miter"/><path d="M303.96308,184.26128l11.225,29.44v8.056h-12.5v-37.496h1.275" fill="#8b49d4" stroke="none" stroke-width="1" stroke-linecap="butt" stroke-linejoin="miter"/><path d="M307.18808,184.26128l8,21.007v8.433l-11.225,-29.44h3.225" fill="#b388ed" stroke="none" stroke-width="1" stroke-linecap="butt" stroke-linejoin="miter"/><path d="M308.63808,184.26128l6.55,17.217v3.79l-8,-21.007h1.45" fill="#8b49d4" stroke="none" stroke-width="1" stroke-linecap="butt" stroke-linejoin="miter"/><path d="M315.18808,184.26128v37.496h-12.5v-37.496h12.5" fill="none" stroke="#ffffff" stroke-width="0.9" stroke-linecap="round" stroke-linejoin="round"/><path d="M194.18808,180.01928h37.5v51.853h-37.5v-51.853" fill="#fde982" stroke="#5e154d" stroke-width="0.9" stroke-linecap="butt" stroke-linejoin="round"/><path d="M198.21308,184.26128h12.5v37.496h-12.5v-37.496" fill="#8b49d4" stroke="#ffffff" stroke-width="0.9" stroke-linecap="round" stroke-linejoin="round"/><path d="M219.98808,184.26128l7.5,19.601v8.433l-10.675,-28.034h3.175" fill="#b388ed" stroke="none" stroke-width="1" stroke-linecap="butt" stroke-linejoin="miter"/><path d="M216.88808,184.26128l10.6,28.034v9.462h-12.5v-37.496h1.9" fill="#8b49d4" stroke="none" stroke-width="1" stroke-linecap="butt" stroke-linejoin="miter"/><path d="M227.48808,184.26128v19.601l-7.5,-19.601h7.5" fill="#8b49d4" stroke="none" stroke-width="1" stroke-linecap="butt" stroke-linejoin="miter"/><path d="M214.98808,184.26128h12.5v37.496h-12.5v-37.496" fill="none" stroke="#ffffff" stroke-width="0.9" stroke-linecap="round" stroke-linejoin="round"/><path d="M338.76308,180.01928h4.3v19.627l-4.3,-11.32v-8.307" fill="#8b49d4" stroke="none" stroke-width="1" stroke-linecap="butt" stroke-linejoin="miter"/><path d="M343.06308,205.39328v4.744c0.056,1.172 -0.375,2.315 -1.19,3.157c-0.815,0.842 -1.941,1.307 -3.11,1.285v-20.53z" fill="#8b49d4" stroke="none" stroke-width="1" stroke-linecap="butt" stroke-linejoin="miter"/><path d="M338.76308,188.30128l4.3,11.32v5.772l-4.3,-11.344v-5.748" fill="#b388ed" stroke="none" stroke-width="1" stroke-linecap="butt" stroke-linejoin="miter"/><path d="M338.76308,180.01928h4.3v30.118c0.056,1.172 -0.375,2.315 -1.19,3.157c-0.815,0.842 -1.941,1.307 -3.11,1.285z" fill="none" stroke="#5e154d" stroke-width="0.9" stroke-linecap="butt" stroke-linejoin="miter"/><path d="M184.19264,163.26728c-1.083,-0.022 -2.165,0.079 -3.225,0.301c-1.275,0.301 -1.65,1.355 -0.225,2.033c1.794,0.627 3.131,2.15 3.525,4.016c0.293,1.593 -0.671,3.149 -2.225,3.589c-1.992,0.45 -4.046,0.561 -6.075,0.326v-3.037c1.272,0.12 2.553,0.12 3.825,0c0.875,-0.176 0.95,-1.28 0,-1.656c-1.9,-0.753 -4.675,-2.36 -3.425,-5.622c0.85,-2.184 3.725,-3.439 7.75,-3.062z" fill="#ffffff" stroke="#ffffff" stroke-width="0.5" stroke-linecap="butt" stroke-linejoin="miter"/><path d="M305.74264,164.39628c-0.839,-0.012 -1.677,0.064 -2.5,0.226c-0.95,0.226 -1.225,1.029 -0.15,1.531c1.364,0.474 2.373,1.64 2.65,3.062c0.24,1.205 -0.493,2.391 -1.675,2.711c-1.508,0.345 -3.064,0.43 -4.6,0.251v-2.309c0.964,0.094 1.936,0.094 2.9,0c0.675,-0.126 0.725,-0.954 0,-1.255c-1.35,-0.552 -3.45,-1.732 -2.5,-4.242c0.65,-1.656 2.825,-2.635 5.875,-2.334z" fill="#ffffff" stroke="#ffffff" stroke-width="0.5" stroke-linecap="butt" stroke-linejoin="miter"/><path d="M194.84264,161.86128v2.51c-1.558,-0.024 -3.064,0.561 -4.2,1.632c-1.125,1.28 -0.675,3.061 0.7,3.262c1.133,0.172 2.292,-0.003 3.325,-0.502v2.51c-1.506,0.892 -3.292,1.179 -5,0.803c-1.001,-0.215 -1.873,-0.826 -2.419,-1.696c-0.546,-0.869 -0.719,-1.922 -0.481,-2.922c0.311,-2.027 1.603,-3.766 3.45,-4.643c1.432,-0.717 3.027,-1.046 4.625,-0.954z" fill="#ffffff" stroke="#ffffff" stroke-width="0.5" stroke-linecap="butt" stroke-linejoin="miter"/><path d="M234.56764,161.86128v2.51c-1.557,-0.022 -3.063,0.563 -4.2,1.632c-1.125,1.28 -0.675,3.061 0.7,3.262c1.133,0.172 2.292,-0.003 3.325,-0.502v2.51c-1.506,0.892 -3.292,1.179 -5,0.803c-0.987,-0.232 -1.841,-0.85 -2.371,-1.718c-0.531,-0.867 -0.694,-1.911 -0.454,-2.9c0.311,-2.027 1.603,-3.766 3.45,-4.643c1.41,-0.705 2.977,-1.033 4.55,-0.954z" fill="#ffffff" stroke="#ffffff" stroke-width="0.5" stroke-linecap="butt" stroke-linejoin="miter"/><path d="M201.41764,161.88628l-0.35,3.389c1.39,-0.933 2.942,-1.597 4.575,-1.958v2.51c-1.621,0.375 -3.118,1.162 -4.35,2.284c-0.648,1.371 -1.03,2.853 -1.125,4.367h-2.7l1.4,-10.642z" fill="#ffffff" stroke="#ffffff" stroke-width="0.5" stroke-linecap="butt" stroke-linejoin="miter"/><path d="M293.21764,161.88628l-0.35,3.389c1.398,-0.936 2.958,-1.6 4.6,-1.958v2.51c-1.625,0.383 -3.129,1.168 -4.375,2.284c-0.648,1.371 -1.03,2.853 -1.125,4.367h-2.7l1.35,-10.642z" fill="#ffffff" stroke="#ffffff" stroke-width="0.5" stroke-linecap="butt" stroke-linejoin="miter"/><path d="M216.91764,171.37428l-1.975,1.003c-0.434,-0.482 -0.812,-1.012 -1.125,-1.581c-0.792,1.281 -2.319,1.9 -3.775,1.531c-3.075,-0.452 -3.35,-5.848 -1.25,-8.207c1.538,-1.781 3.88,-2.644 6.2,-2.284c-0.067,1.516 -0.017,3.035 0.15,4.543c0.283,1.76 0.884,3.453 1.775,4.995zM213.06764,168.08628c-0.243,-0.986 -0.369,-1.997 -0.375,-3.012c-0.979,0.054 -1.856,0.628 -2.3,1.506c-0.475,0.928 -0.325,2.334 0.675,2.51c1.05,0.15 2,-1.004 2,-1.004z" fill="#ffffff" stroke="#ffffff" stroke-width="0.5" stroke-linecap="butt" stroke-linejoin="miter"/><path d="M217.64264,161.83628h7.925v2.51h-7.925z" fill="#ffffff" stroke="#ffffff" stroke-width="0.5" stroke-linecap="butt" stroke-linejoin="miter"/><path d="M257.41764,158.69928h10.025v2.51h-10.025z" fill="#ffffff" stroke="#ffffff" stroke-width="0.5" stroke-linecap="butt" stroke-linejoin="miter"/><path d="M223.14264,158.62428c0,0 -1.95,10.34 -1,10.917c0.95,0.578 2.875,-0.326 2.875,-0.326v2.359c-0.976,0.43 -2.035,0.635 -3.1,0.603c-0.689,0.041 -1.364,-0.205 -1.866,-0.68c-0.501,-0.475 -0.785,-1.138 -0.784,-1.83c0.141,-3.689 0.601,-7.359 1.375,-10.968z" fill="#ffffff" stroke="#ffffff" stroke-width="0.5" stroke-linecap="butt" stroke-linejoin="miter"/><path d="M237.49264,158.69928h2.1l-1.05,13.578h-2.1l1.05,-13.578" fill="#ffffff" stroke="#ffffff" stroke-width="0.5" stroke-linecap="butt" stroke-linejoin="miter"/><path d="M261.19264,161.18428h2.35l-1.025,11.193h-2.375l1.05,-11.193" fill="#ffffff" stroke="#ffffff" stroke-width="0.5" stroke-linecap="butt" stroke-linejoin="miter"/><path d="M239.26764,162.43928c0.566,-0.405 1.258,-0.592 1.95,-0.527c1.6,0 2.9,1.129 3.1,3.513c0.213,1.984 0.918,3.882 2.05,5.522l-2.25,1.28c-0.656,-0.899 -1.163,-1.899 -1.5,-2.962c-0.75,-2.309 -0.275,-3.564 -1.4,-4.216c-1.125,-0.653 -2.15,0.376 -2.15,0.376z" fill="#ffffff" stroke="#ffffff" stroke-width="0.5" stroke-linecap="butt" stroke-linejoin="miter"/><path d="M275.67664,163.83928c0.712,1.053 0.928,2.367 0.591,3.594c-0.114,2.723 -2.287,4.905 -5,5.02c-2.35,0 -3.95,-2.134 -3.525,-5.472c0.15,-2.641 2.201,-4.775 4.825,-5.019c1.26,0.138 2.397,0.824 3.109,1.877zM273.79064,165.38228c-0.357,-0.518 -0.924,-0.851 -1.548,-0.91c-1.332,0.066 -2.377,1.171 -2.375,2.509c-0.225,1.632 0.575,2.686 1.725,2.686c1.381,0 2.5,-1.124 2.5,-2.51c0.165,-0.607 0.054,-1.257 -0.302,-1.775z" fill="#ffffff" stroke="#ffffff" stroke-width="0.5" stroke-linecap="butt" stroke-linejoin="miter"/><path d="M279.26764,162.43928h2.1c0,0 -1.05,5.371 0,6.776c1.05,1.406 2.625,0.301 3.55,-0.552v2.51c-0.713,0.84 -1.777,1.296 -2.875,1.23c-2.05,0 -3.2,-1.908 -3.2,-4.669c0.015,-1.773 0.158,-3.543 0.425,-5.295z" fill="#ffffff" stroke="#ffffff" stroke-width="0.5" stroke-linecap="butt" stroke-linejoin="miter"/><path d="M287.01764,162.43928c-0.343,1.915 -0.543,3.852 -0.6,5.797c0.041,1.432 0.242,2.855 0.6,4.242h-1.925c-0.509,-1.257 -0.739,-2.61 -0.675,-3.966c0.113,-2.036 0.347,-4.065 0.7,-6.073z" fill="#ffffff" stroke="#ffffff" stroke-width="0.5" stroke-linecap="butt" stroke-linejoin="miter"/><path d="M280.88808,179.97928l9.6,25.098h-3.65l-9.575,-25.098h3.625" fill="#b388ed" stroke="none" stroke-width="1" stroke-linecap="butt" stroke-linejoin="miter"/><path d="M292.98808,179.97928v25.098h-2.5l-9.6,-25.098h12.1" fill="#8b49d4" stroke="none" stroke-width="1" stroke-linecap="butt" stroke-linejoin="miter"/><path d="M274.28808,179.97928l9.575,25.098h-1.5l-9.575,-25.098h1.5" fill="#b388ed" stroke="none" stroke-width="1" stroke-linecap="butt" stroke-linejoin="miter"/><path d="M277.26308,179.97928l9.575,25.098h-2.975l-9.575,-25.098h2.975" fill="#8b49d4" stroke="none" stroke-width="1" stroke-linecap="butt" stroke-linejoin="miter"/><path d="M237.03808,179.97928h35.75l9.575,25.098h-45.325v-25.098" fill="#8b49d4" stroke="none" stroke-width="1" stroke-linecap="butt" stroke-linejoin="miter"/><path d="M237.03808,179.97928h55.95v25.098h-55.95v-25.098" fill="none" stroke="#5e154d" stroke-width="0.9" stroke-linecap="round" stroke-linejoin="round"/><path d="M266.56308,205.15228h-3.475v-25.198h3.475z" fill="#5e154d" stroke="#5e154d" stroke-width="0.725" stroke-linecap="round" stroke-linejoin="round"/><path d="M166.01308,179.97928l9.575,25.098h-4.525l-9.575,-25.098h4.525" fill="#b388ed" stroke="none" stroke-width="1" stroke-linecap="butt" stroke-linejoin="miter"/><path d="M161.48808,179.97928l9.575,25.098h-3.1l-9.575,-25.098h3.1" fill="#8b49d4" stroke="none" stroke-width="1" stroke-linecap="butt" stroke-linejoin="miter"/><path d="M158.38808,179.97928l9.575,25.098h-2.05l-9.575,-25.098h2.05" fill="#b388ed" stroke="none" stroke-width="1" stroke-linecap="butt" stroke-linejoin="miter"/><path d="M188.98808,179.97928v25.098h-13.4l-9.575,-25.098h22.975" fill="#8b49d4" stroke="none" stroke-width="1" stroke-linecap="butt" stroke-linejoin="miter"/><path d="M142.48808,179.97928h13.875l9.55,25.098h-23.425v-25.098" fill="#8b49d4" stroke="none" stroke-width="1" stroke-linecap="butt" stroke-linejoin="miter"/><path d="M142.73808,179.97928h46.525v25.098h-46.525v-25.098" fill="none" stroke="#5e154d" stroke-width="0.9" stroke-linecap="round" stroke-linejoin="round"/><path d="M180.88808,205.15228h-3.475v-25.198h3.475z" fill="#5e154d" stroke="#5e154d" stroke-width="0.725" stroke-linecap="round" stroke-linejoin="round"/><path d="M154.61308,205.15228h-3.475v-25.198h3.475z" fill="#5e154d" stroke="#5e154d" stroke-width="0.725" stroke-linecap="round" stroke-linejoin="round"/><path d="M337.21308,158.70928l1.4,-3.037" fill="none" stroke="#d81d7b" stroke-width="1.2" stroke-linecap="butt" stroke-linejoin="miter"/><path d="M326.13808,166.33928l1.425,-3.238" fill="none" stroke="#d81d7b" stroke-width="1.2" stroke-linecap="butt" stroke-linejoin="miter"/><path d="M317.21308,158.80928l2.525,-0.878" fill="none" stroke="#d81d7b" stroke-width="1.2" stroke-linecap="butt" stroke-linejoin="miter"/><path d="M292.81308,176.52828l3.625,-0.2" fill="none" stroke="#d81d7b" stroke-width="1.2" stroke-linecap="butt" stroke-linejoin="miter"/><path d="M306.71308,157.35428l2.675,2.083" fill="none" stroke="#d81d7b" stroke-width="1.2" stroke-linecap="butt" stroke-linejoin="miter"/><path d="M285.83808,156.82628l-1.75,2.259" fill="none" stroke="#d81d7b" stroke-width="1.2" stroke-linecap="butt" stroke-linejoin="miter"/><path d="M269.58808,156.32428l2.725,1.582" fill="none" stroke="#d81d7b" stroke-width="1.2" stroke-linecap="butt" stroke-linejoin="miter"/><path d="M253.01308,156.90228l-3.35,-0.151" fill="none" stroke="#d81d7b" stroke-width="1.2" stroke-linecap="butt" stroke-linejoin="miter"/><path d="M227.66308,172.99028l1.9,-2.485" fill="none" stroke="#d81d7b" stroke-width="1.2" stroke-linecap="butt" stroke-linejoin="miter"/><path d="M254.28808,176.75428l3.5,-0.577" fill="none" stroke="#d81d7b" stroke-width="1.2" stroke-linecap="butt" stroke-linejoin="miter"/><path d="M232.48808,162.09728l-2.95,-1.054" fill="none" stroke="#d81d7b" stroke-width="1.2" stroke-linecap="butt" stroke-linejoin="miter"/><path d="M207.51308,175.92628l-3.2,-1.129" fill="none" stroke="#d81d7b" stroke-width="1.2" stroke-linecap="butt" stroke-linejoin="miter"/><path d="M170.76308,174.99728l-2.8,-2.183" fill="none" stroke="#d81d7b" stroke-width="1.2" stroke-linecap="butt" stroke-linejoin="miter"/><path d="M209.51308,156.14928l-2.7,2.384" fill="none" stroke="#d81d7b" stroke-width="1.2" stroke-linecap="butt" stroke-linejoin="miter"/><path d="M190.33808,157.25328l4.375,0.201" fill="none" stroke="#d81d7b" stroke-width="1.2" stroke-linecap="butt" stroke-linejoin="miter"/><path d="M169.28808,159.33628l2.85,-1.982" fill="none" stroke="#d81d7b" stroke-width="1.2" stroke-linecap="butt" stroke-linejoin="miter"/><path d="M151.76308,158.70928l1.8,2.033" fill="none" stroke="#d81d7b" stroke-width="1.2" stroke-linecap="butt" stroke-linejoin="miter"/><path d="M142.46308,163.10128l-2.85,-0.527" fill="none" stroke="#d81d7b" stroke-width="1.2" stroke-linecap="butt" stroke-linejoin="miter"/><path d="M141.78808,172.91428l-1.525,2.661" fill="none" stroke="#d81d7b" stroke-width="1.2" stroke-linecap="butt" stroke-linejoin="miter"/><path d="M152.78808,174.57128l-0.55,-3.313" fill="none" stroke="#d81d7b" stroke-width="1.2" stroke-linecap="butt" stroke-linejoin="miter"/><path d="M164.41308,165.91228h-2.925" fill="none" stroke="#d81d7b" stroke-width="1.2" stroke-linecap="butt" stroke-linejoin="miter"/><path d="M315.11308,167.09228l0.25,3.137" fill="none" stroke="#d81d7b" stroke-width="1.2" stroke-linecap="butt" stroke-linejoin="miter"/><path d="M276.41308,173.66728l2.175,2.887" fill="none" stroke="#d81d7b" stroke-width="1.2" stroke-linecap="butt" stroke-linejoin="miter"/><path d="M324.78808,175.37428l3.05,-1.958" fill="none" stroke="#d81d7b" stroke-width="1.2" stroke-linecap="butt" stroke-linejoin="miter"/><path d="M339.26308,170.27928l-3.325,-1.029" fill="none" stroke="#d81d7b" stroke-width="1.2" stroke-linecap="butt" stroke-linejoin="miter"/><path d="M337.78808,117.27928c1.701,-0.146 3.204,1.106 3.375,2.811c0.475,2.033 5,27.608 6.025,34.886c0.125,0.728 0.225,1.28 0.275,1.606c0.512,3.322 0.779,6.678 0.8,10.04v54.713h-2.85v-58.026c0,-2.736 -5.8,-35.715 -7.625,-46.03z" fill="#c1176c" stroke="none" stroke-width="1" stroke-linecap="butt" stroke-linejoin="miter"/><path d="M134.58808,129.00028v-4.393c0,-3.087 1.125,-4.065 4.2,-4.065h3.7" fill="none" stroke="#ffffff" stroke-width="1.5" stroke-linecap="round" stroke-linejoin="round"/><path d="M145.26308,120.54228h2.5" fill="none" stroke="#ffffff" stroke-width="1.5" stroke-linecap="round" stroke-linejoin="round"/><path d="M268.98808,120.54228h50.3" fill="none" stroke="#f48cc5" stroke-width="1.5" stroke-linecap="round" stroke-linejoin="round"/><path d="M266.11308,120.54228h-4.725" fill="none" stroke="#f48cc5" stroke-width="1.5" stroke-linecap="round" stroke-linejoin="round"/><path d="M136.03808,117.73128h201.45c2.375,0 3.25,0.853 3.725,2.811c0.475,1.957 5.775,33.204 6.275,36.492c0.511,3.322 0.779,6.678 0.8,10.039v60.487c-0.014,2.392 -1.942,4.328 -4.325,4.342h-50.975c0,-7.499 -6.055,-13.578 -13.525,-13.578c-3.339,-0.007 -6.563,1.227 -9.05,3.463c-1.072,0.989 -1.983,2.141 -2.7,3.413c-1.185,2.051 -1.807,4.381 -1.8,6.752h-76.9c0.004,-2.367 -0.608,-4.695 -1.775,-6.752c-0.73,-1.255 -1.649,-2.389 -2.725,-3.363c-5.145,-4.623 -12.93,-4.623 -18.075,0c-1.061,0.981 -1.971,2.114 -2.7,3.363c-1.174,2.055 -1.795,4.382 -1.8,6.752h-25.9c-2.383,-0.014 -4.311,-1.95 -4.325,-4.342v-105.412c-0.027,-1.171 0.416,-2.304 1.229,-3.144c0.814,-0.84 1.929,-1.317 3.096,-1.323z" data-paper-data="{&quot;index&quot;:null}" fill="none" stroke="#5e154d" stroke-width="1.2" stroke-linecap="round" stroke-linejoin="round"/></g></g></g></svg>