<svg xmlns="http://www.w3.org/2000/svg" xmlns:xlink="http://www.w3.org/1999/xlink" version="1.1" width="243.14800598144532" height="217.01143981933595" viewBox="-0.25199998378753663 -0.8100297546386719 243.14800598144532 217.01143981933595"><g><g data-paper-data="{&quot;isPaintingLayer&quot;:true}" fill-rule="nonzero" stroke-linecap="none" stroke-linejoin="none" stroke-miterlimit="10" stroke-dasharray="" stroke-dashoffset="0" font-family="none" font-weight="none" font-size="none" text-anchor="none" style="mix-blend-mode: normal"><g data-paper-data="{&quot;index&quot;:null}" id="Group" stroke-linejoin="miter"><path d="M 209.108 62.6784 L 204.576 62.6784 L 204.576 32.5284 L 209.108 32.5284 Z " id="Rectangle" fill="#d974e8" stroke="#5e154d" stroke-width="0.6" stroke-linecap="butt"/><g id="Path"><path d="M 180.446 39.9924 L 198.365 39.9924 C 200.828 39.7084 203.069 38.4364 204.576 36.4704 L 204.576 58.7784 C 203.069 56.8124 200.828 55.5414 198.365 55.2564 L 180.446 55.2564 C 176.228 55.2564 172.808 51.8394 172.808 47.6244 C 172.808 43.4094 176.228 39.9924 180.446 39.9924 Z " id="ID0.9750461364164948" fill="#8b49d4" stroke="#5e154d" stroke-width="0.6" stroke-linecap="butt"/><path d="M 185.104 55.2564 L 185.104 66.4524 L 180.908 66.4524 L 180.908 55.2564 L 185.104 55.2564 " id="ID0.5103195155970752" fill="#8b49d4" stroke="#5e154d" stroke-width="0.6" stroke-linecap="butt"/><path d="M 176.711 47.7084 C 176.711 45.3924 178.59 43.5154 180.908 43.5154 " id="ID0.19552338356152177" fill="none" stroke="#ffffff" stroke-width="0.6" stroke-linecap="butt"/><path d="M 225.852 47.6244 L 218.718 47.6244 " id="ID0.5240193833597004" fill="none" stroke="#5e154d" stroke-width="1.2" stroke-linecap="round"/><path d="M 224.174 64.5654 L 218.718 59.1554 " id="ID0.7887561917304993" fill="none" stroke="#5e154d" stroke-width="1.2" stroke-linecap="round"/><path d="M 224.174 30.6834 L 218.718 36.0934 " id="ID0.21348640322685242" fill="none" stroke="#5e154d" stroke-width="1.2" stroke-linecap="round"/></g></g><g data-paper-data="{&quot;index&quot;:null}" id="Group" stroke-linecap="butt" stroke-linejoin="miter"><path d="M 6.593 72.9594 C 6.593 68.5564 8.733 66.4604 12.51 66.4604 L 193.338 66.4604 C 196.815 66.7554 199.604 69.4544 200.01 72.9174 L 207.06 118.0364 L 231.904 135.3554 C 235.106 137.0924 236.882 140.6424 236.352 144.2444 L 236.352 161.8144 L 6.593 161.8144 Z " id="Path" fill="#f7c1d8" stroke-width="1" stroke="none"/><path d="M 236.352 160.6824 L 236.352 197.7924 L 208.235 197.7924 C 208.304 190.9614 205.613 184.3924 200.771 179.5704 C 195.929 174.7484 189.346 172.0804 182.511 172.1714 C 175.774 172.1194 169.31 174.8314 164.63 179.6744 C 159.95 184.5174 157.464 191.0664 157.751 197.7924 L 84.186 197.7924 C 83.625 183.8054 72.114 172.7554 58.105 172.7554 C 44.096 172.7554 32.585 183.8054 32.024 197.7924 L 6.593 197.7924 L 6.593 160.6824 Z " id="Path" fill="#da53d6" stroke-width="1" stroke="none"/></g><path d="M 115.95 54.3824 L 115.95 66.5004 L 110.705 66.5004 L 110.705 54.3824 L 115.95 54.3824 " data-paper-data="{&quot;index&quot;:null}" id="Path" fill="#5e154d" stroke="#5e154d" stroke-width="1.512" stroke-linecap="round" stroke-linejoin="round"/><path d="M 45.197 54.2564 L 45.197 66.3744 L 39.952 66.3744 L 39.952 54.2564 L 45.197 54.2564 " data-paper-data="{&quot;index&quot;:null}" id="Path" fill="#5e154d" stroke="#5e154d" stroke-width="1.512" stroke-linecap="round" stroke-linejoin="round"/><g data-paper-data="{&quot;index&quot;:null}" id="Hotdog"><path d="M 123.879 28.2714 C 117.348 31.6804 96.154 35.2574 76.392 34.2894 C 56.63 33.3214 41.04 30.5854 34.635 26.3774 C 26.208 20.6114 25.028 15.6444 26.208 9.5414 C 27.388 3.4394 30.337 0.4084 38.512 0.4504 C 46.686 0.4934 62.487 7.6474 76.181 8.3214 C 89.875 8.9944 108.541 4.6174 116.505 3.2284 C 123.849 1.3504 131.345 5.6934 133.359 12.9934 C 134.792 18.0014 133.233 23.3044 123.879 28.2714 Z " id="Path" fill="#ffd78f" stroke="#e89f1f" stroke-width="0.9" stroke-linecap="butt" stroke-linejoin="round"/><path d="M 135.517 15.9524 C 125.671 17.6624 107.438 26.6894 80.984 26.4454 C 54.531 26.2014 46.734 21.5794 37.395 17.7524 C 29.619 14.6984 7.815 15.9874 11.968 11.0644 C 16.121 6.1414 23.205 5.1064 29.25 7.6214 C 35.674 9.8604 57.41 19.0834 75.37 19.0834 C 93.33 19.0834 110.901 15.9494 121.93 11.0644 C 132.959 6.1784 141.413 7.8384 145.681 13.1314 L 146.822 15.9524 C 142.998 15.1684 139.369 15.3034 135.517 15.9524 Z " id="Path" fill="#f4569e" stroke="none" stroke-width="1" stroke-linecap="butt" stroke-linejoin="miter"/><path d="M 11.678 11.7624 C 19.743 8.3364 28.569 12.3474 36.254 15.4814 C 45.587 19.2844 53.441 23.4624 79.876 23.8384 C 106.31 24.2144 123.413 14.3534 133.252 12.5984 C 137.133 12.0224 141.091 12.1934 144.907 13.1004 C 148.707 18.7414 147.356 28.3514 136.25 35.6224 C 122.146 44.8564 98.245 48.4504 74.597 48.4504 C 49.725 48.4504 29.962 42.0574 20.714 35.7054 C 10.537 28.6444 8.637 19.4094 10.411 14.3114 C 10.73 13.4154 11.155 12.5604 11.678 11.7624 Z " id="Path" fill="#ea3681" stroke="none" stroke-width="1" stroke-linecap="butt" stroke-linejoin="miter"/><path d="M 10.411 14.2884 C 10.74 13.4314 11.165 12.6134 11.679 11.8514 C 15.83 6.7704 22.87 5.0534 28.913 7.6494 C 35.333 9.9604 56.158 19.1204 74.111 19.1204 C 92.063 19.1204 111.283 15.8014 120.576 11.5574 C 131.6 6.5144 140.218 6.8504 144.484 12.3134 L 144.906 12.9014 C 148.708 18.5744 147.356 28.2394 136.247 35.5504 C 122.138 44.8364 98.23 48.4504 74.575 48.4504 C 49.695 48.4504 29.927 42.0214 20.676 35.6344 C 10.538 28.7014 8.637 19.4144 10.411 14.2884 Z " id="Path" fill="none" stroke="#ea3681" stroke-width="0.9" stroke-linecap="butt" stroke-linejoin="round"/><path d="M 123.184 55.0494 C 113.328 60.2164 91.595 63.4504 74.073 63.4504 C 53.477 63.4504 40.125 61.1404 30.986 55.5534 C 23.152 50.7224 20.33 43.2454 22.562 39.0034 C 24.794 34.7604 28.922 33.5004 35.871 33.2484 C 41.347 33.0384 58.953 36.6934 72.978 36.6934 C 86.128 36.5974 99.24 35.2894 112.149 32.7864 C 120.193 31.0224 130.597 29.9304 133.798 36.6934 C 137.167 43.5814 131.86 50.5964 123.184 55.0494 Z " id="Path" fill="#fdbb38" stroke="#e89f1f" stroke-width="0.9" stroke-linecap="butt" stroke-linejoin="round"/><path d="M 125.822 25.9664 C 123.415 23.9924 120.454 23.0144 117.458 23.2014 C 112.566 23.8004 112.022 27.8094 107.589 28.4094 C 103.157 29.0084 101.526 25.2754 96.507 26.5654 C 91.489 27.8564 92.326 30.7134 86.638 31.1744 C 81.578 31.1744 80.951 27.8564 75.222 28.0404 C 69.493 28.2244 69.618 31.4504 63.471 31.4504 C 58.787 31.4504 57.742 27.3034 52.891 26.5194 C 48.04 25.7364 47.037 29.3764 41.015 28.1784 C 37.849 27.1834 35.227 24.7314 33.822 21.4504 " id="Path" fill="none" stroke="#fde982" stroke-width="1.8" stroke-linecap="round" stroke-linejoin="round"/><path d="M 22.822 9.4504 C 26.632 9.8664 30.347 10.8794 33.822 12.4504 " id="Path" fill="none" stroke="#ffffff" stroke-width="0.9" stroke-linecap="round" stroke-linejoin="round"/><path d="M 40.822 15.3004 L 37.822 13.6004 " id="Path" fill="none" stroke="#ffffff" stroke-width="0.9" stroke-linecap="round" stroke-linejoin="round"/><path d="M 110.772 52.4504 L 108.872 54.4504 " id="Path" fill="none" stroke="#e89f1f" stroke-width="0.9" stroke-linecap="round" stroke-linejoin="round"/><path d="M 118.822 51.2504 L 116.822 51.6504 " id="Path" fill="none" stroke="#e89f1f" stroke-width="0.9" stroke-linecap="round" stroke-linejoin="round"/><path d="M 100.822 57.5254 L 98.822 57.3754 " id="Path" fill="none" stroke="#e89f1f" stroke-width="0.9" stroke-linecap="round" stroke-linejoin="round"/><path d="M 91.822 58.7504 L 89.822 60.1504 " id="Path" fill="none" stroke="#e89f1f" stroke-width="0.9" stroke-linecap="round" stroke-linejoin="round"/><path d="M 104.572 52.3504 L 103.072 50.5504 " id="Path" fill="none" stroke="#e89f1f" stroke-width="0.9" stroke-linecap="round" stroke-linejoin="round"/><path d="M 93.822 53.0004 L 91.822 53.9004 " id="Path" fill="none" stroke="#e89f1f" stroke-width="0.9" stroke-linecap="round" stroke-linejoin="round"/><path d="M 42.272 55.4504 L 43.372 57.4504 " id="Path" fill="none" stroke="#e89f1f" stroke-width="0.9" stroke-linecap="round" stroke-linejoin="round"/><path d="M 50.822 56.8754 L 48.822 56.0254 " id="Path" fill="none" stroke="#e89f1f" stroke-width="0.9" stroke-linecap="round" stroke-linejoin="round"/><path d="M 69.822 56.3004 L 67.822 56.6004 " id="Path" fill="none" stroke="#e89f1f" stroke-width="0.9" stroke-linecap="round" stroke-linejoin="round"/><path d="M 58.822 54.5254 L 56.822 54.3754 " id="Path" fill="none" stroke="#e89f1f" stroke-width="0.9" stroke-linecap="round" stroke-linejoin="round"/><path d="M 36.897 54.2004 L 38.747 52.7004 " id="Path" fill="none" stroke="#e89f1f" stroke-width="0.9" stroke-linecap="round" stroke-linejoin="round"/><path d="M 56.822 58.9504 L 54.822 59.9504 " id="Path" fill="none" stroke="#e89f1f" stroke-width="0.9" stroke-linecap="round" stroke-linejoin="round"/><path d="M 85.197 55.6254 L 86.447 57.2754 " id="Path" fill="none" stroke="#e89f1f" stroke-width="0.9" stroke-linecap="round" stroke-linejoin="round"/><path d="M 79.822 60.5504 L 81.822 60.3504 " id="Path" fill="none" stroke="#e89f1f" stroke-width="0.9" stroke-linecap="round" stroke-linejoin="round"/><path d="M 64.672 60.2254 L 62.972 58.6754 " id="Path" fill="none" stroke="#e89f1f" stroke-width="0.9" stroke-linecap="round" stroke-linejoin="round"/><path d="M 71.422 60.4504 L 72.222 58.4504 " id="Path" fill="none" stroke="#e89f1f" stroke-width="0.9" stroke-linecap="round" stroke-linejoin="round"/><path d="M 75.847 55.8004 L 77.797 57.1004 " id="Path" fill="none" stroke="#e89f1f" stroke-width="0.9" stroke-linecap="round" stroke-linejoin="round"/></g><g data-paper-data="{&quot;index&quot;:null}" id="Group" stroke-linecap="butt"><path d="M 191.798 85.9474 C 193.813 85.9474 195.701 86.4504 196.247 90.1404 L 201.114 123.6864 C 201.095 124.7574 200.565 125.7544 199.688 126.3704 L 189.532 85.7384 Z " id="Path" fill="#b3e0d7" stroke="none" stroke-width="1" stroke-linejoin="miter"/><path d="M 185.839 85.9894 L 196.163 127.3764 L 186.427 127.3764 C 184.41 127.3764 182.776 125.7434 182.776 123.7284 L 182.776 89.5954 C 182.79 87.8114 184.08 86.2934 185.839 85.9894 Z " id="Path" fill="#b3e0d7" stroke="none" stroke-width="1" stroke-linejoin="miter"/><path d="M 186.427 85.9474 L 189.532 85.9474 L 199.688 126.5804 C 199.016 127.1024 198.188 127.3834 197.338 127.3764 L 196.163 127.3764 L 185.839 85.9894 Z " id="Path" fill="#d4fff5" stroke="none" stroke-width="1" stroke-linejoin="miter"/><path d="M 185.839 85.9894 L 191.798 85.9894 C 193.813 85.9894 195.701 86.4924 196.247 90.1824 L 201.114 123.7284 C 201.095 124.7994 200.565 125.7964 199.688 126.4124 C 199.016 126.9344 198.188 127.2154 197.338 127.2094 L 186.427 127.2094 C 184.41 127.2094 182.776 125.5754 182.776 123.5614 L 182.776 89.5954 C 182.79 87.8114 184.08 86.2934 185.839 85.9894 Z " id="Path" fill="none" stroke="#5e154d" stroke-width="1.512" stroke-linejoin="round"/></g><g data-paper-data="{&quot;index&quot;:null}" id="Group" stroke-linejoin="miter"><path d="M 60.429 94.3624 L 60.429 139.2724 L 51.448 139.2724 L 40.201 94.3624 L 60.429 94.3624 " id="Path" fill="#b3e0d7" stroke="none" stroke-width="1" stroke-linecap="butt"/><path d="M 40.201 94.3624 L 51.448 139.2724 L 45.405 139.2724 L 34.158 94.3624 L 40.201 94.3624 " id="Path" fill="#d4fff5" stroke="none" stroke-width="1" stroke-linecap="butt"/><path d="M 30.759 94.3624 L 41.964 139.2724 L 38.565 139.2724 L 27.318 94.3624 L 30.759 94.3624 " id="Path" fill="#d4fff5" stroke="none" stroke-width="1" stroke-linecap="butt"/><path d="M 34.158 94.3624 L 45.405 139.2724 L 41.964 139.2724 L 30.759 94.3624 L 34.158 94.3624 " id="Path" fill="#b3e0d7" stroke="none" stroke-width="1" stroke-linecap="butt"/><path d="M 25.933 94.3624 L 27.318 94.3624 L 38.565 139.2724 L 25.933 139.2724 L 25.933 94.3624 " id="Path" fill="#b3e0d7" stroke="none" stroke-width="1" stroke-linecap="butt"/><g id="Path"><path d="M 109.108 139.2724 L 109.108 143.8004 L 21.401 143.8004 L 21.401 139.2724 L 109.108 139.2724 " id="ID0.20175496069714427" fill="#996cd4" stroke-linecap="round" stroke-width="1.512" stroke="#5e154d"/><path d="M 25.598 77.5054 L 65.171 77.5054 L 65.297 77.5054 L 104.912 77.5054 L 108.605 94.3624 L 65.297 94.3624 L 65.171 94.3624 L 21.905 94.3624 L 25.598 77.5054 " id="ID0.028750764671713114" fill="#ea3681" stroke-linecap="butt" stroke-width="1.512" stroke="#5e154d"/><path d="M 104.534 94.3624 L 104.534 139.2724 L 60.429 139.2724 L 60.429 94.3624 L 104.534 94.3624 " id="ID0.2692203684709966" fill="#43c3d7" stroke-linecap="round" stroke-width="1.512" stroke="#5e154d"/><path d="M 104.534 143.8004 L 104.534 150.9294 L 100.337 150.9294 L 100.337 143.8004 L 104.534 143.8004 " id="ID0.75192845845595" fill="#5e154d" stroke-linecap="round" stroke-width="1.512" stroke="#5e154d"/><path d="M 29.584 143.8004 L 29.584 150.9294 L 25.388 150.9294 L 25.388 143.8004 L 29.584 143.8004 " id="ID0.27690320229157805" fill="#5e154d" stroke-linecap="round" stroke-width="1.512" stroke="#5e154d"/><path d="M 60.429 94.3624 L 60.429 139.2724 L 25.933 139.2724 L 25.933 94.3624 L 60.429 94.3624 " id="ID0.32834444753825665" fill="none" stroke-linecap="round" stroke-width="1.512" stroke="#5e154d"/></g></g><g data-paper-data="{&quot;index&quot;:null}" id="Group" stroke-linecap="butt"><path d="M 127.368 85.9474 L 171.263 85.9474 C 173.28 85.9474 174.914 87.5814 174.914 89.5954 L 174.914 165.3254 C 162.753 167.2774 153.103 176.6024 150.742 188.6814 L 127.452 188.6814 C 125.468 188.6594 123.865 187.0574 123.843 185.0754 L 123.843 89.5954 C 123.842 87.6294 125.401 86.0154 127.368 85.9474 Z " id="Path" fill="#fc9fe4" stroke="#5e154d" stroke-width="1.512" stroke-linejoin="round"/><path d="M 167.361 94.7954 L 167.361 127.8804 L 162.744 127.8804 L 154.477 94.7954 L 167.361 94.7954 " id="Path" fill="#b3e0d7" stroke="none" stroke-width="1" stroke-linejoin="miter"/><path d="M 154.477 94.7954 L 162.744 127.8804 L 156.659 127.8804 L 148.434 94.7954 L 154.477 94.7954 " id="Path" fill="#d4fff5" stroke="none" stroke-width="1" stroke-linejoin="miter"/><path d="M 148.434 94.7954 L 156.659 127.8804 L 153.26 127.8804 L 145.035 94.7954 L 148.434 94.7954 " id="Path" fill="#b3e0d7" stroke="none" stroke-width="1" stroke-linejoin="miter"/><path d="M 145.035 94.7954 L 153.26 127.8804 L 149.819 127.8804 L 141.594 94.7954 L 145.035 94.7954 " id="Path" fill="#d4fff5" stroke="none" stroke-width="1" stroke-linejoin="miter"/><path d="M 131.271 94.7954 L 141.594 94.7954 L 149.819 127.8804 L 131.271 127.8804 L 131.271 94.7954 " id="Path" fill="#b3e0d7" stroke="none" stroke-width="1" stroke-linejoin="miter"/><path d="M 167.361 139.2434 L 167.361 148.2594 L 163.164 148.2594 L 163.164 139.2434 L 167.361 139.2434 " id="Path" fill="none" stroke="#d974e8" stroke-width="1.512" stroke-linejoin="round"/></g><g data-paper-data="{&quot;index&quot;:null}" id="Group" stroke-linejoin="miter"><g id="Path" stroke-linecap="butt"><path d="M 241.636 163.7434 L 241.636 174.6034 L 236.265 174.6034 L 236.265 163.7434 L 241.636 163.7434 " id="ID0.0020001675002276897" fill="#f7c1d8" stroke="#5e154d" stroke-width="2.016"/><path d="M 221.996 174.5614 L 221.996 179.2164 L 213.603 179.2164 L 213.603 174.5614 L 221.996 174.5614 " id="ID0.5075748595409095" fill="none" stroke="#fc9fe4" stroke-width="1.512"/><path d="M 6.547 163.7434 L 6.547 174.6034 L 1.008 174.6034 L 1.008 163.7434 L 6.547 163.7434 " id="ID0.8438299517147243" fill="#8b49d4" stroke="#5e154d" stroke-width="2.016"/><path d="M 196.733 139.2124 L 185.864 139.2124 " id="ID0.4244517828337848" fill="none" stroke="#000000" stroke-width="2.016"/><path d="M 185.864 143.9934 L 196.733 143.9934 " id="ID0.8089206786826253" fill="none" stroke="#000000" stroke-width="2.016"/><path d="M 185.864 148.8154 L 196.733 148.8154 " id="ID0.28445054357871413" fill="none" stroke="#000000" stroke-width="2.016"/><path d="M 12.464 66.4604 L 193.292 66.4604 C 196.769 66.7554 199.558 69.4544 199.965 72.9174 L 207.015 118.0364 L 231.858 135.3554 C 235.06 137.0924 236.836 140.6424 236.307 144.2444 L 236.307 197.7924 L 208.19 197.7924 C 208.179 190.9124 205.414 184.3234 200.51 179.4944 C 195.606 174.6654 188.972 171.9984 182.088 172.0874 C 168.514 173.0594 157.912 184.1974 157.622 197.7924 L 84.141 197.7924 C 84.072 183.4364 72.405 171.8364 58.039 171.8364 C 43.686 171.8364 32.859 185.3384 32.482 197.7924 L 6.547 197.7924 L 6.547 72.9594 C 6.547 68.5564 8.687 66.4604 12.464 66.4604 Z " id="ID0.24063522135838866" fill="none" stroke="#5e154d" stroke-width="2.016"/></g><path d="M 233.285 184.7514 L 233.285 174.5614 L 239.748 174.5614 L 239.748 197.7924 L 226.864 197.7924 L 226.864 184.7514 L 233.285 184.7514 " id="Path" fill="#d974e8" stroke="#5e154d" stroke-width="2.016" stroke-linecap="butt"/><path d="M 182.759 177.5804 C 170.911 177.9014 161.542 187.7134 161.776 199.5534 L 155.524 199.5534 C 154.526 189.1904 159.496 179.1584 168.348 173.6684 C 177.2 168.1774 188.402 168.1774 197.254 173.6684 C 206.106 179.1584 211.076 189.1904 210.078 199.5534 L 203.826 199.5534 C 204.06 187.6814 194.64 177.8554 182.759 177.5804 Z " id="Path" fill="#fdbb38" stroke="#5e154d" stroke-width="1.512" stroke-linecap="butt"/><path d="M 58.71 177.5804 C 46.872 177.9234 37.515 187.7214 37.727 199.5534 L 31.475 199.5534 C 30.477 189.1904 35.447 179.1584 44.299 173.6684 C 53.151 168.1774 64.353 168.1774 73.205 173.6684 C 82.057 179.1584 87.027 189.1904 86.029 199.5534 L 79.818 199.5534 C 80.029 187.6744 70.597 177.8554 58.71 177.5804 Z " id="Path" fill="#fdbb38" stroke="#5e154d" stroke-width="1.512" stroke-linecap="butt"/><path d="M 230.306 193.8504 L 230.306 187.9804 " id="Path" fill="none" stroke="#ffffff" stroke-width="1.512" stroke-linecap="round"/></g><g data-paper-data="{&quot;index&quot;:null}" id="Group" stroke-linejoin="miter"><g id="Path" stroke-linecap="butt"><path d="M 12.027 83.0314 L 12.027 76.7414 C 11.857 75.3474 12.326 73.9504 13.304 72.9414 C 14.281 71.9314 15.663 71.4174 17.063 71.5414 L 22.686 71.5414 " id="ID0.91263118525967" stroke-width="2.52" fill="none" stroke="#ffffff"/><path d="M 29.82 71.5414 L 26.463 71.5414 " id="ID0.1069753598421812" stroke-width="2.52" fill="none" stroke="#ffffff"/></g><g id="Path" stroke-linecap="butt"><path d="M 112.044 168.0714 L 115.191 170.2524 " id="ID0.8272302024997771" stroke-width="1.512" fill="none" stroke="#cc48cc"/><path d="M 96.768 169.8324 L 97.692 166.1004 " id="ID0.16506824735552073" stroke-width="1.512" fill="none" stroke="#cc48cc"/><path d="M 105.749 177.3384 L 106.211 181.1544 " id="ID0.6830048202537" stroke-width="1.512" fill="none" stroke="#cc48cc"/><path d="M 135.712 192.3504 L 139.321 193.6924 " id="ID0.7572692004032433" stroke-width="1.512" fill="none" stroke="#cc48cc"/><path d="M 223.419 166.9394 L 226.902 168.5744 " id="ID0.35042035346850753" stroke-width="1.512" fill="none" stroke="#cc48cc"/><path d="M 217.25 186.8154 L 218.384 190.5054 " id="ID0.2845806423574686" stroke-width="1.512" fill="none" stroke="#cc48cc"/><path d="M 205.626 171.0904 L 207.557 167.7784 " id="ID0.3505315533839166" stroke-width="1.512" fill="none" stroke="#cc48cc"/><path d="M 188.127 165.5974 L 191.945 165.8494 " id="ID0.6483545047231019" stroke-width="1.512" fill="none" stroke="#cc48cc"/><path d="M 167.857 172.1394 L 170.711 169.5394 " id="ID0.008866059128195047" stroke-width="1.512" fill="none" stroke="#cc48cc"/><path d="M 156.401 180.6094 L 156.401 184.4674 " id="ID0.625361786223948" stroke-width="1.512" fill="none" stroke="#cc48cc"/><path d="M 95.384 189.8764 L 96.307 186.1444 " id="ID0.2788260099478066" stroke-width="1.512" fill="none" stroke="#cc48cc"/><path d="M 86.907 175.8294 L 90.054 178.0094 " id="ID0.9916154206730425" stroke-width="1.512" fill="none" stroke="#cc48cc"/><path d="M 78.556 166.3944 L 76.289 169.5394 " id="ID0.8841637964360416" stroke-width="1.512" fill="none" stroke="#cc48cc"/><path d="M 62.357 165.7234 L 58.496 165.9334 " id="ID0.9111444693990052" stroke-width="1.512" fill="none" stroke="#cc48cc"/><path d="M 44.732 169.1614 L 42.088 166.3104 " id="ID0.7042004251852632" stroke-width="1.512" fill="none" stroke="#cc48cc"/><path d="M 29.288 174.7804 L 32.394 172.5164 " id="ID0.7419874328188598" stroke-width="1.512" fill="none" stroke="#cc48cc"/><path d="M 19.469 167.0654 L 23.078 168.4074 " id="ID0.3621298186480999" stroke-width="1.512" fill="none" stroke="#cc48cc"/><path d="M 14.601 175.0324 L 15.23 178.8064 " id="ID0.9594456795603037" stroke-width="1.512" fill="none" stroke="#cc48cc"/><path d="M 15.272 191.0084 L 17.035 187.6124 " id="ID0.784473511390388" stroke-width="1.512" fill="none" stroke="#cc48cc"/><path d="M 24.295 182.9154 L 27.442 185.1384 " id="ID0.1440156209282577" stroke-width="1.512" fill="none" stroke="#cc48cc"/><path d="M 114.562 188.0314 L 110.953 189.2894 " id="ID0.9735468523576856" stroke-width="1.512" fill="none" stroke="#cc48cc"/></g><path d="M 167.354 94.7724 L 167.354 127.8144 L 131.264 127.8144 L 131.264 94.7724 L 167.354 94.7724 " id="Path" fill="none" stroke="#5e154d" stroke-width="1.512" stroke-linecap="butt"/><g id="Path" stroke-linecap="butt"><path d="M 108.772 94.3394 L 108.772 99.1614 C 108.772 101.8254 106.611 103.9844 103.946 103.9844 C 101.281 103.9844 99.12 101.8254 99.12 99.1614 L 99.12 94.3394 Z " id="ID0.021298525389283895" fill="#ffffff" stroke-width="1.512" stroke="#5e154d"/><path d="M 98.952 94.3394 L 98.952 99.1614 C 99.123 100.9844 98.246 102.7464 96.689 103.7104 C 95.132 104.6744 93.163 104.6744 91.605 103.7104 C 90.048 102.7464 89.171 100.9844 89.342 99.1614 L 89.342 94.3394 Z " id="ID0.816502305213362" fill="#f7c1d8" stroke-width="1.512" stroke="#5e154d"/><path d="M 89.342 94.3394 L 89.342 99.1614 C 89.342 101.8254 87.181 103.9844 84.516 103.9844 C 81.851 103.9844 79.69 101.8254 79.69 99.1614 L 79.69 94.3394 Z " id="ID0.7676572157070041" fill="#ffffff" stroke-width="1.512" stroke="#5e154d"/><path d="M 79.69 94.3394 L 79.69 99.1614 C 79.861 100.9844 78.984 102.7464 77.427 103.7104 C 75.87 104.6744 73.901 104.6744 72.343 103.7104 C 70.786 102.7464 69.909 100.9844 70.08 99.1614 L 70.08 94.3394 Z " id="ID0.2727248133160174" fill="#f7c1d8" stroke-width="1.512" stroke="#5e154d"/><path d="M 70.08 94.3394 L 70.08 99.1614 C 70.08 101.8254 67.919 103.9844 65.254 103.9844 C 62.589 103.9844 60.428 101.8254 60.428 99.1614 L 60.428 94.3394 Z " id="ID0.14141784282401204" fill="#ffffff" stroke-width="1.512" stroke="#5e154d"/><path d="M 60.428 94.3394 L 60.428 99.1614 C 60.428 101.8254 58.267 103.9844 55.602 103.9844 C 52.937 103.9844 50.776 101.8254 50.776 99.1614 L 50.776 94.3394 Z " id="ID0.97341039031744" fill="#f7c1d8" stroke-width="1.512" stroke="#5e154d"/><path d="M 50.776 94.3394 L 50.776 99.1614 C 50.947 100.9844 50.07 102.7464 48.513 103.7104 C 46.956 104.6744 44.987 104.6744 43.429 103.7104 C 41.872 102.7464 40.995 100.9844 41.166 99.1614 L 41.166 94.3394 Z " id="ID0.9614425809122622" fill="#ffffff" stroke-width="1.512" stroke="#5e154d"/><path d="M 41.166 94.3394 L 41.166 99.1614 C 41.166 101.8254 39.005 103.9844 36.34 103.9844 C 33.675 103.9844 31.514 101.8254 31.514 99.1614 L 31.514 94.3394 Z " id="ID0.904340616427362" fill="#f7c1d8" stroke-width="1.512" stroke="#5e154d"/><path d="M 31.514 94.3394 L 31.514 99.1614 C 31.685 100.9844 30.808 102.7464 29.251 103.7104 C 27.694 104.6744 25.725 104.6744 24.167 103.7104 C 22.61 102.7464 21.733 100.9844 21.904 99.1614 L 21.904 94.3394 Z " id="ID0.8952499884180725" fill="#ffffff" stroke-width="1.512" stroke="#5e154d"/></g><path d="M 194.658 186.4934 C 197.674 189.5064 199.541 193.6684 199.541 198.2614 C 199.541 202.8544 197.674 207.0154 194.658 210.0294 C 191.642 213.0434 187.477 214.9084 182.881 214.9084 C 178.285 214.9084 174.12 213.0434 171.104 210.0294 C 168.088 207.0154 166.221 202.8544 166.221 198.2614 C 166.221 193.6684 168.088 189.5064 171.104 186.4934 C 174.12 183.4794 178.285 181.6144 182.881 181.6144 C 187.477 181.6144 191.642 183.4794 194.658 186.4934 Z " id="Oval" fill="#5e154d" stroke="#5e154d" stroke-width="2.016" stroke-linecap="round"/></g><path d="M 189.102 192.0394 C 190.705 193.6414 191.698 195.8534 191.698 198.2944 C 191.698 200.7354 190.705 202.9474 189.102 204.5484 C 187.5 206.1504 185.286 207.1414 182.843 207.1414 C 180.4 207.1414 178.186 206.1504 176.583 204.5484 C 174.98 202.9474 173.988 200.7354 173.988 198.2944 C 173.988 195.8534 174.98 193.6414 176.583 192.0394 C 178.186 190.4374 180.4 189.4464 182.843 189.4464 C 185.286 189.4464 187.5 190.4374 189.102 192.0394 Z " data-paper-data="{&quot;index&quot;:null}" id="Oval" fill="#c5a2fc" stroke="#c5a2fc" stroke-width="1.008" stroke-linecap="butt" stroke-linejoin="miter"/><path d="M 186.522 194.6184 C 187.464 195.5594 188.047 196.8594 188.047 198.2944 C 188.047 199.7284 187.464 201.0284 186.522 201.9694 C 185.58 202.9114 184.279 203.4934 182.843 203.4934 C 181.407 203.4934 180.106 202.9114 179.164 201.9694 C 178.222 201.0284 177.639 199.7284 177.639 198.2944 C 177.639 196.8594 178.222 195.5594 179.164 194.6184 C 180.106 193.6774 181.407 193.0944 182.843 193.0944 C 184.279 193.0944 185.58 193.6774 186.522 194.6184 Z " data-paper-data="{&quot;index&quot;:null}" id="Oval" fill="#ffffff" stroke="#8b49d4" stroke-width="1.512" stroke-linecap="round" stroke-linejoin="round"/><path d="M 70.487 186.5254 C 73.503 189.5394 75.37 193.7014 75.37 198.2944 C 75.37 202.8864 73.503 207.0484 70.487 210.0624 C 67.471 213.0754 63.306 214.9414 58.71 214.9414 C 54.114 214.9414 49.949 213.0754 46.933 210.0624 C 43.917 207.0484 42.05 202.8864 42.05 198.2944 C 42.05 193.7014 43.917 189.5394 46.933 186.5254 C 49.949 183.5124 54.114 181.6474 58.71 181.6474 C 63.306 181.6474 67.471 183.5124 70.487 186.5254 Z " data-paper-data="{&quot;index&quot;:null}" id="Oval" fill="#5e154d" stroke="#5e154d" stroke-width="2.016" stroke-linecap="round" stroke-linejoin="round"/><path d="M 64.969 192.0394 C 66.572 193.6414 67.565 195.8534 67.565 198.2944 C 67.565 200.7354 66.572 202.9474 64.969 204.5484 C 63.367 206.1504 61.153 207.1414 58.71 207.1414 C 56.267 207.1414 54.053 206.1504 52.45 204.5484 C 50.848 202.9474 49.855 200.7354 49.855 198.2944 C 49.855 195.8534 50.848 193.6414 52.45 192.0394 C 54.053 190.4374 56.267 189.4464 58.71 189.4464 C 61.153 189.4464 63.367 190.4374 64.969 192.0394 Z " data-paper-data="{&quot;index&quot;:null}" id="Oval" fill="#c5a2fc" stroke="#c5a2fc" stroke-width="1.008" stroke-linecap="butt" stroke-linejoin="miter"/><path d="M 62.389 194.6184 C 63.331 195.5594 63.914 196.8594 63.914 198.2944 C 63.914 199.7284 63.331 201.0284 62.389 201.9694 C 61.447 202.9114 60.146 203.4934 58.71 203.4934 C 57.274 203.4934 55.973 202.9114 55.031 201.9694 C 54.089 201.0284 53.506 199.7284 53.506 198.2944 C 53.506 196.8594 54.089 195.5594 55.031 194.6184 C 55.973 193.6774 57.274 193.0944 58.71 193.0944 C 60.146 193.0944 61.447 193.6774 62.389 194.6184 Z " data-paper-data="{&quot;index&quot;:null}" id="Oval" fill="#ffffff" stroke="#8b49d4" stroke-width="1.512" stroke-linecap="round" stroke-linejoin="round"/><g data-paper-data="{&quot;index&quot;:null}" id="Group"><g id="Path" stroke-linecap="butt" stroke-linejoin="miter"><path d="M 91.051 112.1464 L 91.051 111.0974 L 92.436 111.0974 L 92.436 112.1464 C 92.436 112.8584 93.317 112.4814 93.317 113.2784 L 93.317 114.7874 L 90.212 114.7874 L 90.212 113.2784 C 90.212 112.3974 91.051 112.8584 91.051 112.1464 Z " id="ID0.46123841870576143" stroke-width="1" fill="#ffffff" stroke="none"/><path d="M 93.317 114.7874 L 93.905 114.7874 C 94.259 114.8094 94.535 115.1034 94.534 115.4584 L 94.534 117.8064 C 94.535 118.1614 94.259 118.4554 93.905 118.4774 L 93.317 118.4774 Z " id="ID0.8487621848471463" stroke-width="1" fill="#ffffff" stroke="none"/><path d="M 91.765 118.4774 L 89.624 118.4774 C 89.254 118.4774 88.953 118.1774 88.953 117.8064 L 88.953 115.4584 C 88.953 115.0884 89.254 114.7874 89.624 114.7874 L 93.317 114.7874 L 93.317 118.4774 Z " id="ID0.6399232763797045" stroke-width="1" fill="#ffffff" stroke="none"/></g><path d="M 93.319 121.3714 L 93.319 118.4774 L 94.242 118.4774 L 94.242 120.3644 C 94.125 121.2534 94.679 122.0934 95.543 122.3354 C 96.592 122.7964 96.592 124.1804 96.592 125.6064 L 96.592 136.5924 C 96.592 137.8504 96.089 138.6474 94.956 138.6474 L 94.284 138.6474 C 94.284 135.1244 94.284 126.0674 94.284 124.0544 C 94.326 122.7124 93.319 122.9224 93.319 121.3714 Z " id="Path" fill="#f7c1d8" stroke="none" stroke-width="1" stroke-linecap="butt" stroke-linejoin="miter"/><path d="M 87.779 122.3354 C 88.643 122.0934 89.197 121.2534 89.08 120.3644 L 89.08 118.4774 L 93.277 118.4774 L 93.277 121.3714 C 93.277 122.9224 94.284 122.7124 94.284 124.0544 L 94.284 138.6474 L 88.535 138.6474 C 87.444 138.6474 86.94 137.8504 86.94 136.5924 L 86.94 125.3964 C 86.94 123.9704 86.94 122.7964 87.779 122.3354 Z " id="Path" fill="#ea3681" stroke="none" stroke-width="1" stroke-linecap="butt" stroke-linejoin="miter"/><path d="M 94.536 118.9804 L 88.954 118.9804 L 88.954 114.7874 L 94.536 114.7874 Z " id="Rectangle" fill="none" stroke="#663c1d" stroke-width="1.008" stroke-linecap="round" stroke-linejoin="round"/><path d="M 91.053 112.1464 L 91.053 111.0974 L 92.438 111.0974 L 92.438 112.1464 C 92.438 112.8584 93.319 112.4814 93.319 113.2784 L 93.319 114.7874 L 90.213 114.7874 L 90.213 113.2784 C 90.213 112.3974 91.053 112.8584 91.053 112.1464 Z " id="Path" fill="none" stroke="#663c1d" stroke-width="1.008" stroke-linecap="round" stroke-linejoin="round"/><path d="M 87.779 122.3354 C 88.643 122.0934 89.197 121.2534 89.08 120.3644 L 89.08 118.4774 L 94.242 118.4774 L 94.242 120.3644 C 94.125 121.2534 94.679 122.0934 95.543 122.3354 C 96.592 122.7964 96.592 124.1804 96.592 125.6064 L 96.592 136.5924 C 96.592 137.8504 96.089 138.6474 94.956 138.6474 L 88.535 138.6474 C 87.444 138.6474 86.94 137.8504 86.94 136.5924 L 86.94 125.3964 C 86.94 123.9704 86.94 122.7964 87.779 122.3354 Z " id="Path" fill="none" stroke="#663c1d" stroke-width="1.008" stroke-linecap="round" stroke-linejoin="round"/></g><g data-paper-data="{&quot;index&quot;:null}" id="Group"><g id="Path" stroke-linecap="butt" stroke-linejoin="miter"><path d="M 78.619 112.1464 L 78.619 111.0974 L 80.004 111.0974 L 80.004 112.1464 C 80.004 112.8584 80.843 112.4814 80.843 113.2784 L 80.843 114.7874 L 77.738 114.7874 L 77.738 113.2784 C 77.738 112.3974 78.619 112.8584 78.619 112.1464 Z " id="ID0.44330265559256077" stroke-width="1" fill="#ffffff" stroke="none"/><path d="M 80.843 114.7874 L 81.431 114.7874 C 81.802 114.7874 82.102 115.0884 82.102 115.4584 L 82.102 117.8064 C 82.102 118.1774 81.802 118.4774 81.431 118.4774 L 80.843 118.4774 Z " id="ID0.6920376461930573" stroke-width="1" fill="#ffffff" stroke="none"/><path d="M 79.374 118.4774 L 77.234 118.4774 C 76.88 118.4554 76.604 118.1614 76.605 117.8064 L 76.605 115.4584 C 76.604 115.1034 76.88 114.8094 77.234 114.7874 L 80.927 114.7874 L 80.927 118.4774 Z " id="ID0.744662172626704" stroke-width="1" fill="#ffffff" stroke="none"/></g><path d="M 80.845 121.3714 L 80.845 118.4774 L 81.768 118.4774 L 81.768 120.3644 C 81.651 121.2534 82.205 122.0934 83.069 122.3354 C 84.118 122.7964 84.118 124.1804 84.118 125.6064 L 84.118 136.5924 C 84.118 137.8504 83.614 138.6474 82.523 138.6474 L 81.81 138.6474 C 81.81 135.1244 81.81 126.0674 81.81 124.0544 C 81.852 122.7124 80.845 122.9224 80.845 121.3714 Z " id="Path" fill="#fde982" stroke="none" stroke-width="1" stroke-linecap="butt" stroke-linejoin="miter"/><path d="M 75.515 122.3354 C 76.379 122.0934 76.933 121.2534 76.816 120.3644 L 76.816 118.4774 L 81.013 118.4774 L 81.013 121.3714 C 81.013 122.9224 82.02 122.7124 82.02 124.0544 L 82.02 138.6474 L 76.313 138.6474 C 75.179 138.6474 74.676 137.8504 74.676 136.5924 L 74.676 125.3964 C 74.466 123.9704 74.466 122.7964 75.515 122.3354 Z " id="Path" fill="#fdbb38" stroke="none" stroke-width="1" stroke-linecap="butt" stroke-linejoin="miter"/><path d="M 82.104 118.9804 L 76.522 118.9804 L 76.522 114.7874 L 82.104 114.7874 Z " id="Rectangle" fill="none" stroke="#663c1d" stroke-width="1.008" stroke-linecap="round" stroke-linejoin="round"/><path d="M 78.621 112.1464 L 78.621 111.0974 L 80.005 111.0974 L 80.005 112.1464 C 80.005 112.8584 80.845 112.4814 80.845 113.2784 L 80.845 114.7874 L 77.739 114.7874 L 77.739 113.2784 C 77.739 112.3974 78.621 112.8584 78.621 112.1464 Z " id="Path" fill="none" stroke="#663c1d" stroke-width="1.008" stroke-linecap="round" stroke-linejoin="round"/><path d="M 75.515 122.3354 C 76.379 122.0934 76.933 121.2534 76.816 120.3644 L 76.816 118.4774 L 81.768 118.4774 L 81.768 120.3644 C 81.651 121.2534 82.205 122.0934 83.069 122.3354 C 84.118 122.7964 84.118 124.1804 84.118 125.6064 L 84.118 136.5924 C 84.118 137.8504 83.614 138.6474 82.523 138.6474 L 76.103 138.6474 C 74.97 138.6474 74.466 137.8504 74.466 136.5924 L 74.466 125.3964 C 74.466 123.9704 74.466 122.7964 75.515 122.3354 Z " id="Path" fill="none" stroke="#663c1d" stroke-width="1.008" stroke-linecap="round" stroke-linejoin="round"/></g></g></g></svg>