<svg version="1.1" xmlns="http://www.w3.org/2000/svg" xmlns:xlink="http://www.w3.org/1999/xlink" width="95.70012" height="49.60779" viewBox="0,0,95.70012,49.60779"><defs><linearGradient x1="278.42062" y1="194.41167" x2="284.8896" y2="194.41167" gradientUnits="userSpaceOnUse" id="color-1"><stop offset="0" stop-color="#000000"/><stop offset="1" stop-color="#ffffff"/></linearGradient><linearGradient x1="278.75399" y1="165.5668" x2="285.22297" y2="165.5668" gradientUnits="userSpaceOnUse" id="color-2"><stop offset="0" stop-color="#000000"/><stop offset="1" stop-color="#ffffff"/></linearGradient></defs><g transform="translate(-191.88179,-152.56811)"><g data-paper-data="{&quot;isPaintingLayer&quot;:true}" fill-rule="nonzero" stroke-linejoin="miter" stroke-miterlimit="10" stroke-dasharray="" stroke-dashoffset="0" style="mix-blend-mode: normal"><g><path d="M256.15684,159.71501c0,0 4.01577,-0.74997 6.17862,-0.87474c2.20228,-0.12706 6.91892,0.11911 6.91892,0.11911c0,0 4.0746,0.38811 6.29615,0.76003c2.72976,0.457 8.87411,1.77971 8.87411,1.77971c0,0 1.46436,2.85469 1.92291,4.27202c0.36791,1.13718 0.8687,3.5781 0.8687,3.5781l0.11544,20.89517l-2.77063,8.42734c0,0 -7.17399,1.84825 -10.0716,2.31705c-1.86189,0.30122 -5.62639,0.22269 -5.62639,0.22269c0,0 -2.22588,-0.17213 -4.323,-0.38023c-1.28638,-0.12764 -2.41629,-0.26883 -3.27259,-0.39214c-1.73311,-0.24958 -4.7733,-1.00874 -4.7733,-1.00874l-27.76816,-0.47002c0,0 -4.78624,0.78722 -7.81113,1.26736c-3.98171,0.63202 -14.18075,1.42908 -14.18075,1.42908c0,0 -5.0053,-0.34679 -7.66186,-0.77373c-3.54715,-0.57008 -6.0676,-1.92269 -6.0676,-1.92269c0,0 -0.92305,-4.55076 -0.87075,-8.13284c0.06102,-4.17853 -0.22588,-14.4167 0.16895,-21.95342c0.26417,-5.04251 1.27075,-8.87573 1.27075,-8.87573c0,0 4.80224,-1.42602 6.80001,-1.8667c1.92455,-0.42453 6.36048,-0.90393 6.36048,-0.90393c0,0 10.20285,0.53064 14.03038,1.1885c3.53801,0.6081 8.13467,1.75529 8.13467,1.75529z" fill="#ff0000" stroke="#000000" stroke-width="0.5" stroke-linecap="round"/><path d="M279.02865,190.98599l5.86095,-0.31969c0,0 -0.58082,2.50541 -0.93071,3.684c-0.32282,1.0874 -1.09397,3.13602 -1.09397,3.13602l-4.4443,0.67071z" fill="url(#color-1)" stroke="#000000" stroke-width="0.5" stroke-linecap="round"/><path d="M272.02238,191.55915l5.62276,-0.50421l-0.57043,7.31111l-5.2153,0.75631z" fill="none" stroke="#000000" stroke-width="0.5" stroke-linecap="round"/><path d="M278.75399,161.82142l4.4443,0.67071c0,0 0.77116,2.0486 1.09397,3.13602c0.34989,1.17858 0.93072,3.684 0.93072,3.684l-5.86095,-0.31969z" data-paper-data="{&quot;index&quot;:null}" fill="url(#color-2)" stroke="#000000" stroke-width="0.5" stroke-linecap="round"/><path d="M272.19277,160.85609l5.21531,0.75631l0.57042,7.31111l-5.62275,-0.50421z" data-paper-data="{&quot;index&quot;:null}" fill="none" stroke="#000000" stroke-width="0.5" stroke-linecap="round"/><path d="M283.88689,180.35145v-0.77821h1.73164v0.77821z" fill="#ffd200" stroke="none" stroke-width="0" stroke-linecap="butt"/><path d="M271.13704,174.95805l-0.7961,-0.02699v-1.25939h0.7961l1.28636,0.69266z" fill="none" stroke="#000000" stroke-width="0.25" stroke-linecap="round"/><path d="M279.1296,152.56811v15.11253" fill="none" stroke="none" stroke-width="0" stroke-linecap="round"/><path d="M244.32162,169.6022l-0.45794,7.71898" fill="none" stroke="none" stroke-width="0" stroke-linecap="round"/><path d="M255.88496,161.77555c0,0 0.24544,-0.08517 0.08649,0.00449c-1.03825,0.58568 -12.09257,6.76815 -12.09257,6.76815c0,0 -1.39224,0.60746 -2.30734,0.59937c-2.65605,-0.02349 -12.46935,0.01633 -12.46935,0.01633l-11.69822,-4.61773l11.08252,-1.38532z" fill="#617298" stroke="#000000" stroke-width="0.5" stroke-linecap="round"/><path d="M255.26638,197.50789c0,0 0.10919,0.19031 -0.20148,0.17968c-2.18942,-0.075 -27.04446,-1.27912 -27.04446,-1.27912l-9.98165,-2.00102l11.06489,-3.38633c0,0 9.46313,0.11073 12.31044,0.13518c1.06042,0.0091 2.80637,0.32659 2.80637,0.32659l11.04591,6.02503z" fill="#617298" stroke="#000000" stroke-width="0.5" stroke-linecap="round"/><path d="M224.50854,189.36596l-13.75819,3.98598c0,0 -4.63032,-2.42315 -7.35374,-6.2364c-1.66105,-2.32575 -1.95721,-5.88192 -1.96665,-7.64705c-0.00996,-1.86434 0.2771,-5.88165 2.05083,-8.35931c2.63873,-3.68595 7.12044,-5.64866 7.12044,-5.64866l14.06728,5.28498z" fill="#617298" stroke="#000000" stroke-width="0.5" stroke-linecap="round"/><path d="M273.21501,174.36433h-0.89056" fill="none" stroke="#000000" stroke-width="0.25" stroke-linecap="round"/><path d="M271.19475,185.98284l-0.79611,-0.02699v-1.25939h0.79611l1.28636,0.69266z" fill="none" stroke="#000000" stroke-width="0.25" stroke-linecap="round"/><path d="M272.38218,185.38914h0.89056" fill="none" stroke="#000000" stroke-width="0.25" stroke-linecap="round"/><path d="M264.04463,168.71324l21.15753,1.63719" fill="none" stroke="#000000" stroke-width="0.25" stroke-linecap="round"/><path d="M263.41493,191.2561l21.15753,-1.63719" data-paper-data="{&quot;index&quot;:null}" fill="none" stroke="#000000" stroke-width="0.25" stroke-linecap="round"/><path d="M201.9165,168.78505v-5.38732" fill="none" stroke="#000000" stroke-width="0.5" stroke-linecap="round"/><path d="M203.30388,200.1026l-3.54024,-2.51918c0,0 -0.3124,-0.85266 -0.32005,-2.04779c-0.04312,-6.74824 0.1236,-29.27767 0.15283,-32.74582c0.00731,-0.86718 0.47507,-1.73453 0.47507,-1.73453l3.2324,-2.20429" fill="none" stroke="#000000" stroke-width="0.5" stroke-linecap="round"/><path d="M228.69927,162.78203v-2.46279" fill="none" stroke="#000000" stroke-width="0.5" stroke-linecap="round"/><path d="M228.23749,196.6453v2.30885" fill="none" stroke="#000000" stroke-width="0.5" stroke-linecap="round"/><path d="M252.14096,163.49731l-0.86582,-2.39035l-1.07974,-0.5093l-0.57721,-2.88608c0,0 0.03761,-0.15671 0.25635,-0.02546c0.41564,0.24937 2.05251,1.41078 2.05251,1.41078l1.03899,3.92507" fill="#ff0000" stroke="#000000" stroke-width="0.5" stroke-linecap="round"/><path d="M253.27389,196.59006l-1.03899,3.92506c0,0 -1.63687,1.16141 -2.05251,1.41078c-0.21874,0.13124 -0.25635,-0.02546 -0.25635,-0.02546l0.57721,-2.88607l1.07974,-0.50931l0.86582,-2.39035" data-paper-data="{&quot;index&quot;:null}" fill="#ff0000" stroke="#000000" stroke-width="0.5" stroke-linecap="round"/><path d="M215.20398,197.60731l-2.46277,0.34407l-4.30988,1.3491h-2.92455v-4.15595h2.77063l4.61773,1.13179l2.30885,0.25353" data-paper-data="{&quot;index&quot;:null}" fill="none" stroke="#000000" stroke-width="0.5" stroke-linecap="round"/><path d="M201.60865,190.9501v5.54127" fill="none" stroke="#000000" stroke-width="0.5" stroke-linecap="round"/><path d="M255.63594,197.6348l-0.3958,-0.19791" fill="none" stroke="#000000" stroke-width="0.5" stroke-linecap="round"/><path d="M215.15396,162.13554l-2.30885,0.25353l-4.61773,1.13179h-2.77063v-4.15595h2.92455l4.30988,1.3491l2.46277,0.34406" fill="none" stroke="#000000" stroke-width="0.5" stroke-linecap="round"/><path d="M258.26047,162.14561c0,0 1.94515,2.4071 2.4696,3.47785c0.57849,1.18109 0.85516,3.3102 0.85516,3.3102v22.02651c0,0 -0.64564,2.55084 -1.29632,3.48349c-0.72629,1.04104 -2.85962,2.47337 -2.85962,2.47337l-11.49812,-6.09539l-0.27706,-21.47239z" fill="#617298" stroke="#000000" stroke-width="0.5" stroke-linecap="round"/><path d="M222.77999,161.39986c0,0.90855 -1.04663,1.64506 -2.33772,1.64506c-1.29109,0 -2.33772,-0.73652 -2.33772,-1.64506c0,-0.90855 1.04663,-1.64506 2.33772,-1.64506c1.29109,0 2.33772,0.73652 2.33772,1.64506z" fill="#ff0000" stroke="#000000" stroke-width="0.25" stroke-linecap="butt"/><path d="M223.70354,197.57968c0,0.90855 -1.04663,1.64506 -2.33772,1.64506c-1.29109,0 -2.33772,-0.73652 -2.33772,-1.64506c0,-0.90855 1.04663,-1.64506 2.33772,-1.64506c1.29109,0 2.33772,0.73652 2.33772,1.64506z" fill="#ff0000" stroke="#000000" stroke-width="0.25" stroke-linecap="butt"/><path d="M229.26212,197.61874l1.38532,0.10656" fill="none" stroke="#000000" stroke-width="0.25" stroke-linecap="round"/><path d="M231.39338,161.49399h-1.06563" fill="none" stroke="#000000" stroke-width="0.25" stroke-linecap="round"/></g></g></g></svg>