<svg version="1.1" xmlns="http://www.w3.org/2000/svg" xmlns:xlink="http://www.w3.org/1999/xlink" width="199" height="199" viewBox="0,0,199,199"><defs><radialGradient cx="240" cy="180" r="98.5" gradientUnits="userSpaceOnUse" id="color-1"><stop offset="0" stop-color="#ff8140"/><stop offset="1" stop-color="#ff6666"/></radialGradient><radialGradient cx="318.35876" cy="161.41613" r="12" gradientTransform="translate(-305.7256,620.31214) rotate(-90) scale(2,2)" gradientUnits="userSpaceOnUse" id="color-2"><stop offset="0" stop-color="#66b6ff"/><stop offset="1" stop-color="#66ffb5"/></radialGradient><radialGradient cx="163.43063" cy="136.15224" r="34.72399" gradientTransform="translate(489.14685,-405.36132) rotate(90) scale(2.4133,2.4133)" gradientUnits="userSpaceOnUse" id="color-3"><stop offset="0" stop-color="#66b6ff"/><stop offset="1" stop-color="#66ffb5"/></radialGradient><radialGradient cx="289.18697" cy="236.5162" r="14.64899" gradientTransform="translate(151.18625,857.22009) rotate(-135) scale(2.34291,2.34291)" gradientUnits="userSpaceOnUse" id="color-4"><stop offset="0" stop-color="#66b6ff"/><stop offset="1" stop-color="#66ffb5"/></radialGradient><linearGradient x1="292.71846" y1="244.69995" x2="280.19328" y2="232.17477" gradientUnits="userSpaceOnUse" id="color-5"><stop offset="0" stop-color="#3dff8e"/><stop offset="1" stop-color="#259955"/></linearGradient><radialGradient cx="304.45545" cy="134.95074" r="20.61903" gradientTransform="translate(-556.61805,226.01056) rotate(-45) scale(2,2)" gradientUnits="userSpaceOnUse" id="color-6"><stop offset="0" stop-color="#66b6ff"/><stop offset="1" stop-color="#66ffb5"/></radialGradient><linearGradient x1="312.81762" y1="130.52656" x2="298.14515" y2="145.19902" gradientUnits="userSpaceOnUse" id="color-7"><stop offset="0" stop-color="#ffef3e"/><stop offset="1" stop-color="#9a9125"/></linearGradient><radialGradient cx="232.80398" cy="99.12304" r="10.27648" gradientTransform="translate(-869.40899,-411.47002) scale(4.01284,4.01284)" gradientUnits="userSpaceOnUse" id="color-8"><stop offset="0" stop-color="#66b6ff"/><stop offset="1" stop-color="#66ffb5"/></radialGradient><radialGradient cx="145.16844" cy="200.27237" r="28.11843" gradientTransform="translate(888.53278,105.16906) rotate(135) scale(2.98023,2.98023)" gradientUnits="userSpaceOnUse" id="color-9"><stop offset="0" stop-color="#66b6ff"/><stop offset="1" stop-color="#66ffb5"/></radialGradient></defs><g transform="translate(-140.5,-80.5)"><g data-paper-data="{&quot;isPaintingLayer&quot;:true}" fill-rule="nonzero" stroke-linejoin="miter" stroke-miterlimit="10" stroke-dasharray="" stroke-dashoffset="0" style="mix-blend-mode: normal"><path d="M141.5,180c0,-54.40005 44.09995,-98.5 98.5,-98.5c54.40005,0 98.5,44.09995 98.5,98.5c0,54.40005 -44.09995,98.5 -98.5,98.5c-54.40005,0 -98.5,-44.09995 -98.5,-98.5z" fill="url(#color-1)" stroke="#000000" stroke-width="2" stroke-linecap="butt"/><g fill="none" stroke="#000000" stroke-width="2" stroke-linecap="round"><path d="M202.40711,89.24236l75.18577,181.51527"/><path d="M330.75753,217.59316l-181.51505,-75.18631"/><path d="M330.75763,142.40712l-181.51527,75.18577"/><path d="M277.59315,89.24247l-75.18631,181.51505"/></g><text transform="translate(310.15607,152.8628) rotate(90) scale(0.5,0.5)" font-size="40" xml:space="preserve" fill="url(#color-2)" fill-rule="nonzero" stroke="none" stroke-width="1" stroke-linecap="butt" stroke-linejoin="miter" stroke-miterlimit="10" stroke-dasharray="" stroke-dashoffset="0" font-family="Sans Serif" font-weight="normal" text-anchor="start" style="mix-blend-mode: normal"><tspan x="0" dy="0">2x</tspan></text><text transform="translate(167.96957,202.68778) rotate(-90) scale(0.41437,0.41437)" font-size="40" xml:space="preserve" fill="url(#color-3)" fill-rule="nonzero" stroke="none" stroke-width="1" stroke-linecap="butt" stroke-linejoin="miter" stroke-miterlimit="10" stroke-dasharray="" stroke-dashoffset="0" font-family="Sans Serif" font-weight="normal" text-anchor="start" style="mix-blend-mode: normal"><tspan x="0" dy="0">3x</tspan></text><text transform="translate(304.34441,213.08618) rotate(135) scale(0.42682,0.42682)" font-size="40" xml:space="preserve" fill="url(#color-4)" fill-rule="nonzero" stroke="none" stroke-width="1" stroke-linecap="butt" stroke-linejoin="miter" stroke-miterlimit="10" stroke-dasharray="" stroke-dashoffset="0" font-family="Sans Serif" font-weight="normal" text-anchor="start" style="mix-blend-mode: normal"><tspan x="0" dy="0">2x</tspan></text><g stroke="none" stroke-linecap="butt"><path d="M292.71846,232.17477c3.45873,3.45873 3.45873,9.06645 0,12.52518c-3.45873,3.45873 -9.06645,3.45873 -12.52518,0c-3.45873,-3.45873 -3.45873,-9.06645 0,-12.52518c3.45873,-3.45873 9.06645,-3.45873 12.52518,0z" fill="url(#color-5)" stroke-width="0"/><text transform="translate(285.80695,229.97933) rotate(135) scale(0.4655,0.4655)" font-size="40" xml:space="preserve" fill="#000000" fill-rule="nonzero" stroke="none" stroke-width="1" stroke-linecap="butt" stroke-linejoin="miter" stroke-miterlimit="10" stroke-dasharray="" stroke-dashoffset="0" font-family="Sans Serif" font-weight="normal" text-anchor="start" style="mix-blend-mode: normal"><tspan x="0" dy="0">$</tspan></text></g><text transform="translate(276.701,116.8874) rotate(45) scale(0.5,0.5)" font-size="40" xml:space="preserve" fill="url(#color-6)" fill-rule="nonzero" stroke="none" stroke-width="1" stroke-linecap="butt" stroke-linejoin="miter" stroke-miterlimit="10" stroke-dasharray="" stroke-dashoffset="0" font-family="Sans Serif" font-weight="normal" text-anchor="start" style="mix-blend-mode: normal"><tspan x="0" dy="0">2x</tspan></text><g stroke="none" stroke-linecap="butt"><path d="M298.14515,130.52656c4.05169,-4.05168 10.62078,-4.05168 14.67246,0c4.05169,4.05169 4.05169,10.62078 0,14.67247c-4.05169,4.05168 -10.62078,4.05168 -14.67246,0c-4.05169,-4.05168 -4.05169,-10.62078 0,-14.67247z" fill="url(#color-7)" stroke-width="0"/><text transform="translate(295.66171,138.71135) rotate(45) scale(0.5453,0.5453)" font-size="40" xml:space="preserve" fill="#000000" fill-rule="nonzero" stroke="none" stroke-width="1" stroke-linecap="butt" stroke-linejoin="miter" stroke-miterlimit="10" stroke-dasharray="" stroke-dashoffset="0" font-family="Sans Serif" font-weight="normal" text-anchor="start" style="mix-blend-mode: normal"><tspan x="0" dy="0">$</tspan></text></g><g stroke="none" stroke-width="0" stroke-linecap="butt"><path d="M322.61262,180.42804l1.53342,-1.53342l1.3741,1.3741l-1.53342,1.53343z" fill="#3ed3f7"/><path d="M323.23222,188.7926l1.53342,-1.53342l1.3741,1.37411l-1.53342,1.53342z" fill="#f74848"/><path d="M322.30282,190.42608l1.53342,-1.53342l1.3741,1.3741l-1.53342,1.53343z" fill="#3ed3f7"/><path d="M322.49997,187.21544l1.53342,-1.53343l1.37411,1.37411l-1.53342,1.53342z" fill="#3ed3f7"/><path d="M322.35915,185.94809l1.53343,-1.53343l1.3741,1.37411l-1.53343,1.53342z" fill="#f74848"/><path d="M322.52813,183.35705l1.53343,-1.53343l1.3741,1.37411l-1.53342,1.53342z" fill="#3ed3f7"/><path d="M323.79549,184.6244l1.53342,-1.53343l1.3741,1.37411l-1.53342,1.53342z" fill="#f74848"/><path d="M323.26038,186.62401l1.53343,-1.53343l1.3741,1.3741l-1.53343,1.53343z" fill="#3ef744"/><path d="M322.89426,192.79181l1.53342,-1.53343l1.37411,1.37411l-1.53342,1.53342z" fill="#3ed3f7"/><path d="M323.03507,194.36897l1.53342,-1.53342l1.37411,1.3741l-1.53342,1.53343z" fill="#3ed3f7"/><path d="M322.75344,191.58078l1.53342,-1.53343l1.3741,1.37411l-1.53342,1.53343z" fill="#3ed3f7"/><path d="M323.99263,196.05878l1.53342,-1.53342l1.37411,1.37411l-1.53343,1.53343z" fill="#f74848"/><path d="M324.49958,197.63593l1.53342,-1.53343l1.3741,1.37411l-1.53342,1.53343z" fill="#3ed3f7"/><path d="M323.79549,199.01594l1.53343,-1.53343l1.3741,1.37411l-1.53343,1.53342z" fill="#f7f13e"/><path d="M322.69711,197.60777l1.53343,-1.53342l1.3741,1.3741l-1.53342,1.53343z" fill="#3ef744"/><path d="M322.7816,200.70575l1.53343,-1.53342l1.3741,1.37411l-1.53343,1.53342z" fill="#f74848"/><path d="M323.45753,201.7478l1.53343,-1.53343l1.37411,1.37411l-1.53342,1.53342z" fill="#3ef744"/><path d="M323.17589,202.64903l1.53343,-1.53343l1.3741,1.37411l-1.53342,1.53342z" fill="#f74848"/><path d="M322.72528,181.27295l1.53342,-1.53343l1.37411,1.37411l-1.53343,1.53342z" fill="#f74848"/><path d="M323.11957,182.65296l1.53342,-1.53342l1.37411,1.3741l-1.53343,1.53343z" fill="#f7f13e"/><path d="M322.33099,179.66763l1.53342,-1.53343l1.3741,1.37411l-1.53342,1.53342z" fill="#f74848"/><path d="M323.20405,190.5669l1.53342,-1.53343l1.3741,1.37411l-1.53342,1.53342z" fill="#f7f13e"/><path d="M324.21794,193.10161l1.53342,-1.53343l1.3741,1.3741l-1.53342,1.53343z" fill="#f74848"/><path d="M324.10529,191.43997l1.53342,-1.53343l1.3741,1.3741l-1.53342,1.53342z" fill="#f74848"/><path d="M323.68283,190.82037l1.53342,-1.53342l1.3741,1.3741l-1.53342,1.53342z" fill="#f7f13e"/><path d="M323.73916,190.73588l1.53343,-1.53342l1.3741,1.37411l-1.53343,1.53342z" fill="#f7f13e"/><path d="M323.51385,194.45346l1.53343,-1.53342l1.3741,1.37411l-1.53343,1.53343z" fill="#3ef744"/><path d="M324.16161,192.28487l1.53342,-1.53343l1.3741,1.3741l-1.53342,1.53343z" fill="#3ef744"/><path d="M308.72426,178.28545c0,-0.31439 0.46365,-0.56925 1.03561,-0.56925h13.46995c0.57195,0 1.03561,0.25486 1.03561,0.56925v25.84853c0,0.31439 -0.46366,0.56925 -1.03561,0.56925h-13.46995c-0.57195,0 -1.03561,-0.25486 -1.03561,-0.56925z" fill="#feff72"/><g fill="#ffffff"><path d="M311.99331,189.68059l5.55476,0.59292v1.85679l-5.55475,0.60853z"/><path d="M318.45305,188.66638c1.40464,0 2.54333,1.13869 2.54333,2.54333c0,1.40464 -1.13869,2.54333 -2.54333,2.54333c-1.40464,0 -2.54333,-1.13869 -2.54333,-2.54333c0,-1.40464 1.13869,-2.54333 2.54333,-2.54333z"/></g></g><g stroke="none" stroke-width="0" stroke-linecap="butt"><path d="M156.51874,178.99138l-1.53342,1.53342l-1.3741,-1.3741l1.53342,-1.53343z" fill="#3ed3f7"/><path d="M155.89914,170.62682l-1.53342,1.53342l-1.3741,-1.37411l1.53342,-1.53342z" fill="#f74848"/><path d="M156.82854,168.99334l-1.53342,1.53342l-1.3741,-1.3741l1.53342,-1.53343z" fill="#3ed3f7"/><path d="M156.63139,172.20398l-1.53342,1.53343l-1.37411,-1.37411l1.53342,-1.53342z" fill="#3ed3f7"/><path d="M156.77221,173.47134l-1.53343,1.53343l-1.3741,-1.37411l1.53343,-1.53342z" fill="#f74848"/><path d="M156.60323,176.06237l-1.53343,1.53343l-1.3741,-1.37411l1.53342,-1.53342z" fill="#3ed3f7"/><path d="M155.33587,174.79502l-1.53342,1.53343l-1.3741,-1.37411l1.53342,-1.53342z" fill="#f74848"/><path d="M155.87098,172.79542l-1.53343,1.53343l-1.3741,-1.3741l1.53343,-1.53343z" fill="#3ef744"/><path d="M156.2371,166.62761l-1.53342,1.53343l-1.37411,-1.37411l1.53342,-1.53342z" fill="#3ed3f7"/><path d="M156.09629,165.05045l-1.53342,1.53342l-1.37411,-1.3741l1.53342,-1.53343z" fill="#3ed3f7"/><path d="M156.37792,167.83865l-1.53342,1.53343l-1.3741,-1.37411l1.53342,-1.53343z" fill="#3ed3f7"/><path d="M155.13873,163.36065l-1.53342,1.53342l-1.37411,-1.37411l1.53343,-1.53343z" fill="#f74848"/><path d="M154.63178,161.78349l-1.53342,1.53343l-1.3741,-1.37411l1.53342,-1.53343z" fill="#3ed3f7"/><path d="M155.33587,160.40348l-1.53343,1.53343l-1.3741,-1.37411l1.53343,-1.53342z" fill="#f7f13e"/><path d="M156.43425,161.81165l-1.53343,1.53342l-1.3741,-1.3741l1.53342,-1.53343z" fill="#3ef744"/><path d="M156.34976,158.71367l-1.53343,1.53342l-1.3741,-1.37411l1.53343,-1.53342z" fill="#f74848"/><path d="M155.67383,157.67162l-1.53343,1.53343l-1.37411,-1.37411l1.53342,-1.53342z" fill="#3ef744"/><path d="M155.95547,156.77039l-1.53343,1.53343l-1.3741,-1.37411l1.53342,-1.53342z" fill="#f74848"/><path d="M156.40608,178.14648l-1.53342,1.53343l-1.37411,-1.37411l1.53343,-1.53342z" fill="#f74848"/><path d="M156.01179,176.76646l-1.53342,1.53342l-1.37411,-1.3741l1.53343,-1.53343z" fill="#f7f13e"/><path d="M156.80037,179.7518l-1.53342,1.53343l-1.3741,-1.37411l1.53342,-1.53342z" fill="#f74848"/><path d="M155.92731,168.85253l-1.53342,1.53343l-1.3741,-1.37411l1.53342,-1.53342z" fill="#f7f13e"/><path d="M154.91342,166.31781l-1.53342,1.53343l-1.3741,-1.3741l1.53342,-1.53343z" fill="#f74848"/><path d="M155.02607,167.97945l-1.53342,1.53343l-1.3741,-1.3741l1.53342,-1.53342z" fill="#f74848"/><path d="M155.44853,168.59905l-1.53342,1.53342l-1.3741,-1.3741l1.53342,-1.53342z" fill="#f7f13e"/><path d="M155.3922,168.68354l-1.53343,1.53342l-1.3741,-1.37411l1.53343,-1.53342z" fill="#f7f13e"/><path d="M155.61751,164.96596l-1.53343,1.53342l-1.3741,-1.37411l1.53343,-1.53343z" fill="#3ef744"/><path d="M154.96975,167.13455l-1.53342,1.53343l-1.3741,-1.3741l1.53342,-1.53343z" fill="#3ef744"/><path d="M170.4071,181.13397c0,0.31439 -0.46365,0.56925 -1.03561,0.56925h-13.46995c-0.57195,0 -1.03561,-0.25486 -1.03561,-0.56925v-25.84853c0,-0.31439 0.46366,-0.56925 1.03561,-0.56925h13.46995c0.57195,0 1.03561,0.25486 1.03561,0.56925z" fill="#feff72"/><g fill="#ffffff"><path d="M167.13805,169.73883l-5.55476,-0.59292v-1.85679l5.55475,-0.60853z"/><path d="M160.67831,170.75305c-1.40464,0 -2.54333,-1.13869 -2.54333,-2.54333c0,-1.40464 1.13869,-2.54333 2.54333,-2.54333c1.40464,0 2.54333,1.13869 2.54333,2.54333c0,1.40464 -1.13869,2.54333 -2.54333,2.54333z"/></g></g><text transform="translate(216.65672,102.53833) scale(0.2492,0.2492)" font-size="40" xml:space="preserve" fill="url(#color-8)" fill-rule="nonzero" stroke="none" stroke-width="1" stroke-linecap="butt" stroke-linejoin="miter" stroke-miterlimit="10" stroke-dasharray="" stroke-dashoffset="0" font-family="Sans Serif" font-weight="normal" text-anchor="start" style="mix-blend-mode: normal"><tspan x="0" dy="0">∞ Runden</tspan></text><text transform="translate(185.86522,235.77121) rotate(-135) scale(0.33554,0.33554)" font-size="40" xml:space="preserve" fill="url(#color-9)" fill-rule="nonzero" stroke="none" stroke-width="1" stroke-linecap="butt" stroke-linejoin="miter" stroke-miterlimit="10" stroke-dasharray="" stroke-dashoffset="0" font-family="Sans Serif" font-weight="normal" text-anchor="middle" style="mix-blend-mode: normal"><tspan x="0" dy="0">Mehr</tspan><tspan x="0" dy="48px">Boosts</tspan></text></g></g></svg>