<svg version="1.1" xmlns="http://www.w3.org/2000/svg" xmlns:xlink="http://www.w3.org/1999/xlink" width="57.60264" height="58.61481" viewBox="0,0,57.60264,58.61481"><g transform="translate(-401.66816,-13.9352)"><g data-paper-data="{&quot;isPaintingLayer&quot;:true}" fill-rule="nonzero" stroke-miterlimit="10" stroke-dasharray="" stroke-dashoffset="0" style="mix-blend-mode: normal"><path d="M422.42512,60.9352c-5.60808,0 -10.15432,-4.54624 -10.15432,-10.15432v-26.69136c0,-5.60808 4.54624,-10.15432 10.15432,-10.15432h26.69136c5.60808,0 10.15432,4.54624 10.15432,10.15432v26.69136c0,5.60808 -4.54624,10.15432 -10.15432,10.15432z" fill="#47ed2b" stroke="#ffffff" stroke-width="0" stroke-linecap="butt" stroke-linejoin="miter"/><g stroke-width="1"><path d="M402.85957,69.90663c-0.38186,0 -0.69141,0 -0.69141,0v-17.84543c0,0 0.30956,0 0.69141,0h17.9768c0.38186,0 0.69141,0 0.69141,0v17.84543c0,0 -0.30956,0 -0.69141,0z" fill="#ffffff" stroke="#7c87a5" stroke-linecap="round" stroke-linejoin="round"/><path d="M404.24242,72.05001c-0.38186,0 -0.69141,0 -0.69141,0v-22.12529c0,0 0.30956,0 0.69141,0h15.21114c0.38186,0 0.69141,0 0.69141,0v22.12529c0,0 -0.30956,0 -0.69141,0z" fill="#e6e7e8" stroke="#7c87a5" stroke-linecap="round" stroke-linejoin="round"/><path d="M403.551,68.59294v-8.9884h16.59397v8.9884z" fill="#ffffff" stroke="#7c87a5" stroke-linecap="round" stroke-linejoin="round"/><path d="M411.84799,56.83887v2.76566" fill="#e6e7e8" stroke="#7c87a5" stroke-linecap="round" stroke-linejoin="round"/><path d="M405.62524,58.22171c-0.38186,0 -0.69141,0 -0.69141,0v-6.91416c0,0 0.30956,0 0.69141,0h12.44548c0.38186,0 0.69141,0 0.69141,0v6.91416c0,0 -0.30956,0 -0.69141,0z" fill="#414757" stroke="none" stroke-linecap="butt" stroke-linejoin="miter"/><path d="M411.50227,64.88004c-0.19093,0 -0.34571,0 -0.34571,0v-1.38283c0,0 0.15478,0 0.34571,0h0.69141c0.19093,0 0.34571,0 0.34571,0v1.38283c0,0 -0.15478,0 -0.34571,0z" fill="#7c87a5" stroke="none" stroke-linecap="butt" stroke-linejoin="miter" opacity="0.5"/><path d="M408.08668,63.4972h1.03712c0.19093,0 0.34571,0.15478 0.34571,0.34571v0.69141c0,0.19093 -0.15478,0.34571 -0.34571,0.34571h-1.03712c-0.38186,0 -0.69141,-0.30956 -0.69141,-0.69141c0,-0.38186 0.30956,-0.69141 0.69141,-0.69141z" fill="#7c87a5" stroke="none" stroke-linecap="butt" stroke-linejoin="miter" opacity="0.5"/><path d="M415.60236,64.88004h-1.04403c-0.19093,0 -0.34571,-0.15478 -0.34571,-0.34571v-0.69141c0,-0.19093 0.15478,-0.34571 0.34571,-0.34571h1.03712c0.38186,0 0.69141,0.30956 0.69141,0.69141c0.00002,0.37918 -0.30535,0.68762 -0.6845,0.69141z" fill="#7c87a5" stroke="none" stroke-linecap="butt" stroke-linejoin="miter" opacity="0.5"/><path d="M407.51281,61.67878h-2.23327c-0.19093,0 -0.34571,-0.15478 -0.34571,-0.34571v-1.72854h4.14849l-1.27912,1.92214c-0.06592,0.09535 -0.17448,0.15222 -0.29039,0.15211z" fill="#7c87a5" stroke="none" stroke-linecap="butt" stroke-linejoin="miter" opacity="0.5"/><path d="M414.37165,62.61219l-0.34571,0.34571c-0.06752,0.06504 -0.10507,0.15516 -0.10371,0.24891v0.20051c0,0.19093 -0.15478,0.34571 -0.34571,0.34571h-0.34571c-0.19093,0 -0.34571,-0.15478 -0.34571,-0.34571c0,-0.19093 -0.15478,-0.34571 -0.34571,-0.34571h-1.38283c-0.19093,0 -0.34571,0.15478 -0.34571,0.34571c0,0.19093 -0.15478,0.34571 -0.34571,0.34571h-0.34571c-0.19093,0 -0.34571,-0.15478 -0.34571,-0.34571v-0.20051c0.00136,-0.09375 -0.03619,-0.18386 -0.10371,-0.24891l-0.34571,-0.34571c-0.1326,-0.13677 -0.1326,-0.35413 0,-0.4909l1.04403,-1.03021c0.06242,-0.06716 0.15031,-0.10483 0.242,-0.10371h2.47527c0.09169,-0.00112 0.17957,0.03654 0.242,0.10371l1.04403,1.03021c0.1326,0.13677 0.1326,0.35413 0,0.4909z" fill="#7c87a5" stroke="none" stroke-linecap="butt" stroke-linejoin="miter" opacity="0.5"/><path d="M409.32431,65.7927l0.34571,-0.34571c0.06752,-0.06504 0.10507,-0.15516 0.10371,-0.24891v-0.20051c0,-0.19093 0.15478,-0.34571 0.34571,-0.34571h0.34571c0.19093,0 0.34571,0.15478 0.34571,0.34571c0,0.19093 0.15478,0.34571 0.34571,0.34571h1.38283c0.19093,0 0.34571,-0.15478 0.34571,-0.34571c0,-0.19093 0.15478,-0.34571 0.34571,-0.34571h0.34571c0.19093,0 0.34571,0.15478 0.34571,0.34571v0.20051c-0.00136,0.09375 0.03619,0.18386 0.10371,0.24891l0.34571,0.34571c0.13176,0.13443 0.13176,0.34956 0,0.48399l-1.04403,1.03712c-0.06242,0.06716 -0.15031,0.10483 -0.242,0.10371h-2.47527c-0.09169,0.00112 -0.17957,-0.03654 -0.242,-0.10371l-1.04403,-1.03712c-0.13176,-0.13443 -0.13176,-0.34956 0,-0.48399z" fill="#7c87a5" stroke="none" stroke-linecap="butt" stroke-linejoin="miter" opacity="0.5"/><path d="M416.68789,68.59294h3.45707v2.76566c0,0.38186 -0.30956,0.69141 -0.69141,0.69141h-2.76566z" fill="#f15a29" stroke="#cc4c23" stroke-linecap="round" stroke-linejoin="round"/></g></g></g></svg>