<svg version="1.1" xmlns="http://www.w3.org/2000/svg" xmlns:xlink="http://www.w3.org/1999/xlink" width="324.32432" height="45.04506" viewBox="0,0,324.32432,45.04506"><g transform="translate(-77.83784,-157.47747)"><g data-paper-data="{&quot;isPaintingLayer&quot;:true}" fill-rule="nonzero" stroke="none" stroke-width="0" stroke-linecap="butt" stroke-linejoin="miter" stroke-miterlimit="10" stroke-dasharray="" stroke-dashoffset="0" style="mix-blend-mode: normal"><path d="M87.83784,202.52252c-5.52285,0 -10,-4.47715 -10,-10v-25.04505c0,-5.52285 4.47715,-10 10,-10h304.32432c5.52285,0 10,4.47715 10,10v25.04505c0,5.52285 -4.47715,10 -10,10z" fill="#66d7ff"/><path d="M79.82754,202.52254c-1.09889,0 -1.9897,-4.47715 -1.9897,-10v-25.04505c0,-5.52285 0.89082,-10 1.9897,-10h60.55161c1.09889,0 1.9897,4.47715 1.9897,10v25.04505c0,5.52285 -0.89082,10 -1.9897,10z" fill="#99ff66"/></g></g></svg>