<svg version="1.1" xmlns="http://www.w3.org/2000/svg" xmlns:xlink="http://www.w3.org/1999/xlink" width="153.88889" height="83.51852" viewBox="0,0,153.88889,83.51852"><defs><linearGradient x1="240" y1="140.40257" x2="240" y2="218.92109" gradientUnits="userSpaceOnUse" id="color-1"><stop offset="0" stop-color="#ff9266"/><stop offset="1" stop-color="#ff6666"/></linearGradient><radialGradient cx="214.42884" cy="159.98796" r="22.2331" gradientTransform="translate(-265.71648,-260.65118) scale(1.54361,1.54361)" gradientUnits="userSpaceOnUse" id="color-2"><stop offset="0" stop-color="#66b6ff"/><stop offset="1" stop-color="#66ffb5"/></radialGradient><radialGradient cx="277.89593" cy="199.20061" r="12" gradientTransform="translate(-534.77223,-411.87262) scale(2,2)" gradientUnits="userSpaceOnUse" id="color-3"><stop offset="0" stop-color="#66b6ff"/><stop offset="1" stop-color="#66ffb5"/></radialGradient><linearGradient x1="295.03885" y1="184.80089" x2="295.03885" y2="210.88812" gradientUnits="userSpaceOnUse" id="color-4"><stop offset="0" stop-color="#ffef3e"/><stop offset="1" stop-color="#9a9125"/></linearGradient><linearGradient x1="217.16911" y1="148.23441" x2="217.16911" y2="174.36356" gradientUnits="userSpaceOnUse" id="color-5"><stop offset="0" stop-color="#ff3db8"/><stop offset="1" stop-color="#99256e"/></linearGradient></defs><g transform="translate(-163.05556,-137.90257)"><g data-paper-data="{&quot;isPaintingLayer&quot;:true}" fill-rule="nonzero" stroke-linecap="butt" stroke-linejoin="miter" stroke-miterlimit="10" stroke-dasharray="" stroke-dashoffset="0" style="mix-blend-mode: normal"><path d="M165.55556,218.92109v-78.51852h148.88889v78.51852z" fill="url(#color-1)" stroke="#ffffff" stroke-width="5"/><text transform="translate(172.13911,168.85766) scale(0.64783,0.64783)" font-size="40" xml:space="preserve" fill="url(#color-2)" fill-rule="nonzero" stroke="none" stroke-width="1" stroke-linecap="butt" stroke-linejoin="miter" stroke-miterlimit="10" stroke-dasharray="" stroke-dashoffset="0" font-family="Sans Serif" font-weight="normal" text-anchor="start" style="mix-blend-mode: normal"><tspan x="0" dy="0">40</tspan></text><path d="M237.01404,166.49562l12.79497,8.30446l4.83714,-7.45276l4.35936,20.48317l-20.48317,4.35936l4.83714,-7.45276l-12.79497,-8.30446z" fill="#9966ff" stroke="none" stroke-width="0"/><text transform="translate(267.38611,205.93631) scale(0.5,0.5)" font-size="40" xml:space="preserve" fill="url(#color-3)" fill-rule="nonzero" stroke="none" stroke-width="1" stroke-linecap="butt" stroke-linejoin="miter" stroke-miterlimit="10" stroke-dasharray="" stroke-dashoffset="0" font-family="Sans Serif" font-weight="normal" text-anchor="start" style="mix-blend-mode: normal"><tspan x="0" dy="0">3</tspan></text><g stroke="none"><path d="M281.99522,197.84451c0,-7.20379 5.83984,-13.04363 13.04363,-13.04363c7.20379,0 13.04363,5.83984 13.04363,13.04363c0,7.20379 -5.83984,13.04363 -13.04363,13.04363c-7.20379,0 -13.04363,-5.83984 -13.04363,-13.04363z" fill="url(#color-4)" stroke-width="0"/><text transform="translate(287.06365,207.32841) scale(0.68557,0.68557)" font-size="40" xml:space="preserve" fill="#000000" fill-rule="nonzero" stroke="none" stroke-width="1" stroke-linecap="butt" stroke-linejoin="miter" stroke-miterlimit="10" stroke-dasharray="" stroke-dashoffset="0" font-family="Sans Serif" font-weight="normal" text-anchor="start" style="mix-blend-mode: normal"><tspan x="0" dy="0">$</tspan></text></g><g stroke="none"><path d="M204.10453,161.29899c0,-7.21536 5.84922,-13.06458 13.06458,-13.06458c7.21536,0 13.06458,5.84922 13.06458,13.06458c0,7.21536 -5.84922,13.06458 -13.06458,13.06458c-7.21536,0 -13.06458,-5.84922 -13.06458,-13.06458z" fill="url(#color-5)" stroke-width="0"/><text transform="translate(209.0237,170.79814) scale(0.68666,0.68666)" font-size="40" xml:space="preserve" fill="#000000" fill-rule="nonzero" stroke="none" stroke-width="1" stroke-linecap="butt" stroke-linejoin="miter" stroke-miterlimit="10" stroke-dasharray="" stroke-dashoffset="0" font-family="Sans Serif" font-weight="normal" text-anchor="start" style="mix-blend-mode: normal"><tspan x="0" dy="0">$</tspan></text></g></g></g></svg>