<svg version="1.1" xmlns="http://www.w3.org/2000/svg" xmlns:xlink="http://www.w3.org/1999/xlink" width="153.88889" height="83.51852" viewBox="0,0,153.88889,83.51852"><defs><linearGradient x1="380.51843" y1="264.88808" x2="380.51843" y2="343.4066" gradientUnits="userSpaceOnUse" id="color-1"><stop offset="0" stop-color="#ff9266"/><stop offset="1" stop-color="#ff6666"/></linearGradient><radialGradient cx="354.94371" cy="284.13252" r="22.23282" gradientTransform="translate(-482.62283,-452.28687) scale(1.54361,1.54361)" gradientUnits="userSpaceOnUse" id="color-2"><stop offset="0" stop-color="#66b6ff"/><stop offset="1" stop-color="#66ffb5"/></radialGradient><radialGradient cx="409.70063" cy="325.94861" r="12" gradientTransform="translate(-798.38163,-665.3686) scale(2,2)" gradientUnits="userSpaceOnUse" id="color-3"><stop offset="0" stop-color="#66b6ff"/><stop offset="1" stop-color="#66ffb5"/></radialGradient><linearGradient x1="385.80722" y1="271.56719" x2="385.80722" y2="297.69634" gradientUnits="userSpaceOnUse" id="color-4"><stop offset="0" stop-color="#ff3db8"/><stop offset="1" stop-color="#99256e"/></linearGradient><radialGradient cx="436.16206" cy="325.41908" r="12.88179" gradientUnits="userSpaceOnUse" id="color-5"><stop offset="0" stop-color="#669bff"/><stop offset="1" stop-color="#3f76ff"/></radialGradient></defs><g transform="translate(-303.57398,-262.38808)"><g data-paper-data="{&quot;isPaintingLayer&quot;:true}" fill-rule="nonzero" stroke-linejoin="miter" stroke-miterlimit="10" stroke-dasharray="" stroke-dashoffset="0" style="mix-blend-mode: normal"><path d="M306.07399,343.4066v-78.51852h148.88889v78.51852z" fill="url(#color-1)" stroke="#ffffff" stroke-width="5" stroke-linecap="butt"/><text transform="translate(312.65755,293.005) scale(0.64783,0.64783)" font-size="40" xml:space="preserve" fill="url(#color-2)" fill-rule="nonzero" stroke="none" stroke-width="1" stroke-linecap="butt" stroke-linejoin="miter" stroke-miterlimit="10" stroke-dasharray="" stroke-dashoffset="0" font-family="Sans Serif" font-weight="normal" text-anchor="start" style="mix-blend-mode: normal"><tspan x="0" dy="0">1000</tspan></text><path d="M401.4884,290.40402l12.39599,8.88902l5.17763,-7.22037l3.40455,20.66333l-20.66333,3.40455l5.17763,-7.22037l-12.39599,-8.88902z" fill="#9966ff" stroke="none" stroke-width="0" stroke-linecap="butt"/><text transform="translate(399.19082,332.6843) scale(0.5,0.5)" font-size="40" xml:space="preserve" fill="url(#color-3)" fill-rule="nonzero" stroke="none" stroke-width="1" stroke-linecap="butt" stroke-linejoin="miter" stroke-miterlimit="10" stroke-dasharray="" stroke-dashoffset="0" font-family="Sans Serif" font-weight="normal" text-anchor="start" style="mix-blend-mode: normal"><tspan x="0" dy="0">60</tspan></text><g stroke="none" stroke-linecap="butt"><path d="M372.74264,284.63177c0,-7.21536 5.84922,-13.06458 13.06458,-13.06458c7.21536,0 13.06458,5.84922 13.06458,13.06458c0,7.21536 -5.84922,13.06458 -13.06458,13.06458c-7.21536,0 -13.06458,-5.84922 -13.06458,-13.06458z" fill="url(#color-4)" stroke-width="0"/><text transform="translate(377.66181,294.13092) scale(0.68666,0.68666)" font-size="40" xml:space="preserve" fill="#000000" fill-rule="nonzero" stroke="none" stroke-width="1" stroke-linecap="butt" stroke-linejoin="miter" stroke-miterlimit="10" stroke-dasharray="" stroke-dashoffset="0" font-family="Sans Serif" font-weight="normal" text-anchor="start" style="mix-blend-mode: normal"><tspan x="0" dy="0">$</tspan></text></g><g stroke="#000000" stroke-width="0.5"><path d="M423.28027,325.41908c0,-7.11442 5.76737,-12.88179 12.88179,-12.88179c7.11442,0 12.88179,5.76737 12.88179,12.88179c0,7.11442 -5.76738,12.88179 -12.88179,12.88179c-7.11442,0 -12.88179,-5.76738 -12.88179,-12.88179z" fill="url(#color-5)" stroke-linecap="butt"/><g fill="none" stroke-linecap="round"><path d="M431.24567,313.54983l9.83276,23.73849"/><path d="M424.29283,320.50267l23.73846,9.83283"/><path d="M448.03131,320.50269l-23.7385,9.83277"/><path d="M431.24564,337.28831l9.83283,-23.73847"/></g></g></g></g></svg>