<svg version="1.1" xmlns="http://www.w3.org/2000/svg" xmlns:xlink="http://www.w3.org/1999/xlink" width="94.24646" height="50.57094" viewBox="0,0,94.24646,50.57094"><g transform="translate(-192.79104,-154.70531)"><g data-paper-data="{&quot;isPaintingLayer&quot;:true}" fill-rule="nonzero" stroke-width="0.25" stroke-linecap="round" stroke-linejoin="miter" stroke-miterlimit="10" stroke-dasharray="" stroke-dashoffset="0" style="mix-blend-mode: normal"><path d="M197.33738,199.44609c0,0 -1.74359,-1.47351 -2.32192,-3.89345c-0.5743,-2.40313 -1.49018,-5.71817 -1.89089,-8.89349c-0.31393,-2.48762 -0.18731,-4.88949 -0.16175,-6.69998c0.03665,-2.59424 -0.02742,-5.70689 0.52874,-8.54074c0.46147,-2.35139 1.50038,-4.46067 2.01094,-6.37835c0.43282,-1.62567 2.3868,-4.66173 2.3868,-4.66173c0,0 2.69976,-0.63694 4.73767,-0.89816c2.61437,-0.3351 4.85227,-0.28761 6.48501,0.00855c2.03689,0.36947 4.79445,0.92384 4.79445,0.92384c0,0 15.76038,-0.63895 23.49753,-0.63895c7.55104,0 22.38067,0.63895 22.38067,0.63895c0,0 4.18049,-0.59578 8.03929,-1.08781c3.10952,-0.39649 6.17322,-0.16324 8.05937,0.0929c2.9309,0.39801 6.438,1.63387 6.438,1.63387c0,0 3.24265,2.61036 3.9035,6.06869c0.64918,2.60409 0.6686,5.55433 0.6877,7.66816c0.02722,3.01261 0.05379,6.82874 0.03795,10.38437c-0.00919,2.06441 -0.48937,5.30804 -1.08296,7.55039c-0.97591,3.68661 -3.91414,6.64306 -3.91414,6.64306c0,0 -3.42126,0.88682 -6.01625,1.18251c-1.85387,0.19727 -5.75942,0.21275 -8.92838,-0.03552c-4.01307,-0.31439 -7.75301,-0.53085 -7.75301,-0.53085c0,0 -14.53946,0.58777 -21.98021,0.56157c-7.67601,-0.02702 -23.39208,-0.7213 -23.39208,-0.7213c0,0 -2.77251,0.29783 -4.76945,0.6175c-1.57795,0.2526 -3.62337,0.3341 -6.63636,0.0061c-2.41603,-0.26301 -5.14024,-1.00015 -5.14024,-1.00015z" fill="#e0e0e0" stroke="#000000"/><path d="M284.29809,170.97166c0,0 -0.68952,-0.55962 -0.95544,-1.06928c-0.24795,-0.47524 -0.71871,-1.63512 -0.71871,-1.63512l-2.06049,-5.4088c0,0 0.20832,-0.3467 0.51968,-0.32594c0.33129,0.02209 0.89691,0.06838 0.89691,0.06838c0,0 1.33501,2.6134 1.79472,3.81739c0.44098,1.15496 0.90968,3.26556 0.90968,3.26556z" data-paper-data="{&quot;index&quot;:null}" fill="#455050" stroke="#000000"/><path d="M281.35452,163.66476l0.5996,1.51607" fill="none" stroke="#ffffff"/><path d="M282.63893,167.01375l0.54852,1.46156" fill="none" stroke="#ffffff"/><path d="M282.64573,165.08205l-0.79381,-1.75456" fill="none" stroke="#ffffff"/><path d="M283.98124,168.9182l-0.64732,-2.03391" fill="none" stroke="#ffffff"/><path d="M284.42686,190.84197c0,0 -0.4687,2.1106 -0.90968,3.26556c-0.45971,1.20399 -1.79472,3.81739 -1.79472,3.81739c0,0 -0.56562,0.0463 -0.89691,0.06838c-0.31137,0.02076 -0.51968,-0.32594 -0.51968,-0.32594l2.06049,-5.4088c0,0 0.47077,-1.15988 0.71871,-1.63512c0.26591,-0.50968 0.95544,-1.06928 0.95544,-1.06928z" data-paper-data="{&quot;index&quot;:null}" fill="#455050" stroke="#000000"/><path d="M281.09696,196.86106l0.59962,-1.51607" data-paper-data="{&quot;index&quot;:null}" fill="none" stroke="#ffffff"/><path d="M282.38137,193.51207l0.54852,-1.46156" data-paper-data="{&quot;index&quot;:null}" fill="none" stroke="#ffffff"/><path d="M281.59436,197.19835l0.79381,-1.75456" data-paper-data="{&quot;index&quot;:null}" fill="none" stroke="#ffffff"/><path d="M283.72369,191.60761l-0.64732,2.03393" data-paper-data="{&quot;index&quot;:null}" fill="none" stroke="#ffffff"/><path d="M284.20802,170.97859c0,0 0.38759,1.90464 0.58707,4.05646c0.16593,1.78991 0.1521,3.72606 0.13442,5.10808c-0.01724,1.34791 -0.03867,3.35527 -0.23973,5.10538c-0.26255,2.28527 -0.71788,4.18869 -0.71788,4.18869" fill="none" stroke="#000000"/><path d="M280.41854,196.65854l-14.8499,0.35122c0,0 -0.79458,-0.00301 -0.99661,-0.24937c-0.17929,-0.21862 -0.50758,-0.51161 -0.50758,-0.51161" fill="none" stroke="#000000"/><path d="M264.45002,164.1093c0,0 0.3283,-0.293 0.50759,-0.51162c0.20203,-0.24636 0.9966,-0.24936 0.9966,-0.24936l14.8499,0.35122" data-paper-data="{&quot;index&quot;:null}" fill="none" stroke="#000000"/><path d="M251.3183,168.3667c0,0 5.04258,-1.40035 7.20394,-2.23803c1.92507,-0.74611 5.13756,-2.54526 5.13756,-2.54526c0,0 0.67949,0.26416 1.13873,1.22172c0.59861,1.24816 0.94078,3.23478 1.31852,5.26988c0.59935,3.22898 0.30064,7.00237 0.26695,10.10231c-0.02998,2.75739 -0.14635,6.90527 -0.82264,10.38354c-0.45303,2.32999 -0.79299,4.02256 -1.24223,5.07545c-0.28951,0.67856 -0.70533,1.06833 -0.70533,1.06833c0,0 -2.78294,-1.80325 -4.87178,-2.49089c-2.0636,-0.67932 -7.34476,-2.37289 -7.34476,-2.37289c0,0 0.59336,-7.36072 0.64336,-11.6595c0.04688,-4.02891 -0.72233,-11.81465 -0.72233,-11.81465z" fill="#203756" stroke="#000000"/><path d="M229.52366,166.19379c0,0 -4.82252,-0.10939 -7.0744,-0.49914c-2.2118,-0.38281 -5.7669,-1.08302 -5.7669,-1.08302c0,0 -0.1311,-0.26213 0.46687,-0.45498c1.28839,-0.41552 4.0851,-0.97846 5.65843,-1.20759c2.65079,-0.48964 7.15753,-0.93145 7.15753,-0.93145c0,0 7.91618,-0.08644 12.52982,-0.13581c6.20289,-0.05921 18.89273,0.8349 18.89273,0.8349c0,0 -1.26531,0.85874 -2.59203,1.40303c-1.84656,0.75757 -7.54488,2.25803 -7.54488,2.25803z" fill="#203756" stroke="#000000"/><path d="M251.21864,193.72006c0,0 5.69831,1.50047 7.54488,2.25803c1.32671,0.54429 2.59203,1.40303 2.59203,1.40303c0,0 -12.68984,0.89411 -18.89273,0.8349c-4.61364,-0.04937 -12.52982,-0.13581 -12.52982,-0.13581c0,0 -4.50674,-0.44181 -7.15753,-0.93145c-1.57333,-0.22913 -4.37004,-0.79208 -5.65843,-1.20759c-0.59797,-0.19285 -0.46687,-0.45498 -0.46687,-0.45498c0,0 3.5551,-0.70021 5.7669,-1.08302c2.25188,-0.38976 7.0744,-0.49914 7.0744,-0.49914z" data-paper-data="{&quot;index&quot;:null}" fill="#203756" stroke="#000000"/><path d="M257.41623,162.51662l-0.32195,-1.93171" fill="none" stroke="#000000"/><path d="M257.36257,197.7704l-0.21464,2.09269" fill="none" stroke="#000000"/><path d="M211.19063,193.42404c0,0 -9.70257,-0.77092 -11.37474,-0.95926c-0.47304,-0.05328 -0.91031,-0.42449 -0.91031,-0.42449c0,0 -0.70128,-3.49132 -0.68299,-6.2255c0.01581,-2.36639 -0.23009,-7.37109 0.01248,-11.4884c0.22735,-3.85871 0.94465,-6.48724 0.94465,-6.48724c0,0 0.36925,-0.37648 0.9591,-0.43154c1.80605,-0.16865 11.21863,-0.70559 11.21863,-0.70559c0,0 -1.38969,9.01116 -1.4174,13.45009c-0.02789,4.46823 1.25059,13.27196 1.25059,13.27196z" fill="#203756" stroke="#000000"/><path d="M211.37705,166.702c0,0 0.47082,0.00461 0.69978,0.05502c0.22064,0.04858 0.45181,0.53935 0.45181,0.53935c0,0 -0.35225,3.0905 -0.49797,6.19542c-0.13535,2.88388 -0.06529,5.76662 -0.05585,6.54031c0.01341,1.09963 -0.00672,2.39762 0.10277,3.86332c0.31196,4.17606 0.47582,8.41417 0.47582,8.41417c0,0 -0.25817,0.83043 -0.57748,0.88849c-0.25756,0.04682 -0.59888,0.22597 -0.59888,0.22597" fill="none" stroke="#000000"/><path d="M195.30625,166.49939l3.16771,0.11472c0,0 0.4581,0.27439 0.54991,0.38457c0.08676,0.10412 0.25313,0.48138 0.25313,0.48138" fill="none" stroke="#000000"/><path d="M198.92579,192.37265c0,0 -0.16636,0.37726 -0.25312,0.48138c-0.09181,0.11017 -0.54991,0.38457 -0.54991,0.38457l-3.16771,0.11472" data-paper-data="{&quot;index&quot;:null}" fill="none" stroke="#000000"/><path d="M254.24713,159.08238l0.39349,1.9496c0,0 -0.6105,0.12023 -0.89888,0.10944c-0.26752,-0.01002 -0.77348,-0.17204 -0.77348,-0.17204c0,0 -0.14487,-0.88324 -0.34525,-1.25788c-0.21051,-0.39354 -0.8889,-1.04945 -0.8889,-1.04945c0,0 0.78609,0.27782 1.25078,0.33515c0.45318,0.05592 1.26223,0.08518 1.26223,0.08518z" fill="#000000" stroke="#000000"/><path d="M251.18892,158.20217l-0.89156,-3.26907c0,0 1.05034,-0.15351 1.59567,-0.08534c0.5088,0.0636 1.47526,0.67972 1.47526,0.67972c0,0 0.76098,1.22508 0.99242,1.73756c0.23085,0.51116 0.39446,1.63055 0.39446,1.63055c0,0 -1.1657,0.25532 -1.76563,0.12033c-0.70414,-0.15844 -1.80061,-0.81377 -1.80061,-0.81377z" fill="#e0e0e0" stroke="#000000"/><path d="M253.40766,201.07337c-0.46469,0.05733 -1.25078,0.33515 -1.25078,0.33515c0,0 0.67839,-0.65591 0.8889,-1.04945c0.20038,-0.37464 0.34525,-1.25788 0.34525,-1.25788c0,0 0.50977,-0.16217 0.77816,-0.17222c0.28771,-0.01077 0.8942,0.10962 0.8942,0.10962l-0.39349,1.9496c0,0 -0.80905,0.02926 -1.26223,0.08518z" data-paper-data="{&quot;index&quot;:null}" fill="#000000" stroke="#000000"/><path d="M253.34076,200.98309c0.59993,-0.13499 1.76561,0.12033 1.76561,0.12033c0,0 -0.1636,1.11939 -0.39444,1.63055c-0.23145,0.51248 -0.99242,1.73756 -0.99242,1.73756c0,0 -0.96646,0.61611 -1.47526,0.67972c-0.54532,0.06816 -1.59567,-0.08534 -1.59567,-0.08534l0.89156,-3.26907c0,0 1.09648,-0.65533 1.80063,-0.81377z" data-paper-data="{&quot;index&quot;:null}" fill="#e0e0e0" stroke="#000000"/><path d="M267.88728,189.37837l15.56102,-1.93171" fill="none" stroke="#000000"/><path d="M283.34099,172.52954l-15.13176,-2.36099" fill="none" stroke="#000000"/><path d="M282.9376,179.94667l0.42366,-0.00658c0,0 0.17531,0.13777 0.1644,0.21721c-0.01091,0.07944 -0.15176,0.1843 -0.15176,0.1843h-0.42999z" fill="#000000" stroke="#252525"/><path d="M220.76254,199.76753l-0.66041,-1.82853c0,0 0.07545,-0.42661 0.19998,-0.58673c0.10214,-0.13132 0.54711,-0.41214 0.54711,-0.41214" fill="none" stroke="#000000"/><path d="M220.96549,163.10968c0,0 -0.44499,-0.28083 -0.54711,-0.41214c-0.12453,-0.16013 -0.19998,-0.58674 -0.19998,-0.58674l0.66041,-1.82852" data-paper-data="{&quot;index&quot;:null}" fill="none" stroke="#000000"/><path d="M222.82172,161.78185l0.51512,-0.57237l2.16066,-0.18602l0.70113,0.3148" fill="none" stroke="#000000"/><path d="M237.90341,160.05045l0.47219,1.68846" fill="none" stroke="#000000"/><path d="M239.89236,161.19516l0.51512,-0.55805h1.55969l1.00162,0.44357" fill="none" stroke="#000000"/><path d="M226.01468,198.76036l-0.70113,0.3148l-2.16066,-0.18602l-0.51512,-0.57237" data-paper-data="{&quot;index&quot;:null}" fill="none" stroke="#000000"/><path d="M238.19164,198.35971l-0.47219,1.68846" data-paper-data="{&quot;index&quot;:null}" fill="none" stroke="#000000"/><path d="M242.78482,199.01793l-1.00162,0.44357h-1.55969l-0.51512,-0.55805" data-paper-data="{&quot;index&quot;:null}" fill="none" stroke="#000000"/><path d="M200.88401,164.57719l15.26973,-1.83973" fill="none" stroke="#000000"/><path d="M216.88964,197.50831l-16.37357,-2.0237" fill="none" stroke="#000000"/></g></g></svg>