<svg version="1.1" xmlns="http://www.w3.org/2000/svg" xmlns:xlink="http://www.w3.org/1999/xlink" width="160.69945" height="95.48052" viewBox="0,0,160.69945,95.48052"><g transform="translate(-159.65027,-132.25974)"><g data-paper-data="{&quot;isPaintingLayer&quot;:true}" fill-rule="nonzero" stroke-linejoin="miter" stroke-miterlimit="10" stroke-dasharray="" stroke-dashoffset="0" style="mix-blend-mode: normal"><path d="M159.65027,227.74026v-95.48052h160.69945v95.48052z" fill="#59ad0d" stroke="none" stroke-width="0" stroke-linecap="butt"/><g stroke="#000000" stroke-linecap="round"><path d="M198.69685,188.26976c0,0 -1.45048,-3.749 -1.3121,-8.12424c0.13957,-4.22417 1.73138,-8.9315 1.73138,-8.9315c0,0 0.62583,-4.64655 0.82572,-5.74832c0.08526,-0.46997 0.26677,-1.27794 0.76784,-1.98233c0.52614,-0.73966 1.53554,-1.52475 1.53554,-1.52475c0,0 5.46831,-0.77152 8.95493,-0.77152c3.63583,0 10.94872,0.93115 10.94872,0.93115l37.5939,0.25939c0,0 6.49039,-1.12178 8.8098,-1.15941c2.00266,-0.03249 7.92026,0.7871 7.92026,0.7871c0,0 2.58291,1.12415 3.55371,1.67854c0.97354,0.81867 1.44279,1.95294 1.44279,1.95294l1.48934,5.261c0,0 1.72956,3.07312 1.72956,9.12527c0,5.99007 -1.82565,8.84591 -1.82565,8.84591l-1.48497,5.0409c0,0 -0.37116,1.25816 -1.10574,1.81527c-0.85448,0.64806 -4.21023,2.00124 -4.21023,2.00124c0,0 -4.99463,1.07896 -7.26062,1.10005c-2.32125,0.0216 -8.97591,-0.81238 -8.97591,-0.81238l-37.40171,-0.11307c0,0 -7.09579,0.93115 -10.83891,0.93115c-3.39789,0 -9.78767,-0.93115 -9.78767,-0.93115c0,0 -0.98882,-0.67551 -1.22974,-1.34991c-0.23423,-0.65567 -0.61619,-1.42765 -0.70644,-1.92233c-0.18579,-1.01837 -1.1638,-6.35898 -1.1638,-6.35898z" fill="#a53939" stroke-width="0.5"/><path d="M245.63069,170.48485c0,0 0.89943,-1.78251 2.77255,-2.40296c2.16902,-0.71845 9.48455,-2.40199 9.48455,-2.40199c0,0 2.68503,0.34271 3.77788,3.66157c0.90878,2.75985 1.19966,8.32923 1.17946,10.54889c-0.01957,2.15053 -0.3362,8.27592 -1.13921,11.06327c-1.03511,3.59294 -3.55022,3.65398 -3.55022,3.65398c0,0 -7.73383,-2.13054 -9.70945,-2.80297c-2.17935,-0.74177 -2.81556,-2.01876 -2.81556,-2.01876z" fill="#4c5e73" stroke-width="0.5"/><path d="M255.76514,195.45279c0,0 -12.7424,0.80494 -16.63811,0.84713c-6.33472,0.06861 -17.75233,-0.47466 -17.75233,-0.47466c0,0 -1.53739,-0.06511 -2.104,-0.22376c-0.42957,-0.12027 -1.53192,-0.5788 -1.53192,-0.5788l-0.67437,-0.93679c0,0 1.37562,-0.48167 3.08721,-1.0446c1.73379,-0.57022 3.72628,-1.1307 6.18798,-1.45145c3.4725,-0.45246 5.99678,-0.46472 9.52657,-0.28018c3.4843,0.0231 9.1836,1.2494 9.1836,1.2494c0,0 8.58137,2.07945 10.28693,2.54995c1.87821,0.51813 0.42845,0.34377 0.42845,0.34377z" fill="#4c5e73" stroke-width="0.5"/><path d="M255.11322,164.62792c-1.70556,0.47051 -10.28693,2.54995 -10.28693,2.54995c0,0 -5.69929,1.2263 -9.1836,1.2494c-3.5298,0.18454 -6.05407,0.17229 -9.52657,-0.28017c-2.4617,-0.32075 -4.45419,-0.88123 -6.18798,-1.45145c-1.71159,-0.56292 -3.08721,-1.0446 -3.08721,-1.0446l0.67437,-0.93679c0,0 1.10235,-0.45853 1.53192,-0.5788c0.56661,-0.15866 2.104,-0.22376 2.104,-0.22376c0,0 11.4176,-0.54327 17.75233,-0.47466c3.89572,0.04219 16.63812,0.84713 16.63812,0.84713c0,0 1.44977,-0.17436 -0.42845,0.34377z" data-paper-data="{&quot;index&quot;:null}" fill="#4c5e73" stroke-width="0.5"/><path d="M219.5614,171.56892l-0.37897,16.94692c0,0 0.08015,0.73227 -0.66339,1.12763c-1.91882,1.02027 -6.10595,2.43176 -7.41917,2.79315c-1.72552,0.47484 -2.1971,-0.42896 -2.1971,-0.42896c0,0 -1.94056,-2.80574 -2.3429,-12.28997c0.87604,-9.50794 2.48501,-12.43204 2.48501,-12.43204c0,0 0.41349,-0.75051 1.77595,-0.42479c1.38725,0.33164 5.65032,2.04485 7.74281,3.30744c0.82894,0.50017 0.99775,1.40065 0.99775,1.40065z" fill="#4c5e73" stroke-width="0.5"/><path d="M202.54221,194.43535c0,0 -1.55206,-1.57877 -2.53377,-3.41124c-1.05022,-1.96037 -1.63102,-3.69936 -1.63102,-3.69936" fill="none" stroke-width="0.5"/><path d="M198.88533,171.68145c0,0 0.58079,-1.73899 1.63102,-3.69935c0.98171,-1.83247 2.53377,-3.41124 2.53377,-3.41124" data-paper-data="{&quot;index&quot;:null}" fill="none" stroke-width="0.5"/><path d="M260.33054,166.23336c0,0 0.4548,-0.8077 0.78512,-1.15239c0.26881,-0.2805 1.05058,-0.76313 1.05058,-0.76313c0,0 0.64266,-0.15016 1.35317,-0.06236c2.06202,0.25481 13.4731,1.28395 13.4731,1.28395c0,0 1.1416,0.36817 1.33413,1.0946c0.72424,2.7326 2.11931,9.70591 2.149,13.55785c0.02665,3.45726 -1.67074,10.43272 -2.42467,13.46784c-0.28992,1.16712 -1.09284,1.13054 -1.09284,1.13054c0,0 -11.15322,0.77129 -13.21524,1.0261c-0.71051,0.0878 -1.35317,-0.06236 -1.35317,-0.06236c0,0 -0.78177,-0.48263 -1.05058,-0.76313c-0.33032,-0.34468 -0.78512,-1.15239 -0.78512,-1.15239" fill="none" stroke-width="0.25"/><path d="M279.40902,195.23167c0,0 -1.33061,0.69452 -1.9774,0.93707c-0.46584,0.17469 -1.38165,0.39319 -1.79262,0.41818c-0.26952,0.01638 -0.14825,-0.1373 -0.14825,-0.1373c0,0 2.55378,-0.99464 3.67756,-2.37237c1.07121,-1.31329 3.06395,-5.56102 3.06395,-5.56102c0,0 -0.89607,2.90926 -1.31632,4.03992c-0.17925,0.48225 -0.44811,1.19497 -0.75369,1.68653c-0.28831,0.46376 -0.75323,0.98899 -0.75323,0.98899z" fill="#ffffff" stroke-width="0.25"/><path d="M279.59525,164.91787c0,0 0.46491,0.52524 0.75323,0.98899c0.30558,0.49156 0.57446,1.20428 0.75369,1.68653c0.42025,1.13065 1.31632,4.03992 1.31632,4.03992c0,0 -1.99275,-4.24773 -3.06397,-5.56102c-1.12378,-1.37774 -3.67756,-2.37237 -3.67756,-2.37237c0,0 -0.12127,-0.15368 0.14825,-0.13729c0.41097,0.02498 1.32679,0.24349 1.79262,0.41818c0.64679,0.24255 1.9774,0.93707 1.9774,0.93707z" data-paper-data="{&quot;index&quot;:null}" fill="#ffffff" stroke-width="0.25"/><path d="M255.79295,195.24926l-0.44695,1.39672c0,0 0.37747,0.81477 0.12517,1.13155c-0.23214,0.29146 -0.6802,1.41125 -1.3302,1.97538c-0.95289,0.82703 -1.97952,1.32535 -1.97952,1.32535l-0.81941,-0.11174c0,0 -0.5362,-0.33122 -0.36092,-0.76633c0.29108,-0.72258 1.32931,-2.99551 1.32931,-2.99551c0,0 0.37776,-0.64445 0.65214,-0.78648c0.32053,-0.16591 1.09834,-0.14851 1.09834,-0.14851l0.27934,-1.39672z" fill="#333333" stroke-width="0.5"/><path d="M253.71952,165.12704l-0.27934,-1.39672c0,0 -0.77781,0.0174 -1.09834,-0.14851c-0.27437,-0.14203 -0.65214,-0.78648 -0.65214,-0.78648c0,0 -1.03824,-2.27295 -1.32931,-2.99551c-0.17528,-0.43511 0.36092,-0.76633 0.36092,-0.76633l0.81941,-0.11174c0,0 1.02663,0.49832 1.97952,1.32535c0.64998,0.56413 1.09806,1.68392 1.3302,1.97538c0.2523,0.31678 -0.12518,1.13155 -0.12518,1.13155l0.44695,1.39672z" data-paper-data="{&quot;index&quot;:null}" fill="#333333" stroke-width="0.5"/><path d="M284.40691,176.21217c0,0 -3.4501,-1.14271 -4.94239,-1.67993c-1.60353,-0.57727 -5.23817,-2.91373 -5.23817,-2.91373" fill="none" stroke-width="0.5"/><path d="M274.1022,188.37919c0,0 3.63464,-2.33646 5.23817,-2.91373c1.49229,-0.53722 4.94239,-1.67993 4.94239,-1.67993" data-paper-data="{&quot;index&quot;:null}" fill="none" stroke-width="0.5"/><path d="M267.59755,193.46523c0,0 -3.906,1.34644 -5.90532,1.69425c-1.56937,0.27302 -6.03033,0.83256 -6.03033,0.83256" fill="none" stroke-width="0.5"/><path d="M255.05242,164.00708c0,0 4.46096,0.55954 6.03033,0.83255c1.99932,0.34781 5.90532,1.69425 5.90532,1.69425" data-paper-data="{&quot;index&quot;:null}" fill="none" stroke-width="0.5"/><path d="M201.87167,166.06729h3.69977c0,0 1.35651,0.3262 1.89966,0.58798c0.75599,0.36435 1.32833,0.90187 1.32833,0.90187" fill="none" stroke-width="0.25"/><path d="M208.6132,191.76702c0,0 -0.57234,0.53752 -1.32833,0.90187c-0.54316,0.26177 -1.89966,0.58798 -1.89966,0.58798h-3.69977" data-paper-data="{&quot;index&quot;:null}" fill="none" stroke-width="0.25"/><path d="M219.01266,195.5024c0,0 -2.28446,0.48908 -4.57397,0.21555c-1.59661,-0.13508 -3.80282,-0.81898 -4.4756,-1.24896c-1.53071,-0.97828 -1.94973,-4.40186 -1.94973,-4.40186" fill="none" stroke-width="0.5"/><path d="M208.30652,169.46286c0,0 0.39569,-3.23297 1.84116,-4.15677c0.63532,-0.40603 2.7187,-1.05186 4.22641,-1.17943c2.16203,-0.25829 4.3193,0.20354 4.3193,0.20354" data-paper-data="{&quot;index&quot;:null}" fill="none" stroke-width="0.5"/><path d="M220.10978,162.09439l-0.37247,1.98645" fill="none" stroke-width="0.25"/><path d="M219.98562,195.73992l0.62076,2.23476" fill="none" stroke-width="0.25"/><path d="M226.18179,162.1093l-0.78313,0.02865c0,0 -0.91386,-0.53141 -1.4492,-0.48566c-0.81077,-0.04829 -0.69305,-0.07688 -1.18934,-0.03719c-0.64296,0.05142 -1.40123,0.37958 -1.40123,0.37958l-0.90637,-0.13788c0,0 0.75736,-0.40296 1.56183,-0.58751c0.77794,-0.17847 1.59543,-0.13909 2.07611,-0.11791c0.92954,0.04096 2.09131,0.9579 2.09131,0.9579z" fill="#a53939" stroke-width="0.25"/><path d="M241.52037,162.24135l-0.78313,0.02865c0,0 -0.91386,-0.53141 -1.4492,-0.48566c-0.81077,-0.04829 -0.69305,-0.07688 -1.18934,-0.03719c-0.64296,0.05142 -1.40122,0.37958 -1.40122,0.37958l-0.90638,-0.13787c0,0 0.75736,-0.40296 1.56183,-0.58751c0.77794,-0.17847 1.59543,-0.13909 2.07611,-0.11791c0.92954,0.04096 2.09131,0.9579 2.09131,0.9579z" fill="#a53939" stroke-width="0.25"/><path d="M225.34754,198.98475c-0.48069,0.02119 -1.29817,0.06056 -2.07611,-0.11791c-0.80447,-0.18455 -1.56183,-0.58751 -1.56183,-0.58751l0.90637,-0.13787c0,0 0.75825,0.32816 1.40123,0.37958c0.49628,0.0397 0.37857,0.0111 1.18934,-0.03719c0.53534,0.04576 1.4492,-0.48565 1.4492,-0.48565l0.78313,0.02865c0,0 -1.16177,0.91693 -2.09131,0.9579z" data-paper-data="{&quot;index&quot;:null}" fill="#a53939" stroke-width="0.25"/><path d="M240.40677,198.99237c-0.48069,0.02119 -1.29817,0.06056 -2.07611,-0.11791c-0.80447,-0.18455 -1.56183,-0.58751 -1.56183,-0.58751l0.90638,-0.13788c0,0 0.75825,0.32816 1.40122,0.37958c0.49628,0.0397 0.37857,0.01111 1.18934,-0.03719c0.53534,0.04576 1.4492,-0.48565 1.4492,-0.48565l0.78313,0.02865c0,0 -1.16177,0.91693 -2.09131,0.9579z" data-paper-data="{&quot;index&quot;:null}" fill="#a53939" stroke-width="0.25"/><path d="M235.43494,196.23654l0.41902,1.67607" fill="none" stroke-width="0.25"/><path d="M235.01593,162.43581l-0.41902,1.25705" fill="none" stroke-width="0.25"/><path d="M199.52517,192.26984c0,0 1.41245,2.54303 1.94577,3.2815c0.38814,0.53745 0.5404,0.69451 0.5404,0.69451c0,0 0.38983,0.35961 0.81819,0.60848c0.46624,0.27089 0.9781,0.43639 1.08253,0.52957c0.20309,0.18122 0.0547,0.26798 0.0547,0.26798l-1.89024,-0.79148c0,0 -0.41166,-0.32207 -0.72221,-0.70204c-0.25316,-0.30976 -0.43884,-0.64237 -0.61678,-0.99824c-0.42162,-0.84325 -1.21236,-2.89028 -1.21236,-2.89028z" fill="#650000" stroke-width="0.25"/><path d="M200.83911,164.60929c0.17793,-0.35587 0.36361,-0.68848 0.61678,-0.99824c0.31055,-0.37996 0.72221,-0.70204 0.72221,-0.70204l1.89024,-0.79148c0,0 0.1484,0.08676 -0.0547,0.26798c-0.10443,0.09318 -0.6163,0.25868 -1.08254,0.52957c-0.42835,0.24887 -0.81819,0.60848 -0.81819,0.60848c0,0 -0.15224,0.15706 -0.54039,0.69451c-0.53334,0.73846 -1.94578,3.2815 -1.94578,3.2815c0,0 0.79074,-2.04703 1.21236,-2.89028z" data-paper-data="{&quot;index&quot;:null}" fill="#670000" stroke-width="0.25"/><path d="M273.04045,170.30609c0,0 -2.17969,-1.07385 -2.77713,-1.52716c-0.28483,-0.21611 -0.68994,-0.71163 -0.84495,-0.96073c-0.12438,-0.19987 -0.02802,-0.18141 -0.02802,-0.18141c0,0 0.77486,-0.01381 1.25072,0.09205c0.48212,0.10726 1.06474,0.37973 1.06474,0.37973c0,0 0.47125,0.39776 0.78901,0.83895c0.32034,0.44477 0.48742,0.93368 0.53982,1.10368c0.09803,0.31808 0.00582,0.25489 0.00582,0.25489z" fill="#333333" stroke-width="0.5"/><path d="M272.77677,189.81402c-0.05238,0.17 -0.21948,0.65891 -0.53982,1.10368c-0.31776,0.44119 -0.78901,0.83894 -0.78901,0.83894c0,0 -0.58262,0.27247 -1.06474,0.37973c-0.47586,0.10586 -1.25072,0.09205 -1.25072,0.09205c0,0 -0.09635,0.01846 0.02802,-0.18141c0.15501,-0.24912 0.56012,-0.74462 0.84495,-0.96073c0.59743,-0.45331 2.77713,-1.52716 2.77713,-1.52716c0,0 0.09222,-0.0632 -0.00581,0.2549z" data-paper-data="{&quot;index&quot;:null}" fill="#333333" stroke-width="0.5"/><path d="M196.81819,168.63974l2.60657,-1.37188l2.34743,-0.6707c0,0 1.58326,-0.29219 2.07101,-0.1305c0.44281,0.1468 0.41362,1.06033 0.41362,1.06033l-1.05177,0.85361c0,0 -0.90005,0.42218 -1.44812,0.59657c-0.42796,0.13616 -1.35661,1.00395 -1.35661,1.00395c0,0 -1.74841,6.39441 -1.76883,9.61964c-0.02021,3.19177 1.64688,9.63238 1.64688,9.63238c0,0 0.90228,1.01684 1.44185,1.30218c0.51625,0.27302 1.622,0.58795 1.622,0.58795c0,0 1.0277,0.37741 1.00405,0.86097c-0.03049,0.62364 -0.63822,1.18161 -0.63822,1.18161l-2.27122,-0.1067l-2.01209,-0.70118l-2.71326,-1.99685c0,0 -1.46668,-7.05235 -1.39733,-10.65129c0.07275,-3.77534 1.50403,-11.0701 1.50403,-11.0701z" fill="#333333" stroke-width="0.5"/></g></g></g></svg>