<svg version="1.1" xmlns="http://www.w3.org/2000/svg" xmlns:xlink="http://www.w3.org/1999/xlink" width="160.69945" height="95.48052" viewBox="0,0,160.69945,95.48052"><g transform="translate(-159.65029,-132.25974)"><g data-paper-data="{&quot;isPaintingLayer&quot;:true}" fill-rule="nonzero" stroke-linejoin="miter" stroke-miterlimit="10" stroke-dasharray="" stroke-dashoffset="0" style="mix-blend-mode: normal"><path d="M159.6503,227.74026v-95.48052h160.69945v95.48052z" fill="#59ad0d" stroke="none" stroke-width="0" stroke-linecap="butt"/><g stroke="#000000" stroke-linecap="round"><path d="M197.22029,188.35663c0,0 -1.46572,-3.78838 -1.32589,-8.20958c0.14104,-4.26855 1.74957,-9.02533 1.74957,-9.02533c0,0 0.63241,-4.69537 0.83439,-5.80871c0.08615,-0.47491 0.26958,-1.29136 0.77591,-2.00316c0.53167,-0.74743 1.55167,-1.54077 1.55167,-1.54077c0,0 5.52575,-0.77962 9.049,-0.77962c3.67402,0 11.06373,0.94093 11.06373,0.94093l37.98882,0.26211c0,0 6.55857,-1.13357 8.90234,-1.17159c2.02369,-0.03283 8.00346,0.79537 8.00346,0.79537c0,0 2.61004,1.13596 3.59104,1.69617c0.98377,0.82727 1.45795,1.97346 1.45795,1.97346l1.50499,5.31627c0,0 1.74773,3.1054 1.74773,9.22113c0,6.05299 -1.84483,8.93884 -1.84483,8.93884l-1.50057,5.09385c0,0 -0.37506,1.27137 -1.11735,1.83434c-0.86346,0.65487 -4.25446,2.02226 -4.25446,2.02226c0,0 -5.0471,1.0903 -7.33689,1.1116c-2.34564,0.02183 -9.0702,-0.82091 -9.0702,-0.82091l-37.79461,-0.11426c0,0 -7.17033,0.94093 -10.95277,0.94093c-3.43359,0 -9.89049,-0.94093 -9.89049,-0.94093c0,0 -0.99921,-0.68261 -1.24266,-1.36409c-0.23669,-0.66255 -0.62266,-1.44265 -0.71386,-1.94252c-0.18774,-1.02907 -1.17602,-6.42578 -1.17602,-6.42578z" fill="#b0b0b0" stroke-width="0.5"/><path d="M244.74127,170.3849c0,0 0.90888,-1.80124 2.80168,-2.4282c2.19181,-0.726 9.58418,-2.42722 9.58418,-2.42722c0,0 2.71323,0.34631 3.81757,3.70004c0.91832,2.78884 1.21227,8.41673 1.19185,10.6597c-0.01977,2.17312 -0.33973,8.36286 -1.15118,11.17949c-1.04598,3.63069 -3.58751,3.69236 -3.58751,3.69236c0,0 -7.81507,-2.15292 -9.81145,-2.83241c-2.20224,-0.74956 -2.84514,-2.03996 -2.84514,-2.03996z" fill="#4c5e73" stroke-width="0.5"/><path d="M254.88808,195.61513c0,0 -12.87626,0.81339 -16.81289,0.85603c-6.40127,0.06933 -17.93881,-0.47965 -17.93881,-0.47965c0,0 -1.55354,-0.06579 -2.1261,-0.22611c-0.43408,-0.12154 -1.54801,-0.58488 -1.54801,-0.58488l-0.68146,-0.94663c0,0 1.39007,-0.48673 3.11964,-1.05558c1.75201,-0.57621 3.76542,-1.14258 6.25298,-1.4667c3.50898,-0.45721 6.05978,-0.4696 9.62665,-0.28313c3.5209,0.02334 9.28008,1.26252 9.28008,1.26252c0,0 8.67152,2.1013 10.39499,2.57674c1.89794,0.52357 0.43295,0.34738 0.43295,0.34738z" fill="#4c5e73" stroke-width="0.5"/><path d="M254.22931,164.46645c-1.72347,0.47545 -10.39499,2.57674 -10.39499,2.57674c0,0 -5.75916,1.23918 -9.28008,1.26252c-3.56688,0.18647 -6.11767,0.1741 -9.62665,-0.28311c-2.48756,-0.32412 -4.50098,-0.89049 -6.25298,-1.4667c-1.72957,-0.56884 -3.11964,-1.05558 -3.11964,-1.05558l0.68146,-0.94663c0,0 1.11393,-0.46334 1.54801,-0.58488c0.57256,-0.16032 2.1261,-0.22611 2.1261,-0.22611c0,0 11.53754,-0.54898 17.93881,-0.47965c3.93664,0.04264 16.8129,0.85603 16.8129,0.85603c0,0 1.465,-0.17619 -0.43295,0.34738z" data-paper-data="{&quot;index&quot;:null}" fill="#4c5e73" stroke-width="0.5"/><path d="M218.30402,171.48035l-0.38295,17.12495c0,0 0.08099,0.73997 -0.67036,1.13947c-1.93898,1.03099 -6.17009,2.45731 -7.49711,2.82249c-1.74365,0.47983 -2.22018,-0.43347 -2.22018,-0.43347c0,0 -1.96095,-2.83521 -2.36751,-12.41908c0.88524,-9.60781 2.51111,-12.56264 2.51111,-12.56264c0,0 0.41783,-0.75839 1.79461,-0.42926c1.40182,0.33512 5.70967,2.06633 7.82415,3.34219c0.83765,0.50543 1.00823,1.41536 1.00823,1.41536z" fill="#4c5e73" stroke-width="0.5"/><path d="M201.10604,194.587c0,0 -1.56837,-1.59535 -2.56039,-3.44707c-1.06126,-1.98097 -1.64815,-3.73822 -1.64815,-3.73822" fill="none" stroke-width="0.5"/><path d="M197.41075,171.59407c0,0 0.58689,-1.75726 1.64815,-3.73821c0.99202,-1.85172 2.56039,-3.44707 2.56039,-3.44707" data-paper-data="{&quot;index&quot;:null}" fill="none" stroke-width="0.5"/><path d="M259.50144,166.08876c0,0 0.45957,-0.81618 0.79336,-1.16449c0.27163,-0.28344 1.06162,-0.77114 1.06162,-0.77114c0,0 0.64941,-0.15174 1.36738,-0.06302c2.08368,0.25748 13.61463,1.29743 13.61463,1.29743c0,0 1.1536,0.37203 1.34814,1.10609c0.73185,2.7613 2.14157,9.80787 2.17157,13.70028c0.02693,3.49358 -1.68829,10.54232 -2.45014,13.60932c-0.29296,1.17939 -1.10432,1.14242 -1.10432,1.14242c0,0 -11.27038,0.7794 -13.35407,1.03688c-0.71797,0.08873 -1.36738,-0.06302 -1.36738,-0.06302c0,0 -0.78999,-0.4877 -1.06162,-0.77114c-0.33379,-0.3483 -0.79336,-1.16449 -0.79336,-1.16449" fill="none" stroke-width="0.25"/><path d="M278.78033,195.39168c0,0 -1.34459,0.70181 -1.99818,0.94691c-0.47073,0.17653 -1.39616,0.39732 -1.81145,0.42257c-0.27235,0.01655 -0.14981,-0.13875 -0.14981,-0.13875c0,0 2.58061,-1.00508 3.7162,-2.3973c1.08246,-1.32709 3.09614,-5.61943 3.09614,-5.61943c0,0 -0.90548,2.93983 -1.33015,4.08236c-0.18113,0.48732 -0.45282,1.20752 -0.76161,1.70424c-0.29133,0.46863 -0.76114,0.99938 -0.76114,0.99938z" fill="#ffffff" stroke-width="0.25"/><path d="M278.96852,164.75944c0,0 0.46979,0.53075 0.76114,0.99938c0.30879,0.49672 0.58049,1.21693 0.76161,1.70424c0.42466,1.14253 1.33015,4.08236 1.33015,4.08236c0,0 -2.01368,-4.29235 -3.09615,-5.61943c-1.13559,-1.39221 -3.7162,-2.3973 -3.7162,-2.3973c0,0 -0.12254,-0.1553 0.14981,-0.13873c0.41529,0.02525 1.34072,0.24605 1.81145,0.42257c0.65359,0.2451 1.99818,0.94691 1.99818,0.94691z" data-paper-data="{&quot;index&quot;:null}" fill="#ffffff" stroke-width="0.25"/><path d="M254.91618,195.40946l-0.45165,1.4114c0,0 0.38144,0.82333 0.12648,1.14343c-0.23457,0.29452 -0.68735,1.42607 -1.34417,1.99613c-0.9629,0.83572 -2.00031,1.33927 -2.00031,1.33927l-0.82802,-0.11291c0,0 -0.54183,-0.3347 -0.36472,-0.77438c0.29413,-0.73017 1.34328,-3.02698 1.34328,-3.02698c0,0 0.38173,-0.65122 0.65899,-0.79474c0.3239,-0.16765 1.10988,-0.15007 1.10988,-0.15007l0.28228,-1.4114z" fill="#b0b0b0" stroke-width="0.5"/><path d="M252.82097,164.9708l-0.28228,-1.4114c0,0 -0.78598,0.01758 -1.10988,-0.15007c-0.27725,-0.14352 -0.65899,-0.79474 -0.65899,-0.79474c0,0 -1.04914,-2.29683 -1.34328,-3.02698c-0.17712,-0.43968 0.36472,-0.77438 0.36472,-0.77438l0.82802,-0.11291c0,0 1.03741,0.50355 2.00031,1.33927c0.65681,0.57006 1.10959,1.70161 1.34417,1.99613c0.25495,0.3201 -0.12649,1.14343 -0.12649,1.14343l0.45165,1.4114z" data-paper-data="{&quot;index&quot;:null}" fill="#b0b0b0" stroke-width="0.5"/><path d="M283.83073,176.17239c0,0 -3.48634,-1.15471 -4.99431,-1.69758c-1.62037,-0.58334 -5.2932,-2.94434 -5.2932,-2.94434" fill="none" stroke-width="0.5"/><path d="M273.41776,188.46722c0,0 3.67283,-2.36101 5.2932,-2.94434c1.50797,-0.54287 4.99431,-1.69758 4.99431,-1.69758" data-paper-data="{&quot;index&quot;:null}" fill="none" stroke-width="0.5"/><path d="M266.84479,193.60669c0,0 -3.94703,1.36059 -5.96735,1.71205c-1.58586,0.27589 -6.09368,0.84131 -6.09368,0.84131" fill="none" stroke-width="0.5"/><path d="M254.16787,163.83908c0,0 4.50782,0.56542 6.09368,0.84129c2.02032,0.35146 5.96735,1.71205 5.96735,1.71205" data-paper-data="{&quot;index&quot;:null}" fill="none" stroke-width="0.5"/><path d="M200.42846,165.92093h3.73863c0,0 1.37076,0.32962 1.91961,0.59415c0.76393,0.36818 1.34228,0.91134 1.34228,0.91134" fill="none" stroke-width="0.25"/><path d="M207.24081,191.89063c0,0 -0.57836,0.54316 -1.34228,0.91134c-0.54886,0.26452 -1.91961,0.59415 -1.91961,0.59415h-3.73863" data-paper-data="{&quot;index&quot;:null}" fill="none" stroke-width="0.25"/><path d="M217.74951,195.66525c0,0 -2.30846,0.49421 -4.62202,0.21782c-1.61338,-0.1365 -3.84277,-0.82759 -4.52261,-1.26208c-1.54679,-0.98855 -1.97021,-4.4481 -1.97021,-4.4481" fill="none" stroke-width="0.5"/><path d="M206.93091,169.35217c0,0 0.39984,-3.26693 1.8605,-4.20044c0.64199,-0.4103 2.74725,-1.06291 4.27081,-1.19182c2.18474,-0.26101 4.36467,0.20568 4.36467,0.20568" data-paper-data="{&quot;index&quot;:null}" fill="none" stroke-width="0.5"/><path d="M218.85816,161.9063l-0.37638,2.00732" fill="none" stroke-width="0.25"/><path d="M219.35998,198.1635l-0.62728,-2.25823" fill="none" stroke-width="0.25"/><path d="M224.99396,161.92136l-0.79135,0.02895c0,0 -0.92346,-0.537 -1.46442,-0.49076c-0.81929,-0.0488 -0.70033,-0.07768 -1.20183,-0.03758c-0.64972,0.05196 -1.41595,0.38357 -1.41595,0.38357l-0.91589,-0.13933c0,0 0.76532,-0.40719 1.57823,-0.59368c0.78611,-0.18034 1.61219,-0.14055 2.09792,-0.11914c0.9393,0.04139 2.11328,0.96796 2.11328,0.96796z" fill="#b0b0b0" stroke-width="0.25"/><path d="M240.49367,162.0548l-0.79135,0.02895c0,0 -0.92346,-0.537 -1.46442,-0.49076c-0.81929,-0.0488 -0.70033,-0.07768 -1.20183,-0.03758c-0.64972,0.05196 -1.41594,0.38357 -1.41594,0.38357l-0.91591,-0.13932c0,0 0.76532,-0.40719 1.57823,-0.59368c0.78611,-0.18034 1.61219,-0.14055 2.09792,-0.11914c0.9393,0.04139 2.11328,0.96796 2.11328,0.96796z" fill="#b0b0b0" stroke-width="0.25"/><path d="M224.15094,199.18419c-0.48573,0.02141 -1.31181,0.0612 -2.09792,-0.11914c-0.81292,-0.18648 -1.57823,-0.59368 -1.57823,-0.59368l0.91589,-0.13932c0,0 0.76622,0.33161 1.41595,0.38357c0.5015,0.04012 0.38254,0.01121 1.20183,-0.03758c0.54096,0.04624 1.46442,-0.49075 1.46442,-0.49075l0.79135,0.02895c0,0 -1.17398,0.92656 -2.11328,0.96796z" data-paper-data="{&quot;index&quot;:null}" fill="#afafaf" stroke-width="0.25"/><path d="M239.36837,199.19189c-0.48573,0.02141 -1.31181,0.0612 -2.09792,-0.11914c-0.81292,-0.18648 -1.57823,-0.59368 -1.57823,-0.59368l0.91591,-0.13933c0,0 0.76622,0.33161 1.41594,0.38357c0.5015,0.04012 0.38254,0.01122 1.20183,-0.03758c0.54096,0.04624 1.46442,-0.49075 1.46442,-0.49075l0.79135,0.02895c0,0 -1.17398,0.92656 -2.11328,0.96796z" data-paper-data="{&quot;index&quot;:null}" fill="#afafaf" stroke-width="0.25"/><path d="M234.76773,198.10078l-0.42342,-1.69368" fill="none" stroke-width="0.25"/><path d="M233.49748,163.52156l0.42342,-1.27026" fill="none" stroke-width="0.25"/><path d="M198.05732,192.39874c0,0 1.42728,2.56975 1.96621,3.31597c0.39222,0.54309 0.54607,0.7018 0.54607,0.7018c0,0 0.39393,0.36338 0.82678,0.61487c0.47114,0.27373 0.98837,0.44098 1.0939,0.53513c0.20523,0.18312 0.05527,0.2708 0.05527,0.2708l-1.91009,-0.7998c0,0 -0.41599,-0.32546 -0.72979,-0.70941c-0.25582,-0.31301 -0.44345,-0.64912 -0.62326,-1.00873c-0.42605,-0.85211 -1.22509,-2.92064 -1.22509,-2.92064z" fill="#650000" stroke-width="0.25"/><path d="M199.38506,164.44761c0.1798,-0.35961 0.36743,-0.69572 0.62326,-1.00873c0.31382,-0.38396 0.72979,-0.70941 0.72979,-0.70941l1.91009,-0.7998c0,0 0.14996,0.08768 -0.05527,0.2708c-0.10553,0.09416 -0.62278,0.2614 -1.09391,0.53513c-0.43285,0.25149 -0.82678,0.61487 -0.82678,0.61487c0,0 -0.15384,0.15871 -0.54606,0.7018c-0.53894,0.74622 -1.96622,3.31597 -1.96622,3.31597c0,0 0.79904,-2.06853 1.22509,-2.92064z" data-paper-data="{&quot;index&quot;:null}" fill="#670000" stroke-width="0.25"/></g></g></g></svg>