<svg version="1.1" xmlns="http://www.w3.org/2000/svg" xmlns:xlink="http://www.w3.org/1999/xlink" width="254.92288" height="54.57292" viewBox="0,0,254.92288,54.57292"><defs><linearGradient x1="240" y1="152.94583" x2="240" y2="207.05417" gradientUnits="userSpaceOnUse" id="color-1"><stop offset="0" stop-color="#66ffd1"/><stop offset="1" stop-color="#57da8a"/></linearGradient><radialGradient cx="267.79817" cy="190.33696" r="9.96512" gradientUnits="userSpaceOnUse" id="color-2"><stop offset="0" stop-color="#669bff"/><stop offset="1" stop-color="#3f76ff"/></radialGradient></defs><g transform="translate(-201.07621,-152.48125)"><g data-paper-data="{&quot;isPaintingLayer&quot;:true}" fill-rule="nonzero" stroke-linejoin="miter" stroke-miterlimit="10" stroke-dasharray="" stroke-dashoffset="0" style="mix-blend-mode: normal"><path d="M205.07621,207.05417c-2.20914,0 -4,-1.79086 -4,-4v-46.10834c0,-2.20914 1.79086,-4 4,-4h69.84758c2.20914,0 4,1.79086 4,4v46.10834c0,2.20914 -1.79086,4 -4,4z" fill="url(#color-1)" stroke="none" stroke-width="0.25" stroke-linecap="butt"/><text transform="translate(202.37001,174.23125) scale(0.5,0.5)" font-size="40" xml:space="preserve" fill="#2865ff" fill-rule="nonzero" stroke="none" stroke-width="1" stroke-linecap="butt" stroke-linejoin="miter" stroke-miterlimit="10" stroke-dasharray="" stroke-dashoffset="0" font-family="Sans Serif" font-weight="normal" text-anchor="start" style="mix-blend-mode: normal"><tspan x="0" dy="0">Rootate</tspan><tspan x="0" dy="46.150000000000006px">for all</tspan></text><g stroke="#000000" stroke-width="0.5"><path d="M257.83305,190.33696c0,-5.50358 4.46154,-9.96512 9.96512,-9.96512c5.50358,0 9.96512,4.46154 9.96512,9.96512c0,5.50358 -4.46154,9.96512 -9.96512,9.96512c-5.50358,0 -9.96512,-4.46154 -9.96512,-9.96512z" fill="url(#color-2)" stroke-linecap="butt"/><path d="M263.99494,181.15513l7.60645,18.36368" fill="none" stroke-linecap="round"/><path d="M276.98,194.14022l-18.36365,-7.6065" fill="none" stroke-linecap="round"/><path d="M276.98001,186.53373l-18.36368,7.60646" fill="none" stroke-linecap="round"/><path d="M271.60142,181.15513l-7.6065,18.36365" fill="none" stroke-linecap="round"/></g><path d="M452.46246,186.62648v-2.12198h3.53663v2.12198z" fill="none" stroke="none" stroke-width="0" stroke-linecap="butt"/></g></g></svg>