<svg xmlns="http://www.w3.org/2000/svg" xmlns:xlink="http://www.w3.org/1999/xlink" version="1.1" width="273.2912878417969" height="108.89999908447265" viewBox="-3.099441525655777e-8 -3.099441525655777e-8 273.2912878417969 108.89999908447265"><g><g data-paper-data="{&quot;isPaintingLayer&quot;:true}" fill-rule="nonzero" stroke-linecap="none" stroke-linejoin="none" stroke-miterlimit="10" stroke-dasharray="" stroke-dashoffset="0" font-family="none" font-weight="none" font-size="none" text-anchor="none" style="mix-blend-mode: normal"><g data-paper-data="{&quot;index&quot;:null}" id="Tire-1"><path d="M 234.365 86.785 C 235.919 88.338 236.88 90.483 236.88 92.85 C 236.88 95.217 235.919 97.362 234.365 98.915 C 232.812 100.469 230.667 101.43 228.3 101.43 C 225.933 101.43 223.788 100.469 222.235 98.915 C 220.681 97.362 219.72 95.217 219.72 92.85 C 219.72 90.483 220.681 88.338 222.235 86.785 C 223.788 85.231 225.933 84.27 228.3 84.27 C 230.667 84.27 232.812 85.231 234.365 86.785 Z " id="Oval" fill="#f7c1d8" stroke="none" stroke-width="1" stroke-linecap="butt" stroke-linejoin="miter"/><path d="M 228.3 78.18 C 236.584 78.18 243.3 84.896 243.3 93.18 C 243.3 101.464 236.584 108.18 228.3 108.18 C 220.016 108.18 213.3 101.464 213.3 93.18 C 213.3 84.896 220.016 78.18 228.3 78.18 Z M 228.3 100.56 C 232.401 100.461 235.655 97.074 235.589 92.973 C 235.524 88.872 232.163 85.59 228.061 85.622 C 223.96 85.655 220.651 88.988 220.65 93.09 C 220.649 95.103 221.461 97.031 222.901 98.437 C 224.341 99.843 226.288 100.609 228.3 100.56 Z " id="Shape" fill="#5e154d" stroke="#5e154d" stroke-width="1.44" stroke-linecap="round" stroke-linejoin="round"/><path d="M 231.015 90.375 C 231.71 91.071 232.14 92.031 232.14 93.09 C 232.14 94.149 231.71 95.109 231.015 95.805 C 230.319 96.5 229.359 96.93 228.3 96.93 C 227.241 96.93 226.281 96.5 225.585 95.805 C 224.89 95.109 224.46 94.149 224.46 93.09 C 224.46 92.031 224.89 91.071 225.585 90.375 C 226.281 89.68 227.241 89.25 228.3 89.25 C 229.359 89.25 230.319 89.68 231.015 90.375 Z " id="Oval" fill="#ffffff" stroke="#da53d6" stroke-width="1.08" stroke-linecap="round" stroke-linejoin="round"/></g><g data-paper-data="{&quot;index&quot;:null}" id="Tire-2"><path d="M 98.88 81.12 C 105.507 81.12 110.88 86.493 110.88 93.12 C 110.88 99.747 105.507 105.12 98.88 105.12 C 92.253 105.12 86.88 99.747 86.88 93.12 C 86.88 86.493 92.253 81.12 98.88 81.12 Z " id="Path" fill="#f7c1d8" stroke="none" stroke-width="1" stroke-linecap="butt" stroke-linejoin="miter"/><path d="M 98.88 78.18 C 107.164 78.18 113.88 84.896 113.88 93.18 C 113.88 101.464 107.164 108.18 98.88 108.18 C 90.596 108.18 83.88 101.464 83.88 93.18 C 83.88 84.896 90.596 78.18 98.88 78.18 Z M 98.88 100.56 C 101.901 100.56 104.625 98.74 105.781 95.949 C 106.938 93.157 106.298 89.944 104.162 87.808 C 102.026 85.672 98.813 85.032 96.021 86.189 C 93.23 87.345 91.41 90.069 91.41 93.09 C 91.402 95.074 92.186 96.978 93.589 98.381 C 94.992 99.784 96.896 100.568 98.88 100.56 Z " id="Shape" fill="#5e154d" stroke="#5e154d" stroke-width="1.44" stroke-linecap="round" stroke-linejoin="round"/><path d="M 101.595 90.375 C 102.29 91.071 102.72 92.031 102.72 93.09 C 102.72 94.149 102.29 95.109 101.595 95.805 C 100.899 96.5 99.939 96.93 98.88 96.93 C 97.821 96.93 96.861 96.5 96.165 95.805 C 95.47 95.109 95.04 94.149 95.04 93.09 C 95.04 92.031 95.47 91.071 96.165 90.375 C 96.861 89.68 97.821 89.25 98.88 89.25 C 99.939 89.25 100.899 89.68 101.595 90.375 Z " id="Oval" fill="#ffffff" stroke="#da53d6" stroke-width="1.08" stroke-linecap="round" stroke-linejoin="round"/></g><g data-paper-data="{&quot;index&quot;:null}" id="Tire-3"><path d="M 55.65 81.12 C 62.277 81.12 67.65 86.493 67.65 93.12 C 67.65 99.747 62.277 105.12 55.65 105.12 C 49.023 105.12 43.65 99.747 43.65 93.12 C 43.65 86.493 49.023 81.12 55.65 81.12 Z " id="Path" fill="#f7c1d8" stroke="none" stroke-width="1" stroke-linecap="butt" stroke-linejoin="miter"/><path d="M 55.65 78.18 C 63.934 78.18 70.65 84.896 70.65 93.18 C 70.65 101.464 63.934 108.18 55.65 108.18 C 47.366 108.18 40.65 101.464 40.65 93.18 C 40.65 89.202 42.23 85.386 45.043 82.573 C 47.856 79.76 51.672 78.18 55.65 78.18 Z M 55.65 100.56 C 59.776 100.56 63.12 97.216 63.12 93.09 C 63.12 88.964 59.776 85.62 55.65 85.62 C 51.524 85.62 48.18 88.964 48.18 93.09 C 48.18 97.216 51.524 100.56 55.65 100.56 Z " id="Shape" fill="#5e154d" stroke="#5e154d" stroke-width="1.44" stroke-linecap="round" stroke-linejoin="round"/><path d="M 58.455 90.375 C 59.15 91.071 59.58 92.031 59.58 93.09 C 59.58 94.149 59.15 95.109 58.455 95.805 C 57.759 96.5 56.799 96.93 55.74 96.93 C 54.681 96.93 53.721 96.5 53.025 95.805 C 52.33 95.109 51.9 94.149 51.9 93.09 C 51.9 92.031 52.33 91.071 53.025 90.375 C 53.721 89.68 54.681 89.25 55.74 89.25 C 56.799 89.25 57.759 89.68 58.455 90.375 Z " id="Oval" fill="#ffffff" stroke="#da53d6" stroke-width="1.08" stroke-linecap="round" stroke-linejoin="round"/></g><g data-paper-data="{&quot;index&quot;:null}" id="Group-3" stroke-linejoin="miter"><g id="Group-2"><path d="M 159.9 95.73 L 131.82 95.73 L 131.82 82.56 L 159.9 82.56 Z " id="Rectangle" fill="#fdbb38" stroke-width="1.44" stroke-linecap="butt" stroke="#5e154d"/><path d="M 151.62 82.56 L 151.62 95.73 " id="Path" fill="none" stroke-width="1.08" stroke-linecap="round" stroke="#5e154d"/><path d="M 140.07 82.56 L 140.07 95.73 " id="Path" fill="none" stroke-width="1.08" stroke-linecap="round" stroke="#5e154d"/></g><path d="M 185.19 82.56 L 0.72 82.56 L 0.72 73.17 L 185.19 73.17 Z " id="Rectangle" fill="#ffffff" stroke-width="1.44" stroke-linecap="round" stroke="#5e154d"/><path d="M 185.19 93.09 L 6.99 93.09 L 6.99 82.56 L 185.19 82.56 Z " id="Rectangle" fill="#fdbb38" stroke-width="1.44" stroke-linecap="butt" stroke="#5e154d"/></g><g data-paper-data="{&quot;index&quot;:null}" id="Group"><path d="M 261.9 56.1 L 241.65 44.7 L 240.72 40.29 C 240.72 40.29 258.99 50.4 262.92 52.62 C 267.39 55.11 267.36 57.27 267.36 62.58 L 267.36 93.09 L 264.18 93.09 L 264.18 62.28 C 264.12 59.58 264.03 57.36 261.9 56.1 Z " id="Path" fill="#25b0b7" stroke="none" stroke-width="1" stroke-linecap="butt" stroke-linejoin="miter"/><path d="M 225.69 0.72 C 230.04 0.72 231.9 1.89 232.92 6.45 C 233.13 7.53 233.64 9.69 234.24 12.45 L 230.55 12.45 C 229.314 12.466 228.316 13.464 228.3 14.7 L 228.3 36.03 C 228.3 37.278 229.303 38.294 230.55 38.31 L 240.18 38.31 L 240.66 40.29 L 241.65 44.7 L 261.96 56.1 C 264.09 57.3 264.18 59.58 264.18 62.28 L 264.18 93.09 L 247.29 93.09 C 247.29 82.784 238.936 74.43 228.63 74.43 C 218.324 74.43 209.97 82.784 209.97 93.09 L 185.25 93.09 L 185.25 0.72 Z " id="Path" fill="#43c3d7" stroke="none" stroke-width="1" stroke-linecap="butt" stroke-linejoin="miter"/><path d="M 203.94 47.7 L 194.58 47.7 L 194.58 44.16 L 203.94 44.16 Z " id="Rectangle" fill="none" stroke="#009cc6" stroke-width="1.08" stroke-linecap="round" stroke-linejoin="round"/><path d="M 256.83 82.59 L 250.83 82.59 L 250.83 79.26 L 256.83 79.26 Z " id="Rectangle" fill="none" stroke="#5e154d" stroke-width="1.44" stroke-linecap="round" stroke-linejoin="round"/><path d="M 192.87 7.41 L 220.65 7.41 C 222.068 7.426 223.214 8.572 223.23 9.99 L 223.23 69.69 C 214.525 71.075 207.611 77.749 205.92 86.4 L 192.84 86.4 C 191.422 86.384 190.276 85.238 190.26 83.82 L 190.26 9.99 C 190.276 8.56 191.44 7.41 192.87 7.41 Z " id="Path" fill="none" stroke="#009cc6" stroke-width="1.08" stroke-linecap="round" stroke-linejoin="round"/><path d="M 219.12 53.04 L 215.64 53.04 L 215.64 46.59 L 219.12 46.59 Z " id="Rectangle" fill="none" stroke="#009cc6" stroke-width="1.08" stroke-linecap="round" stroke-linejoin="round"/><path d="M 194.55 12.45 L 197.4 12.45 L 206.43 38.31 L 194.55 38.31 L 194.55 12.45 " id="Path" fill="#f7c1d8" stroke="none" stroke-width="1" stroke-linecap="butt" stroke-linejoin="miter"/><path d="M 219 12.45 L 219 38.31 L 215.34 38.31 L 206.31 12.45 L 219 12.45 " id="Path" fill="#f7c1d8" stroke="none" stroke-width="1" stroke-linecap="butt" stroke-linejoin="miter"/><path d="M 206.31 12.45 L 215.34 38.31 L 210.81 38.31 L 201.75 12.45 L 206.31 12.45 " id="Path" fill="#ffeef6" stroke="none" stroke-width="1" stroke-linecap="butt" stroke-linejoin="miter"/><path d="M 230.55 12.36 L 234.24 12.36 C 236.07 20.37 239.07 33.36 240.24 38.22 L 236.82 38.22 L 228.39 14.22 C 228.596 13.177 229.488 12.409 230.55 12.36 Z " id="Path" fill="#f7c1d8" stroke="none" stroke-width="1" stroke-linecap="butt" stroke-linejoin="miter"/><path d="M 234.24 38.31 L 230.55 38.31 C 229.303 38.294 228.3 37.278 228.3 36.03 L 228.3 20.7 Z " id="Path" fill="#f7c1d8" stroke="none" stroke-width="1" stroke-linecap="butt" stroke-linejoin="miter"/><path d="M 228.3 14.7 C 228.285 14.55 228.285 14.4 228.3 14.25 L 236.73 38.25 L 234.21 38.25 L 228.21 20.64 Z " id="Path" fill="#ffeef6" stroke="none" stroke-width="1" stroke-linecap="butt" stroke-linejoin="miter"/><path d="M 201.75 12.45 L 210.81 38.31 L 208.44 38.31 L 199.41 12.45 L 201.75 12.45 " id="Path" fill="#f7c1d8" stroke="none" stroke-width="1" stroke-linecap="butt" stroke-linejoin="miter"/><path d="M 199.41 12.45 L 208.44 38.31 L 206.43 38.31 L 197.4 12.45 L 199.41 12.45 " id="Path" fill="#ffeef6" stroke="none" stroke-width="1" stroke-linecap="butt" stroke-linejoin="miter"/><path d="M 239.88 6.54 C 241.14 6.54 241.44 7.86 242.16 10.26 C 243.15 13.59 244.83 19.98 244.83 19.98 L 240.18 19.98 L 236.88 6.54 Z " id="Path" fill="#43c3d7" stroke="#5e154d" stroke-width="1.08" stroke-linecap="round" stroke-linejoin="round"/><path d="M 236.88 6.54 L 237.75 10.02 L 233.7 10.02 L 232.92 6.54 L 236.88 6.54 " id="Path" fill="#43c3d7" stroke="#5e154d" stroke-width="1.08" stroke-linecap="round" stroke-linejoin="round"/><path d="M 225.69 0.72 C 230.04 0.72 231.9 1.89 232.92 6.45 C 233.13 7.53 233.64 9.69 234.24 12.45 C 236.07 20.46 239.07 33.45 240.24 38.31 L 240.72 40.29 C 240.72 40.29 258.99 50.4 262.92 52.62 C 267.39 55.11 267.36 57.27 267.36 62.58 L 267.36 93.09 L 247.29 93.09 C 247.29 82.784 238.936 74.43 228.63 74.43 C 218.324 74.43 209.97 82.784 209.97 93.09 L 185.25 93.09 L 185.25 0.72 Z " id="Path" fill="none" stroke="#5e154d" stroke-width="1.44" stroke-linecap="butt" stroke-linejoin="round"/><path d="M 219 38.31 L 194.55 38.31 L 194.55 12.45 L 219 12.45 Z " id="Rectangle" fill="none" stroke="#5e154d" stroke-width="1.08" stroke-linecap="round" stroke-linejoin="round"/><path d="M 225.69 0.72 C 230.04 0.72 231.9 1.89 232.92 6.45 C 233.13 7.53 233.64 9.69 234.24 12.45 C 236.07 20.46 239.07 33.45 240.24 38.31 L 240.72 40.29 C 240.72 40.29 258.99 50.4 262.92 52.62 C 267.39 55.11 267.36 57.27 267.36 62.58 L 267.36 93.09 L 247.29 93.09 C 247.29 82.784 238.936 74.43 228.63 74.43 C 218.324 74.43 209.97 82.784 209.97 93.09 L 185.25 93.09 L 185.25 0.72 Z " id="Path" fill="none" stroke="#5e154d" stroke-width="1.44" stroke-linecap="round" stroke-linejoin="round"/><path d="M 228.33 14.25 C 228.565 13.209 229.483 12.465 230.55 12.45 L 234.24 12.45 C 236.07 20.46 239.07 33.45 240.24 38.31 L 230.55 38.31 C 229.303 38.294 228.3 37.278 228.3 36.03 L 228.3 14.7 C 228.295 14.549 228.305 14.399 228.33 14.25 Z " id="Path" fill="none" stroke="#5e154d" stroke-width="1.08" stroke-linecap="round" stroke-linejoin="round"/><path d="M 269.55 85.02 L 269.55 87.81 L 256.32 87.81 L 255.72 85.02 L 269.55 85.02 " id="Path" fill="#00828c" stroke="#5e154d" stroke-width="1.08" stroke-linecap="round" stroke-linejoin="round"/><path d="M 269.55 90.27 L 256.83 90.27 L 256.32 87.81 L 269.55 87.81 L 269.55 90.27 " id="Path" fill="#00828c" stroke="#5e154d" stroke-width="1.08" stroke-linecap="round" stroke-linejoin="round"/><path d="M 255.21 82.56 L 269.55 82.56 L 269.55 85.02 L 255.72 85.02 L 255.21 82.56 " id="Path" fill="#00828c" stroke="#5e154d" stroke-width="1.08" stroke-linecap="round" stroke-linejoin="round"/><path d="M 267.3 67.32 L 269.55 67.32 C 271.29 67.32 272.04 69.87 272.34 72.45 L 267.3 72.45 Z " id="Path" fill="#fdbb38" stroke="none" stroke-width="1" stroke-linecap="butt" stroke-linejoin="miter"/><path d="M 272.34 72.36 C 272.541 74.062 272.611 75.777 272.55 77.49 L 267.3 77.49 L 267.3 72.36 Z " id="Path" fill="#ffffff" stroke="none" stroke-width="1" stroke-linecap="butt" stroke-linejoin="miter"/><path d="M 269.55 67.32 C 271.29 67.32 272.04 69.87 272.34 72.45 C 272.541 74.152 272.611 75.867 272.55 77.58 L 267.3 77.58 L 267.3 67.32 Z " id="Path" fill="none" stroke="#5e154d" stroke-width="1.44" stroke-linecap="round" stroke-linejoin="round"/></g></g></g></svg>