<svg version="1.1" xmlns="http://www.w3.org/2000/svg" xmlns:xlink="http://www.w3.org/1999/xlink" width="92.53158" height="69.4413" viewBox="0,0,92.53158,69.4413"><defs><linearGradient x1="272.79045" y1="225.86207" x2="272.79045" y2="238.71733" gradientUnits="userSpaceOnUse" id="color-1"><stop offset="0" stop-color="#3dff8e"/><stop offset="1" stop-color="#259955"/></linearGradient></defs><g transform="translate(-239.95474,-178.88355)"><g data-paper-data="{&quot;isPaintingLayer&quot;:true}" fill-rule="nonzero" stroke-linecap="butt" stroke-linejoin="miter" stroke-miterlimit="10" stroke-dasharray="" stroke-dashoffset="0" style="mix-blend-mode: normal"><path d="M245.34921,247.57485c-2.56507,0 -4.64447,-1.82693 -4.64447,-4.08056v-59.78019c0,-2.25363 2.0794,-4.08055 4.64447,-4.08055h81.74264c2.56507,0 4.64447,1.82692 4.64447,4.08055v59.78019c0,2.25363 -2.0794,4.08056 -4.64447,4.08056z" fill-opacity="0.47451" fill="#1251ff" stroke="#1353ff" stroke-width="1.5"/><text transform="translate(244.16389,192.96051) scale(0.30113,0.30113)" font-size="40" xml:space="preserve" fill-opacity="0.89412" fill="#ffffff" fill-rule="nonzero" stroke="none" stroke-width="1" stroke-linecap="butt" stroke-linejoin="miter" stroke-miterlimit="10" stroke-dasharray="" stroke-dashoffset="0" font-family="Sans Serif" font-weight="normal" text-anchor="start" style="mix-blend-mode: normal"><tspan x="0" dy="0">Ferrari F40</tspan><tspan x="0" dy="48px"> </tspan><tspan x="0" dy="48px"> </tspan><tspan x="0" dy="48px">300</tspan></text><g stroke="none"><path d="M266.36282,232.2897c0,-3.54988 2.87775,-6.42763 6.42763,-6.42763c3.54988,0 6.42763,2.87775 6.42763,6.42763c0,3.54988 -2.87775,6.42763 -6.42763,6.42763c-3.54988,0 -6.42763,-2.87775 -6.42763,-6.42763z" fill="url(#color-1)" stroke-width="0"/><text transform="translate(268.783,236.96318) scale(0.33783,0.33783)" font-size="40" xml:space="preserve" fill="#000000" fill-rule="nonzero" stroke="none" stroke-width="1" stroke-linecap="butt" stroke-linejoin="miter" stroke-miterlimit="10" stroke-dasharray="" stroke-dashoffset="0" font-family="Sans Serif" font-weight="normal" text-anchor="start" style="mix-blend-mode: normal"><tspan x="0" dy="0">$</tspan></text></g></g></g></svg>