<svg version="1.1" xmlns="http://www.w3.org/2000/svg" xmlns:xlink="http://www.w3.org/1999/xlink" width="96.06768" height="46.65801" viewBox="0,0,96.06768,46.65801"><defs><radialGradient cx="236.01799" cy="188.70173" r="8.04758" gradientUnits="userSpaceOnUse" id="color-1"><stop offset="0" stop-color="#00bfba"/><stop offset="1" stop-color="#2100bf"/></radialGradient></defs><g transform="translate(-191.96616,-156.671)"><g data-paper-data="{&quot;isPaintingLayer&quot;:true}" fill-rule="nonzero" stroke-linejoin="miter" stroke-miterlimit="10" stroke-dasharray="" stroke-dashoffset="0" style="mix-blend-mode: normal"><g><path d="M193.66251,189.05162c0,0 -1.58761,-4.10344 -1.43616,-8.89234c0.15277,-4.62354 1.89507,-9.77592 1.89507,-9.77592c0,0 0.685,-5.08586 0.90379,-6.29179c0.09332,-0.5144 0.292,-1.39876 0.84044,-2.16975c0.57588,-0.80959 1.68071,-1.66891 1.68071,-1.66891c0,0 5.9853,-0.84446 9.80157,-0.84446c3.97957,0 11.98385,1.01918 11.98385,1.01918l41.14816,0.28391c0,0 7.10401,-1.22784 9.64271,-1.26903c2.19199,-0.03557 8.66907,0.86152 8.66907,0.86152c0,0 2.82711,1.23043 3.88969,1.83723c1.06558,0.89607 1.5792,2.13758 1.5792,2.13758l1.63015,5.7584c0,0 1.89308,3.36366 1.89308,9.988c0,6.55639 -1.99826,9.68224 -1.99826,9.68224l-1.62537,5.51749c0,0 -0.40625,1.37711 -1.21028,1.98689c-0.93527,0.70933 -4.60828,2.19044 -4.60828,2.19044c0,0 -5.46684,1.18097 -7.94706,1.20405c-2.54071,0.02364 -9.82452,-0.88918 -9.82452,-0.88918l-40.93781,-0.12376c0,0 -7.76666,1.01918 -11.86366,1.01918c-3.71914,0 -10.71303,-1.01918 -10.71303,-1.01918c0,0 -1.08231,-0.73938 -1.34601,-1.47753c-0.25637,-0.71766 -0.67445,-1.56263 -0.77323,-2.10407c-0.20335,-1.11465 -1.27382,-6.96018 -1.27382,-6.96018z" fill="#517fcd" stroke="#000000" stroke-width="0.5" stroke-linecap="round"/><path d="M245.03365,169.58525c0,0 0.98447,-1.95104 3.03468,-2.63014c2.37409,-0.78638 10.38125,-2.62908 10.38125,-2.62908c0,0 2.93888,0.37511 4.13506,4.00775c0.99469,3.02077 1.31308,9.11671 1.29097,11.54622c-0.02142,2.35385 -0.36798,9.05836 -1.24692,12.10923c-1.13297,3.93263 -3.88587,3.99944 -3.88587,3.99944c0,0 -8.46501,-2.33197 -10.62742,-3.06797c-2.38539,-0.8119 -3.08175,-2.20962 -3.08175,-2.20962z" fill="#4c5e73" stroke="#000000" stroke-width="0.5" stroke-linecap="round"/><path d="M199.9793,199.03365l-1.69919,-0.66357c0,0 -0.68202,-0.54755 -1.61549,-1.79066c-1.03814,-1.45878 -2.13357,-4.12966 -1.80064,-3.9725c0.43509,0.20539 2.33967,4.5029 3.91062,4.70951c4.03983,0.53128 11.66648,0.85624 19.40933,0.76038c5.7512,-0.07119 10.34709,0.12094 15.34398,0.06144c10.57893,-0.12598 19.56543,-0.38321 19.56543,-0.38321c0,0 9.59572,-1.23424 13.74506,-2.60878c5.89074,-1.95141 18.15626,-8.51223 18.15626,-8.51223c0,0 -2.15367,5.73846 -3.19848,7.27903c-1.16222,1.71367 -5.4615,3.87332 -5.4615,3.87332c0,0 -3.35691,0.18131 -6.55886,0.29196c-4.21793,0.14576 -16.55145,0.50662 -16.55145,0.50662c0,0 -12.20596,0.20048 -19.58508,0.25496c-2.62474,0.01938 -7.78362,-0.21535 -13.12312,-0.02034c-4.63881,0.16941 -9.19157,0.77224 -12.55976,0.78415c-7.1083,0.02516 -7.97711,-0.57007 -7.97711,-0.57007z" data-paper-data="{&quot;index&quot;:null}" fill="#ffffff" stroke="none" stroke-width="0" stroke-linecap="round"/><path d="M256.12625,196.91377c0,0 -13.94712,0.88104 -18.21114,0.92722c-6.93363,0.07509 -19.4307,-0.51954 -19.4307,-0.51954c0,0 -1.68274,-0.07127 -2.30292,-0.24491c-0.47018,-0.13165 -1.67675,-0.63352 -1.67675,-0.63352l-0.73813,-1.02536c0,0 1.50567,-0.52721 3.37908,-1.14337c1.89771,-0.62413 4.07858,-1.2376 6.77301,-1.58868c3.8008,-0.49524 6.56374,-0.50865 10.42725,-0.30667c3.81372,0.02528 10.05186,1.36752 10.05186,1.36752c0,0 9.39269,2.27605 11.25949,2.79103c2.05579,0.56711 0.46895,0.37627 0.46895,0.37627z" fill="#4c5e73" stroke="#000000" stroke-width="0.5" stroke-linecap="round"/><path d="M255.41269,163.1746c-1.86681,0.51499 -11.25949,2.79103 -11.25949,2.79103c0,0 -6.23813,1.34224 -10.05186,1.36752c-3.86352,0.20198 -6.62645,0.18858 -10.42725,-0.30666c-2.69444,-0.35108 -4.8753,-0.96455 -6.77301,-1.58868c-1.87341,-0.61615 -3.37908,-1.14337 -3.37908,-1.14337l0.73813,-1.02536c0,0 1.20657,-0.50188 1.67675,-0.63352c0.62018,-0.17366 2.30292,-0.24491 2.30292,-0.24491c0,0 12.49707,-0.59463 19.4307,-0.51954c4.26404,0.04618 18.21115,0.92722 18.21115,0.92722c0,0 1.58683,-0.19084 -0.46895,0.37627z" data-paper-data="{&quot;index&quot;:null}" fill="#4c5e73" stroke="#000000" stroke-width="0.5" stroke-linecap="round"/><path d="M199.9793,160.90992c0,0 0.86881,-0.59522 7.97711,-0.57006c3.36819,0.01192 7.92095,0.61474 12.55976,0.78415c5.3395,0.195 10.49838,-0.03972 13.12312,-0.02034c7.37912,0.05447 19.58508,0.25495 19.58508,0.25495c0,0 12.33352,0.36086 16.55145,0.50662c3.20195,0.11065 6.55886,0.29196 6.55886,0.29196c0,0 4.29927,2.15965 5.4615,3.87332c1.04481,1.54057 3.19848,7.27903 3.19848,7.27903c0,0 -12.26552,-6.56082 -18.15626,-8.51223c-4.14934,-1.37455 -13.74506,-2.60879 -13.74506,-2.60879c0,0 -8.9865,-0.25723 -19.56543,-0.38321c-4.99688,-0.05951 -9.59277,0.13262 -15.34398,0.06143c-7.74286,-0.09586 -15.3695,0.2291 -19.40933,0.76038c-1.57095,0.2066 -3.47553,4.50411 -3.91062,4.70951c-0.33293,0.15717 0.7625,-2.51371 1.80064,-3.97249c0.93347,-1.24311 1.61549,-1.79066 1.61549,-1.79066z" fill="#ffffff" stroke="none" stroke-width="0" stroke-linecap="round"/><path d="M216.49967,170.77182l-0.4148,18.54915c0,0 0.08773,0.80151 -0.72611,1.23424c-2.10023,1.11673 -6.68323,2.66167 -8.12061,3.05722c-1.88866,0.51973 -2.40482,-0.46952 -2.40482,-0.46952c0,0 -2.12403,-3.071 -2.5644,-13.45192c0.95886,-10.40685 2.71995,-13.60741 2.71995,-13.60741c0,0 0.45258,-0.82147 1.94386,-0.46496c1.5184,0.36299 6.18452,2.23818 8.47485,3.62014c0.90731,0.54746 1.09208,1.53307 1.09208,1.53307z" fill="#4c5e73" stroke="#000000" stroke-width="0.5" stroke-linecap="round"/><path d="M197.87142,195.80013c0,0 -1.6988,-1.72803 -2.77332,-3.73375c-1.14952,-2.14572 -1.78522,-4.04911 -1.78522,-4.04911" fill="none" stroke="#000000" stroke-width="0.5" stroke-linecap="round"/><path d="M193.8688,170.89499c0,0 0.6357,-1.9034 1.78522,-4.0491c1.07452,-2.00572 2.77332,-3.73375 2.77332,-3.73375" data-paper-data="{&quot;index&quot;:null}" fill="none" stroke="#000000" stroke-width="0.5" stroke-linecap="round"/><path d="M260.82431,165.17644c0,0 0.66087,-1.12866 1.02242,-1.50594c0.29422,-0.30701 1.14991,-0.83527 1.14991,-0.83527c0,0 0.70342,-0.16436 1.4811,-0.06826c2.25697,0.2789 14.7469,1.40534 14.7469,1.40534c0,0 1.24954,0.40297 1.46026,1.19808c0.79271,2.99095 2.31968,10.62355 2.35217,14.83966c0.02917,3.78412 -1.8287,11.41907 -2.65391,14.74114c-0.31732,1.27747 -1.19616,1.23743 -1.19616,1.23743c0,0 -12.20769,0.84421 -14.46466,1.12311c-0.77768,0.0961 -1.4811,-0.06826 -1.4811,-0.06826c0,0 -0.85569,-0.52826 -1.14991,-0.83527c-0.36155,-0.37727 -0.85934,-1.26134 -0.85934,-1.26134" fill="none" stroke="#000000" stroke-width="0.25" stroke-linecap="round"/><path d="M282.00551,196.67173c0,0 -1.45641,0.76018 -2.16435,1.02566c-0.50988,0.19121 -1.51228,0.43037 -1.9621,0.45772c-0.295,0.01793 -0.16227,-0.15028 -0.16227,-0.15028c0,0 2.79523,-1.08867 4.02525,-2.59667c1.17249,-1.43745 3.35363,-6.08678 3.35363,-6.08678c0,0 -0.98079,3.18432 -1.44077,4.42187c-0.1962,0.52784 -0.49048,1.30795 -0.82495,1.84598c-0.31556,0.5076 -0.82444,1.0825 -0.82444,1.0825z" fill="#ffffff" stroke="#000000" stroke-width="0.25" stroke-linecap="round"/><path d="M282.20935,163.49195c0,0 0.50886,0.57489 0.82444,1.0825c0.33447,0.53803 0.62877,1.31813 0.82495,1.84598c0.45998,1.23755 1.44077,4.42187 1.44077,4.42187c0,0 -2.18115,-4.64932 -3.35364,-6.08678c-1.23003,-1.508 -4.02525,-2.59667 -4.02525,-2.59667c0,0 -0.13273,-0.16821 0.16227,-0.15027c0.44983,0.02735 1.45223,0.26651 1.9621,0.45772c0.70795,0.26548 2.16435,1.02566 2.16435,1.02566z" data-paper-data="{&quot;index&quot;:null}" fill="#ffffff" stroke="#000000" stroke-width="0.25" stroke-linecap="round"/><path d="M256.15669,196.69099l-0.48921,1.52878c0,0 0.41316,0.8918 0.137,1.23853c-0.25408,0.31901 -0.74451,1.54467 -1.45596,2.16214c-1.04298,0.90522 -2.16667,1.45065 -2.16667,1.45065l-0.89688,-0.1223c0,0 -0.58689,-0.36254 -0.39505,-0.83878c0.3186,-0.79089 1.45499,-3.27872 1.45499,-3.27872c0,0 0.41348,-0.70538 0.71379,-0.86084c0.35084,-0.18159 1.20218,-0.16255 1.20218,-0.16255l0.30576,-1.52878z" fill="#517fcd" stroke="#000000" stroke-width="0.5" stroke-linecap="round"/><path d="M253.88723,163.7209l-0.30576,-1.52878c0,0 -0.85134,0.01904 -1.20218,-0.16255c-0.30031,-0.15546 -0.71379,-0.86084 -0.71379,-0.86084c0,0 -1.13639,-2.48784 -1.45499,-3.27872c-0.19186,-0.47624 0.39505,-0.83878 0.39505,-0.83878l0.89688,-0.1223c0,0 1.12369,0.54543 2.16667,1.45065c0.71143,0.61747 1.20187,1.84313 1.45596,2.16214c0.27616,0.34673 -0.13701,1.23853 -0.13701,1.23853l0.48921,1.52878z" data-paper-data="{&quot;index&quot;:null}" fill="#517fcd" stroke="#000000" stroke-width="0.5" stroke-linecap="round"/><path d="M287.47592,175.85406c0,0 -3.77628,-1.25075 -5.40966,-1.83876c-1.75513,-0.63185 -5.73341,-3.18921 -5.73341,-3.18921" fill="none" stroke="#000000" stroke-width="0.5" stroke-linecap="round"/><path d="M276.19696,189.1714c0,0 3.97828,-2.55736 5.73341,-3.18921c1.63338,-0.58802 5.40966,-1.83876 5.40966,-1.83876" data-paper-data="{&quot;index&quot;:null}" fill="none" stroke="#000000" stroke-width="0.5" stroke-linecap="round"/><path d="M269.07734,194.73829c0,0 -4.27529,1.47374 -6.46363,1.85443c-1.71774,0.29883 -6.60046,0.91127 -6.60046,0.91127" fill="none" stroke="#000000" stroke-width="0.5" stroke-linecap="round"/><path d="M255.21026,162.49505c0,0 4.88271,0.61244 6.60046,0.91126c2.18834,0.38069 6.46363,1.85443 6.46363,1.85443" data-paper-data="{&quot;index&quot;:null}" fill="none" stroke="#000000" stroke-width="0.5" stroke-linecap="round"/><path d="M197.13749,164.75004h4.04955c0,0 1.48476,0.35704 2.07926,0.64357c0.82746,0.3988 1.45391,0.98714 1.45391,0.98714" fill="none" stroke="#000000" stroke-width="0.25" stroke-linecap="round"/><path d="M204.51638,192.87952c0,0 -0.62646,0.58833 -1.45391,0.98714c-0.59451,0.28652 -2.07926,0.64357 -2.07926,0.64357h-4.04955" data-paper-data="{&quot;index&quot;:null}" fill="none" stroke="#000000" stroke-width="0.25" stroke-linecap="round"/><path d="M215.89905,196.96806c0,0 -2.50044,0.53532 -5.00641,0.23593c-1.74756,-0.14785 -4.16235,-0.89641 -4.89873,-1.36704c-1.67543,-1.07077 -2.13406,-4.81803 -2.13406,-4.81803" fill="none" stroke="#000000" stroke-width="0.5" stroke-linecap="round"/><path d="M204.18071,168.46664c0,0 0.4331,-3.53863 2.01523,-4.54977c0.69538,-0.44442 2.97573,-1.1513 4.62599,-1.29093c2.36643,-0.28271 4.72766,0.22279 4.72766,0.22279" data-paper-data="{&quot;index&quot;:null}" fill="none" stroke="#000000" stroke-width="0.5" stroke-linecap="round"/><path d="M217.09989,160.40153l-0.40768,2.17426" fill="none" stroke="#000000" stroke-width="0.25" stroke-linecap="round"/><path d="M216.964,197.22803l0.67945,2.44604" fill="none" stroke="#000000" stroke-width="0.25" stroke-linecap="round"/><path d="M223.74598,160.41785l-0.85717,0.03136c0,0 -1.00026,-0.58166 -1.58621,-0.53157c-0.88742,-0.05286 -0.75858,-0.08414 -1.30178,-0.0407c-0.70375,0.05628 -1.5337,0.41547 -1.5337,0.41547l-0.99207,-0.15092c0,0 0.82896,-0.44106 1.70949,-0.64305c0.85149,-0.19534 1.74627,-0.15224 2.2724,-0.12905c1.01742,0.04484 2.28903,1.04846 2.28903,1.04846z" fill="#5285cc" stroke="#000000" stroke-width="0.25" stroke-linecap="round"/><path d="M240.53472,160.56238l-0.85717,0.03136c0,0 -1.00026,-0.58166 -1.58621,-0.53157c-0.88742,-0.05286 -0.75858,-0.08414 -1.30178,-0.0407c-0.70375,0.05628 -1.53369,0.41547 -1.53369,0.41547l-0.99208,-0.15091c0,0 0.82896,-0.44106 1.70949,-0.64305c0.85149,-0.19534 1.74627,-0.15224 2.2724,-0.12905c1.01742,0.04484 2.28903,1.04846 2.28903,1.04846z" fill="#5285cc" stroke="#000000" stroke-width="0.25" stroke-linecap="round"/><path d="M222.83285,200.77965c-0.52613,0.02319 -1.42091,0.06629 -2.2724,-0.12905c-0.88053,-0.20199 -1.70949,-0.64305 -1.70949,-0.64305l0.99207,-0.15091c0,0 0.82994,0.35919 1.5337,0.41547c0.5432,0.04345 0.41436,0.01214 1.30178,-0.0407c0.58595,0.05008 1.58621,-0.53156 1.58621,-0.53156l0.85717,0.03136c0,0 -1.27161,1.00362 -2.28903,1.04846z" data-paper-data="{&quot;index&quot;:null}" fill="#5281cc" stroke="#000000" stroke-width="0.25" stroke-linecap="round"/><path d="M239.31584,200.78799c-0.52613,0.02319 -1.42091,0.06629 -2.2724,-0.12905c-0.88053,-0.20199 -1.70949,-0.64305 -1.70949,-0.64305l0.99208,-0.15092c0,0 0.82994,0.35919 1.53369,0.41547c0.5432,0.04345 0.41436,0.01216 1.30178,-0.0407c0.58595,0.05008 1.58621,-0.53156 1.58621,-0.53156l0.85717,0.03136c0,0 -1.27161,1.00362 -2.28903,1.04846z" data-paper-data="{&quot;index&quot;:null}" fill="#5281cc" stroke="#000000" stroke-width="0.25" stroke-linecap="round"/><path d="M234.33259,199.60613l-0.45863,-1.83453" fill="none" stroke="#000000" stroke-width="0.25" stroke-linecap="round"/><path d="M232.9567,162.15113l0.45863,-1.3759" fill="none" stroke="#000000" stroke-width="0.25" stroke-linecap="round"/><path d="M194.56914,193.42988c0,0 1.54598,2.78346 2.12973,3.59174c0.42484,0.58826 0.59149,0.76017 0.59149,0.76017c0,0 0.42669,0.3936 0.89554,0.66601c0.51032,0.2965 1.07057,0.47765 1.18487,0.57964c0.2223,0.19835 0.05987,0.29332 0.05987,0.29332l-2.06895,-0.86631c0,0 -0.45059,-0.35252 -0.79049,-0.76841c-0.2771,-0.33905 -0.48033,-0.7031 -0.67509,-1.09262c-0.46148,-0.92298 -1.32698,-3.16354 -1.32698,-3.16354z" fill="#650000" stroke="#000000" stroke-width="0.25" stroke-linecap="round"/><path d="M196.0073,163.15419c0.19475,-0.38952 0.39798,-0.75358 0.67509,-1.09262c0.33991,-0.41589 0.79049,-0.76841 0.79049,-0.76841l2.06895,-0.86631c0,0 0.16243,0.09497 -0.05987,0.29332c-0.1143,0.10199 -0.67457,0.28314 -1.18489,0.57964c-0.46884,0.2724 -0.89554,0.66601 -0.89554,0.66601c0,0 -0.16664,0.17191 -0.59148,0.76017c-0.58376,0.80828 -2.12974,3.59174 -2.12974,3.59174c0,0 0.86549,-2.24056 1.32698,-3.16354z" data-paper-data="{&quot;index&quot;:null}" fill="#670000" stroke="#000000" stroke-width="0.25" stroke-linecap="round"/><text transform="translate(279.75143,184.70208) rotate(-89.56569) scale(0.06728,0.0594) skewX(-0.10625)" font-size="40" xml:space="preserve" data-paper-data="{&quot;index&quot;:null}" fill="#ffffff" fill-rule="nonzero" stroke="none" stroke-width="1" stroke-linecap="butt" stroke-linejoin="miter" stroke-miterlimit="10" stroke-dasharray="" stroke-dashoffset="0" font-family="Sans Serif" font-weight="normal" text-anchor="start" style="mix-blend-mode: normal"><tspan x="0" dy="0">POLIZIA</tspan></text><path d="M232.99703,188.21887v-16.3579c0,0 0.26859,-0.33606 0.68428,-0.38108c1.20162,-0.13014 3.63231,-0.07755 4.35733,-0.07755c0.41705,0 0.74005,0.45863 0.74005,0.45863v16.3579c0,0 -0.21756,0.38219 -0.66361,0.38219c-0.69761,0 -3.09051,0.11743 -4.36385,0.00517c-0.54069,-0.04766 -0.7542,-0.38737 -0.7542,-0.38737z" fill="#0010ca" stroke="#000000" stroke-width="0.5" stroke-linecap="butt"/><path d="M235.02814,186.71178v-12.68884c0,0 0.04117,-0.31954 0.3258,-0.41294c0.35306,-0.11584 0.83828,-0.05746 1.02951,-0.05746c0.27574,0 0.55565,0.47039 0.55565,0.47039v12.68884c0,0 -0.24918,0.19795 -0.5038,0.2606c-0.31284,0.07698 -0.65783,0.02164 -0.85152,0.02164c-0.25216,0 -0.55565,-0.28224 -0.55565,-0.28224z" fill="#ffffff" stroke="#000000" stroke-width="0.5" stroke-linecap="butt"/><path d="M233.18479,175.94567h1.55229" fill="none" stroke="#000000" stroke-width="0.5" stroke-linecap="round"/><path d="M237.042,175.99272h1.3171" fill="none" stroke="#000000" stroke-width="0.5" stroke-linecap="round"/><path d="M237.23016,184.83608h1.36414" fill="none" stroke="#000000" stroke-width="0.5" stroke-linecap="round"/><path d="M233.3259,184.8361l1.50526,-0.00001" fill="none" stroke="#000000" stroke-width="0.5" stroke-linecap="round"/><path d="M243.86184,188.70173c0,4.44455 -3.51181,8.04758 -7.84384,8.04758c-4.33204,0 -7.84384,-3.60303 -7.84384,-8.04758c0,-4.44455 3.51181,-8.04758 7.84384,-8.04758c4.33204,0 7.84384,3.60302 7.84384,8.04758z" fill="url(#color-1)" stroke="none" stroke-width="0" stroke-linecap="butt"/></g></g></g></svg>